<?xml version="1.0" encoding="utf-8"?>
<!-- Generator: Adobe Illustrator 16.0.0, SVG Export Plug-In . SVG Version: 6.00 Build 0)  -->
<!DOCTYPE svg PUBLIC "-//W3C//DTD SVG 1.0//EN" "http://www.w3.org/TR/2001/REC-SVG-20010904/DTD/svg10.dtd">
<svg version="1.0" id="Layer_1" xmlns="http://www.w3.org/2000/svg" xmlns:xlink="http://www.w3.org/1999/xlink" x="0px" y="0px"
	 width="85.291px" height="140.29px" viewBox="0 0 85.291 140.29" enable-background="new 0 0 85.291 140.29" xml:space="preserve">
<path fill="#3C2415" d="M85.465,97.559c0,23.599-19.131,42.731-42.732,42.731l0,0C19.133,140.29,0,121.157,0,97.559V42.732
	C0,19.13,19.133,0,42.732,0l0,0c23.602,0,42.732,19.13,42.732,42.732V97.559z"/>
<path fill="#FFDAA2" d="M15.549,71.588c0,4.106-3.328,7.436-7.436,7.436l0,0c-4.107,0-7.439-3.329-7.439-7.436V65.43
	c0-4.106,3.332-7.436,7.439-7.436l0,0c4.107,0,7.436,3.329,7.436,7.436V71.588z"/>
<path fill="#FED09E" d="M12.863,70.473c0,2.623-2.127,4.752-4.75,4.752l0,0c-2.623,0-4.752-2.129-4.752-4.752v-3.931
	c0-2.624,2.129-4.749,4.752-4.749l0,0c2.623,0,4.75,2.125,4.75,4.749V70.473z"/>
<path fill="#E6BE91" d="M85.291,71.588c0,4.106-3.328,7.436-7.436,7.436l0,0c-4.107,0-7.439-3.329-7.439-7.436V65.43
	c0-4.106,3.332-7.436,7.439-7.436l0,0c4.107,0,7.436,3.329,7.436,7.436V71.588z"/>
<path fill="#DBB58B" d="M82.605,70.476c0,2.62-2.127,4.749-4.75,4.749l0,0c-2.623,0-4.752-2.129-4.752-4.749v-3.934
	c0-2.624,2.129-4.749,4.752-4.749l0,0c2.623,0,4.75,2.125,4.75,4.749V70.476z"/>
<path fill="#FFDAA2" d="M42.984,7.603c-20.039,0-36.281,16.245-36.281,36.282v24.188c0,15.389,9.586,28.531,23.111,33.807v14.57
	c0,5.682,3.604,10.508,8.648,12.354l4.171,7.224l4.323-7.023c5.33-1.686,9.195-6.668,9.195-12.555v-14.57
	c13.523-5.271,23.111-18.415,23.111-33.807V43.885C79.264,23.848,63.021,7.603,42.984,7.603z"/>
<path fill="#3C2415" d="M31.225,57.994c0,1.779-1.445,3.223-3.225,3.223c-1.783,0-3.227-1.443-3.227-3.223
	c0-1.783,1.443-3.225,3.227-3.225C29.779,54.77,31.225,56.211,31.225,57.994z"/>
<path fill="#FED09E" d="M62.409,13.246H42.634v107.855v8.499v6.427l4.322-7.022c0.456-0.144,0.897-0.316,1.329-0.507
	c0.096-0.043,0.188-0.092,0.282-0.136c0.336-0.157,0.664-0.326,0.983-0.511c0.106-0.061,0.209-0.126,0.313-0.189
	c0.307-0.189,0.605-0.39,0.895-0.602c0.09-0.066,0.179-0.131,0.266-0.199c0.313-0.242,0.614-0.498,0.904-0.768
	c0.049-0.046,0.101-0.089,0.149-0.136c1.396-1.336,2.494-2.975,3.197-4.813c0.006-0.015,0.014-0.028,0.02-0.044h-0.004
	c0.549-1.448,0.862-3.012,0.862-4.652v-14.57c13.523-5.271,23.111-18.415,23.111-33.807V43.885
	C79.265,30.994,72.538,19.681,62.409,13.246z"/>
<path fill="#3C2415" d="M61.191,57.994c0,1.779-1.445,3.223-3.225,3.223c-1.783,0-3.225-1.443-3.225-3.223
	c0-1.783,1.441-3.225,3.225-3.225C59.746,54.77,61.191,56.211,61.191,57.994z"/>
<polygon fill="#E6BE91" points="42.633,61.421 42.633,78.957 46.959,76.224 "/>
<polygon fill="#ED1C24" points="49.117,87.7 42.633,90.166 36.146,87.7 "/>
<path fill="#3C2415" d="M33.873,49.78c0,0.473-0.385,0.856-0.857,0.856h-10.48c-0.473,0-0.857-0.384-0.857-0.856l0,0
	c0-0.472,0.385-0.856,0.857-0.856h10.48C33.488,48.924,33.873,49.309,33.873,49.78L33.873,49.78z"/>
<path fill="#3C2415" d="M63.906,49.78c0,0.473-0.385,0.856-0.855,0.856H52.568c-0.473,0-0.857-0.384-0.857-0.856l0,0
	c0-0.472,0.385-0.856,0.857-0.856h10.482C63.521,48.924,63.906,49.309,63.906,49.78L63.906,49.78z"/>
<path fill="#3C2415" d="M66.92,28.018c0,0-7.256,14.715-33.057,14.715c0,0,18.344-5.241,23.383-13.908
	c0,0-19.352,11.69-35.477,13.706c0,0-14.414-2.136-13.656,32.694c0,0,1.16-17.98-3.678-17.576l0.807-29.026L29.025,5.644
	L52.004,5.24l24.189,16.125l6.047,34.871c0,0-3.225,3.629-3.225,14.312c0,0-2.822-19.753-2.822-28.823
	C76.193,41.725,75.789,30.234,66.92,28.018z"/>
</svg>
