<?xml version="1.0" encoding="utf-8"?>
<!-- Generator: Adobe Illustrator 16.0.0, SVG Export Plug-In . SVG Version: 6.00 Build 0)  -->
<!DOCTYPE svg PUBLIC "-//W3C//DTD SVG 1.0//EN" "http://www.w3.org/TR/2001/REC-SVG-20010904/DTD/svg10.dtd">
<svg version="1.0" id="Layer_1" xmlns="http://www.w3.org/2000/svg" xmlns:xlink="http://www.w3.org/1999/xlink" x="0px" y="0px"
	 width="84.619px" height="138.601px" viewBox="0 0 84.619 138.601" enable-background="new 0 0 84.619 138.601"
	 xml:space="preserve">
<g>
	<path fill="#FFDAA2" d="M14.875,80.568c0,4.106-3.33,7.437-7.436,7.437l0,0C3.332,88.005,0,84.675,0,80.568v-6.157
		c0-4.107,3.332-7.437,7.439-7.437l0,0c4.105,0,7.436,3.329,7.436,7.437V80.568z"/>
	<path fill="#FED09E" d="M12.188,79.455c0,2.624-2.125,4.751-4.748,4.751l0,0c-2.625,0-4.754-2.127-4.754-4.751v-3.933
		c0-2.623,2.129-4.75,4.754-4.75l0,0c2.623,0,4.748,2.127,4.748,4.75V79.455z"/>
	<path fill="#E6BE91" d="M84.619,80.568c0,4.106-3.33,7.437-7.438,7.437l0,0c-4.107,0-7.439-3.33-7.439-7.437v-6.157
		c0-4.107,3.332-7.437,7.439-7.437l0,0c4.107,0,7.438,3.329,7.438,7.437V80.568z"/>
	<path fill="#DBB58B" d="M81.932,79.456c0,2.623-2.125,4.75-4.75,4.75l0,0c-2.623,0-4.752-2.127-4.752-4.75v-3.934
		c0-2.623,2.129-4.75,4.752-4.75l0,0c2.625,0,4.75,2.127,4.75,4.75V79.456z"/>
	<path fill="#FFDAA2" d="M42.311,16.583c-20.041,0-36.283,16.246-36.283,36.282v24.189c0,15.39,9.588,28.533,23.111,33.807v14.57
		c0,7.271,5.896,13.17,13.172,13.17c7.271,0,13.168-5.898,13.168-13.17v-14.57c13.523-5.271,23.111-18.415,23.111-33.807V52.864
		C78.59,32.828,62.348,16.583,42.311,16.583z"/>
	<path fill="#FED09E" d="M78.519,50.687c-0.012-0.219-0.031-0.436-0.049-0.654c-0.039-0.516-0.09-1.029-0.15-1.539
		c-0.027-0.229-0.057-0.457-0.088-0.684c-0.078-0.559-0.17-1.115-0.273-1.668c-0.027-0.145-0.047-0.289-0.078-0.434
		c-0.139-0.699-0.301-1.391-0.479-2.076c-0.033-0.127-0.074-0.253-0.107-0.379c-0.154-0.56-0.318-1.113-0.498-1.662
		c-0.061-0.183-0.123-0.361-0.184-0.543c-0.182-0.524-0.373-1.043-0.578-1.559c-0.057-0.14-0.109-0.282-0.168-0.422
		c-0.545-1.323-1.164-2.606-1.855-3.846c-0.051-0.091-0.105-0.183-0.156-0.274c-0.309-0.539-0.629-1.071-0.963-1.592
		c-0.059-0.091-0.117-0.183-0.174-0.274c-1.193-1.825-2.543-3.539-4.033-5.117c-0.033-0.035-0.064-0.069-0.098-0.102
		c-2.039-2.14-4.332-4.033-6.84-5.627c-0.012-0.008-0.025-0.016-0.037-0.023L60.8,21.65c-5.414-3.216-11.734-5.068-18.488-5.068
		c-0.119,0-0.236,0.008-0.354,0.009v121.991c0.117,0.003,0.234,0.018,0.354,0.018c7.271,0,13.168-5.898,13.168-13.17v-14.57
		c13.523-5.271,23.111-18.415,23.111-33.807V52.864C78.591,52.133,78.563,51.408,78.519,50.687z"/>
	<g>
		<path fill="#3C2415" d="M77.16,86.038c-0.148,0.625-0.283,1.187-0.396,1.621C76.908,87.121,77.051,86.583,77.16,86.038z"/>
		<path fill="#3C2415" d="M69.555,24.444c0,0,4.902-9.474-3.428-14.176c0,0-52.342-17.537-62.623,26.205
			c0,0-0.67,15.99,1.145,27.076c0,0,1.008,15.118,3.023,23.383c0,0-3.023-16.73,4.031-25.197c0,0,7.055-7.055,3.023-14.513
			c0,0,0.076-0.31,0.246-0.828c20.854-0.448,39.867-8.242,39.867-8.242c-2.822,4.635-24.189,8.465-24.189,8.465
			c32.857-1.209,35.881-12.497,35.881-12.497s6.65,7.257,6.854,14.312c0,0-4.436,6.449,0.201,12.295c0,0,6.016,13.271,3.574,25.313
			c1.055-4.512,3.076-22.49,3.076-22.49S87.896,30.557,69.555,24.444z"/>
		<path fill="#3C2415" d="M76.764,87.659c-0.117,0.43-0.215,0.863-0.355,1.287C76.408,88.946,76.547,88.486,76.764,87.659z"/>
	</g>
	<path fill="#3C2415" d="M3.504,36.472C3.504,36.472,3.44,11,15.69,0c0,0-6.5,7,28.75,6.75L3.504,36.472z"/>
</g>
<polygon fill="#3C2415" points="48.442,96.702 41.958,99.167 35.474,96.702 "/>
<polygon fill="#E6BE91" points="41.958,70.43 41.958,87.966 46.284,85.232 "/>
<circle fill="#3C2415" cx="27.326" cy="66.975" r="3.225"/>
<circle fill="#3C2415" cx="57.293" cy="66.975" r="3.226"/>
</svg>
