<?xml version="1.0" encoding="utf-8"?>
<!-- Generator: Adobe Illustrator 16.0.4, SVG Export Plug-In . SVG Version: 6.00 Build 0)  -->
<!DOCTYPE svg PUBLIC "-//W3C//DTD SVG 1.0//EN" "http://www.w3.org/TR/2001/REC-SVG-20010904/DTD/svg10.dtd">
<svg version="1.0" id="Layer_1" xmlns="http://www.w3.org/2000/svg" xmlns:xlink="http://www.w3.org/1999/xlink" x="0px" y="0px"
	 width="300px" height="72.747px" viewBox="0 0 300 72.747" enable-background="new 0 0 300 72.747" xml:space="preserve">
<g>
	<path fill="#22C6C7" d="M39.903,7.554c2.271-0.402,3.276-0.165,3.016,0.709c-1.727,5.701-5.228,17.593-10.502,45.362
		c-0.071,0.308-0.591,0.698-1.561,1.171c-0.875,0.402-1.833,0.698-2.874,0.887c-0.591,0.095-1.088,0.154-1.49,0.177
		c-3.974,1.703,5.18-33.982,5.18-33.982s2.448-7.819,3.796-12.267c0.095-0.331,0.604-0.721,1.526-1.171
		C37.868,8.039,38.838,7.743,39.903,7.554z"/>
	<path fill="#22C6C7" d="M50,24.974c0.829,2.151,0.789,3.184-0.119,3.095c-5.926-0.603-16.331-5.718-46.444-0.696
		c-0.31,0.052-0.797-0.447-1.448-1.308c-0.562-0.783-1.036-1.667-1.42-2.652c-0.207-0.562-0.359-1.039-0.46-1.429
		C-2.323,18.41,36.832,20.1,36.832,20.1s5.676,0.442,10.299,0.915c0.343,0.029,0.824,0.454,1.442,1.273
		C49.135,23.07,49.61,23.965,50,24.974z"/>
	<path fill="#22C6C7" d="M48.79,39.912c0.829,2.151,0.789,3.184-0.12,3.095c-5.925-0.604-5.711-7.914-45.233-0.697
		c-0.309,0.057-0.797-0.447-1.448-1.308c-0.562-0.783-1.036-1.667-1.42-2.651c-0.207-0.562-0.359-1.039-0.46-1.429
		c-2.432-3.574,36.723-1.884,36.723-1.884s4.465,0.442,9.088,0.914c0.343,0.03,0.824,0.454,1.441,1.274
		C47.924,38.007,48.399,38.903,48.79,39.912z"/>
	<path fill="#22C6C7" d="M23.452,7.554c2.271-0.402,3.276-0.165,3.016,0.709c-1.727,5.701-5.228,17.593-10.503,45.362
		c-0.071,0.308-0.591,0.698-1.561,1.171c-0.875,0.402-1.833,0.698-2.874,0.887c-0.591,0.095-1.088,0.154-1.49,0.177
		c-3.974,1.703,5.18-33.982,5.18-33.982s2.448-7.819,3.797-12.267C19.111,9.28,19.62,8.89,20.542,8.44
		C21.418,8.039,22.388,7.743,23.452,7.554z"/>
	<path fill="#22C6C7" d="M90.339,9.016c1.466,6.009,1.786,13.306,0.958,21.893c-0.213,2.058-0.651,5.701-1.313,10.928
		c-0.616,4.66-1.017,8.314-1.207,10.964c-0.095,1.017-1.396,1.762-3.903,2.235c-0.97,0.166-1.833,0.237-2.59,0.213
		c-0.757-0.023-1.124-0.166-1.1-0.426c0.118-1.632,0.757-7.144,1.916-16.534c0.828-6.742,1.171-12.265,1.029-16.57
		c-1.277,3.028-3.277,8.232-5.997,15.612c-2.483,6.718-4.554,11.898-6.209,15.541c-0.308,0.686-1.632,1.325-3.974,1.916
		c-2.365,0.568-3.548,0.497-3.548-0.213c0.023-2.909,0.355-6.6,0.994-11.07c0.284-2.082,0.414-5.808,0.39-11.177
		c-0.023-3.099-0.13-6.777-0.319-11.035c-4.045,10.148-6.765,20.828-8.161,32.04c-0.095,0.828-1.254,1.538-3.477,2.129
		c-0.615,0.166-1.348,0.284-2.2,0.355c-1.325,0.118-1.963-0.036-1.916-0.461c2.105-16.747,6.848-31.886,14.228-45.417
		c0.497-0.922,1.975-1.608,4.435-2.058c1.442-0.26,2.413-0.225,2.91,0.106c0.804,0.048,1.218,0.226,1.242,0.532
		c0.568,11.875,0.852,19.303,0.852,22.283v0.497c3.241-8.586,6.375-15.447,9.403-20.58c0.567-0.923,2.058-1.597,4.471-2.022
		C89.168,8.342,90.197,8.448,90.339,9.016z"/>
	<path fill="#22C6C7" d="M117.908,22.712c-0.119,3.028-0.816,6.115-2.093,9.261c-2.129,8.776-3.335,15.316-3.619,19.621
		c-0.071,1.018-1.361,1.763-3.868,2.235c-0.97,0.189-1.822,0.272-2.555,0.249c-0.78-0.047-1.159-0.189-1.135-0.426
		c0.118-1.75,0.319-3.595,0.603-5.535c-0.946,0.994-1.88,1.81-2.803,2.448c-1.632,1.135-3.419,1.845-5.358,2.129
		c-2.082,0.284-3.513,0.166-4.293-0.355c-1.68-1.088-2.567-3.347-2.661-6.777c-0.213-5.866,1.312-11.827,4.577-17.883
		c2.034-3.713,5.511-6.552,10.431-8.516c3.571-1.443,6.363-1.727,8.374-0.852c1.277,0.568,1.951,1.893,2.022,3.974
		C117.115,22.097,117.908,22.239,117.908,22.712z M101.729,44.285c3.17-4.281,5.394-7.959,6.671-11.035
		c0.757-3.123,1.325-5.618,1.703-7.487c-1.467,0.119-2.188-0.012-2.165-0.39c0.118-2.152-0.177-3.524-0.887-4.116l-0.035,0.035
		c-0.261,0.166-0.461,0.296-0.604,0.391c-0.094,0.071-0.166,0.118-0.213,0.142c-0.023,0.024-0.048,0.047-0.071,0.071
		c-0.829,0.639-1.526,1.242-2.093,1.81c-0.591,0.591-1.112,1.277-1.562,2.058c-0.687,1.254-1.29,2.496-1.81,3.726
		c-1.396,3.383-2.294,6.481-2.696,9.296c-0.521,3.595-0.403,6.458,0.355,8.586c0.118,0.284,0.248,0.58,0.39,0.887
		c0.426-0.497,0.639-0.745,0.639-0.745S100.144,46.438,101.729,44.285z"/>
	<path fill="#22C6C7" d="M136.43,20.832c0.26-0.733,1.597-1.36,4.009-1.881c2.389-0.52,3.56-0.461,3.513,0.178
		c-0.449,6.528-2.59,17.835-6.422,33.92c-0.071,0.308-0.591,0.686-1.561,1.135c-0.875,0.426-1.833,0.733-2.874,0.922
		c-2.224,0.402-3.242,0.166-3.052-0.709c2.01-8.35,3.146-13.14,3.406-14.37c-0.308,0.544-0.58,1.017-0.816,1.419
		c-2.366,4.045-4.59,7.001-6.67,8.87c-3.1,2.744-6.493,3.903-10.184,3.478c-0.307-0.024-0.532-0.178-0.674-0.461
		c-0.355-11.993,2.377-22.921,8.196-32.785c0.544-0.922,2.034-1.597,4.471-2.022c0.567-0.118,1.194-0.166,1.88-0.142
		c1.064,0.047,1.442,0.319,1.135,0.816c-4.849,8.232-7.522,17.374-8.019,27.427c1.229-1.798,2.483-3.891,3.761-6.28
		C132.113,30.104,135.413,23.6,136.43,20.832z"/>
	<path fill="#22C6C7" d="M150.338,2.487c0.023-0.994,1.301-1.739,3.832-2.235c0.97-0.189,1.822-0.271,2.555-0.249
		c0.781,0.048,1.171,0.201,1.171,0.461c-0.307,8.586-1.928,21.656-4.861,39.208c-0.875,5.771-1.61,9.62-2.129,11.567
		c-1.669,6.258-3.193,10.369-7.372,14.029c-4.264,3.735-15.207,7.524-18.52,7.477c-2.483-0.023-4.068-1.206-4.754-3.548
		c-0.757-2.484-0.757-4.755,0-6.812c0.332-0.875,1.81-1.549,4.435-2.022c2.342-0.426,3.348-0.201,3.016,0.674
		c-0.781,2.129-1.83,7.629-1.688,7.89c0.426-0.568,9.77-3.176,13.524-8.35c1.868-2.574,4.157-10.92,4.157-10.92
		s2.636-12.74,4.221-23.148C149.297,17.213,150.102,9.206,150.338,2.487z"/>
	<path fill="#22C6C7" d="M183.194,22.712c-0.118,3.028-0.816,6.115-2.093,9.261c-2.129,8.776-3.335,15.316-3.619,19.621
		c-0.071,1.018-1.36,1.763-3.868,2.235c-0.97,0.189-1.822,0.272-2.554,0.249c-0.781-0.047-1.159-0.189-1.136-0.426
		c0.118-1.75,0.319-3.595,0.604-5.535c-0.946,0.994-1.881,1.81-2.803,2.448c-1.632,1.135-3.419,1.845-5.358,2.129
		c-2.082,0.284-3.513,0.166-4.293-0.355c-1.68-1.088-2.567-3.347-2.661-6.777c-0.213-5.866,1.312-11.827,4.577-17.883
		c2.034-3.713,5.511-6.552,10.432-8.516c3.571-1.443,6.363-1.727,8.374-0.852c1.277,0.568,1.951,1.893,2.022,3.974
		C182.402,22.097,183.194,22.239,183.194,22.712z M167.015,44.285c3.169-4.281,5.393-7.959,6.67-11.035
		c0.757-3.123,1.325-5.618,1.703-7.487c-1.467,0.119-2.188-0.012-2.165-0.39c0.118-2.152-0.177-3.524-0.887-4.116l-0.036,0.035
		c-0.261,0.166-0.461,0.296-0.603,0.391c-0.095,0.071-0.166,0.118-0.213,0.142c-0.024,0.024-0.048,0.047-0.071,0.071
		c-0.829,0.639-1.525,1.242-2.093,1.81c-0.591,0.591-1.112,1.277-1.561,2.058c-0.687,1.254-1.29,2.496-1.81,3.726
		c-1.396,3.383-2.295,6.481-2.697,9.296c-0.521,3.595-0.403,6.458,0.355,8.586c0.118,0.284,0.248,0.58,0.39,0.887
		c0.426-0.497,0.639-0.745,0.639-0.745S165.43,46.438,167.015,44.285z"/>
	<path fill="#22C6C7" d="M209.699,0.642c2.271-0.402,3.276-0.165,3.016,0.71c-1.727,5.701-5.228,22.437-10.502,50.207
		c-0.071,0.308-0.592,0.698-1.562,1.171c-0.875,0.402-1.833,0.698-2.874,0.887c-0.591,0.095-1.088,0.154-1.49,0.178
		c-3.974,1.703-7.345,1.833-10.112,0.39c-2.436-1.253-4.033-3.335-4.79-6.245c-1.088-4.163-0.721-9.285,1.1-15.364
		c1.963-6.552,4.896-10.94,8.799-13.164c2.224-1.277,4.577-2.046,7.061-2.306c1.183-0.118,2.224-0.024,3.123,0.284
		c1.183-5.346,2.448-10.242,3.796-14.69c0.095-0.331,0.603-0.722,1.526-1.171C207.665,1.127,208.635,0.832,209.699,0.642z
		 M188.872,45.705c0.686,2.555,1.893,4.376,3.619,5.464c0.308,0.213,0.615,0.391,0.922,0.532l0.142-0.177
		c0.378-0.497,0.946-0.911,1.703-1.242c0.378-2.011,1.053-5.784,2.022-11.319c0.852-4.778,1.538-8.563,2.058-11.354
		c-0.828-0.023-1.254-0.201-1.277-0.532c-0.308-3.099-1.064-5.18-2.271-6.245c-0.071-0.071-0.13-0.118-0.177-0.142
		c-0.26,0.213-0.485,0.426-0.674,0.639c-2.365,2.555-4.187,6.398-5.464,11.532c-1.253,5.204-1.88,7.806-1.88,7.806
		S188.02,42.346,188.872,45.705z"/>
	<path fill="#22C6C7" d="M213.496,20.477c0.047-0.308,0.556-0.686,1.525-1.135c0.875-0.402,1.845-0.698,2.91-0.887
		c2.152-0.402,3.158-0.177,3.016,0.674c-0.97,5.322-2.223,10.881-3.761,16.676c-0.757,2.768-1.538,5.511-2.342,8.232
		c-1.135,3.785-1.608,6.15-1.419,7.096c0.166,0.875-1.017,1.632-3.548,2.271c-2.508,0.639-3.844,0.556-4.01-0.248
		c-0.213-1.041,0.296-3.631,1.526-7.771c0.899-3.028,1.679-5.772,2.342-8.232C211.296,31.24,212.55,25.681,213.496,20.477z
		 M212.609,10.116c-0.473-0.307-0.284-0.732,0.568-1.277c0.52-0.331,1.088-0.603,1.703-0.816c0.994-0.355,1.976-0.58,2.945-0.674
		c0.922-0.071,1.561,0,1.916,0.213c1.017,0.687,1.88,1.384,2.59,2.094c0.639,0.639-0.118,1.336-2.271,2.093
		c-0.994,0.355-1.975,0.58-2.945,0.674c-1.041,0.094-1.679,0.023-1.916-0.213C214.489,11.5,213.626,10.802,212.609,10.116z"/>
	<path fill="#22C6C7" d="M244.968,3.658c0.97,0,1.455,0.154,1.455,0.461c0,5.984-0.343,14.938-1.029,26.86c-0.71,11.946-1.064,20.899-1.064,26.86
		c0,0.993-1.266,1.75-3.797,2.271c-0.993,0.213-1.869,0.296-2.625,0.249c-0.781-0.023-1.171-0.177-1.171-0.461
		c0-5.085,0.189-11.248,0.568-18.486c-1.23-0.213-3.063-0.189-5.5,0.071c-0.686,0.094-1.538,0.106-2.555,0.035
		c-0.946,2.91-1.88,6.02-2.803,9.332c-0.095,0.332-0.615,0.71-1.562,1.136c-0.875,0.426-1.833,0.733-2.874,0.922
		c-2.271,0.402-3.288,0.166-3.051-0.709c1.112-3.974,2.224-7.652,3.335-11.035c-0.213,0-0.426,0-0.639,0
		c-0.166,0-0.497,0.035-0.994,0.106c-1.632,0.922-3.347,1.36-5.145,1.312c-0.709-0.023-1.111-0.201-1.206-0.532
		c-0.095-0.354,0.166-0.721,0.78-1.1c2.248-1.372,4.968-2.248,8.161-2.626c1.301-3.714,2.673-7.226,4.116-10.538
		c0.615-1.419,1.467-3.371,2.555-5.854c1.254-2.791,2.117-4.743,2.59-5.855c2.696-6.126,4.388-9.627,5.074-10.502
		c0.733-0.97,2.211-1.655,4.435-2.058C243.348,3.28,244.33,3.327,244.968,3.658z M235.565,38.466
		c0.686-0.071,1.325-0.13,1.916-0.177c0.639-11.236,0.994-17.989,1.064-20.26c-1.893,4.258-3.123,7.061-3.69,8.409
		c-1.585,3.667-3.087,7.593-4.506,11.78C233.472,38.407,235.21,38.49,235.565,38.466z"/>
	<path fill="#22C6C7" d="M272.892,20.513c0.733,1.892,0.639,5.085-0.284,9.58c-0.923,4.423-2.129,8.539-3.619,12.348
		c-1.869,4.73-3.797,7.959-5.784,9.686c-1.963,1.727-4.459,2.744-7.487,3.052c-1.348,0.118-2.519-0.047-3.513-0.497
		c-1.183,5.228-2.152,9.78-2.909,13.661c-0.071,0.306-0.591,0.697-1.561,1.171c-0.875,0.402-1.845,0.697-2.91,0.887
		c-2.176,0.402-3.182,0.177-3.016-0.674c0.899-4.661,2.176-10.538,3.832-17.634c2.413-10.337,3.773-16.191,4.081-17.563
		c-0.426-0.142-0.568-0.39-0.426-0.745c0.449-0.946,0.816-1.739,1.1-2.377c0.899-4.163,1.656-7.971,2.271-11.425
		c0.047-0.308,0.568-0.686,1.561-1.136c0.875-0.402,1.833-0.698,2.874-0.887c2.176-0.402,3.193-0.178,3.052,0.674
		c-0.024,0.142-0.059,0.319-0.106,0.532c-0.047,0.26-0.083,0.438-0.106,0.532c2.176-1.183,4.388-1.821,6.635-1.916
		C270.006,17.662,272.111,18.573,272.892,20.513z M265.618,28.531c0.213-1.466,0.272-2.673,0.178-3.619
		c-0.166-1.703-0.556-2.827-1.171-3.371c-0.237-0.213-0.461-0.378-0.674-0.497c-0.449,0.426-0.84,0.816-1.171,1.171
		c-0.781,0.875-1.561,1.951-2.342,3.229c-0.852,1.372-1.703,2.933-2.555,4.684c-0.426,1.94-2.093,9.178-5.003,21.715
		c0.095-0.047,0.201-0.083,0.319-0.106c2.247-0.828,3.773-1.041,4.577-0.639c1.821-2.602,3.513-6.292,5.074-11.07
		C264.27,35.628,265.192,31.796,265.618,28.531z"/>
	<path fill="#22C6C7" d="M300,22.712c-0.118,3.028-0.816,6.115-2.093,9.261c-2.129,8.776-3.335,15.316-3.619,19.621
		c-0.071,1.018-1.36,1.763-3.868,2.235c-0.97,0.189-1.821,0.272-2.555,0.249c-0.78-0.047-1.159-0.189-1.135-0.426
		c0.118-1.75,0.319-3.595,0.603-5.535c-0.946,0.994-1.88,1.81-2.803,2.448c-1.632,1.135-3.418,1.845-5.358,2.129
		c-2.082,0.284-3.513,0.166-4.293-0.355c-1.679-1.088-2.566-3.347-2.661-6.777c-0.213-5.866,1.313-11.827,4.577-17.883
		c2.034-3.713,5.512-6.552,10.432-8.516c3.572-1.443,6.363-1.727,8.374-0.852c1.277,0.568,1.951,1.893,2.022,3.974
		C299.208,22.097,300,22.239,300,22.712z M283.82,44.285c3.17-4.281,5.394-7.959,6.671-11.035c0.757-3.123,1.324-5.618,1.703-7.487
		c-1.467,0.119-2.188-0.012-2.165-0.39c0.118-2.152-0.177-3.524-0.887-4.116l-0.035,0.035c-0.26,0.166-0.461,0.296-0.604,0.391
		c-0.095,0.071-0.166,0.118-0.213,0.142c-0.023,0.024-0.047,0.047-0.071,0.071c-0.828,0.639-1.526,1.242-2.093,1.81
		c-0.592,0.591-1.112,1.277-1.562,2.058c-0.686,1.254-1.289,2.496-1.81,3.726c-1.396,3.383-2.294,6.481-2.696,9.296
		c-0.521,3.595-0.402,6.458,0.354,8.586c0.118,0.284,0.249,0.58,0.391,0.887c0.426-0.497,0.639-0.745,0.639-0.745
		S282.235,46.438,283.82,44.285z"/>
</g>
</svg>
