<?xml version="1.0" encoding="utf-8"?>
<!-- Generator: Adobe Illustrator 16.0.0, SVG Export Plug-In . SVG Version: 6.00 Build 0)  -->
<!DOCTYPE svg PUBLIC "-//W3C//DTD SVG 1.0//EN" "http://www.w3.org/TR/2001/REC-SVG-20010904/DTD/svg10.dtd">
<svg version="1.0" id="Layer_1" xmlns="http://www.w3.org/2000/svg" xmlns:xlink="http://www.w3.org/1999/xlink" x="0px" y="0px"
	 width="146.18px" height="499.354px" viewBox="0 0 146.18 499.354" enable-background="new 0 0 146.18 499.354"
	 xml:space="preserve">
<polygon fill="#3C2415" points="100.882,235.286 100.882,299.286 119.882,300.286 138.549,257.286 128.549,219.619 104.882,201.286 
	"/>
<g>
	<g>
		<g>
			<path fill="#00557F" d="M29.157,265.802h87.885v214.473c0,10.91-8.844,19.754-19.754,19.754l0,0
				c-10.91,0-19.754-8.844-19.754-19.754v-169.32l0.021-1.183v-3.317c0-2.461-1.994-4.456-4.456-4.456l0,0
				c-2.46,0-4.456,1.995-4.456,4.456v3.317l0.021,2.258v168.245c0,10.91-8.845,19.754-19.754,19.754l0,0
				c-10.91,0-19.754-8.844-19.754-19.754V265.802"/>
		</g>
	</g>
	<path fill="#004869" d="M72.774,291.631c-12.446,0.023-22.533,10.12-22.533,22.574v177.382c0,2.898,0.566,5.66,1.561,8.207
		c9.537-1.404,16.863-9.596,16.863-19.52V312.031l-0.021-2.258v-3.317c0-2.461,1.996-4.456,4.456-4.456
		c2.462,0,4.456,1.995,4.456,4.456v3.317l-0.021,1.183v169.32c0,10.91,8.844,19.754,19.754,19.754s19.754-8.844,19.754-19.754
		V265.802H72.774V291.631z"/>
</g>
<path fill="#3C2415" d="M115.582,108.243c0,23.599-19.131,42.731-42.732,42.731l0,0c-23.6,0-42.732-19.133-42.732-42.731V53.417
	c0-23.603,19.133-42.732,42.732-42.732l0,0c23.602,0,42.732,19.13,42.732,42.732V108.243z"/>
<line fill="none" stroke="#000000" stroke-miterlimit="10" x1="17.35" y1="301.869" x2="17.35" y2="301.869"/>
<path d="M125.484,479.537h-8.781c0.021,0.311,0.047,0.623,0.047,0.941v1.41c0,7.125-5.775,12.9-12.9,12.9H90.346
	c-4.777,0-8.941-2.607-11.172-6.469c-2.365,3.352-3.77,7.43-3.785,11.84h70.791C146.139,488.762,136.895,479.537,125.484,479.537z"
	/>
<path d="M20.695,479.537h8.779c-0.021,0.311-0.047,0.623-0.047,0.941v1.41c0,7.125,5.777,12.9,12.9,12.9h13.506
	c4.779,0,8.941-2.607,11.17-6.469c2.365,3.352,3.773,7.43,3.789,11.84H0C0.041,488.762,9.287,479.537,20.695,479.537z"/>
<path fill="#FFDAA2" d="M45.666,82.272c0,4.106-3.328,7.436-7.436,7.436l0,0c-4.107,0-7.439-3.329-7.439-7.436v-6.158
	c0-4.106,3.332-7.436,7.439-7.436l0,0c4.107,0,7.436,3.329,7.436,7.436V82.272z"/>
<path fill="#FED09E" d="M42.98,81.157c0,2.623-2.127,4.752-4.75,4.752l0,0c-2.623,0-4.752-2.129-4.752-4.752v-3.931
	c0-2.624,2.129-4.749,4.752-4.749l0,0c2.623,0,4.75,2.125,4.75,4.749V81.157z"/>
<path fill="#E6BE91" d="M115.408,82.272c0,4.106-3.328,7.436-7.436,7.436l0,0c-4.107,0-7.439-3.329-7.439-7.436v-6.158
	c0-4.106,3.332-7.436,7.439-7.436l0,0c4.107,0,7.436,3.329,7.436,7.436V82.272z"/>
<path fill="#DBB58B" d="M112.723,81.16c0,2.62-2.127,4.749-4.75,4.749l0,0c-2.623,0-4.752-2.129-4.752-4.749v-3.934
	c0-2.624,2.129-4.749,4.752-4.749l0,0c2.623,0,4.75,2.125,4.75,4.749V81.16z"/>
<path fill="#EA918C" d="M141.531,173.09v-15.049c0-19.593-15.883-35.476-35.477-35.476H40.148
	c-19.592,0-35.475,15.883-35.475,35.476v16.66l-0.004,0.807v0.731h19.359v-2.495c0-0.391,0.316-0.705,0.705-0.705
	c0.391,0,0.707,0.314,0.707,0.705v18.343l-0.014,9.499l-0.002,55.932c0,6.739,5.463,12.204,12.203,12.204h70.939
	c6.74,0,12.203-5.465,12.203-12.204v-55.932l-0.027-9.499v-18.343c0-0.391,0.318-0.705,0.705-0.705c0.391,0,0.705,0.314,0.705,0.705
	v2.495h19.379v-0.731L141.531,173.09z"/>
<path fill="#E47A74" d="M120.771,257.518v-55.932l-0.029-9.499l0.002-18.343c0-0.391,0.318-0.705,0.705-0.705
	c0.391,0,0.705,0.314,0.705,0.705v2.495h19.379v-0.731l-0.002-2.418v-15.049c0-19.593-15.883-35.476-35.477-35.476H72.754v147.156
	h35.814C115.309,269.722,120.771,264.257,120.771,257.518z"/>
<path fill="#E0645E" d="M86.259,127.2c0,5.895-3.875,10.883-9.217,12.56l4.898,8.483c5.269-3.14,8.81-8.877,8.81-15.457
	c0-6.775-3.746-12.668-9.276-15.74C84.396,119.461,86.259,123.113,86.259,127.2z"/>
<path fill="#E47A74" d="M63.563,148.244l5.018-8.691c-5.043-1.844-8.649-6.671-8.649-12.353c0-4.68,2.449-8.779,6.129-11.113
	c-6.624,2.657-11.308,9.126-11.308,16.7C54.752,139.366,58.293,145.104,63.563,148.244z"/>
<path fill="#FFDAA2" d="M73.102,18.287c-20.039,0-36.281,16.245-36.281,36.282v24.188c0,15.389,9.586,28.531,23.111,33.807v14.57
	c0,5.681,3.604,10.508,8.648,12.354l4.171,7.224l4.323-7.023c5.33-1.686,9.195-6.668,9.195-12.555v-14.57
	c13.523-5.271,23.111-18.415,23.111-33.807V54.569C109.381,34.532,93.139,18.287,73.102,18.287z"/>
<path fill="#3C2415" d="M61.342,68.678c0,1.779-1.445,3.223-3.225,3.223c-1.783,0-3.227-1.443-3.227-3.223
	c0-1.783,1.443-3.225,3.227-3.225C59.896,65.454,61.342,66.895,61.342,68.678z"/>
<path fill="#FED09E" d="M92.526,23.93H72.751v107.855v8.499v6.427l4.322-7.022c0.456-0.144,0.897-0.316,1.329-0.507
	c0.096-0.042,0.188-0.091,0.282-0.136c0.336-0.158,0.664-0.326,0.983-0.511c0.106-0.061,0.209-0.126,0.313-0.19
	c0.307-0.189,0.605-0.389,0.895-0.602c0.09-0.066,0.179-0.131,0.266-0.199c0.313-0.242,0.614-0.499,0.904-0.768
	c0.049-0.046,0.101-0.089,0.149-0.136c1.396-1.336,2.494-2.975,3.197-4.813c0.006-0.015,0.014-0.029,0.02-0.044h-0.004
	c0.549-1.448,0.862-3.012,0.862-4.652v-14.57c13.523-5.271,23.111-18.415,23.111-33.807V54.569
	C109.382,41.678,102.655,30.365,92.526,23.93z"/>
<path fill="#3C2415" d="M91.309,68.678c0,1.779-1.445,3.223-3.225,3.223c-1.783,0-3.225-1.443-3.225-3.223
	c0-1.783,1.441-3.225,3.225-3.225C89.863,65.454,91.309,66.895,91.309,68.678z"/>
<polygon fill="#E6BE91" points="72.75,72.105 72.75,89.641 77.076,86.908 "/>
<polygon fill="#ED1C24" points="79.234,98.384 72.75,100.85 66.264,98.384 "/>
<path fill="#3C2415" d="M63.99,60.464c0,0.473-0.385,0.856-0.857,0.856h-10.48c-0.473,0-0.857-0.384-0.857-0.856l0,0
	c0-0.472,0.385-0.856,0.857-0.856h10.48C63.605,59.608,63.99,59.993,63.99,60.464L63.99,60.464z"/>
<path fill="#3C2415" d="M94.023,60.464c0,0.473-0.385,0.856-0.855,0.856H82.686c-0.473,0-0.857-0.384-0.857-0.856l0,0
	c0-0.472,0.385-0.856,0.857-0.856h10.482C93.639,59.608,94.023,59.993,94.023,60.464L94.023,60.464z"/>
<path fill="#3C2415" d="M97.037,38.702c0,0-7.256,14.715-33.057,14.715c0,0,18.344-5.241,23.383-13.908
	c0,0-19.352,11.69-35.477,13.706c0,0-14.414-2.136-13.656,32.694c0,0,1.16-17.98-3.678-17.576l0.807-29.026l23.783-22.979
	l22.979-0.403l24.189,16.125l6.047,34.871c0,0-3.225,3.629-3.225,14.312c0,0-2.822-19.753-2.822-28.823
	C106.311,52.409,105.906,40.918,97.037,38.702z"/>
<path fill="#FFDAA2" d="M27.459,272.216v-2.252c0-1.645-0.289-3.229-0.9-4.651c-0.189-0.444-0.916-1.871-0.916-1.871
	c-0.205-0.283-0.379-0.57-0.533-0.856c-1.154-2.136-1.08-4.303-1.08-4.303v-82.044H4.67v82.97l-0.021,3.377l-0.004,0.582
	c-0.463,0.709-0.855,1.465-1.168,2.265c-0.551,1.404-0.854,2.933-0.854,4.532v19.171c0,6.859,5.559,12.418,12.418,12.418
	c1.701,0,3.32-0.343,4.793-0.96v-23.076c0-0.564,0.455-1.018,1.018-1.018c0.561,0,1.018,0.453,1.018,1.018l-0.004,2.602v10.569
	c0,1.55,1.258,2.806,2.807,2.806c1.551,0,2.807-1.256,2.807-2.806v-10.569L27.459,272.216z"/>
<path fill="#3C2415" d="M120.825,173.432l-13.274-50.829c-0.497-0.021-0.994-0.038-1.496-0.038h-2.993l17.681,67.696l0.002-16.517
	C120.744,173.63,120.777,173.527,120.825,173.432z"/>
<rect x="122.154" y="176.238" fill="#FED09E" width="19.379" height="38.047"/>
<rect x="55.382" y="158.786" fill="#FFFFFF" width="62.5" height="85"/>
<path fill="#FED09E" d="M141.534,200.248H92.415c0,0-2.167,0.076-4.303-1.076c-0.286-0.158-0.573-0.33-0.856-0.535
	c0,0-1.427-0.729-1.871-0.918c-1.423-0.607-3.007-0.9-4.651-0.9h-2.252l-7.902-0.016H60.01c-1.55,0-2.806,1.254-2.806,2.803
	c0,1.551,1.256,2.807,2.806,2.807h10.569h2.602c0.564,0,1.018,0.453,1.018,1.014c0,0.564-0.453,1.018-1.018,1.018H50.104
	c-0.617,1.475-0.96,3.096-0.96,4.793c0,6.861,5.559,12.42,12.418,12.42h19.171c1.6,0,3.128-0.303,4.532-0.854
	c0.8-0.313,1.556-0.705,2.265-1.17h0.582l4.233-0.006h49.188V200.248z"/>
</svg>
