<?xml version="1.0" encoding="utf-8"?>
<!-- Generator: Adobe Illustrator 16.0.0, SVG Export Plug-In . SVG Version: 6.00 Build 0)  -->
<!DOCTYPE svg PUBLIC "-//W3C//DTD SVG 1.0//EN" "http://www.w3.org/TR/2001/REC-SVG-20010904/DTD/svg10.dtd">
<svg version="1.0" id="Layer_1" xmlns="http://www.w3.org/2000/svg" xmlns:xlink="http://www.w3.org/1999/xlink" x="0px" y="0px"
	 width="146.18px" height="499.354px" viewBox="0 0 146.18 499.354" enable-background="new 0 0 146.18 499.354"
	 xml:space="preserve">
<path fill="#3C2415" d="M52.908,119.11c0,0-33.5,67-32,124.5c0,0-5,28,23,29h66c0,0,18.5-4.5,13.5-30.5c0,0-9-77.5-30-122
	C93.408,120.11,73.908,109.61,52.908,119.11z"/>
<line fill="none" stroke="#000000" stroke-miterlimit="10" x1="17.348" y1="301.185" x2="17.348" y2="301.185"/>
<g>
	<g>
		<path fill="#00557F" d="M29.156,265.127h87.885V479.6c0,10.91-8.844,19.754-19.754,19.754l0,0
			c-10.91,0-19.754-8.844-19.754-19.754V310.28l0.021-1.183v-3.317c0-2.461-1.994-4.456-4.456-4.456l0,0
			c-2.46,0-4.456,1.995-4.456,4.456v3.317l0.021,2.258V479.6c0,10.91-8.845,19.754-19.754,19.754l0,0
			c-10.91,0-19.754-8.844-19.754-19.754V265.127"/>
	</g>
</g>
<path fill="#5E5E5E" d="M141.53,172.406v-15.049c0-19.593-15.883-35.476-35.477-35.476H40.147
	c-19.592,0-35.475,15.883-35.475,35.476v16.66l-0.004,0.807v17.536h19.36v-0.957v-18.343c0-0.391,0.316-0.705,0.705-0.705
	c0.391,0,0.707,0.314,0.707,0.705v18.343l-0.014,9.499l-0.002,55.932c0,6.739,5.463,12.204,12.203,12.204h70.939
	c6.74,0,12.203-5.465,12.203-12.204v-55.932l-0.027-9.499v-18.343c0-0.391,0.318-0.705,0.705-0.705c0.391,0,0.705,0.314,0.705,0.705
	v18.343v1.16h19.379v-17.739L141.53,172.406z"/>
<path fill="#004869" d="M72.773,290.956c-12.446,0.023-22.533,10.12-22.533,22.574v177.382c0,2.898,0.566,5.66,1.561,8.207
	c9.537-1.404,16.863-9.596,16.863-19.52V311.355l-0.021-2.258v-3.317c0-2.461,1.996-4.456,4.456-4.456
	c2.462,0,4.456,1.995,4.456,4.456v3.317l-0.021,1.183V479.6c0,10.91,8.844,19.754,19.754,19.754s19.754-8.844,19.754-19.754V265.127
	H72.773V290.956z"/>
<path fill="#4D4E4E" d="M120.771,200.902l-0.029-9.499l0.002-18.343c0-0.391,0.318-0.705,0.705-0.705
	c0.391,0,0.705,0.314,0.705,0.705v18.343v1.16h19.379v-17.739l-0.002-2.418v-15.049c0-19.593-15.883-35.476-35.477-35.476H72.753
	v147.156h35.814c6.74,0,12.203-5.465,12.203-12.204V200.902z"/>
<path d="M70.797,499.484c-0.045-11.398-9.289-20.625-20.695-20.625H20.695c-11.404,0-20.654,9.227-20.695,20.625H70.797z"/>
<path d="M146.18,499.484c-0.039-11.398-9.283-20.625-20.695-20.625h-29.4c-11.404,0-20.658,9.227-20.695,20.625H146.18z"/>
<path fill="#FED09E" d="M142.708,264.748c-0.313-0.8-0.705-1.556-1.17-2.265v-0.582h-0.001l-0.006-4.233v-65.105h-19.379v65.036
	c0,0,0.076,2.167-1.076,4.303h0.001c-0.158,0.286-0.33,0.573-0.535,0.856c0,0-0.729,1.427-0.918,1.871
	c-0.607,1.423-0.9,3.007-0.9,4.651v2.252l-0.016,7.902v10.569c0,1.55,1.254,2.806,2.803,2.806c1.551,0,2.807-1.256,2.807-2.806
	v-10.569v-2.602c0-0.564,0.453-1.018,1.014-1.018c0.564,0,1.018,0.453,1.018,1.018v23.076c1.475,0.617,3.096,0.96,4.793,0.96
	c6.861,0,12.42-5.559,12.42-12.418V269.28C143.562,267.681,143.259,266.152,142.708,264.748z"/>
<path fill="#FFDAA2" d="M27.458,271.532v-2.252c0-1.645-0.289-3.229-0.9-4.651c-0.189-0.444-0.916-1.871-0.916-1.871
	c-0.205-0.283-0.379-0.57-0.533-0.856c-1.154-2.136-1.08-4.303-1.08-4.303v-65.036H4.668v65.961l-0.021,3.377l-0.004,0.582
	c-0.463,0.709-0.855,1.465-1.168,2.265c-0.551,1.404-0.854,2.933-0.854,4.532v19.171c0,6.859,5.559,12.418,12.418,12.418
	c1.701,0,3.32-0.343,4.793-0.96v-23.076c0-0.564,0.455-1.018,1.018-1.018c0.561,0,1.018,0.453,1.018,1.018l-0.004,2.602v10.569
	c0,1.55,1.258,2.806,2.807,2.806c1.551,0,2.807-1.256,2.807-2.806v-10.569L27.458,271.532z"/>
<path fill="#E6BE91" d="M56.085,121.881v4.233c0,9.203,7.462,16.664,16.665,16.664c9.203,0,16.662-7.461,16.662-16.664v-4.233
	H56.085z"/>
<g>
	<path fill="#FFDAA2" d="M45.665,81.568c0,4.106-3.33,7.437-7.436,7.437l0,0c-4.107,0-7.439-3.33-7.439-7.437v-6.157
		c0-4.107,3.332-7.437,7.439-7.437l0,0c4.105,0,7.436,3.329,7.436,7.437V81.568z"/>
	<path fill="#FED09E" d="M42.978,80.455c0,2.624-2.125,4.751-4.748,4.751l0,0c-2.625,0-4.754-2.127-4.754-4.751v-3.933
		c0-2.623,2.129-4.75,4.754-4.75l0,0c2.623,0,4.748,2.127,4.748,4.75V80.455z"/>
	<path fill="#E6BE91" d="M115.409,81.568c0,4.106-3.33,7.437-7.438,7.437l0,0c-4.107,0-7.439-3.33-7.439-7.437v-6.157
		c0-4.107,3.332-7.437,7.439-7.437l0,0c4.107,0,7.438,3.329,7.438,7.437V81.568z"/>
	<path fill="#DBB58B" d="M112.722,80.456c0,2.623-2.125,4.75-4.75,4.75l0,0c-2.623,0-4.752-2.127-4.752-4.75v-3.934
		c0-2.623,2.129-4.75,4.752-4.75l0,0c2.625,0,4.75,2.127,4.75,4.75V80.456z"/>
	<path fill="#FFDAA2" d="M73.101,17.583c-20.041,0-36.283,16.246-36.283,36.282v24.189c0,15.39,9.588,28.533,23.111,33.807v14.57
		c0,7.271,5.896,13.17,13.172,13.17c7.271,0,13.168-5.898,13.168-13.17v-14.57c13.523-5.271,23.111-18.415,23.111-33.807V53.864
		C109.38,33.828,93.138,17.583,73.101,17.583z"/>
	<path fill="#FED09E" d="M109.309,51.687c-0.012-0.219-0.031-0.436-0.049-0.654c-0.039-0.516-0.09-1.029-0.15-1.539
		c-0.027-0.229-0.057-0.457-0.088-0.684c-0.078-0.559-0.17-1.115-0.273-1.668c-0.027-0.145-0.047-0.289-0.078-0.434
		c-0.139-0.699-0.301-1.391-0.479-2.076c-0.033-0.127-0.074-0.253-0.107-0.379c-0.154-0.56-0.318-1.113-0.498-1.662
		c-0.061-0.183-0.123-0.361-0.184-0.543c-0.182-0.524-0.373-1.043-0.578-1.559c-0.057-0.14-0.109-0.282-0.168-0.422
		c-0.545-1.323-1.164-2.606-1.855-3.846c-0.051-0.091-0.105-0.183-0.156-0.274c-0.309-0.539-0.629-1.071-0.963-1.592
		c-0.059-0.091-0.117-0.183-0.174-0.274c-1.193-1.825-2.543-3.539-4.033-5.117c-0.033-0.035-0.064-0.069-0.098-0.102
		c-2.039-2.14-4.332-4.033-6.84-5.627c-0.012-0.008-0.025-0.016-0.037-0.023l-0.91-0.562c-5.414-3.216-11.734-5.068-18.488-5.068
		c-0.119,0-0.236,0.008-0.354,0.009v121.991c0.117,0.003,0.234,0.018,0.354,0.018c7.271,0,13.168-5.898,13.168-13.17v-14.57
		c13.523-5.271,23.111-18.415,23.111-33.807V53.864C109.381,53.133,109.354,52.408,109.309,51.687z"/>
	<g>
		<path fill="#3C2415" d="M107.95,87.038c-0.148,0.625-0.283,1.187-0.396,1.621C107.698,88.121,107.841,87.583,107.95,87.038z"/>
		<path fill="#3C2415" d="M100.345,25.444c0,0,4.902-9.474-3.428-14.176c0,0-52.342-17.537-62.623,26.205
			c0,0-0.67,15.99,1.145,27.076c0,0,1.008,15.118,3.023,23.383c0,0-3.023-16.73,4.031-25.197c0,0,7.055-7.055,3.023-14.513
			c0,0,0.076-0.31,0.246-0.828c20.854-0.448,39.867-8.242,39.867-8.242c-2.822,4.635-24.189,8.465-24.189,8.465
			c32.857-1.209,35.881-12.497,35.881-12.497s6.65,7.257,6.854,14.312c0,0-4.436,6.449,0.201,12.295c0,0,6.016,13.271,3.574,25.313
			c1.055-4.512,3.076-22.49,3.076-22.49S118.687,31.557,100.345,25.444z"/>
		<path fill="#3C2415" d="M107.554,88.659c-0.117,0.43-0.215,0.863-0.355,1.287C107.198,89.946,107.337,89.486,107.554,88.659z"/>
	</g>
	<path fill="#3C2415" d="M34.294,37.472c0,0-0.063-25.472,12.187-36.472c0,0-6.5,7,28.75,6.75L34.294,37.472z"/>
</g>
<polygon fill="#3C2415" points="79.232,97.702 72.748,100.167 66.264,97.702 "/>
<polygon fill="#E6BE91" points="72.749,71.43 72.749,88.966 77.074,86.232 "/>
<circle fill="#3C2415" cx="58.116" cy="67.975" r="3.225"/>
<circle fill="#3C2415" cx="88.083" cy="67.975" r="3.226"/>
<path fill="#3C2415" d="M25.427,200.902l-0.001,46.053l22.054-125.074h-7.332c-2.276,0-4.5,0.223-6.657,0.633l-8.79,49.848
	c0.012-0.001,0.021-0.007,0.033-0.007c0.391,0,0.707,0.314,0.707,0.705v18.343L25.427,200.902z"/>
<path fill="#3C2415" d="M120.795,200.902l0.001,46.053L98.742,121.882h7.332c2.275,0,4.5,0.223,6.656,0.633l8.791,49.848
	c-0.012-0.001-0.021-0.007-0.033-0.007c-0.391,0-0.707,0.314-0.707,0.705v18.343L120.795,200.902z"/>
</svg>
