<?xml version="1.0" encoding="utf-8"?>
<!-- Generator: Adobe Illustrator 16.0.0, SVG Export Plug-In . SVG Version: 6.00 Build 0)  -->
<!DOCTYPE svg PUBLIC "-//W3C//DTD SVG 1.0//EN" "http://www.w3.org/TR/2001/REC-SVG-20010904/DTD/svg10.dtd">
<svg version="1.0" xmlns="http://www.w3.org/2000/svg" xmlns:xlink="http://www.w3.org/1999/xlink" x="0px" y="0px"
	 width="841.89px" height="595.28px" viewBox="0 0 841.89 595.28" enable-background="new 0 0 841.89 595.28" xml:space="preserve">
<g id="background">
	<g>
		<g>
			<rect x="231.945" y="41" fill="#414042" width="175" height="134"/>
			<rect x="237.168" y="46.5" fill="#D7F0FC" width="164.552" height="123"/>
		</g>
		<rect x="245.443" y="55.5" fill="none" stroke="#FFFFFF" stroke-miterlimit="10" width="148" height="105.5"/>
		<line fill="none" stroke="#FFFFFF" stroke-miterlimit="10" x1="245.445" y1="55.5" x2="393.945" y2="55.5"/>
		<line fill="none" stroke="#FFFFFF" stroke-miterlimit="10" x1="245.445" y1="65.09" x2="393.945" y2="65.09"/>
		<line fill="none" stroke="#FFFFFF" stroke-miterlimit="10" x1="245.445" y1="74.681" x2="393.945" y2="74.681"/>
		<line fill="none" stroke="#FFFFFF" stroke-miterlimit="10" x1="245.445" y1="84.272" x2="393.945" y2="84.272"/>
		<line fill="none" stroke="#FFFFFF" stroke-miterlimit="10" x1="245.445" y1="93.863" x2="393.945" y2="93.863"/>
		<line fill="none" stroke="#FFFFFF" stroke-miterlimit="10" x1="245.445" y1="103.454" x2="393.945" y2="103.454"/>
		<line fill="none" stroke="#FFFFFF" stroke-miterlimit="10" x1="245.445" y1="113.045" x2="393.945" y2="113.045"/>
		<line fill="none" stroke="#FFFFFF" stroke-miterlimit="10" x1="245.445" y1="122.636" x2="393.945" y2="122.636"/>
		<line fill="none" stroke="#FFFFFF" stroke-miterlimit="10" x1="245.445" y1="132.227" x2="393.945" y2="132.227"/>
		<line fill="none" stroke="#FFFFFF" stroke-miterlimit="10" x1="245.445" y1="141.818" x2="393.945" y2="141.818"/>
		<line fill="none" stroke="#FFFFFF" stroke-miterlimit="10" x1="245.445" y1="151.409" x2="393.945" y2="151.409"/>
		<line fill="none" stroke="#FFFFFF" stroke-miterlimit="10" x1="245.445" y1="161" x2="393.945" y2="161"/>
		<line fill="none" stroke="#FFFFFF" stroke-miterlimit="10" x1="245.443" y1="55.333" x2="245.443" y2="161.667"/>
		<line fill="none" stroke="#FFFFFF" stroke-miterlimit="10" x1="263.943" y1="55.333" x2="263.943" y2="161.667"/>
		<line fill="none" stroke="#FFFFFF" stroke-miterlimit="10" x1="282.443" y1="55.333" x2="282.443" y2="161.667"/>
		<line fill="none" stroke="#FFFFFF" stroke-miterlimit="10" x1="300.943" y1="55.333" x2="300.943" y2="161.667"/>
		<line fill="none" stroke="#FFFFFF" stroke-miterlimit="10" x1="319.443" y1="55.333" x2="319.443" y2="161.667"/>
		<line fill="none" stroke="#FFFFFF" stroke-miterlimit="10" x1="337.943" y1="55.333" x2="337.943" y2="161.667"/>
		<line fill="none" stroke="#FFFFFF" stroke-miterlimit="10" x1="356.443" y1="55.333" x2="356.443" y2="161.667"/>
		<line fill="none" stroke="#FFFFFF" stroke-miterlimit="10" x1="374.943" y1="55.333" x2="374.943" y2="161.667"/>
		<line fill="none" stroke="#FFFFFF" stroke-miterlimit="10" x1="393.443" y1="55.333" x2="393.443" y2="161.667"/>
		<polyline fill="none" stroke="#939598" stroke-miterlimit="10" points="245.445,132.227 252.695,125.75 254.195,127.5 
			261.445,124.75 271.695,126.25 280.945,122.25 297.445,109.25 312.945,102 315.695,104 325.445,108.5 333.695,109 342.195,112.75 
			354.445,99.25 365.945,85.75 388.695,80.75 393.445,82.5 		"/>
	</g>
	<g>
		<g>
			<rect x="231.945" y="191" fill="#414042" width="175" height="134"/>
			<rect x="237.168" y="196.5" width="164.552" height="123"/>
		</g>
		<rect x="245.443" y="205.5" fill="none" stroke="#FFFFFF" stroke-miterlimit="10" width="148" height="105.5"/>
		<line fill="none" stroke="#FFFFFF" stroke-miterlimit="10" x1="245.445" y1="205.5" x2="393.945" y2="205.5"/>
		<line fill="none" stroke="#FFFFFF" stroke-miterlimit="10" x1="245.445" y1="215.09" x2="393.945" y2="215.09"/>
		<line fill="none" stroke="#FFFFFF" stroke-miterlimit="10" x1="245.445" y1="224.681" x2="393.945" y2="224.681"/>
		<line fill="none" stroke="#FFFFFF" stroke-miterlimit="10" x1="245.445" y1="234.272" x2="393.945" y2="234.272"/>
		<line fill="none" stroke="#FFFFFF" stroke-miterlimit="10" x1="245.445" y1="243.863" x2="393.945" y2="243.863"/>
		<line fill="none" stroke="#FFFFFF" stroke-miterlimit="10" x1="245.445" y1="253.454" x2="393.945" y2="253.454"/>
		<line fill="none" stroke="#FFFFFF" stroke-miterlimit="10" x1="245.445" y1="263.045" x2="393.945" y2="263.045"/>
		<line fill="none" stroke="#FFFFFF" stroke-miterlimit="10" x1="245.445" y1="272.636" x2="393.945" y2="272.636"/>
		<line fill="none" stroke="#FFFFFF" stroke-miterlimit="10" x1="245.445" y1="282.227" x2="393.945" y2="282.227"/>
		<line fill="none" stroke="#FFFFFF" stroke-miterlimit="10" x1="245.445" y1="291.818" x2="393.945" y2="291.818"/>
		<line fill="none" stroke="#FFFFFF" stroke-miterlimit="10" x1="245.445" y1="301.408" x2="393.945" y2="301.408"/>
		<line fill="none" stroke="#FFFFFF" stroke-miterlimit="10" x1="245.445" y1="311" x2="393.945" y2="311"/>
		<line fill="none" stroke="#FFFFFF" stroke-miterlimit="10" x1="245.443" y1="205.333" x2="245.443" y2="311.666"/>
		<line fill="none" stroke="#FFFFFF" stroke-miterlimit="10" x1="263.943" y1="205.333" x2="263.943" y2="311.666"/>
		<line fill="none" stroke="#FFFFFF" stroke-miterlimit="10" x1="282.443" y1="205.333" x2="282.443" y2="311.666"/>
		<line fill="none" stroke="#FFFFFF" stroke-miterlimit="10" x1="300.943" y1="205.333" x2="300.943" y2="311.666"/>
		<line fill="none" stroke="#FFFFFF" stroke-miterlimit="10" x1="319.443" y1="205.333" x2="319.443" y2="311.666"/>
		<line fill="none" stroke="#FFFFFF" stroke-miterlimit="10" x1="337.943" y1="205.333" x2="337.943" y2="311.666"/>
		<line fill="none" stroke="#FFFFFF" stroke-miterlimit="10" x1="356.443" y1="205.333" x2="356.443" y2="311.666"/>
		<line fill="none" stroke="#FFFFFF" stroke-miterlimit="10" x1="374.943" y1="205.333" x2="374.943" y2="311.666"/>
		<line fill="none" stroke="#FFFFFF" stroke-miterlimit="10" x1="393.443" y1="205.333" x2="393.443" y2="311.666"/>
		<polyline fill="none" stroke="#FFF200" stroke-miterlimit="10" points="245.445,282.227 251.278,268.667 256.278,271 
			261.445,274.75 271.612,269 280.945,272.25 297.445,259.25 310.278,259.333 315.695,254 325.445,258.5 333.695,259 
			342.612,247.667 354.445,249.25 366.612,240.333 388.612,242.667 393.945,246.667 		"/>
		<polyline fill="none" stroke="#EE2A7B" stroke-miterlimit="10" points="245.111,266.333 255.945,264.667 267.111,266.667 
			274.445,272.333 292.111,266.333 312.112,262.5 317.778,252.333 325.612,256.667 337.112,258.5 344.612,252.667 351.112,244.333 
			365.611,255.833 383.111,255.5 393.611,258.167 		"/>
		<polyline fill="none" stroke="#39B54A" stroke-miterlimit="10" points="245.695,290.25 273.945,277.5 288.445,256.75 301.695,251 
			327.945,262 347.695,264.5 359.945,236.75 381.195,231.25 393.445,222 		"/>
	</g>
	<g>
		<g>
			<rect x="431.945" y="191" fill="#414042" width="175" height="134"/>
			<rect x="437.168" y="196.5" width="164.553" height="123"/>
		</g>
		<rect x="445.443" y="205.45" fill="none" stroke="#FFFFFF" stroke-miterlimit="10" width="148" height="74.082"/>
		<rect x="445.443" y="284.532" fill="#39B54A" width="148" height="25.085"/>
		<line fill="none" stroke="#FFFFFF" stroke-miterlimit="10" x1="445.445" y1="212.185" x2="593.945" y2="212.185"/>
		<line fill="none" stroke="#FFFFFF" stroke-miterlimit="10" x1="445.445" y1="218.919" x2="593.945" y2="218.919"/>
		<line fill="none" stroke="#FFFFFF" stroke-miterlimit="10" x1="445.445" y1="225.654" x2="593.945" y2="225.654"/>
		<line fill="none" stroke="#FFFFFF" stroke-miterlimit="10" x1="445.445" y1="232.389" x2="593.945" y2="232.389"/>
		<line fill="none" stroke="#FFFFFF" stroke-miterlimit="10" x1="445.445" y1="239.124" x2="593.945" y2="239.124"/>
		<line fill="none" stroke="#FFFFFF" stroke-miterlimit="10" x1="445.445" y1="245.858" x2="593.945" y2="245.858"/>
		<line fill="none" stroke="#FFFFFF" stroke-miterlimit="10" x1="445.445" y1="252.593" x2="593.945" y2="252.593"/>
		<line fill="none" stroke="#FFFFFF" stroke-miterlimit="10" x1="445.445" y1="259.328" x2="593.945" y2="259.328"/>
		<line fill="none" stroke="#FFFFFF" stroke-miterlimit="10" x1="445.445" y1="266.063" x2="593.945" y2="266.063"/>
		<line fill="none" stroke="#FFFFFF" stroke-miterlimit="10" x1="445.445" y1="272.797" x2="593.945" y2="272.797"/>
		<line fill="none" stroke="#FFFFFF" stroke-miterlimit="10" x1="445.443" y1="205.333" x2="445.443" y2="280"/>
		<line fill="none" stroke="#FFFFFF" stroke-miterlimit="10" x1="463.943" y1="205.333" x2="463.943" y2="280"/>
		<line fill="none" stroke="#FFFFFF" stroke-miterlimit="10" x1="482.443" y1="205.333" x2="482.443" y2="280"/>
		<line fill="none" stroke="#FFFFFF" stroke-miterlimit="10" x1="500.943" y1="205.333" x2="500.943" y2="280"/>
		<line fill="none" stroke="#FFFFFF" stroke-miterlimit="10" x1="519.443" y1="205.333" x2="519.443" y2="280"/>
		<line fill="none" stroke="#FFFFFF" stroke-miterlimit="10" x1="537.943" y1="205.333" x2="537.943" y2="280"/>
		<line fill="none" stroke="#FFFFFF" stroke-miterlimit="10" x1="556.443" y1="205.333" x2="556.443" y2="280"/>
		<line fill="none" stroke="#FFFFFF" stroke-miterlimit="10" x1="574.943" y1="205.333" x2="574.943" y2="280"/>
		<line fill="none" stroke="#FFFFFF" stroke-miterlimit="10" x1="593.443" y1="205.333" x2="593.443" y2="280"/>
		<path fill="none" stroke="#39B54A" stroke-miterlimit="10" d="M445.611,264.667l1.084-3.917l0.375,2.875c0,0,1-1.375,1.125-0.75
			s0.5,1.875,0.5,1.875l1.125-5.5l0.875,1.75l1.875-4.875l0.875,4.125l1.375-5.125l1.5-4l0.625,3.25l2.25-0.125l1.375-6l1.75-2.625
			l1.375,7.75l2,0.5l0.5-3.875l2-3.875l1.25-5.125l0.375,2.375l2,1.75l1.25,1.25l1.75,1.875l1.25-3.875l1.75-0.125l2.5-7l0.125,6.75
			l2.125,3.625l1,1.25l1.125,1.5l0.875-4.875l2.125-1.625l1.125-2.125l0.5,4l1.25,3.125l1.625-0.375l1.25-4.375l1.25-0.25l1-0.5
			l1.25-0.125l1,0.75l1.125-2.125l1.625-2l1.625-2.625l0.875-1.875l0.25,3.125l1.375,3l2,1.5l1.125,2.25l1.75-3.875l2.75-5
			l0.125,2.875l0.375,2.625l1.5,1.625l2.25-2l0.5-3.75l2.5-0.5l1.25-0.625l1.5-0.75l1.875-1.25l1.375,2.25l1,0.375l2.125-1.625
			l1.5-5.625l1.25,4.375l1.25,1.25l1,1.125l1,0.625l1.375-0.375l2.125-0.125l0.875-1l2-1.375"/>
	</g>
	<g>
		<g>
			<rect x="434.945" y="41" fill="#414042" width="175" height="134"/>
			<rect x="440.168" y="46.5" fill="#D7F0FC" width="164.553" height="123"/>
		</g>
		
			<rect x="448.443" y="55.5" fill="none" stroke="#27AAE1" stroke-width="0.25" stroke-miterlimit="10" width="148" height="105.5"/>
		<line fill="none" stroke="#27AAE1" stroke-width="0.25" stroke-miterlimit="10" x1="448.445" y1="55.5" x2="596.945" y2="55.5"/>
		
			<line fill="none" stroke="#27AAE1" stroke-width="0.25" stroke-miterlimit="10" x1="448.445" y1="65.09" x2="596.945" y2="65.09"/>
		
			<line fill="none" stroke="#27AAE1" stroke-width="0.25" stroke-miterlimit="10" x1="448.445" y1="74.681" x2="596.945" y2="74.681"/>
		
			<line fill="none" stroke="#27AAE1" stroke-width="0.25" stroke-miterlimit="10" x1="448.445" y1="84.272" x2="596.945" y2="84.272"/>
		
			<line fill="none" stroke="#27AAE1" stroke-width="0.25" stroke-miterlimit="10" x1="448.445" y1="93.863" x2="596.945" y2="93.863"/>
		
			<line fill="none" stroke="#27AAE1" stroke-width="0.25" stroke-miterlimit="10" x1="448.445" y1="103.454" x2="596.945" y2="103.454"/>
		
			<line fill="none" stroke="#27AAE1" stroke-width="0.25" stroke-miterlimit="10" x1="448.445" y1="113.045" x2="596.945" y2="113.045"/>
		
			<line fill="none" stroke="#27AAE1" stroke-width="0.25" stroke-miterlimit="10" x1="448.445" y1="122.636" x2="596.945" y2="122.636"/>
		
			<line fill="none" stroke="#27AAE1" stroke-width="0.25" stroke-miterlimit="10" x1="448.445" y1="132.227" x2="596.945" y2="132.227"/>
		
			<line fill="none" stroke="#27AAE1" stroke-width="0.25" stroke-miterlimit="10" x1="448.445" y1="141.818" x2="596.945" y2="141.818"/>
		
			<line fill="none" stroke="#27AAE1" stroke-width="0.25" stroke-miterlimit="10" x1="448.445" y1="151.409" x2="596.945" y2="151.409"/>
		<line fill="none" stroke="#27AAE1" stroke-width="0.25" stroke-miterlimit="10" x1="448.445" y1="161" x2="596.945" y2="161"/>
		
			<line fill="none" stroke="#27AAE1" stroke-width="0.25" stroke-miterlimit="10" x1="448.443" y1="55.333" x2="448.443" y2="161.667"/>
		
			<line fill="none" stroke="#27AAE1" stroke-width="0.25" stroke-miterlimit="10" x1="466.943" y1="55.333" x2="466.943" y2="161.667"/>
		
			<line fill="none" stroke="#27AAE1" stroke-width="0.25" stroke-miterlimit="10" x1="485.443" y1="55.333" x2="485.443" y2="161.667"/>
		
			<line fill="none" stroke="#27AAE1" stroke-width="0.25" stroke-miterlimit="10" x1="503.943" y1="55.333" x2="503.943" y2="161.667"/>
		
			<line fill="none" stroke="#27AAE1" stroke-width="0.25" stroke-miterlimit="10" x1="522.443" y1="55.333" x2="522.443" y2="161.667"/>
		
			<line fill="none" stroke="#27AAE1" stroke-width="0.25" stroke-miterlimit="10" x1="540.943" y1="55.333" x2="540.943" y2="161.667"/>
		
			<line fill="none" stroke="#27AAE1" stroke-width="0.25" stroke-miterlimit="10" x1="559.443" y1="55.333" x2="559.443" y2="161.667"/>
		
			<line fill="none" stroke="#27AAE1" stroke-width="0.25" stroke-miterlimit="10" x1="577.943" y1="55.333" x2="577.943" y2="161.667"/>
		
			<line fill="none" stroke="#27AAE1" stroke-width="0.25" stroke-miterlimit="10" x1="596.443" y1="55.333" x2="596.443" y2="161.667"/>
		<polyline fill="none" stroke="#FFFFFF" stroke-width="2" stroke-miterlimit="10" points="448.611,116.667 457.945,115.333 
			465.945,116.333 485.278,103.333 503.945,103.667 522.445,108 540.611,101 559.278,84.333 577.945,74.667 589.277,78.333 
			596.611,86 		"/>
	</g>
</g>
<g id="man">
	<g>
		<g>
			<path fill="#3B121E" d="M376.693,312.517h87.885v214.473c0,10.91-8.844,19.754-19.754,19.754l0,0
				c-10.91,0-19.754-8.844-19.754-19.754V357.67l0.021-1.183v-3.317c0-2.461-1.994-4.456-4.457-4.456l0,0
				c-2.46,0-4.456,1.995-4.456,4.456v3.317l0.021,2.258v168.244c0,10.91-8.845,19.754-19.754,19.754l0,0
				c-10.91,0-19.754-8.844-19.754-19.754V312.517"/>
		</g>
		<path fill="#2F111A" d="M420.31,338.346c-12.446,0.023-22.533,10.12-22.533,22.574v177.383c0,2.897,0.566,5.66,1.561,8.206
			c9.537-1.403,16.863-9.595,16.863-19.52V358.745l-0.021-2.258v-3.317c0-2.461,1.996-4.456,4.456-4.456
			c2.462,0,4.457,1.995,4.457,4.456v3.317l-0.021,1.183v169.319c0,10.91,8.844,19.754,19.754,19.754s19.754-8.844,19.754-19.754
			V312.517H420.31V338.346z"/>
		<path d="M418.333,546.874c-0.045-11.398-9.289-20.625-20.695-20.625h-29.406c-11.404,0-20.654,9.227-20.695,20.625H418.333z"/>
		<path d="M493.717,546.874c-0.039-11.398-9.283-20.625-20.695-20.625h-29.4c-11.404,0-20.658,9.227-20.695,20.625H493.717z"/>
		<path fill="#FFFFFF" d="M371.565,304.988v-66.195V220.45c0-0.391,0.316-0.705,0.705-0.705c0.391,0,0.707,0.314,0.707,0.705v18.343
			l-0.014,9.499l-0.002,55.932c0,6.739,5.463,12.204,12.203,12.204h70.939c6.74,0,12.203-5.465,12.203-12.204v-55.932l-0.027-9.499
			V220.45c0-0.391,0.318-0.705,0.705-0.705c0.391,0,0.705,0.314,0.705,0.705v18.343v66.195c0,0,0.076,2.167-1.076,4.303h20.461
			l-0.006-4.233v-82.844l-0.002-2.418v-15.049c0-19.593-15.883-35.476-35.477-35.476h-65.906c-19.592,0-35.475,15.883-35.475,35.476
			v16.66l-0.004,0.807v83.7l-0.021,3.377h20.461C371.491,307.155,371.565,304.988,371.565,304.988z"/>
		<line fill="none" stroke="#000000" stroke-miterlimit="10" x1="364.885" y1="348.574" x2="364.885" y2="348.574"/>
		<path fill="#FED09E" d="M468.078,310.147c0,0-0.729,1.427-0.918,1.871c-0.607,1.423-0.9,3.007-0.9,4.651v2.252l-0.016,7.902
			v10.569c0,1.55,1.254,2.806,2.803,2.806c1.551,0,2.807-1.256,2.807-2.806v-10.569v-2.602c0-0.564,0.453-1.018,1.014-1.018
			c0.564,0,1.018,0.453,1.018,1.018v23.076c1.475,0.617,3.096,0.96,4.793,0.96c6.861,0,12.42-5.559,12.42-12.418V316.67
			c0-1.6-0.303-3.128-0.854-4.532c-0.313-0.8-0.705-1.556-1.17-2.265v-0.582h-20.461
			C468.455,309.577,468.283,309.864,468.078,310.147z"/>
		<path fill="#FFDAA2" d="M351.012,312.138c-0.551,1.404-0.854,2.933-0.854,4.532v19.171c0,6.859,5.559,12.418,12.418,12.418
			c1.701,0,3.32-0.343,4.793-0.96v-23.076c0-0.564,0.455-1.018,1.018-1.018c0.561,0,1.018,0.453,1.018,1.018l-0.004,2.602v10.569
			c0,1.55,1.258,2.806,2.807,2.806c1.551,0,2.807-1.256,2.807-2.806v-10.569l-0.02-7.902v-2.252c0-1.645-0.289-3.229-0.9-4.651
			c-0.189-0.444-0.916-1.871-0.916-1.871c-0.205-0.283-0.379-0.57-0.533-0.856h-20.461l-0.004,0.582
			C351.717,310.582,351.324,311.338,351.012,312.138z"/>
		<path fill="#F1F2F2" d="M489.068,222.214l-0.002-2.418v-15.049c0-19.593-15.883-35.476-35.477-35.476h-33.3v147.156h35.814
			c6.74,0,12.203-5.465,12.203-12.204v-55.932l-0.029-9.499l0.002-18.343c0-0.391,0.318-0.705,0.705-0.705
			c0.391,0,0.705,0.314,0.705,0.705v18.343v66.195c0,0,0.076,2.167-1.076,4.303h20.461l-0.006-4.233V222.214z"/>
		<polygon fill="#BE1E2D" points="423.367,195.261 420.291,195.261 417.214,195.261 410.336,296.481 420.291,303.675 
			430.246,296.481 		"/>
		<g>
			<path fill="#FFDAA2" d="M393.202,128.958c0,4.106-3.33,7.437-7.436,7.437l0,0c-4.107,0-7.439-3.33-7.439-7.437v-6.157
				c0-4.107,3.332-7.437,7.439-7.437l0,0c4.105,0,7.436,3.329,7.436,7.437V128.958z"/>
			<path fill="#FED09E" d="M390.514,127.845c0,2.624-2.125,4.751-4.748,4.751l0,0c-2.625,0-4.754-2.127-4.754-4.751v-3.933
				c0-2.623,2.129-4.75,4.754-4.75l0,0c2.623,0,4.748,2.127,4.748,4.75V127.845z"/>
			<path fill="#E6BE91" d="M462.945,128.958c0,4.106-3.33,7.437-7.438,7.437l0,0c-4.107,0-7.439-3.33-7.439-7.437v-6.157
				c0-4.107,3.332-7.437,7.439-7.437l0,0c4.107,0,7.438,3.329,7.438,7.437V128.958z"/>
			<path fill="#DBB58B" d="M460.258,127.846c0,2.623-2.125,4.75-4.75,4.75l0,0c-2.623,0-4.752-2.127-4.752-4.75v-3.934
				c0-2.623,2.129-4.75,4.752-4.75l0,0c2.625,0,4.75,2.127,4.75,4.75V127.846z"/>
			<path fill="#FFDAA2" d="M420.637,64.972c-20.041,0-36.283,16.246-36.283,36.282v24.189c0,15.39,9.588,28.533,23.111,33.807v14.57
				c0,7.271,5.896,13.17,13.172,13.17c7.271,0,13.167-5.898,13.167-13.17v-14.57c13.523-5.271,23.111-18.415,23.111-33.807v-24.189
				C456.916,81.218,440.674,64.972,420.637,64.972z"/>
			<path fill="#FED09E" d="M456.846,99.076c-0.012-0.219-0.031-0.436-0.049-0.654c-0.039-0.516-0.09-1.029-0.15-1.539
				c-0.027-0.229-0.057-0.457-0.088-0.684c-0.078-0.559-0.17-1.115-0.273-1.668c-0.027-0.145-0.047-0.289-0.078-0.434
				c-0.139-0.699-0.301-1.391-0.479-2.076c-0.033-0.127-0.074-0.253-0.107-0.379c-0.154-0.56-0.318-1.113-0.498-1.662
				c-0.061-0.183-0.123-0.361-0.184-0.543c-0.182-0.524-0.373-1.043-0.578-1.559c-0.057-0.14-0.109-0.282-0.168-0.422
				c-0.545-1.323-1.164-2.606-1.855-3.846c-0.051-0.091-0.105-0.183-0.156-0.274c-0.309-0.539-0.629-1.071-0.963-1.592
				c-0.059-0.091-0.117-0.183-0.174-0.274c-1.193-1.825-2.543-3.539-4.033-5.117c-0.033-0.035-0.064-0.069-0.098-0.102
				c-2.039-2.14-4.332-4.033-6.84-5.627c-0.012-0.008-0.025-0.016-0.037-0.023l-0.91-0.562c-5.414-3.216-11.734-5.068-18.489-5.068
				c-0.119,0-0.236,0.008-0.354,0.009v121.991c0.117,0.003,0.234,0.018,0.354,0.018c7.272,0,13.168-5.898,13.168-13.17v-14.57
				c13.523-5.271,23.111-18.415,23.111-33.807v-24.189C456.918,100.522,456.891,99.798,456.846,99.076z"/>
			<g>
				<path fill="#3C2415" d="M455.486,134.428c-0.148,0.625-0.283,1.187-0.396,1.621
					C455.234,135.511,455.377,134.973,455.486,134.428z"/>
				<path fill="#3C2415" d="M447.881,72.833c0,0,4.902-9.474-3.428-14.176c0,0-52.341-17.537-62.623,26.205
					c0,0-0.67,15.99,1.145,27.076c0,0,1.008,15.118,3.023,23.383c0,0-3.023-16.73,4.031-25.197c0,0,7.055-7.055,3.023-14.513
					c0,0,0.076-0.31,0.246-0.828c20.854-0.448,39.867-8.242,39.867-8.242c-2.822,4.635-24.189,8.465-24.189,8.465
					c32.857-1.209,35.88-12.497,35.88-12.497s6.65,7.257,6.854,14.312c0,0-4.436,6.449,0.201,12.295c0,0,6.016,13.271,3.574,25.313
					c1.055-4.512,3.076-22.49,3.076-22.49S466.223,78.947,447.881,72.833z"/>
				<path fill="#3C2415" d="M455.09,136.049c-0.117,0.43-0.215,0.863-0.355,1.287C454.734,137.336,454.873,136.876,455.09,136.049z"
					/>
			</g>
			<path fill="#3C2415" d="M381.831,84.862c0,0-0.063-25.472,12.187-36.472c0,0-6.5,7,28.75,6.75L381.831,84.862z"/>
		</g>
		<polygon fill="#3C2415" points="426.77,145.091 420.285,147.556 413.8,145.091 		"/>
		<circle fill="#3C2415" cx="405.653" cy="115.364" r="3.225"/>
		<circle fill="#3C2415" cx="435.62" cy="115.364" r="3.226"/>
		<polygon fill="#BE1E2D" points="423.393,195.602 417.19,195.602 413.587,186.998 426.994,186.998 		"/>
		<polygon fill="#B61C2A" points="420.291,195.261 420.285,195.261 420.285,303.671 420.291,303.675 430.246,296.481 
			423.367,195.261 		"/>
		<polygon fill="#B61C2A" points="420.285,195.602 423.393,195.602 426.994,186.998 420.285,186.998 		"/>
		<polygon fill="#E6E7E8" points="437.615,224.833 437.615,249.184 448.409,253.407 459.203,249.184 459.203,224.833 		"/>
		<path fill="#FED09E" d="M469.689,239.953v65.036c0,0,0.076,2.167-1.076,4.303h20.461l-0.006-4.233v-65.105H469.689z"/>
		<path fill="#FFDAA2" d="M371.565,304.988v-65.036h-19.36v65.961l-0.021,3.377h20.461
			C371.491,307.155,371.565,304.988,371.565,304.988z"/>
		<polygon fill="#E6BE91" points="420.285,118.819 420.285,136.355 424.611,133.622 		"/>
		<path fill="#F1F2F2" d="M407.445,163.917c0,0-12.5,9.708-7.25,32.458c0,0,5.75-13.25,17.25-9.75c0,0-9.063-2.063-10-12.25V163.917
			z"/>
		<path fill="#E6E7E8" d="M433.783,163.917c0,0,12.5,9.708,7.25,32.458c0,0-5.75-13.25-17.25-9.75c0,0,9.063-2.063,10-12.25V163.917
			z"/>
	</g>
</g>
</svg>
