<?xml version="1.0" encoding="utf-8"?>
<!-- Generator: Adobe Illustrator 16.0.0, SVG Export Plug-In . SVG Version: 6.00 Build 0)  -->
<!DOCTYPE svg PUBLIC "-//W3C//DTD SVG 1.0//EN" "http://www.w3.org/TR/2001/REC-SVG-20010904/DTD/svg10.dtd">
<svg version="1.0" xmlns="http://www.w3.org/2000/svg" xmlns:xlink="http://www.w3.org/1999/xlink" x="0px" y="0px"
	 width="841.89px" height="595.28px" viewBox="0 0 841.89 595.28" enable-background="new 0 0 841.89 595.28" xml:space="preserve">
<g id="background">
	<g>
		<circle fill="#E6E7E8" cx="420.945" cy="40.667" r="44.667"/>
		<circle fill="#E6E7E8" cx="525.945" cy="109.667" r="44.667"/>
		<circle fill="#E6E7E8" cx="525.945" cy="219.667" r="44.667"/>
		<circle fill="#E6E7E8" cx="315.945" cy="109.667" r="44.667"/>
		<circle fill="#E6E7E8" cx="315.945" cy="219.667" r="44.667"/>
		<g>
			<g>
				<path fill="#4EAFDE" d="M401.813,47.985V60.18h0.016c0.345,2.955,9.343,5.321,20.397,5.321c11.057,0,20.053-2.366,20.398-5.321
					h0.016V47.985H401.813z"/>
				<ellipse fill="#67BBE5" cx="422.227" cy="48.096" rx="20.414" ry="5.496"/>
			</g>
			<g>
				<path fill="#4EAFDE" d="M401.813,33.853v12.194h0.016c0.345,2.955,9.343,5.321,20.397,5.321c11.057,0,20.053-2.366,20.398-5.321
					h0.016V33.853H401.813z"/>
				<ellipse fill="#67BBE5" cx="422.227" cy="33.963" rx="20.414" ry="5.496"/>
			</g>
			<path fill="#4EAFDE" d="M401.813,19.719v12.195h0.016c0.345,2.955,9.343,5.32,20.397,5.32c11.057,0,20.053-2.366,20.398-5.32
				h0.016V19.719H401.813z"/>
			<ellipse fill="#67BBE5" cx="422.227" cy="19.83" rx="20.414" ry="5.496"/>
		</g>
		<path fill="#ACD38D" stroke="#3C5B2B" stroke-width="3" stroke-miterlimit="10" d="M316.716,87.547h19.375v29.251
			c0,0-2.659,17.476-20.134,21.654c-17.475-4.178-20.134-21.654-20.134-21.654V87.547h19.375H316.716z"/>
		<polyline fill="none" stroke="#3C5B2B" stroke-width="5" stroke-miterlimit="10" points="308.456,109.5 314.706,115.75 
			325.706,104.75 		"/>
		<path fill="#148ECE" d="M550.029,114.912c0-5.148-3.188-9.542-7.696-11.337c0.015-0.185,0.028-0.37,0.028-0.558
			c0-3.891-3.153-7.043-7.044-7.043c-0.349,0-0.688,0.034-1.024,0.083c-1.041-4.877-5.37-8.535-10.558-8.535
			c-5.965,0-10.8,4.835-10.8,10.8c0,0.24,0.021,0.475,0.036,0.71c-6.606,1.201-11.618,6.972-11.618,13.925
			c0,7.533,5.883,13.674,13.304,14.121v0.043h0.849c0.004,0,0.008,0,0.012,0c0.005,0,0.009,0,0.013,0h22.279
			c0.005,0,0.009,0,0.013,0s0.008,0,0.012,0h0.927v-0.047C545.063,126.592,550.029,121.337,550.029,114.912z"/>
		<g>
			<g>
				<path fill="#D1D3D4" d="M344.486,237.688c0,0.354-0.288,0.64-0.641,0.64h-56.818c-0.354,0-0.641-0.286-0.641-0.64v-37.132
					c0-0.354,0.287-0.64,0.641-0.64h56.818c0.353,0,0.641,0.286,0.641,0.64V237.688z"/>
				<path fill="#C7C8CA" d="M343.845,199.916h-28.409v38.412h28.409c0.353,0,0.641-0.286,0.641-0.64v-37.132
					C344.486,200.202,344.198,199.916,343.845,199.916z"/>
				<rect x="281.583" y="238.303" fill="#BCBEC0" width="67.706" height="2.081"/>
				<path fill="#A7A9AC" d="M281.582,240.38c0.29,0.348,0.729,0.628,1.257,0.804h65.193c0.529-0.176,0.967-0.456,1.257-0.804
					H281.582z"/>
				<path fill="#282829" d="M344.127,237.649c0,0.177-0.143,0.32-0.321,0.32h-56.741c-0.178,0-0.32-0.144-0.32-0.32v-37.054
					c0-0.177,0.143-0.32,0.32-0.32h56.741c0.178,0,0.321,0.143,0.321,0.32V237.649z"/>
				<path d="M343.806,200.275h-28.37v37.694h28.37c0.178,0,0.321-0.144,0.321-0.32v-37.054
					C344.127,200.418,343.984,200.275,343.806,200.275z"/>
				<rect x="289.486" y="202.769" fill="#414042" width="52.073" height="33.079"/>
				<path fill="#9D9FA2" d="M315.436,241.184h32.596c0.529-0.176,0.967-0.456,1.257-0.804h-33.854V241.184z"/>
				<rect x="315.436" y="238.303" fill="#B1B3B6" width="33.853" height="2.081"/>
				<rect x="315.436" y="202.769" fill="#3F3F40" width="26.123" height="33.079"/>
			</g>
			<rect x="292.402" y="204.793" fill="#FAE48C" width="9.657" height="0.751"/>
			<rect x="294.767" y="208.34" fill="#EA918C" width="6.208" height="0.751"/>
			<rect x="294.767" y="210.706" fill="#F8C37F" width="10.149" height="0.751"/>
			<rect x="297.132" y="213.07" fill="#81C7E8" width="6.307" height="0.751"/>
			<rect x="299.497" y="215.435" fill="#EA918C" width="9.657" height="0.751"/>
			<rect x="297.132" y="217.8" fill="#FAE48C" width="7.095" height="0.751"/>
			<rect x="293.584" y="220.165" fill="#EA918C" width="9.657" height="0.751"/>
			<rect x="294.767" y="222.529" fill="#FAE48C" width="13.007" height="0.751"/>
			<rect x="297.132" y="224.894" fill="#EA918C" width="5.42" height="0.751"/>
			<rect x="299.497" y="227.259" fill="#81C7E8" width="7.686" height="0.751"/>
		</g>
		<g>
			<rect x="527.789" y="192" fill="none" stroke="#000000" stroke-width="0.25" stroke-miterlimit="10" width="12" height="8"/>
			<polygon fill="none" stroke="#000000" stroke-width="0.25" stroke-miterlimit="10" points="533.789,227.053 526.485,221.75 
				533.789,216.447 541.093,221.75 			"/>
			<ellipse fill="none" stroke="#000000" stroke-width="0.25" stroke-miterlimit="10" cx="533.789" cy="245" rx="5.25" ry="3.25"/>
			
				<line fill="none" stroke="#000000" stroke-width="0.25" stroke-miterlimit="10" x1="533.789" y1="200.167" x2="533.789" y2="216.833"/>
			
				<line fill="none" stroke="#000000" stroke-width="0.25" stroke-miterlimit="10" x1="533.789" y1="241.5" x2="533.789" y2="226.75"/>
			<polyline fill="none" stroke="#000000" stroke-width="0.25" stroke-miterlimit="10" points="526.623,221.75 512.373,221.75 
				512.373,230.083 			"/>
			<polyline fill="none" stroke="#000000" stroke-width="0.25" stroke-miterlimit="10" points="528.519,244.938 512.373,244.938 
				512.373,235.625 			"/>
			<circle fill="none" stroke="#000000" stroke-width="0.25" stroke-miterlimit="10" cx="512.373" cy="232.833" r="2.833"/>
			<polyline fill="none" stroke="#000000" stroke-width="0.25" stroke-miterlimit="10" points="509.539,232.833 506.707,232.833 
				506.707,195.333 527.707,195.333 			"/>
		</g>
	</g>
</g>
<g id="woman">
	<g>
		<g>
			<g>
				<g>
					<path fill="#00557F" d="M377.01,354.518h87.884V568.99c0,10.91-8.844,19.754-19.754,19.754l0,0
						c-10.91,0-19.754-8.844-19.754-19.754V399.671l0.021-1.183v-3.317c0-2.461-1.994-4.456-4.456-4.456l0,0
						c-2.46,0-4.456,1.995-4.456,4.456v3.317l0.021,2.258V568.99c0,10.91-8.845,19.754-19.754,19.754l0,0
						c-10.91,0-19.754-8.844-19.754-19.754V354.518"/>
				</g>
			</g>
			<path fill="#004869" d="M420.627,380.347c-12.446,0.023-22.533,10.12-22.533,22.574v177.383c0,2.897,0.566,5.66,1.561,8.206
				c9.537-1.403,16.863-9.595,16.863-19.52V400.746l-0.021-2.258v-3.317c0-2.461,1.996-4.456,4.456-4.456
				c2.461,0,4.456,1.995,4.456,4.456v3.317l-0.021,1.183V568.99c0,10.91,8.844,19.754,19.754,19.754s19.754-8.844,19.754-19.754
				V354.518h-44.267V380.347z"/>
		</g>
		<path fill="#3C2415" d="M463.438,196.957c0,23.599-19.131,42.731-42.733,42.731l0,0c-23.6,0-42.732-19.133-42.732-42.731v-54.826
			c0-23.603,19.133-42.732,42.732-42.732l0,0c23.602,0,42.733,19.13,42.733,42.732V196.957z"/>
		<path fill="#FFDAA2" d="M371.884,346.997v-66.195v-18.343c0-0.391,0.316-0.705,0.705-0.705c0.391,0,0.707,0.314,0.707,0.705
			v18.343l-0.014,9.499l-0.002,55.932c0,6.739,5.463,12.204,12.203,12.204h70.94c6.74,0,12.203-5.465,12.203-12.204v-55.932
			l-0.027-9.499v-18.343c0-0.391,0.318-0.705,0.705-0.705c0.391,0,0.705,0.314,0.705,0.705v18.343v66.195
			c0,0,0.076,2.167-1.076,4.303h20.461l-0.006-4.233v-82.844l-0.002-2.418v-15.049c0-19.593-15.883-35.476-35.477-35.476h-65.907
			c-19.592,0-35.475,15.883-35.475,35.476v16.66l-0.004,0.807v83.7l-0.021,3.377h20.461
			C371.81,349.164,371.884,346.997,371.884,346.997z"/>
		<line fill="none" stroke="#000000" stroke-miterlimit="10" x1="365.205" y1="390.583" x2="365.205" y2="390.583"/>
		<path fill="#FED09E" d="M468.398,352.156c0,0-0.729,1.427-0.918,1.871c-0.607,1.423-0.9,3.007-0.9,4.651v2.252l-0.016,7.902
			v10.569c0,1.55,1.254,2.806,2.803,2.806c1.551,0,2.807-1.256,2.807-2.806v-10.569v-2.602c0-0.564,0.453-1.018,1.014-1.018
			c0.564,0,1.018,0.453,1.018,1.018v23.076c1.475,0.617,3.096,0.96,4.793,0.96c6.861,0,12.42-5.559,12.42-12.418v-19.171
			c0-1.6-0.303-3.128-0.854-4.532c-0.313-0.8-0.705-1.556-1.17-2.265V351.3h-20.461
			C468.775,351.586,468.604,351.873,468.398,352.156z"/>
		<path fill="#FFDAA2" d="M351.332,354.146c-0.551,1.404-0.854,2.933-0.854,4.532v19.171c0,6.859,5.559,12.418,12.418,12.418
			c1.701,0,3.32-0.343,4.793-0.96v-23.076c0-0.564,0.455-1.018,1.018-1.018c0.561,0,1.018,0.453,1.018,1.018l-0.004,2.602v10.569
			c0,1.55,1.258,2.806,2.807,2.806c1.551,0,2.807-1.256,2.807-2.806v-10.569l-0.02-7.902v-2.252c0-1.645-0.289-3.229-0.9-4.651
			c-0.189-0.444-0.916-1.871-0.916-1.871c-0.205-0.283-0.379-0.57-0.533-0.856h-20.461l-0.004,0.582
			C352.037,352.591,351.644,353.347,351.332,354.146z"/>
		<path d="M473.34,568.251h-8.781c0.021,0.312,0.047,0.624,0.047,0.941v1.411c0,7.124-5.775,12.9-12.9,12.9h-13.504
			c-4.777,0-8.941-2.607-11.172-6.469c-2.365,3.351-3.77,7.43-3.785,11.839h70.791C493.994,577.476,484.75,568.251,473.34,568.251z"
			/>
		<path d="M368.55,568.251h8.779c-0.021,0.312-0.047,0.624-0.047,0.941v1.411c0,7.124,5.777,12.9,12.9,12.9h13.506
			c4.779,0,8.941-2.607,11.17-6.469c2.365,3.351,3.773,7.43,3.789,11.839h-70.793C347.896,577.476,357.142,568.251,368.55,568.251z"
			/>
		<path fill="#FED09E" d="M489.389,264.223l-0.002-2.418v-15.049c0-19.593-15.883-35.476-35.477-35.476h-33.301v147.156h35.815
			c6.74,0,12.203-5.465,12.203-12.204v-55.932l-0.029-9.499l0.002-18.343c0-0.391,0.318-0.705,0.705-0.705
			c0.391,0,0.705,0.314,0.705,0.705v18.343v66.195c0,0,0.076,2.167-1.076,4.303h20.461l-0.006-4.233V264.223z"/>
		<path fill="#FED09E" d="M470.01,324.453v14.488c0,0,0.076,6.224-1.076,12.358h20.461l-0.006-12.159v-14.688H470.01z"/>
		<path fill="#FFDAA2" d="M371.884,346.997v-45.044h-19.359v45.97l-0.021,3.377h20.461
			C371.81,349.164,371.884,346.997,371.884,346.997z"/>
		<path fill="#E6BE91" d="M403.944,211.28v4.233c0,9.203,7.463,16.664,16.666,16.664c9.203,0,16.66-7.461,16.66-16.664v-4.233
			H403.944z"/>
		<g>
			<path fill="#F1F2F2" d="M489.387,261.797v-15.049c0-19.593-15.883-35.476-35.477-35.476h-65.907
				c-19.593,0-35.476,15.883-35.476,35.476v16.66l-0.004,0.807v7.536h19.36v-9.3c0-0.391,0.316-0.705,0.705-0.705
				c0.391,0,0.707,0.314,0.707,0.705v18.343l-0.014,9.499l-0.002,55.932c0,6.739,5.463,12.204,12.203,12.204h70.94
				c6.74,0,12.203-5.465,12.203-12.204v-55.932l-0.027-9.499v-18.343c0-0.391,0.318-0.705,0.705-0.705
				c0.391,0,0.705,0.314,0.705,0.705v9.502h19.379v-7.739L489.387,261.797z"/>
			<path fill="#EBEBEC" d="M468.627,290.293l-0.029-9.499l0.002-18.343c0-0.391,0.318-0.705,0.705-0.705
				c0.391,0,0.705,0.314,0.705,0.705v9.502h19.379v-7.739l-0.002-2.418v-15.049c0-19.593-15.883-35.476-35.477-35.476h-33.301
				v147.156h35.815c6.74,0,12.203-5.465,12.203-12.204V290.293z"/>
		</g>
		<path fill="#FFDAA2" d="M403.944,211.28v4.233c0,9.203,7.463,16.664,16.666,16.664c9.203,0,16.66-7.461,16.66-16.664v-4.233
			H403.944z"/>
		<polygon fill="#FFDAA2" points="435.658,222.677 420.607,248.746 405.556,222.677 		"/>
		<path fill="#FED09E" d="M420.607,232.178c0,0,0.002,0,0.003,0c9.203,0,16.66-7.461,16.66-16.664v-4.233h-16.663V232.178z"/>
		<polygon fill="#FED09E" points="420.607,248.746 435.658,222.677 420.607,222.677 		"/>
		<path fill="#E6BE91" d="M463.264,170.986c0,4.106-3.328,7.436-7.436,7.436l0,0c-4.107,0-7.439-3.329-7.439-7.436v-6.158
			c0-4.106,3.332-7.436,7.439-7.436l0,0c4.107,0,7.436,3.329,7.436,7.436V170.986z"/>
		<path fill="#DBB58B" d="M460.578,169.874c0,2.62-2.127,4.749-4.75,4.749l0,0c-2.623,0-4.752-2.129-4.752-4.749v-3.934
			c0-2.624,2.129-4.749,4.752-4.749l0,0c2.623,0,4.75,2.125,4.75,4.749V169.874z"/>
		<path fill="#FFDAA2" d="M393.521,170.986c0,4.106-3.328,7.436-7.436,7.436l0,0c-4.107,0-7.439-3.329-7.439-7.436v-6.158
			c0-4.106,3.332-7.436,7.439-7.436l0,0c4.107,0,7.436,3.329,7.436,7.436V170.986z"/>
		<path fill="#FED09E" d="M390.835,169.871c0,2.623-2.127,4.752-4.75,4.752l0,0c-2.623,0-4.752-2.129-4.752-4.752v-3.931
			c0-2.624,2.129-4.749,4.752-4.749l0,0c2.623,0,4.75,2.125,4.75,4.749V169.871z"/>
		<path fill="#FFDAA2" d="M420.957,107.001c-20.039,0-36.281,16.245-36.281,36.282v24.188c0,15.389,9.586,28.531,23.111,33.807
			v14.57c0,7.271,5.895,13.168,13.17,13.168c7.272,0,13.168-5.896,13.168-13.168v-14.57c13.523-5.271,23.111-18.415,23.111-33.807
			v-24.188C457.236,123.246,440.994,107.001,420.957,107.001z"/>
		<path fill="#FED09E" d="M420.607,228.999c0.115,0.003,0.232,0.017,0.352,0.017c7.272,0,13.168-5.896,13.168-13.168v-14.57
			c13.523-5.271,23.111-18.415,23.111-33.807v-24.188c0-12.891-6.727-24.204-16.855-30.639h-19.776V228.999z"/>
		<path fill="#3C2415" d="M409.197,157.393c0,1.779-1.445,3.223-3.225,3.223c-1.783,0-3.227-1.443-3.227-3.223
			c0-1.783,1.443-3.225,3.227-3.225C407.751,154.168,409.197,155.609,409.197,157.393z"/>
		<path fill="#3C2415" d="M439.164,157.393c0,1.779-1.445,3.223-3.225,3.223c-1.783,0-3.225-1.443-3.225-3.223
			c0-1.783,1.441-3.225,3.225-3.225C437.719,154.168,439.164,155.609,439.164,157.393z"/>
		<polygon fill="#E6BE91" points="420.605,160.819 420.605,178.355 424.932,175.622 		"/>
		<polygon fill="#ED1C24" points="427.09,187.099 420.605,189.564 414.119,187.099 		"/>
		<path fill="#3C2415" d="M411.845,149.179c0,0.473-0.385,0.856-0.857,0.856h-10.48c-0.473,0-0.857-0.384-0.857-0.856l0,0
			c0-0.472,0.385-0.856,0.857-0.856h10.48C411.46,148.322,411.845,148.707,411.845,149.179L411.845,149.179z"/>
		<path fill="#3C2415" d="M441.879,149.179c0,0.473-0.385,0.856-0.855,0.856h-10.482c-0.473,0-0.857-0.384-0.857-0.856l0,0
			c0-0.472,0.385-0.856,0.857-0.856h10.482C441.494,148.322,441.879,148.707,441.879,149.179L441.879,149.179z"/>
		<path fill="#3C2415" d="M444.893,127.416c0,0-7.256,14.715-33.057,14.715c0,0,18.344-5.241,23.383-13.908
			c0,0-19.352,11.69-35.477,13.706c0,0-14.414-2.136-13.656,32.694c0,0,1.16-17.98-3.678-17.576l0.807-29.026l23.783-22.979
			l22.979-0.403l24.189,16.125l6.047,34.871c0,0-3.225,3.629-3.225,14.312c0,0-2.822-19.753-2.822-28.823
			C454.166,141.123,453.762,129.633,444.893,127.416z"/>
	</g>
</g>
</svg>
