<?xml version="1.0" encoding="utf-8"?>
<!-- Generator: Adobe Illustrator 16.0.0, SVG Export Plug-In . SVG Version: 6.00 Build 0)  -->
<!DOCTYPE svg PUBLIC "-//W3C//DTD SVG 1.0//EN" "http://www.w3.org/TR/2001/REC-SVG-20010904/DTD/svg10.dtd">
<svg version="1.0" xmlns="http://www.w3.org/2000/svg" xmlns:xlink="http://www.w3.org/1999/xlink" x="0px" y="0px"
	 width="841.89px" height="595.28px" viewBox="0 0 841.89 595.28" enable-background="new 0 0 841.89 595.28" xml:space="preserve">
<g id="background">
	<g>
		<g>
			<rect x="231.945" y="41" fill="#414042" width="175" height="134"/>
			<rect x="237.168" y="46.5" fill="#D7F0FC" width="164.552" height="123"/>
		</g>
		<rect x="245.443" y="55.5" fill="none" stroke="#FFFFFF" stroke-miterlimit="10" width="148" height="105.5"/>
		<line fill="none" stroke="#FFFFFF" stroke-miterlimit="10" x1="245.445" y1="55.5" x2="393.945" y2="55.5"/>
		<line fill="none" stroke="#FFFFFF" stroke-miterlimit="10" x1="245.445" y1="65.09" x2="393.945" y2="65.09"/>
		<line fill="none" stroke="#FFFFFF" stroke-miterlimit="10" x1="245.445" y1="74.681" x2="393.945" y2="74.681"/>
		<line fill="none" stroke="#FFFFFF" stroke-miterlimit="10" x1="245.445" y1="84.272" x2="393.945" y2="84.272"/>
		<line fill="none" stroke="#FFFFFF" stroke-miterlimit="10" x1="245.445" y1="93.863" x2="393.945" y2="93.863"/>
		<line fill="none" stroke="#FFFFFF" stroke-miterlimit="10" x1="245.445" y1="103.454" x2="393.945" y2="103.454"/>
		<line fill="none" stroke="#FFFFFF" stroke-miterlimit="10" x1="245.445" y1="113.045" x2="393.945" y2="113.045"/>
		<line fill="none" stroke="#FFFFFF" stroke-miterlimit="10" x1="245.445" y1="122.636" x2="393.945" y2="122.636"/>
		<line fill="none" stroke="#FFFFFF" stroke-miterlimit="10" x1="245.445" y1="132.227" x2="393.945" y2="132.227"/>
		<line fill="none" stroke="#FFFFFF" stroke-miterlimit="10" x1="245.445" y1="141.818" x2="393.945" y2="141.818"/>
		<line fill="none" stroke="#FFFFFF" stroke-miterlimit="10" x1="245.445" y1="151.409" x2="393.945" y2="151.409"/>
		<line fill="none" stroke="#FFFFFF" stroke-miterlimit="10" x1="245.445" y1="161" x2="393.945" y2="161"/>
		<line fill="none" stroke="#FFFFFF" stroke-miterlimit="10" x1="245.443" y1="55.333" x2="245.443" y2="161.667"/>
		<line fill="none" stroke="#FFFFFF" stroke-miterlimit="10" x1="263.943" y1="55.333" x2="263.943" y2="161.667"/>
		<line fill="none" stroke="#FFFFFF" stroke-miterlimit="10" x1="282.443" y1="55.333" x2="282.443" y2="161.667"/>
		<line fill="none" stroke="#FFFFFF" stroke-miterlimit="10" x1="300.943" y1="55.333" x2="300.943" y2="161.667"/>
		<line fill="none" stroke="#FFFFFF" stroke-miterlimit="10" x1="319.443" y1="55.333" x2="319.443" y2="161.667"/>
		<line fill="none" stroke="#FFFFFF" stroke-miterlimit="10" x1="337.943" y1="55.333" x2="337.943" y2="161.667"/>
		<line fill="none" stroke="#FFFFFF" stroke-miterlimit="10" x1="356.443" y1="55.333" x2="356.443" y2="161.667"/>
		<line fill="none" stroke="#FFFFFF" stroke-miterlimit="10" x1="374.943" y1="55.333" x2="374.943" y2="161.667"/>
		<line fill="none" stroke="#FFFFFF" stroke-miterlimit="10" x1="393.443" y1="55.333" x2="393.443" y2="161.667"/>
		<polyline fill="none" stroke="#939598" stroke-miterlimit="10" points="245.445,132.227 252.695,125.75 254.195,127.5 
			261.445,124.75 271.695,126.25 280.945,122.25 297.445,109.25 312.945,102 315.695,104 325.445,108.5 333.695,109 342.195,112.75 
			354.445,99.25 365.945,85.75 388.695,80.75 393.445,82.5 		"/>
	</g>
	<g>
		<g>
			<rect x="231.945" y="191" fill="#414042" width="175" height="134"/>
			<rect x="237.168" y="196.5" width="164.552" height="123"/>
		</g>
		<rect x="245.443" y="205.5" fill="none" stroke="#FFFFFF" stroke-miterlimit="10" width="148" height="105.5"/>
		<line fill="none" stroke="#FFFFFF" stroke-miterlimit="10" x1="245.445" y1="205.5" x2="393.945" y2="205.5"/>
		<line fill="none" stroke="#FFFFFF" stroke-miterlimit="10" x1="245.445" y1="215.09" x2="393.945" y2="215.09"/>
		<line fill="none" stroke="#FFFFFF" stroke-miterlimit="10" x1="245.445" y1="224.681" x2="393.945" y2="224.681"/>
		<line fill="none" stroke="#FFFFFF" stroke-miterlimit="10" x1="245.445" y1="234.272" x2="393.945" y2="234.272"/>
		<line fill="none" stroke="#FFFFFF" stroke-miterlimit="10" x1="245.445" y1="243.863" x2="393.945" y2="243.863"/>
		<line fill="none" stroke="#FFFFFF" stroke-miterlimit="10" x1="245.445" y1="253.454" x2="393.945" y2="253.454"/>
		<line fill="none" stroke="#FFFFFF" stroke-miterlimit="10" x1="245.445" y1="263.045" x2="393.945" y2="263.045"/>
		<line fill="none" stroke="#FFFFFF" stroke-miterlimit="10" x1="245.445" y1="272.636" x2="393.945" y2="272.636"/>
		<line fill="none" stroke="#FFFFFF" stroke-miterlimit="10" x1="245.445" y1="282.227" x2="393.945" y2="282.227"/>
		<line fill="none" stroke="#FFFFFF" stroke-miterlimit="10" x1="245.445" y1="291.818" x2="393.945" y2="291.818"/>
		<line fill="none" stroke="#FFFFFF" stroke-miterlimit="10" x1="245.445" y1="301.408" x2="393.945" y2="301.408"/>
		<line fill="none" stroke="#FFFFFF" stroke-miterlimit="10" x1="245.445" y1="311" x2="393.945" y2="311"/>
		<line fill="none" stroke="#FFFFFF" stroke-miterlimit="10" x1="245.443" y1="205.333" x2="245.443" y2="311.666"/>
		<line fill="none" stroke="#FFFFFF" stroke-miterlimit="10" x1="263.943" y1="205.333" x2="263.943" y2="311.666"/>
		<line fill="none" stroke="#FFFFFF" stroke-miterlimit="10" x1="282.443" y1="205.333" x2="282.443" y2="311.666"/>
		<line fill="none" stroke="#FFFFFF" stroke-miterlimit="10" x1="300.943" y1="205.333" x2="300.943" y2="311.666"/>
		<line fill="none" stroke="#FFFFFF" stroke-miterlimit="10" x1="319.443" y1="205.333" x2="319.443" y2="311.666"/>
		<line fill="none" stroke="#FFFFFF" stroke-miterlimit="10" x1="337.943" y1="205.333" x2="337.943" y2="311.666"/>
		<line fill="none" stroke="#FFFFFF" stroke-miterlimit="10" x1="356.443" y1="205.333" x2="356.443" y2="311.666"/>
		<line fill="none" stroke="#FFFFFF" stroke-miterlimit="10" x1="374.943" y1="205.333" x2="374.943" y2="311.666"/>
		<line fill="none" stroke="#FFFFFF" stroke-miterlimit="10" x1="393.443" y1="205.333" x2="393.443" y2="311.666"/>
		<polyline fill="none" stroke="#FFF200" stroke-miterlimit="10" points="245.445,282.227 251.278,268.667 256.278,271 
			261.445,274.75 271.612,269 280.945,272.25 297.445,259.25 310.278,259.333 315.695,254 325.445,258.5 333.695,259 
			342.612,247.667 354.445,249.25 366.612,240.333 388.612,242.667 393.945,246.667 		"/>
		<polyline fill="none" stroke="#EE2A7B" stroke-miterlimit="10" points="245.111,266.333 255.945,264.667 267.111,266.667 
			274.445,272.333 292.111,266.333 312.112,262.5 317.778,252.333 325.612,256.667 337.112,258.5 344.612,252.667 351.112,244.333 
			365.611,255.833 383.111,255.5 393.611,258.167 		"/>
		<polyline fill="none" stroke="#39B54A" stroke-miterlimit="10" points="245.695,290.25 273.945,277.5 288.445,256.75 301.695,251 
			327.945,262 347.695,264.5 359.945,236.75 381.195,231.25 393.445,222 		"/>
	</g>
	<g>
		<g>
			<rect x="431.945" y="191" fill="#414042" width="175" height="134"/>
			<rect x="437.168" y="196.5" width="164.553" height="123"/>
		</g>
		<rect x="445.443" y="205.45" fill="none" stroke="#FFFFFF" stroke-miterlimit="10" width="148" height="74.082"/>
		<rect x="445.443" y="284.532" fill="#39B54A" width="148" height="25.085"/>
		<line fill="none" stroke="#FFFFFF" stroke-miterlimit="10" x1="445.445" y1="212.185" x2="593.945" y2="212.185"/>
		<line fill="none" stroke="#FFFFFF" stroke-miterlimit="10" x1="445.445" y1="218.919" x2="593.945" y2="218.919"/>
		<line fill="none" stroke="#FFFFFF" stroke-miterlimit="10" x1="445.445" y1="225.654" x2="593.945" y2="225.654"/>
		<line fill="none" stroke="#FFFFFF" stroke-miterlimit="10" x1="445.445" y1="232.389" x2="593.945" y2="232.389"/>
		<line fill="none" stroke="#FFFFFF" stroke-miterlimit="10" x1="445.445" y1="239.124" x2="593.945" y2="239.124"/>
		<line fill="none" stroke="#FFFFFF" stroke-miterlimit="10" x1="445.445" y1="245.858" x2="593.945" y2="245.858"/>
		<line fill="none" stroke="#FFFFFF" stroke-miterlimit="10" x1="445.445" y1="252.593" x2="593.945" y2="252.593"/>
		<line fill="none" stroke="#FFFFFF" stroke-miterlimit="10" x1="445.445" y1="259.328" x2="593.945" y2="259.328"/>
		<line fill="none" stroke="#FFFFFF" stroke-miterlimit="10" x1="445.445" y1="266.063" x2="593.945" y2="266.063"/>
		<line fill="none" stroke="#FFFFFF" stroke-miterlimit="10" x1="445.445" y1="272.797" x2="593.945" y2="272.797"/>
		<line fill="none" stroke="#FFFFFF" stroke-miterlimit="10" x1="445.443" y1="205.333" x2="445.443" y2="280"/>
		<line fill="none" stroke="#FFFFFF" stroke-miterlimit="10" x1="463.943" y1="205.333" x2="463.943" y2="280"/>
		<line fill="none" stroke="#FFFFFF" stroke-miterlimit="10" x1="482.443" y1="205.333" x2="482.443" y2="280"/>
		<line fill="none" stroke="#FFFFFF" stroke-miterlimit="10" x1="500.943" y1="205.333" x2="500.943" y2="280"/>
		<line fill="none" stroke="#FFFFFF" stroke-miterlimit="10" x1="519.443" y1="205.333" x2="519.443" y2="280"/>
		<line fill="none" stroke="#FFFFFF" stroke-miterlimit="10" x1="537.943" y1="205.333" x2="537.943" y2="280"/>
		<line fill="none" stroke="#FFFFFF" stroke-miterlimit="10" x1="556.443" y1="205.333" x2="556.443" y2="280"/>
		<line fill="none" stroke="#FFFFFF" stroke-miterlimit="10" x1="574.943" y1="205.333" x2="574.943" y2="280"/>
		<line fill="none" stroke="#FFFFFF" stroke-miterlimit="10" x1="593.443" y1="205.333" x2="593.443" y2="280"/>
		<path fill="none" stroke="#39B54A" stroke-miterlimit="10" d="M445.611,264.667l1.084-3.917l0.375,2.875c0,0,1-1.375,1.125-0.75
			s0.5,1.875,0.5,1.875l1.125-5.5l0.875,1.75l1.875-4.875l0.875,4.125l1.375-5.125l1.5-4l0.625,3.25l2.25-0.125l1.375-6l1.75-2.625
			l1.375,7.75l2,0.5l0.5-3.875l2-3.875l1.25-5.125l0.375,2.375l2,1.75l1.25,1.25l1.75,1.875l1.25-3.875l1.75-0.125l2.5-7l0.125,6.75
			l2.125,3.625l1,1.25l1.125,1.5l0.875-4.875l2.125-1.625l1.125-2.125l0.5,4l1.25,3.125l1.625-0.375l1.25-4.375l1.25-0.25l1-0.5
			l1.25-0.125l1,0.75l1.125-2.125l1.625-2l1.625-2.625l0.875-1.875l0.25,3.125l1.375,3l2,1.5l1.125,2.25l1.75-3.875l2.75-5
			l0.125,2.875l0.375,2.625l1.5,1.625l2.25-2l0.5-3.75l2.5-0.5l1.25-0.625l1.5-0.75l1.875-1.25l1.375,2.25l1,0.375l2.125-1.625
			l1.5-5.625l1.25,4.375l1.25,1.25l1,1.125l1,0.625l1.375-0.375l2.125-0.125l0.875-1l2-1.375"/>
	</g>
	<g>
		<g>
			<rect x="434.945" y="41" fill="#414042" width="175" height="134"/>
			<rect x="440.168" y="46.5" fill="#D7F0FC" width="164.553" height="123"/>
		</g>
		
			<rect x="448.443" y="55.5" fill="none" stroke="#27AAE1" stroke-width="0.25" stroke-miterlimit="10" width="148" height="105.5"/>
		<line fill="none" stroke="#27AAE1" stroke-width="0.25" stroke-miterlimit="10" x1="448.445" y1="55.5" x2="596.945" y2="55.5"/>
		
			<line fill="none" stroke="#27AAE1" stroke-width="0.25" stroke-miterlimit="10" x1="448.445" y1="65.09" x2="596.945" y2="65.09"/>
		
			<line fill="none" stroke="#27AAE1" stroke-width="0.25" stroke-miterlimit="10" x1="448.445" y1="74.681" x2="596.945" y2="74.681"/>
		
			<line fill="none" stroke="#27AAE1" stroke-width="0.25" stroke-miterlimit="10" x1="448.445" y1="84.272" x2="596.945" y2="84.272"/>
		
			<line fill="none" stroke="#27AAE1" stroke-width="0.25" stroke-miterlimit="10" x1="448.445" y1="93.863" x2="596.945" y2="93.863"/>
		
			<line fill="none" stroke="#27AAE1" stroke-width="0.25" stroke-miterlimit="10" x1="448.445" y1="103.454" x2="596.945" y2="103.454"/>
		
			<line fill="none" stroke="#27AAE1" stroke-width="0.25" stroke-miterlimit="10" x1="448.445" y1="113.045" x2="596.945" y2="113.045"/>
		
			<line fill="none" stroke="#27AAE1" stroke-width="0.25" stroke-miterlimit="10" x1="448.445" y1="122.636" x2="596.945" y2="122.636"/>
		
			<line fill="none" stroke="#27AAE1" stroke-width="0.25" stroke-miterlimit="10" x1="448.445" y1="132.227" x2="596.945" y2="132.227"/>
		
			<line fill="none" stroke="#27AAE1" stroke-width="0.25" stroke-miterlimit="10" x1="448.445" y1="141.818" x2="596.945" y2="141.818"/>
		
			<line fill="none" stroke="#27AAE1" stroke-width="0.25" stroke-miterlimit="10" x1="448.445" y1="151.409" x2="596.945" y2="151.409"/>
		<line fill="none" stroke="#27AAE1" stroke-width="0.25" stroke-miterlimit="10" x1="448.445" y1="161" x2="596.945" y2="161"/>
		
			<line fill="none" stroke="#27AAE1" stroke-width="0.25" stroke-miterlimit="10" x1="448.443" y1="55.333" x2="448.443" y2="161.667"/>
		
			<line fill="none" stroke="#27AAE1" stroke-width="0.25" stroke-miterlimit="10" x1="466.943" y1="55.333" x2="466.943" y2="161.667"/>
		
			<line fill="none" stroke="#27AAE1" stroke-width="0.25" stroke-miterlimit="10" x1="485.443" y1="55.333" x2="485.443" y2="161.667"/>
		
			<line fill="none" stroke="#27AAE1" stroke-width="0.25" stroke-miterlimit="10" x1="503.943" y1="55.333" x2="503.943" y2="161.667"/>
		
			<line fill="none" stroke="#27AAE1" stroke-width="0.25" stroke-miterlimit="10" x1="522.443" y1="55.333" x2="522.443" y2="161.667"/>
		
			<line fill="none" stroke="#27AAE1" stroke-width="0.25" stroke-miterlimit="10" x1="540.943" y1="55.333" x2="540.943" y2="161.667"/>
		
			<line fill="none" stroke="#27AAE1" stroke-width="0.25" stroke-miterlimit="10" x1="559.443" y1="55.333" x2="559.443" y2="161.667"/>
		
			<line fill="none" stroke="#27AAE1" stroke-width="0.25" stroke-miterlimit="10" x1="577.943" y1="55.333" x2="577.943" y2="161.667"/>
		
			<line fill="none" stroke="#27AAE1" stroke-width="0.25" stroke-miterlimit="10" x1="596.443" y1="55.333" x2="596.443" y2="161.667"/>
		<polyline fill="none" stroke="#FFFFFF" stroke-width="2" stroke-miterlimit="10" points="448.611,116.667 457.945,115.333 
			465.945,116.333 485.278,103.333 503.945,103.667 522.445,108 540.611,101 559.278,84.333 577.945,74.667 589.277,78.333 
			596.611,86 		"/>
	</g>
</g>
<g id="woman">
	<g>
		<g>
			<path fill="#3C2415" d="M463.117,154.957c0,23.599-19.131,42.731-42.732,42.731l0,0c-23.6,0-42.732-19.133-42.732-42.731v-54.826
				c0-23.603,19.133-42.732,42.732-42.732l0,0c23.601,0,42.732,19.13,42.732,42.732V154.957z"/>
			<path fill="#FFDAA2" d="M376.692,526.991c0,10.909,8.844,19.753,19.754,19.753S416.2,537.9,416.2,526.991V427.82h-39.508V526.991
				z"/>
			<path fill="#FED09E" d="M416.2,526.991V427.82h-18.424v110.483c0,2.897,0.566,5.66,1.563,8.205
				C408.874,545.106,416.2,536.915,416.2,526.991z"/>
			<path fill="#FED09E" d="M425.068,427.82v99.171c0,10.909,8.844,19.753,19.754,19.753s19.754-8.844,19.754-19.753V427.82H425.068z
				"/>
			<polygon fill="#282829" points="376.692,312.524 376.692,427.82 416.2,427.82 425.068,427.82 464.576,427.82 464.576,312.524 			
				"/>
			<path fill="#FFFFFF" d="M371.565,304.997v-66.195v-18.343c0-0.391,0.316-0.705,0.705-0.705c0.391,0,0.707,0.314,0.707,0.705
				v18.343l-0.014,9.499l-0.002,55.932c0,6.739,5.463,12.204,12.203,12.204h70.939c6.74,0,12.203-5.465,12.203-12.204v-55.932
				l-0.027-9.499v-18.343c0-0.391,0.318-0.705,0.705-0.705c0.391,0,0.705,0.314,0.705,0.705v18.343v66.195
				c0,0,0.076,2.167-1.076,4.303h20.461l-0.006-4.233v-82.844l-0.002-2.418v-15.049c0-19.593-15.883-35.476-35.477-35.476h-65.906
				c-19.592,0-35.475,15.883-35.475,35.476v16.66l-0.004,0.807v83.7l-0.021,3.377h20.461
				C371.491,307.164,371.565,304.997,371.565,304.997z"/>
			<line fill="none" stroke="#000000" stroke-miterlimit="10" x1="364.885" y1="348.583" x2="364.885" y2="348.583"/>
			<path fill="#FED09E" d="M468.078,310.156c0,0-0.729,1.427-0.918,1.871c-0.607,1.423-0.9,3.007-0.9,4.651v2.252l-0.016,7.902
				v10.569c0,1.55,1.254,2.806,2.803,2.806c1.551,0,2.807-1.256,2.807-2.806v-10.569v-2.602c0-0.564,0.453-1.018,1.014-1.018
				c0.564,0,1.018,0.453,1.018,1.018v23.076c1.475,0.617,3.096,0.96,4.793,0.96c6.861,0,12.42-5.559,12.42-12.418v-19.171
				c0-1.6-0.303-3.128-0.854-4.532c-0.313-0.8-0.705-1.556-1.17-2.265V309.3h-20.461
				C468.455,309.586,468.283,309.873,468.078,310.156z"/>
			<path fill="#FFDAA2" d="M351.012,312.146c-0.551,1.404-0.854,2.933-0.854,4.532v19.171c0,6.859,5.559,12.418,12.418,12.418
				c1.701,0,3.32-0.343,4.793-0.96v-23.076c0-0.564,0.455-1.018,1.018-1.018c0.561,0,1.018,0.453,1.018,1.018l-0.004,2.602v10.569
				c0,1.55,1.258,2.806,2.807,2.806c1.551,0,2.807-1.256,2.807-2.806v-10.569l-0.02-7.902v-2.252c0-1.645-0.289-3.229-0.9-4.651
				c-0.189-0.444-0.916-1.871-0.916-1.871c-0.205-0.283-0.379-0.57-0.533-0.856h-20.461l-0.004,0.582
				C351.717,310.591,351.325,311.347,351.012,312.146z"/>
			<path d="M473.02,526.251h-8.781c0.021,0.312,0.047,0.624,0.047,0.941v1.411c0,7.124-5.775,12.9-12.9,12.9h-13.504
				c-4.777,0-8.941-2.607-11.172-6.469c-2.365,3.351-3.77,7.43-3.785,11.839h70.791C493.674,535.476,484.43,526.251,473.02,526.251z
				"/>
			<path d="M368.231,526.251h8.779c-0.021,0.312-0.047,0.624-0.047,0.941v1.411c0,7.124,5.777,12.9,12.9,12.9h13.506
				c4.779,0,8.941-2.607,11.17-6.469c2.365,3.351,3.773,7.43,3.789,11.839h-70.793C347.577,535.476,356.823,526.251,368.231,526.251
				z"/>
			<path fill="#FFDAA2" d="M393.202,128.986c0,4.106-3.328,7.436-7.436,7.436l0,0c-4.107,0-7.439-3.329-7.439-7.436v-6.158
				c0-4.106,3.332-7.436,7.439-7.436l0,0c4.107,0,7.436,3.329,7.436,7.436V128.986z"/>
			<path fill="#FED09E" d="M390.516,127.871c0,2.623-2.127,4.752-4.75,4.752l0,0c-2.623,0-4.752-2.129-4.752-4.752v-3.931
				c0-2.624,2.129-4.749,4.752-4.749l0,0c2.623,0,4.75,2.125,4.75,4.749V127.871z"/>
			<path fill="#E6BE91" d="M462.943,128.986c0,4.106-3.328,7.436-7.436,7.436l0,0c-4.107,0-7.439-3.329-7.439-7.436v-6.158
				c0-4.106,3.332-7.436,7.439-7.436l0,0c4.107,0,7.436,3.329,7.436,7.436V128.986z"/>
			<path fill="#DBB58B" d="M460.258,127.874c0,2.62-2.127,4.749-4.75,4.749l0,0c-2.623,0-4.752-2.129-4.752-4.749v-3.934
				c0-2.624,2.129-4.749,4.752-4.749l0,0c2.623,0,4.75,2.125,4.75,4.749V127.874z"/>
			<polygon points="420.292,427.82 425.068,427.82 464.576,427.82 464.576,312.524 420.292,312.524 			"/>
			<path fill="#F1F2F2" d="M489.068,222.223l-0.002-2.418v-15.049c0-19.593-15.883-35.476-35.477-35.476h-33.3v147.156h35.814
				c6.74,0,12.203-5.465,12.203-12.204v-55.932l-0.029-9.499l0.002-18.343c0-0.391,0.318-0.705,0.705-0.705
				c0.391,0,0.705,0.314,0.705,0.705v18.343v66.195c0,0,0.076,2.167-1.076,4.303h20.461l-0.006-4.233V222.223z"/>
			<path fill="#FFDAA2" d="M420.637,65.001c-20.039,0-36.281,16.245-36.281,36.282v24.188c0,15.389,9.586,28.531,23.111,33.807
				v14.57c0,7.271,5.895,13.168,13.17,13.168c7.271,0,13.167-5.896,13.167-13.168v-14.57c13.523-5.271,23.111-18.415,23.111-33.807
				v-24.188C456.916,81.246,440.674,65.001,420.637,65.001z"/>
			<path fill="#FED09E" d="M420.287,186.999c0.115,0.003,0.232,0.017,0.352,0.017c7.272,0,13.168-5.896,13.168-13.168v-14.57
				c13.523-5.271,23.111-18.415,23.111-33.807v-24.188c0-12.891-6.727-24.204-16.855-30.639h-19.776V186.999z"/>
			<path fill="#3C2415" d="M408.877,115.393c0,1.779-1.445,3.223-3.225,3.223c-1.783,0-3.227-1.443-3.227-3.223
				c0-1.783,1.443-3.225,3.227-3.225C407.432,112.168,408.877,113.609,408.877,115.393z"/>
			<path fill="#3C2415" d="M438.844,115.393c0,1.779-1.445,3.223-3.225,3.223c-1.783,0-3.225-1.443-3.225-3.223
				c0-1.783,1.441-3.225,3.225-3.225C437.398,112.168,438.844,113.609,438.844,115.393z"/>
			<polygon fill="#E6BE91" points="420.286,118.819 420.286,136.355 424.611,133.622 			"/>
			<polygon fill="#ED1C24" points="426.77,145.099 420.286,147.564 413.799,145.099 			"/>
			<path fill="#3C2415" d="M411.526,107.179c0,0.473-0.385,0.856-0.857,0.856h-10.48c-0.473,0-0.857-0.384-0.857-0.856l0,0
				c0-0.472,0.385-0.856,0.857-0.856h10.48C411.141,106.322,411.526,106.707,411.526,107.179L411.526,107.179z"/>
			<path fill="#3C2415" d="M441.559,107.179c0,0.473-0.385,0.856-0.855,0.856h-10.482c-0.473,0-0.857-0.384-0.857-0.856l0,0
				c0-0.472,0.385-0.856,0.857-0.856h10.482C441.174,106.322,441.559,106.707,441.559,107.179L441.559,107.179z"/>
			<path fill="#3C2415" d="M444.572,85.416c0,0-7.256,14.715-33.056,14.715c0,0,18.343-5.241,23.382-13.908
				c0,0-19.351,11.69-35.476,13.706c0,0-14.414-2.136-13.656,32.694c0,0,1.16-17.98-3.678-17.576l0.807-29.026l23.783-22.979
				l22.978-0.403l24.189,16.125l6.047,34.871c0,0-3.225,3.629-3.225,14.312c0,0-2.822-19.753-2.822-28.823
				C453.846,99.123,453.441,87.633,444.572,85.416z"/>
			<path fill="#FED09E" d="M469.689,299.953v5.044c0,0,0.076,2.167-1.076,4.303h20.461l-0.006-4.233v-5.113H469.689z"/>
			<path fill="#FFDAA2" d="M371.565,304.997v-45.044h-19.359v45.97l-0.021,3.377h20.461
				C371.491,307.164,371.565,304.997,371.565,304.997z"/>
			<path fill="#FADF75" d="M468.307,323.334v-75.033l-0.029-9.499l0.002-18.343c0-0.391,0.318-0.705,0.705-0.705
				c0.391,0,0.705,0.314,0.705,0.705v18.343v66.195c0,0,0.076,2.167-1.076,4.303h20.461l-0.006-4.233v-82.844l-0.002-2.418v-15.049
				c0-19.593-15.883-35.476-35.477-35.476l-17.922-0.03l-15.378,93.083v61H468.307z"/>
			<path fill="#FAE48C" d="M371.559,304.997v-66.195v-18.343c0-0.391,0.314-0.705,0.705-0.705c0.387,0,0.705,0.314,0.705,0.705
				l0.002,18.343l-0.029,9.499v75.033h48.018v-61l-15.378-93.083l-17.923,0.03c-19.594,0-35.477,15.883-35.477,35.476v15.049
				l-0.002,2.418v82.844l-0.006,4.233h20.461C371.483,307.164,371.559,304.997,371.559,304.997z"/>
			<polygon fill="#FFDAA2" points="434.793,174.803 420.287,212.195 406.781,174.803 			"/>
			<polygon fill="#FED09E" points="432.793,189.375 420.287,212.375 420.287,169.25 433.787,169.25 			"/>
			<polygon fill="#DFB819" points="420.417,261.5 443.75,219 431.084,205.5 449.418,204 443.084,194.167 431.084,202.5 			"/>
			<polygon fill="#F9D546" points="420.293,262.333 443.168,216.25 432.418,204.333 450.168,202.75 436.418,169.667 433.787,169.25 
				434.418,175 			"/>
			<polygon fill="#DFB819" points="420.832,261.5 397.499,219 410.165,205.5 391.832,204 398.165,194.167 410.165,202.5 			"/>
			<polygon fill="#F9DA5E" points="420.956,262.333 398.082,216.25 408.832,204.333 391.082,202.75 404.832,169.667 407.462,169.25 
				406.832,175 			"/>
			<polygon fill="#E6E7E8" points="454.162,193.688 440.182,186.75 420.98,212.195 437.725,179.75 			"/>
			<polygon fill="#F1F2F2" points="433.818,163.032 454.225,193.75 439.725,184.25 421.152,212.25 433.818,175.365 			"/>
			<polygon fill="#E6E7E8" points="387.105,193.688 401.084,186.75 420.287,212.195 403.542,179.75 			"/>
			<polygon fill="#F1F2F2" points="407.449,163.032 387.042,193.75 401.542,184.25 420.115,212.25 407.449,175.365 			"/>
		</g>
	</g>
</g>
</svg>
