<?xml version="1.0" encoding="utf-8"?>
<!-- Generator: Adobe Illustrator 16.0.0, SVG Export Plug-In . SVG Version: 6.00 Build 0)  -->
<!DOCTYPE svg PUBLIC "-//W3C//DTD SVG 1.0//EN" "http://www.w3.org/TR/2001/REC-SVG-20010904/DTD/svg10.dtd">
<svg version="1.0" xmlns="http://www.w3.org/2000/svg" xmlns:xlink="http://www.w3.org/1999/xlink" x="0px" y="0px"
	 width="841.89px" height="595.28px" viewBox="0 0 841.89 595.28" enable-background="new 0 0 841.89 595.28" xml:space="preserve">
<g id="background">
	<rect x="199.029" y="79.84" fill="#4D4E4E" width="181.202" height="269.993"/>
	<text transform="matrix(1 0 0 1 268.9526 185.9619)"><tspan x="0" y="0" fill="#FFFFFF" font-family="'Bebas'" font-size="36">I</tspan><tspan x="8.156" y="0" fill="#FFFFFF" font-family="'MyriadPro-Regular'" font-size="36">’</tspan><tspan x="15.608" y="0" fill="#FFFFFF" font-family="'Bebas'" font-size="36">M</tspan><tspan x="0.287" y="43.2" fill="#FFFFFF" font-family="'Bebas'" font-size="36">AN</tspan><tspan x="-31.622" y="86.4" fill="#FFFFFF" font-family="'Bebas'" font-size="36">ARTIST</tspan></text>
	<g>
		<polygon fill="#78451C" points="333.491,588.875 349.599,588.875 389.038,365.203 373.416,362.449 		"/>
		<polygon fill="#78451C" points="732.936,362.449 717.314,365.203 756.752,588.875 772.861,588.875 		"/>
		<rect x="333.49" y="362.104" fill="#905322" width="439.37" height="8.504"/>
		<g>
			<polygon fill="#BCBEC0" points="533.133,359.904 524.783,357.1 518.744,316.833 481.447,316.833 475.408,357.1 467.059,359.904 
							"/>
			<polygon fill="#B1B3B6" points="500.096,316.833 500.096,359.904 533.133,359.904 524.783,357.1 518.744,316.833 			"/>
			<path fill="#D1D3D4" d="M608.76,334.521c0,1.498-1.215,2.712-2.713,2.712H394.145c-1.498,0-2.713-1.214-2.713-2.712V183.308
				c0-1.498,1.215-2.712,2.713-2.712h211.902c1.498,0,2.713,1.214,2.713,2.712V334.521z"/>
			<rect x="467.113" y="359.904" fill="#A7A9AC" width="65.963" height="1.469"/>
			<rect x="500.096" y="359.904" fill="#9D9FA2" width="32.98" height="1.469"/>
			<path fill="#C7C8CA" d="M606.047,180.596H500.096v156.638h105.951c1.498,0,2.713-1.214,2.713-2.712V183.308
				C608.76,181.81,607.545,180.596,606.047,180.596z"/>
			<path fill="#414042" d="M606.047,180.596H394.145c-1.498,0-2.713,1.214-2.713,2.712v122.395H608.76V183.308
				C608.76,181.81,607.545,180.596,606.047,180.596z"/>
			<path fill="#3D3D3E" d="M606.047,180.596H500.096v125.107H608.76V183.308C608.76,181.81,607.545,180.596,606.047,180.596z"/>
			<circle fill="#414042" cx="500.095" cy="321.58" r="4.747"/>
			<path fill="#3D3D3E" d="M500.096,316.833L500.096,316.833v9.493l0,0c2.623,0,4.746-2.125,4.746-4.746
				C504.842,318.958,502.719,316.833,500.096,316.833z"/>
		</g>
	</g>
</g>
<g id="man" display="none">
	<g display="inline">
		<g>
			<g>
				<g>
					<path fill="#00557F" d="M376.449,352.759h87.885v214.473c0,10.91-8.844,19.754-19.754,19.754l0,0
						c-10.91,0-19.754-8.844-19.754-19.754v-169.32l0.021-1.182v-3.318c0-2.461-1.994-4.455-4.456-4.455l0,0
						c-2.46,0-4.456,1.994-4.456,4.455v3.318l0.021,2.258v168.244c0,10.91-8.845,19.754-19.754,19.754l0,0
						c-10.91,0-19.754-8.844-19.754-19.754V352.759"/>
				</g>
			</g>
			<path fill="#004869" d="M420.066,378.587c-12.446,0.023-22.533,10.121-22.533,22.574v177.383c0,2.898,0.566,5.66,1.561,8.207
				c9.537-1.404,16.863-9.596,16.863-19.52V398.987l-0.021-2.258v-3.318c0-2.461,1.996-4.455,4.456-4.455
				c2.462,0,4.456,1.994,4.456,4.455v3.318l-0.021,1.182v169.32c0,10.91,8.844,19.754,19.754,19.754s19.754-8.844,19.754-19.754
				V352.759h-44.268V378.587z"/>
		</g>
		<path fill="#3C2415" d="M462.876,195.189c0,23.599-19.131,42.731-42.732,42.731l0,0c-23.6,0-42.732-19.133-42.732-42.731v-54.826
			c0-23.603,19.133-42.732,42.732-42.732l0,0c23.602,0,42.732,19.13,42.732,42.732V195.189z"/>
		<path fill="#FFDAA2" d="M371.323,345.229v-66.195v-18.343c0-0.391,0.316-0.705,0.705-0.705c0.391,0,0.707,0.314,0.707,0.705
			v18.343l-0.014,9.499l-0.002,55.932c0,6.739,5.463,12.204,12.203,12.204h70.939c6.74,0,12.203-5.465,12.203-12.204v-55.932
			l-0.027-9.499v-18.343c0-0.391,0.318-0.705,0.705-0.705c0.391,0,0.705,0.314,0.705,0.705v18.343v66.195
			c0,0,0.076,2.167-1.076,4.303h20.461l-0.006-4.233v-82.844l-0.002-2.418v-15.049c0-19.593-15.883-35.476-35.477-35.476h-65.906
			c-19.592,0-35.475,15.883-35.475,35.476v16.66l-0.004,0.807v83.7l-0.021,3.377h20.461
			C371.249,347.396,371.323,345.229,371.323,345.229z"/>
		<line fill="none" stroke="#000000" stroke-miterlimit="10" x1="364.644" y1="388.815" x2="364.644" y2="388.815"/>
		<path fill="#FED09E" d="M467.837,350.389c0,0-0.729,1.427-0.918,1.871c-0.607,1.423-0.9,3.007-0.9,4.651v2.252l-0.016,7.902
			v10.569c0,1.55,1.254,2.806,2.803,2.806c1.551,0,2.807-1.256,2.807-2.806v-10.569v-2.602c0-0.564,0.453-1.018,1.014-1.018
			c0.564,0,1.018,0.453,1.018,1.018v23.076c1.475,0.617,3.096,0.96,4.793,0.96c6.861,0,12.42-5.559,12.42-12.418v-19.171
			c0-1.6-0.303-3.128-0.854-4.532c-0.313-0.8-0.705-1.556-1.17-2.265v-0.582h-20.461
			C468.214,349.818,468.042,350.105,467.837,350.389z"/>
		<path fill="#FFDAA2" d="M350.771,352.379c-0.551,1.404-0.854,2.933-0.854,4.532v19.171c0,6.859,5.559,12.418,12.418,12.418
			c1.701,0,3.32-0.343,4.793-0.96v-23.076c0-0.564,0.455-1.018,1.018-1.018c0.561,0,1.018,0.453,1.018,1.018l-0.004,2.602v10.569
			c0,1.55,1.258,2.806,2.807,2.806c1.551,0,2.807-1.256,2.807-2.806v-10.569l-0.02-7.902v-2.252c0-1.645-0.289-3.229-0.9-4.651
			c-0.189-0.444-0.916-1.871-0.916-1.871c-0.205-0.283-0.379-0.57-0.533-0.856h-20.461l-0.004,0.582
			C351.476,350.823,351.083,351.579,350.771,352.379z"/>
		<path d="M472.778,566.483h-8.781c0.021,0.312,0.047,0.624,0.047,0.941v1.411c0,7.124-5.775,12.9-12.9,12.9H437.64
			c-4.777,0-8.941-2.607-11.172-6.469c-2.365,3.351-3.77,7.43-3.785,11.839h70.791C493.433,575.708,484.188,566.483,472.778,566.483
			z"/>
		<path d="M367.989,566.483h8.779c-0.021,0.312-0.047,0.624-0.047,0.941v1.411c0,7.124,5.777,12.9,12.9,12.9h13.506
			c4.779,0,8.941-2.607,11.17-6.469c2.365,3.351,3.773,7.43,3.789,11.839h-70.793C347.335,575.708,356.581,566.483,367.989,566.483z
			"/>
		<path fill="#FED09E" d="M488.827,262.455l-0.002-2.418v-15.049c0-19.593-15.883-35.476-35.477-35.476h-33.301v147.156h35.814
			c6.74,0,12.203-5.465,12.203-12.204v-55.932l-0.029-9.499l0.002-18.343c0-0.391,0.318-0.705,0.705-0.705
			c0.391,0,0.705,0.314,0.705,0.705v18.343v66.195c0,0,0.076,2.167-1.076,4.303h20.461l-0.006-4.233V262.455z"/>
		<path fill="#FED09E" d="M469.448,322.686v14.488c0,0,0.076,6.224-1.076,12.358h20.461l-0.006-12.159v-14.688H469.448z"/>
		<path fill="#FFDAA2" d="M371.323,345.229v-45.044h-19.359v45.97l-0.021,3.377h20.461
			C371.249,347.396,371.323,345.229,371.323,345.229z"/>
		<path fill="#F29320" d="M453.008,209.513h-65.905c-5.251,0-10.227,1.149-14.708,3.193v47.986v18.342v85.743
			c0.166,6.594,5.553,11.893,12.188,11.893h70.938c6.555,0,11.89-5.176,12.176-11.66V212.701
			C463.219,210.66,458.249,209.513,453.008,209.513z"/>
		<path fill="#EF8822" d="M419.727,209.513V376.67h35.795c6.555,0,11.89-5.176,12.176-11.66V212.701
			c-4.479-2.041-9.448-3.188-14.689-3.188H419.727z"/>
		<path fill="#E6BE91" d="M462.702,169.219c0,4.106-3.328,7.436-7.436,7.436l0,0c-4.107,0-7.439-3.329-7.439-7.436v-6.158
			c0-4.106,3.332-7.436,7.439-7.436l0,0c4.107,0,7.436,3.329,7.436,7.436V169.219z"/>
		<path fill="#DBB58B" d="M460.017,168.106c0,2.62-2.127,4.749-4.75,4.749l0,0c-2.623,0-4.752-2.129-4.752-4.749v-3.934
			c0-2.624,2.129-4.749,4.752-4.749l0,0c2.623,0,4.75,2.125,4.75,4.749V168.106z"/>
		<path fill="#FFDAA2" d="M392.96,169.219c0,4.106-3.328,7.436-7.436,7.436l0,0c-4.107,0-7.439-3.329-7.439-7.436v-6.158
			c0-4.106,3.332-7.436,7.439-7.436l0,0c4.107,0,7.436,3.329,7.436,7.436V169.219z"/>
		<path fill="#FED09E" d="M390.274,168.104c0,2.623-2.127,4.752-4.75,4.752l0,0c-2.623,0-4.752-2.129-4.752-4.752v-3.931
			c0-2.624,2.129-4.749,4.752-4.749l0,0c2.623,0,4.75,2.125,4.75,4.749V168.104z"/>
		<path fill="#E6BE91" d="M403.383,209.513v4.233c0,9.203,7.463,16.664,16.666,16.664s16.66-7.461,16.66-16.664v-4.233H403.383z"/>
		<path fill="#E6BE91" d="M403.383,209.513v4.233c0,9.203,7.463,16.664,16.666,16.664s16.66-7.461,16.66-16.664v-4.233H403.383z"/>
		<path fill="#FFDAA2" d="M420.396,105.233c-20.039,0-36.281,16.245-36.281,36.282v24.188c0,15.389,9.586,28.531,23.111,33.807
			v14.57c0,7.271,5.895,13.168,13.17,13.168c7.271,0,13.168-5.896,13.168-13.168v-14.57c13.523-5.271,23.111-18.415,23.111-33.807
			v-24.188C456.675,121.479,440.433,105.233,420.396,105.233z"/>
		<path fill="#FED09E" d="M420.046,227.231c0.115,0.003,0.232,0.017,0.352,0.017c7.271,0,13.168-5.896,13.168-13.168v-14.57
			c13.523-5.271,23.111-18.415,23.111-33.807v-24.188c0-12.891-6.727-24.204-16.855-30.639h-19.775V227.231z"/>
		<path fill="#3C2415" d="M408.636,155.625c0,1.779-1.445,3.223-3.225,3.223c-1.783,0-3.227-1.443-3.227-3.223
			c0-1.783,1.443-3.225,3.227-3.225C407.19,152.4,408.636,153.842,408.636,155.625z"/>
		<path fill="#3C2415" d="M438.603,155.625c0,1.779-1.445,3.223-3.225,3.223c-1.783,0-3.225-1.443-3.225-3.223
			c0-1.783,1.441-3.225,3.225-3.225C437.157,152.4,438.603,153.842,438.603,155.625z"/>
		<polygon fill="#E6BE91" points="420.044,159.052 420.044,176.588 424.37,173.854 		"/>
		<polygon fill="#ED1C24" points="426.528,185.331 420.044,187.797 413.558,185.331 		"/>
		<path fill="#3C2415" d="M411.284,147.411c0,0.473-0.385,0.856-0.857,0.856h-10.48c-0.473,0-0.857-0.384-0.857-0.856l0,0
			c0-0.472,0.385-0.856,0.857-0.856h10.48C410.899,146.555,411.284,146.939,411.284,147.411L411.284,147.411z"/>
		<path fill="#3C2415" d="M441.317,147.411c0,0.473-0.385,0.856-0.855,0.856h-10.482c-0.473,0-0.857-0.384-0.857-0.856l0,0
			c0-0.472,0.385-0.856,0.857-0.856h10.482C440.933,146.555,441.317,146.939,441.317,147.411L441.317,147.411z"/>
		<path fill="#3C2415" d="M444.331,125.648c0,0-7.256,14.715-33.057,14.715c0,0,18.344-5.241,23.383-13.908
			c0,0-19.352,11.69-35.477,13.706c0,0-14.414-2.136-13.656,32.694c0,0,1.16-17.98-3.678-17.576l0.807-29.026l23.783-22.979
			l22.979-0.403l24.189,16.125l6.047,34.871c0,0-3.225,3.629-3.225,14.312c0,0-2.822-19.753-2.822-28.823
			C453.604,139.355,453.2,127.865,444.331,125.648z"/>
		<path fill="#4D4E4E" d="M445.676,191.732c0,0-12.001,14-37.667,9.5l39.334,17.833
			C447.343,219.066,454.009,206.066,445.676,191.732z"/>
		<path fill="#6C6C6C" d="M440.676,245.732c0,0-4.5,65-2.25,94l-43-11.25c0,0,1-58.5,13.25-90.75l3-3.5l30,8L440.676,245.732z"/>
		<path fill="#5E5E5E" d="M394.926,191.482c0,0-8.5,5.5-9,17.75c0,0,13,41,61,36c0,0,10.251-11.25,9.501-36.5
			C456.427,208.732,407.676,206.732,394.926,191.482z"/>
	</g>
</g>
<g id="woman">
	<g>
		<path fill="#C7C8CA" d="M451.11,211.17c0,6.075-4.925,11-11,11h-34.5c-6.075,0-11-4.925-11-11v-1.833c0-6.075,4.925-11,11-11h34.5
			c6.075,0,11,4.925,11,11V211.17z"/>
		<g>
			<g>
				<path fill="#FFDAA2" d="M395.774,170.959c0,4.106-3.33,7.437-7.436,7.437l0,0c-4.107,0-7.439-3.33-7.439-7.437v-6.157
					c0-4.107,3.332-7.437,7.439-7.437l0,0c4.105,0,7.436,3.329,7.436,7.437V170.959z"/>
				<path fill="#FED09E" d="M393.087,169.846c0,2.624-2.125,4.751-4.748,4.751l0,0c-2.625,0-4.754-2.127-4.754-4.751v-3.933
					c0-2.623,2.129-4.75,4.754-4.75l0,0c2.623,0,4.748,2.127,4.748,4.75V169.846z"/>
				<path fill="#E6BE91" d="M465.519,170.959c0,4.106-3.33,7.437-7.438,7.437l0,0c-4.107,0-7.439-3.33-7.439-7.437v-6.157
					c0-4.107,3.332-7.437,7.439-7.437l0,0c4.107,0,7.438,3.329,7.438,7.437V170.959z"/>
				<path fill="#DBB58B" d="M462.831,169.847c0,2.623-2.125,4.75-4.75,4.75l0,0c-2.623,0-4.752-2.127-4.752-4.75v-3.934
					c0-2.623,2.129-4.75,4.752-4.75l0,0c2.625,0,4.75,2.127,4.75,4.75V169.847z"/>
				<path fill="#FFDAA2" d="M423.21,106.973c-20.041,0-36.283,16.246-36.283,36.282v24.189c0,15.39,9.588,28.533,23.111,33.807
					v14.57c0,7.271,5.896,13.17,13.172,13.17c7.271,0,13.168-5.898,13.168-13.17v-14.57c13.523-5.271,23.111-18.415,23.111-33.807
					v-24.189C459.489,123.219,443.247,106.973,423.21,106.973z"/>
				<path fill="#FED09E" d="M459.418,141.077c-0.012-0.219-0.031-0.436-0.049-0.654c-0.039-0.516-0.09-1.029-0.15-1.539
					c-0.027-0.229-0.057-0.457-0.088-0.684c-0.078-0.559-0.17-1.115-0.273-1.668c-0.027-0.145-0.047-0.289-0.078-0.434
					c-0.139-0.699-0.301-1.391-0.479-2.076c-0.033-0.127-0.074-0.253-0.107-0.379c-0.154-0.56-0.318-1.113-0.498-1.662
					c-0.061-0.183-0.123-0.361-0.184-0.543c-0.182-0.524-0.373-1.043-0.578-1.559c-0.057-0.14-0.109-0.282-0.168-0.422
					c-0.545-1.323-1.164-2.606-1.855-3.846c-0.051-0.091-0.105-0.183-0.156-0.274c-0.309-0.539-0.629-1.071-0.963-1.592
					c-0.059-0.091-0.117-0.183-0.174-0.274c-1.193-1.825-2.543-3.539-4.033-5.117c-0.033-0.035-0.064-0.069-0.098-0.102
					c-2.039-2.14-4.332-4.033-6.84-5.627c-0.012-0.008-0.025-0.016-0.037-0.023l-0.91-0.562c-5.414-3.216-11.734-5.068-18.488-5.068
					c-0.119,0-0.236,0.008-0.354,0.009v121.991c0.117,0.003,0.234,0.018,0.354,0.018c7.271,0,13.168-5.898,13.168-13.17v-14.57
					c13.523-5.271,23.111-18.415,23.111-33.807v-24.189C459.49,142.523,459.463,141.799,459.418,141.077z"/>
				<g>
					<path fill="#3C2415" d="M458.06,176.429c-0.148,0.625-0.283,1.187-0.396,1.621C457.808,177.512,457.95,176.974,458.06,176.429z
						"/>
					<path fill="#3C2415" d="M450.454,114.834c0,0,4.902-9.474-3.428-14.176c0,0-52.342-17.537-62.623,26.205
						c0,0-0.67,15.99,1.145,27.076c0,0,1.008,15.118,3.023,23.383c0,0-3.023-16.73,4.031-25.197c0,0,7.055-7.055,3.023-14.513
						c0,0,0.076-0.31,0.246-0.828c20.854-0.448,39.867-8.242,39.867-8.242c-2.822,4.635-24.189,8.465-24.189,8.465
						c32.857-1.209,35.881-12.497,35.881-12.497s6.65,7.257,6.854,14.312c0,0-4.436,6.449,0.201,12.295
						c0,0,6.016,13.271,3.574,25.313c1.055-4.512,3.076-22.49,3.076-22.49S468.796,120.948,450.454,114.834z"/>
					<path fill="#3C2415" d="M457.663,178.05c-0.117,0.43-0.215,0.863-0.355,1.287C457.308,179.337,457.446,178.877,457.663,178.05z
						"/>
				</g>
				<path fill="#3C2415" d="M384.403,126.863c0,0-0.063-25.472,12.187-36.472c0,0-6.5,7,28.75,6.75L384.403,126.863z"/>
			</g>
			<polygon fill="#3C2415" points="429.342,187.092 422.857,189.557 416.373,187.092 			"/>
			<polygon fill="#E6BE91" points="422.857,160.82 422.857,178.356 427.184,175.623 			"/>
			<circle fill="#3C2415" cx="408.226" cy="157.365" r="3.225"/>
			<circle fill="#3C2415" cx="438.192" cy="157.365" r="3.226"/>
		</g>
		<path fill="#FFDAA2" d="M353.585,354.142c-0.551,1.404-0.854,2.934-0.854,4.532v19.173c0,6.857,5.559,12.418,12.418,12.418
			c1.701,0,3.32-0.343,4.793-0.962v-23.076c0-0.563,0.455-1.017,1.018-1.017c0.561,0,1.018,0.454,1.018,1.017l-0.004,2.601v10.572
			c0,1.549,1.258,2.805,2.807,2.805c1.551,0,2.807-1.256,2.807-2.805v-10.572l-0.02-7.901v-2.252c0-1.645-0.289-3.228-0.9-4.65
			c-0.189-0.446-0.916-1.873-0.916-1.873c-0.205-0.281-0.379-0.568-0.533-0.856h-20.461l-0.004,0.584
			C354.29,352.585,353.896,353.343,353.585,354.142z"/>
		<g>
			<path fill="#003660" d="M379.267,354.52h87.884V568.99c0,10.91-8.844,19.754-19.754,19.754l0,0
				c-10.91,0-19.754-8.844-19.754-19.754V399.671l0.021-1.183v-3.316c0-2.461-1.994-4.457-4.456-4.457l0,0
				c-2.459,0-4.457,1.996-4.457,4.457v3.316l0.023,2.259V568.99c0,10.91-8.844,19.754-19.754,19.754l0,0
				c-10.91,0-19.754-8.844-19.754-19.754V354.52"/>
		</g>
		<path fill="#002B52" d="M422.884,380.347c-12.447,0.024-22.535,10.121-22.535,22.575v177.382c0,2.897,0.566,5.66,1.563,8.206
			c9.537-1.403,16.863-9.595,16.863-19.52V400.747l-0.023-2.259v-3.316c0-2.461,1.998-4.457,4.457-4.457
			c2.462,0,4.456,1.996,4.456,4.457v3.316l-0.021,1.183V568.99c0,10.91,8.844,19.754,19.754,19.754s19.754-8.844,19.754-19.754
			V354.52h-44.267V380.347z"/>
		<path fill="#414042" d="M374.138,346.993v-66.199v-18.342c0-0.391,0.316-0.706,0.707-0.706c0.389,0,0.705,0.315,0.705,0.706
			v18.342l-0.016,9.5v55.935c0,6.739,5.463,12.204,12.203,12.204h70.94c6.74,0,12.205-5.465,12.205-12.204v-55.935l-0.029-9.5
			v-18.342c0-0.391,0.318-0.706,0.705-0.706c0.391,0,0.705,0.315,0.705,0.706v18.342v66.199c0,0,0.076,2.165-1.076,4.301h20.463
			l-0.006-4.232v-82.846l-0.004-2.42v-15.048c0-19.593-15.883-35.477-35.477-35.477h-65.907c-19.592,0-35.477,15.884-35.477,35.477
			v16.661l-0.002,0.807v83.702l-0.021,3.376h20.461C374.063,349.158,374.138,346.993,374.138,346.993z"/>
		<path fill="#383839" d="M491.645,264.216l-0.004-2.42v-15.048c0-19.593-15.883-35.477-35.477-35.477h-33.28v147.161h35.794
			c6.74,0,12.205-5.465,12.205-12.204v-55.935l-0.029-9.5v-18.342c0-0.391,0.318-0.706,0.705-0.706c0.391,0,0.705,0.315,0.705,0.706
			v18.342v66.199c0,0,0.076,2.165-1.076,4.301h20.463l-0.006-4.232V264.216z"/>
		<path fill="#603913" d="M484.609,425.92c0,1.104-0.896,2-2,2h-20.25c-1.104,0-2-0.896-2-2v-73.5c0-1.104,0.896-2,2-2h20.25
			c1.104,0,2,0.896,2,2V425.92z"/>
		<path fill="#E6BE91" d="M406.222,211.271v4.232c0,9.203,7.459,16.664,16.662,16.664c9.202,0,16.661-7.461,16.661-16.664v-4.232
			H406.222z"/>
		<polygon fill="#383839" points="406.247,211.278 406.247,240.853 422.884,232.84 		"/>
		<polygon fill="#2E2E2F" points="439.52,211.278 439.52,240.853 422.884,232.84 		"/>
		<circle fill="#3C2415" cx="408.227" cy="157.382" r="3.225"/>
		<circle fill="#3C2415" cx="438.193" cy="157.382" r="3.226"/>
		<g>
			<path fill="#12C3F4" d="M404.539,149.87c0,0-9.742-0.312-9.742,7.106c0,0-0.758,11.887,10.904,11.887
				c0,0,8.982,1.029,11.93-8.223c0,0,3.398-7.953-4.244-9.606C413.387,151.034,408.246,149.87,404.539,149.87z"/>
			<path fill="#12C3F4" d="M441.563,149.87c0,0,9.742-0.312,9.742,7.106c0,0,0.758,11.887-10.904,11.887
				c0,0-8.982,1.029-11.934-8.223c0,0-3.395-7.953,4.248-9.606C432.716,151.034,437.854,149.87,441.563,149.87z"/>
			<path d="M460.495,153.01c-1.221-1.765-3.275-2.724-4.5-3.171l0.004-0.011c0,0-9.609-4.202-30.436,1.518
				c0,0-1.651,0.527-2.513,0.557c-0.859-0.029-2.512-0.557-2.512-0.557c-20.826-5.72-30.436-1.518-30.436-1.518l0.004,0.021
				c-1.229,0.452-3.26,1.411-4.473,3.16c0,0-0.604,2.318,0.137,2.924c0,0,3.221-2.314,5.096-1.771
				c0.406,0.133,1.545,0.677,1.986,2.703c0,0,0.803,7.306,4.021,10.792c0,0,2.883,2.747,8.313,2.747c0,0,10.123,0.604,12.869-6.904
				c0,0,1.846-4.926,2.648-6.133c0,0,1.07-1.911,2.346-1.911c1.273,0,2.347,1.911,2.347,1.911c0.803,1.207,2.645,6.133,2.645,6.133
				c2.75,7.508,12.873,6.904,12.873,6.904c5.43,0,8.313-2.747,8.313-2.747c3.219-3.486,4.021-10.792,4.021-10.792
				c0.428-1.979,1.523-2.541,1.955-2.693c1.865-0.609,5.156,1.762,5.156,1.762C461.101,155.328,460.495,153.01,460.495,153.01z
				 M417.631,160.641c-2.947,9.252-11.93,8.223-11.93,8.223c-11.662,0-10.904-11.887-10.904-11.887c0-7.418,9.742-7.106,9.742-7.106
				c3.707,0,8.848,1.164,8.848,1.164C421.029,152.688,417.631,160.641,417.631,160.641z M440.401,168.863
				c0,0-8.982,1.029-11.934-8.223c0,0-3.395-7.953,4.248-9.606c0,0,5.139-1.164,8.848-1.164c0,0,9.742-0.312,9.742,7.106
				C451.306,156.977,452.063,168.863,440.401,168.863z"/>
		</g>
		<path fill="#2E2E2F" d="M435.859,261.753v19.5c0,2.209,1.791,4,4,4h13.5c2.209,0,4-1.791,4-4v-19.5H435.859z"/>
		<path fill="#222223" d="M444.276,260.003v9.333c0,1.289,1.045,2.333,2.333,2.333c1.289,0,2.334-1.045,2.334-2.333v-9.333H444.276z
			"/>
		<circle fill="#808285" cx="446.641" cy="269.201" r="1.156"/>
		<path fill="#00254A" d="M469.859,573.253c0,2.209-1.791,4-4,4h-37c-2.209,0-4-1.791-4-4v-22c0-2.209,1.791-4,4-4h37
			c2.209,0,4,1.791,4,4V573.253z"/>
		<path fill="#00254A" d="M421.193,573.253c0,2.209-1.791,4-4,4h-37c-2.209,0-4-1.791-4-4v-22c0-2.209,1.791-4,4-4h37
			c2.209,0,4,1.791,4,4V573.253z"/>
		<path d="M496.289,588.875c-0.041-11.398-9.285-20.625-20.695-20.625h-29.4c-11.404,0-20.658,9.227-20.697,20.625H496.289z"/>
		<path fill="#414042" d="M420.905,588.875c-0.043-11.398-9.287-20.625-20.695-20.625h-29.404c-11.404,0-20.654,9.227-20.695,20.625
			H420.905z"/>
		<path fill="#603913" d="M471.443,347.504c0,1.104-0.896,2-2,2h-7c-1.104,0-2-0.896-2-2V212.17c0-1.104,0.896-2,2-2h7
			c1.104,0,2,0.896,2,2V347.504z"/>
		<path fill="#FED09E" d="M470.652,352.15c0,0-0.729,1.427-0.916,1.873c-0.609,1.423-0.902,3.006-0.902,4.65v2.252l-0.016,7.901
			v10.572c0,1.549,1.254,2.805,2.803,2.805c1.551,0,2.807-1.256,2.807-2.805v-10.572v-2.601c0-0.563,0.455-1.017,1.016-1.017
			c0.563,0,1.016,0.454,1.016,1.017v23.076c1.475,0.619,3.098,0.962,4.795,0.962c6.859,0,12.418-5.561,12.418-12.418v-19.173
			c0-1.599-0.303-3.128-0.854-4.532c-0.313-0.799-0.705-1.557-1.168-2.264v-0.584h-20.463
			C471.029,351.582,470.857,351.869,470.652,352.15z"/>
		<path fill="#BCBEC0" d="M394.61,211.278v-2.775h-0.834c-2.209,0-4,1.791-4,4v15.833c0,2.209,1.791,4,4,4h10.666
			c2.209,0,4-1.791,4-4v-15.833c0-0.43-0.085-0.837-0.211-1.225H394.61z"/>
		<path fill="#D1D3D4" d="M436.386,211.278c-0.087,2.104-1.807,3.786-3.933,3.786H413.92c-2.181,0-3.949-1.768-3.949-3.949v-1.028
			h-0.027v1.191h-7.635c-1.83,1.243-3.032,3.34-3.032,5.719v8.762c0,3.817,3.094,6.911,6.911,6.911h38.012
			c3.816,0,6.91-3.094,6.91-6.911v-14.481H436.386z"/>
		<rect x="394.61" y="211.278" fill="#D1D3D4" width="15.333" height="101.809"/>
	</g>
</g>
</svg>
