<?xml version="1.0" encoding="utf-8"?>
<!-- Generator: Adobe Illustrator 16.0.0, SVG Export Plug-In . SVG Version: 6.00 Build 0)  -->
<!DOCTYPE svg PUBLIC "-//W3C//DTD SVG 1.0//EN" "http://www.w3.org/TR/2001/REC-SVG-20010904/DTD/svg10.dtd">
<svg version="1.0" xmlns="http://www.w3.org/2000/svg" xmlns:xlink="http://www.w3.org/1999/xlink" x="0px" y="0px"
	 width="841.89px" height="595.28px" viewBox="0 0 841.89 595.28" enable-background="new 0 0 841.89 595.28" xml:space="preserve">
<g id="background">
	<g>
		<g>
			<path fill="#FFCF1E" d="M388.443,78.929c-23.01,0-41.658,18.652-41.658,41.656v8.869h83.312v-8.869
				C430.097,97.581,411.448,78.929,388.443,78.929z"/>
			<rect x="344.465" y="127.271" fill="#FFC222" width="87.952" height="4.301"/>
		</g>
		<path fill="#FFC222" d="M390.995,104.023c0,1.409-1.144,2.553-2.554,2.553l0,0c-1.41,0-2.555-1.144-2.555-2.553V79.028
			c0-1.408,1.145-2.553,2.555-2.553l0,0c1.41,0,2.554,1.145,2.554,2.553V104.023z"/>
		<path fill="#FFC222" d="M374.871,107.249c0,1.409-1.145,2.553-2.555,2.553l0,0c-1.412,0-2.555-1.144-2.555-2.553V82.254
			c0-1.409,1.143-2.553,2.555-2.553l0,0c1.41,0,2.555,1.144,2.555,2.553V107.249z"/>
		<path fill="#FFC222" d="M407.12,107.249c0,1.409-1.143,2.553-2.555,2.553l0,0c-1.41,0-2.553-1.144-2.553-2.553V82.254
			c0-1.409,1.143-2.553,2.553-2.553l0,0c1.412,0,2.555,1.144,2.555,2.553V107.249z"/>
	</g>
	<g>
		<rect x="445.682" y="109.104" fill="#C3C3C3" width="31.541" height="9.14"/>
		<rect x="277.397" y="110.985" fill="#C3C3C3" width="287.466" height="5.376"/>
		<rect x="451.416" y="56.278" fill="#C3C3C3" width="20.072" height="52.825"/>
		<g>
			<path fill="#C3C3C3" d="M443.71,118.198v231.45h35.483v-231.45H443.71z M475.43,345.615h-27.955V122.23h27.955V345.615z"/>
			<rect x="445.523" y="155.834" fill="#C3C3C3" width="31.543" height="3.943"/>
			
				<rect x="441.227" y="142.707" transform="matrix(0.7689 -0.6393 0.6393 0.7689 14.226 328.7184)" fill="#C3C3C3" width="41.3" height="3.943"/>
			
				<rect x="441.227" y="180.343" transform="matrix(0.7689 -0.6393 0.6393 0.7689 -9.8355 337.4147)" fill="#C3C3C3" width="41.3" height="3.942"/>
			
				<rect x="441.227" y="217.978" transform="matrix(0.7689 -0.6393 0.6393 0.7689 -33.8968 346.1108)" fill="#C3C3C3" width="41.3" height="3.943"/>
			
				<rect x="441.227" y="255.615" transform="matrix(0.7689 -0.6393 0.6393 0.7689 -57.9576 354.8118)" fill="#C3C3C3" width="41.3" height="3.942"/>
			
				<rect x="441.227" y="293.251" transform="matrix(0.7689 -0.6393 0.6393 0.7689 -82.0208 363.4985)" fill="#C3C3C3" width="41.299" height="3.942"/>
			
				<rect x="441.227" y="330.887" transform="matrix(0.7689 -0.6393 0.6393 0.7689 -106.0817 372.1943)" fill="#C3C3C3" width="41.299" height="3.942"/>
			<rect x="445.523" y="193.471" fill="#C3C3C3" width="31.543" height="3.942"/>
			<rect x="445.523" y="231.106" fill="#C3C3C3" width="31.543" height="3.942"/>
			<rect x="445.523" y="268.743" fill="#C3C3C3" width="31.543" height="3.941"/>
			<rect x="445.523" y="306.378" fill="#C3C3C3" width="31.543" height="3.942"/>
		</g>
		<path fill="#C3C3C3" d="M468.173,59.272c0,3.712-3.009,6.721-6.721,6.721l0,0c-3.712,0-6.721-3.009-6.721-6.721V49.057
			c0-3.711,3.009-6.721,6.721-6.721l0,0c3.712,0,6.721,3.009,6.721,6.721V59.272z"/>
		<rect x="528.731" y="117.429" fill="#C3C3C3" width="36.381" height="12.456"/>
		<rect x="528.731" y="131.139" fill="#C3C3C3" width="36.381" height="12.456"/>
		<g>
			<polygon fill="#C3C3C3" points="279.272,114.346 278.889,113.342 461.523,43.526 461.755,43.684 563.266,112.862 562.66,113.75 
				461.381,44.73 			"/>
		</g>
		<g>
			<circle fill="#C3C3C3" cx="283.946" cy="223.616" r="7.169"/>
			<g>
				<path fill="#C3C3C3" d="M283.946,229.992c-3.615,0-6.556-2.94-6.556-6.555V113.651h13.111v109.786
					C290.502,227.051,287.561,229.992,283.946,229.992z M279.391,115.651v107.786c0,2.512,2.043,4.555,4.556,4.555
					s4.556-2.043,4.556-4.555V115.651H279.391z"/>
			</g>
		</g>
		<path fill="#C3C3C3" d="M285.246,235.133v-4.909h-2.554v5.779h1.255v0.022c2.075,0,3.763,1.688,3.763,3.764
			s-1.688,3.764-3.763,3.764s-3.764-1.688-3.764-3.764h-1.076c0,2.668,2.171,4.839,4.839,4.839c2.668,0,4.839-2.171,4.839-4.839
			C288.785,237.572,287.284,235.703,285.246,235.133z"/>
	</g>
	<g>
		<path fill="#CECDCD" d="M425.725,276.583c0,0.644-0.521,1.167-1.166,1.167h-12.833c-0.645,0-1.167-0.522-1.167-1.167v-18.667
			c0-0.644,0.522-1.167,1.167-1.167h12.833c0.645,0,1.166,0.522,1.166,1.167V276.583z"/>
		<circle fill="#CECDCD" cx="418.142" cy="253.625" r="2.25"/>
		<rect x="415.188" y="263.167" fill="#A5A5A5" width="5.907" height="7.417"/>
		<g>
			<circle fill="#CECDCD" cx="418.142" cy="265.988" r="1.312"/>
			<path fill="#CECDCD" d="M420.7,270.124c0-0.02,0.006-0.039,0.006-0.06c0-1.417-1.148-2.565-2.565-2.565s-2.565,1.148-2.565,2.565
				c0,0.021,0.006,0.04,0.006,0.06H420.7z"/>
		</g>
	</g>
</g>
<g id="man">
	<g>
		<g>
			<path fill="#FFFFFF" d="M339.721,332.623v-66.195v-18.343c0-0.391,0.316-0.705,0.705-0.705c0.391,0,0.707,0.314,0.707,0.705
				v18.343l-0.014,9.499l-0.002,55.932c0,6.739,5.463,12.204,12.203,12.204h70.939c6.74,0,12.203-5.465,12.203-12.204v-55.932
				l-0.027-9.499v-18.343c0-0.391,0.318-0.705,0.705-0.705c0.391,0,0.705,0.314,0.705,0.705v18.343v66.195
				c0,0,0.076,2.167-1.076,4.303h20.461l-0.006-4.233v-82.844l-0.002-2.418v-15.049c0-19.593-15.883-35.476-35.477-35.476H355.84
				c-19.592,0-35.475,15.883-35.475,35.476v16.66l-0.004,0.807v83.7l-0.021,3.377h20.461
				C339.646,334.79,339.721,332.623,339.721,332.623z"/>
			<line fill="none" stroke="#000000" stroke-miterlimit="10" x1="333.041" y1="376.209" x2="333.041" y2="376.209"/>
			<path fill="#FED09E" d="M436.234,337.782c0,0-0.729,1.427-0.918,1.871c-0.607,1.423-0.9,3.007-0.9,4.651v2.252l-0.016,7.902
				v10.569c0,1.55,1.254,2.806,2.803,2.806c1.551,0,2.807-1.256,2.807-2.806v-10.569v-2.602c0-0.564,0.453-1.018,1.014-1.018
				c0.564,0,1.018,0.453,1.018,1.018v23.076c1.475,0.617,3.096,0.96,4.793,0.96c6.861,0,12.42-5.559,12.42-12.418v-19.171
				c0-1.6-0.303-3.128-0.854-4.532c-0.313-0.8-0.705-1.556-1.17-2.265v-0.582H436.77
				C436.611,337.212,436.439,337.499,436.234,337.782z"/>
			<polygon fill="#148ECE" points="391.521,222.896 388.445,222.896 385.369,222.896 378.491,324.116 388.445,331.31 398.4,324.116 
							"/>
			<path fill="#FFDAA2" d="M319.168,339.772c-0.551,1.404-0.854,2.933-0.854,4.532v19.171c0,6.859,5.559,12.418,12.418,12.418
				c1.701,0,3.32-0.343,4.793-0.96v-23.076c0-0.564,0.455-1.018,1.018-1.018c0.561,0,1.018,0.453,1.018,1.018l-0.004,2.602v10.569
				c0,1.55,1.258,2.806,2.807,2.806c1.551,0,2.807-1.256,2.807-2.806v-10.569l-0.02-7.902v-2.252c0-1.645-0.289-3.229-0.9-4.651
				c-0.189-0.444-0.916-1.871-0.916-1.871c-0.205-0.283-0.379-0.57-0.533-0.856H320.34l-0.004,0.582
				C319.873,338.217,319.48,338.973,319.168,339.772z"/>
			<path fill="#F1F2F2" d="M457.225,249.849l-0.002-2.418v-15.049c0-19.593-15.883-35.476-35.477-35.476h-33.301v147.156h35.814
				c6.74,0,12.203-5.465,12.203-12.204v-55.932l-0.029-9.499l0.002-18.343c0-0.391,0.318-0.705,0.705-0.705
				c0.391,0,0.705,0.314,0.705,0.705v18.343v66.195c0,0,0.076,2.167-1.076,4.303h20.461l-0.006-4.233V249.849z"/>
			<path fill="#4D4E4E" d="M394.941,278.872l-22.102-81.966h-16.998c-5.254,0-10.236,1.151-14.723,3.201v47.902
				c0.002,0.025,0.016,0.049,0.016,0.075v18.343l-0.016,9.202v56.238c0.006,6.734,5.465,12.194,12.203,12.194h41.619V278.872z"/>
			<g>
				<path fill="#5E5E5E" d="M344.849,340.151h87.885v214.473c0,10.91-8.844,19.754-19.754,19.754l0,0
					c-10.91,0-19.754-8.844-19.754-19.754V385.305l0.021-1.183v-3.317c0-2.461-1.994-4.456-4.456-4.456l0,0
					c-2.46,0-4.456,1.995-4.456,4.456v3.317l0.021,2.258v168.244c0,10.91-8.845,19.754-19.754,19.754l0,0
					c-10.91,0-19.754-8.844-19.754-19.754V340.151"/>
			</g>
			<polygon fill="#148ECE" points="391.547,223.236 385.345,223.236 381.742,214.633 395.148,214.633 			"/>
			<polygon fill="#0073A9" points="388.445,222.896 388.439,222.896 388.439,331.306 388.445,331.31 398.4,324.116 391.521,222.896 
							"/>
			<polygon fill="#0073A9" points="388.439,223.236 391.547,223.236 395.148,214.633 388.439,214.633 			"/>
			<path fill="#4D4E4E" d="M382.611,278.872l22.102-81.966h17c5.254,0,10.236,1.151,14.721,3.201v47.902
				c-0.002,0.025-0.014,0.049-0.014,0.075v18.343l0.014,9.202v56.238c-0.004,6.734-5.465,12.194-12.201,12.194h-41.621V278.872z"/>
			<circle fill="#5E5E5E" cx="387.941" cy="274.622" r="2.75"/>
			<circle fill="#5E5E5E" cx="387.941" cy="308.622" r="2.75"/>
			<circle fill="#5E5E5E" cx="387.941" cy="338.622" r="2.75"/>
			<path fill="#4D4E4E" d="M388.466,365.98c-12.446,0.023-22.533,10.12-22.533,22.574v177.383c0,2.897,0.566,5.66,1.561,8.206
				c9.537-1.403,16.863-9.595,16.863-19.52V386.38l-0.021-2.258v-3.317c0-2.461,1.996-4.456,4.456-4.456
				c2.462,0,4.456,1.995,4.456,4.456v3.317l-0.021,1.183v169.319c0,10.91,8.844,19.754,19.754,19.754s19.754-8.844,19.754-19.754
				V340.151h-44.268V365.98z"/>
			<path d="M386.489,574.509c-0.045-11.398-9.289-20.625-20.695-20.625h-29.406c-11.404,0-20.654,9.227-20.695,20.625H386.489z"/>
			<path d="M461.872,574.509c-0.039-11.398-9.283-20.625-20.695-20.625h-29.4c-11.404,0-20.658,9.227-20.695,20.625H461.872z"/>
			<path fill="#4D4E4E" d="M457.225,332.692v-82.844l-0.002-2.418v-15.049c0-19.593-15.883-35.476-35.477-35.476H409.13
				l-23.803,88.383v65.583h51.136v-74.945l-0.027-9.499v-18.343c0-0.391,0.318-0.705,0.705-0.705c0.391,0,0.705,0.314,0.705,0.705
				v18.343v66.195c0,0,0.076,2.167-1.076,4.303h20.461L457.225,332.692z"/>
			<polygon fill="#5E5E5E" points="412.545,226.122 418.795,232.872 385.336,285.219 405.12,196.906 422.295,223.372 			"/>
			<path fill="#5E5E5E" d="M339.721,332.623v-66.195v-18.343c0-0.391,0.316-0.705,0.705-0.705c0.391,0,0.707,0.314,0.707,0.705
				v18.343l-0.014,9.499l-0.002,74.945h50.446v-65.583l-19.803-88.383H355.84c-19.592,0-35.475,15.883-35.475,35.476v16.66
				l-0.004,0.807v83.7l-0.021,3.377h20.461C339.646,334.79,339.721,332.623,339.721,332.623z"/>
			<polygon fill="#4D4E4E" points="364.336,226.122 358.086,232.872 391.545,285.219 371.761,196.906 354.586,223.372 			"/>
			<circle fill="#4D4E4E" cx="386.941" cy="288.622" r="2.75"/>
			<circle fill="#4D4E4E" cx="386.941" cy="317.122" r="2.75"/>
			<circle fill="#4D4E4E" cx="386.941" cy="345.622" r="2.75"/>
			<g>
				<path fill="#FFDAA2" d="M361.356,156.593c0,4.106-3.33,7.437-7.436,7.437l0,0c-4.107,0-7.439-3.33-7.439-7.437v-6.157
					c0-4.107,3.332-7.437,7.439-7.437l0,0c4.105,0,7.436,3.329,7.436,7.437V156.593z"/>
				<path fill="#FED09E" d="M358.669,155.479c0,2.624-2.125,4.751-4.748,4.751l0,0c-2.625,0-4.754-2.127-4.754-4.751v-3.933
					c0-2.623,2.129-4.75,4.754-4.75l0,0c2.623,0,4.748,2.127,4.748,4.75V155.479z"/>
				<path fill="#E6BE91" d="M431.101,156.593c0,4.106-3.33,7.437-7.438,7.437l0,0c-4.107,0-7.439-3.33-7.439-7.437v-6.157
					c0-4.107,3.332-7.437,7.439-7.437l0,0c4.107,0,7.438,3.329,7.438,7.437V156.593z"/>
				<path fill="#DBB58B" d="M428.413,155.48c0,2.623-2.125,4.75-4.75,4.75l0,0c-2.623,0-4.752-2.127-4.752-4.75v-3.934
					c0-2.623,2.129-4.75,4.752-4.75l0,0c2.625,0,4.75,2.127,4.75,4.75V155.48z"/>
				<path fill="#FFDAA2" d="M388.792,92.607c-20.041,0-36.283,16.245-36.283,36.281v24.189c0,15.39,9.588,28.533,23.111,33.807
					v14.57c0,7.271,5.896,13.17,13.172,13.17c7.271,0,13.168-5.898,13.168-13.17v-14.57c13.523-5.271,23.111-18.415,23.111-33.807
					v-24.189C425.071,108.853,408.829,92.607,388.792,92.607z"/>
				<path fill="#FED09E" d="M425,126.711c-0.012-0.219-0.031-0.436-0.049-0.654c-0.039-0.516-0.09-1.029-0.15-1.539
					c-0.027-0.229-0.057-0.457-0.088-0.684c-0.078-0.559-0.17-1.115-0.273-1.668c-0.027-0.145-0.047-0.289-0.078-0.434
					c-0.139-0.699-0.301-1.391-0.479-2.076c-0.033-0.127-0.074-0.253-0.107-0.379c-0.154-0.56-0.318-1.113-0.498-1.662
					c-0.061-0.183-0.123-0.361-0.184-0.543c-0.182-0.523-0.373-1.043-0.578-1.559c-0.057-0.141-0.109-0.281-0.168-0.422
					c-0.545-1.323-1.164-2.606-1.855-3.846c-0.051-0.092-0.105-0.183-0.156-0.273c-0.309-0.539-0.629-1.072-0.963-1.593
					c-0.059-0.091-0.117-0.183-0.174-0.274c-1.193-1.824-2.543-3.538-4.033-5.116c-0.033-0.034-0.064-0.069-0.098-0.103
					c-2.039-2.14-4.332-4.033-6.84-5.627c-0.012-0.008-0.025-0.016-0.037-0.023l-0.91-0.562c-5.414-3.216-11.734-5.067-18.488-5.067
					c-0.119,0-0.236,0.008-0.354,0.009v121.991c0.117,0.003,0.234,0.018,0.354,0.018c7.271,0,13.168-5.898,13.168-13.17v-14.57
					c13.523-5.271,23.111-18.415,23.111-33.807v-24.189C425.072,128.157,425.045,127.433,425,126.711z"/>
				<g>
					<path fill="#3C2415" d="M423.642,162.063c-0.148,0.625-0.283,1.187-0.396,1.621
						C423.39,163.146,423.532,162.607,423.642,162.063z"/>
					<path fill="#3C2415" d="M416.036,100.469c0,0,4.014-7.517-4.316-12.219c0,0-51.453-19.494-61.734,24.246
						c0,0-0.67,15.99,1.145,27.076c0,0,1.008,15.118,3.023,23.383c0,0-3.023-16.73,4.031-25.197c0,0,7.055-7.055,3.023-14.513
						c0,0,0.076-0.31,0.246-0.828c20.854-0.448,39.867-8.241,39.867-8.241c-2.822,4.635-24.189,8.465-24.189,8.465
						c32.857-1.209,35.881-12.497,35.881-12.497s6.65,7.257,6.854,14.312c0,0-4.436,6.449,0.201,12.295
						c0,0,6.016,13.271,3.574,25.313c1.055-4.512,3.076-22.49,3.076-22.49S434.378,106.582,416.036,100.469z"/>
					<path fill="#3C2415" d="M423.245,163.684c-0.117,0.43-0.215,0.863-0.355,1.287C422.89,164.971,423.028,164.511,423.245,163.684
						z"/>
				</g>
			</g>
			<polygon fill="#3C2415" points="394.924,172.727 388.439,175.191 381.955,172.727 			"/>
			<circle fill="#3C2415" cx="373.808" cy="142.999" r="3.225"/>
			<circle fill="#3C2415" cx="403.774" cy="142.999" r="3.226"/>
			<polygon fill="#E6BE91" points="388.44,146.454 388.44,163.99 392.766,161.257 			"/>
			<path fill="#F1F2F2" d="M375.6,191.552c0,0-12.5,9.708-7.25,32.458c0,0,5.75-13.25,17.25-9.75c0,0-9.063-2.063-10-12.25V191.552z
				"/>
			<path fill="#E6E7E8" d="M401.938,191.552c0,0,12.5,9.708,7.25,32.458c0,0-5.75-13.25-17.25-9.75c0,0,9.063-2.063,10-12.25
				V191.552z"/>
		</g>
		<g>
			<g>
				<path fill="#FFCF1E" d="M388.443,78.929c-23.01,0-41.658,18.652-41.658,41.656v8.869h83.312v-8.869
					C430.097,97.581,411.448,78.929,388.443,78.929z"/>
				<rect x="344.465" y="127.271" fill="#FFC222" width="87.952" height="4.301"/>
			</g>
			<path fill="#FFC222" d="M390.995,104.023c0,1.409-1.144,2.553-2.554,2.553l0,0c-1.41,0-2.555-1.144-2.555-2.553V79.028
				c0-1.408,1.145-2.553,2.555-2.553l0,0c1.41,0,2.554,1.145,2.554,2.553V104.023z"/>
			<path fill="#FFC222" d="M374.871,107.249c0,1.409-1.145,2.553-2.555,2.553l0,0c-1.412,0-2.555-1.144-2.555-2.553V82.254
				c0-1.409,1.143-2.553,2.555-2.553l0,0c1.41,0,2.555,1.144,2.555,2.553V107.249z"/>
			<path fill="#FFC222" d="M407.12,107.249c0,1.409-1.143,2.553-2.555,2.553l0,0c-1.41,0-2.553-1.144-2.553-2.553V82.254
				c0-1.409,1.143-2.553,2.553-2.553l0,0c1.412,0,2.555,1.144,2.555,2.553V107.249z"/>
		</g>
	</g>
</g>
</svg>
