<?xml version="1.0" encoding="utf-8"?>
<!-- Generator: Adobe Illustrator 16.0.0, SVG Export Plug-In . SVG Version: 6.00 Build 0)  -->
<!DOCTYPE svg PUBLIC "-//W3C//DTD SVG 1.0//EN" "http://www.w3.org/TR/2001/REC-SVG-20010904/DTD/svg10.dtd">
<svg version="1.0" xmlns="http://www.w3.org/2000/svg" xmlns:xlink="http://www.w3.org/1999/xlink" x="0px" y="0px"
	 width="841.89px" height="595.28px" viewBox="0 0 841.89 595.28" enable-background="new 0 0 841.89 595.28" xml:space="preserve">
<g id="background">
	<g>
		<g>
			<circle fill="#414042" cx="324.945" cy="85.666" r="44.667"/>
			<g>
				<path fill="#EF8822" d="M320.377,75.591L320.377,75.591c-0.021-2.766-2.269-5.002-5.039-5.002s-5.018,2.236-5.037,5.002h-0.002
					l-2.015,13.666h14.107L320.377,75.591z"/>
				<path fill="#C3C3C3" d="M348.169,79.708c-0.352,0.353-0.924,0.353-1.275,0l-4.334-4.334c-0.352-0.352-0.352-0.922,0-1.274l0,0
					c0.353-0.352,0.923-0.352,1.275,0l4.334,4.334C348.521,78.787,348.521,79.357,348.169,79.708L348.169,79.708z"/>
				
					<rect x="312.37" y="64.093" transform="matrix(0.7071 -0.7071 0.7071 0.7071 46.1708 248.0368)" fill="#EF8822" width="20.259" height="8.382"/>
				<polygon fill="#EF8822" points="340.976,77.008 326.459,62.874 331.239,58.093 345.374,72.61 				"/>
				<g>
					<circle fill="#F7CB1A" cx="329.589" cy="61.194" r="4.192"/>
					<circle fill="#EF8822" cx="329.589" cy="61.195" r="2.209"/>
				</g>
				<g>
					<circle fill="#F7CB1A" cx="315.375" cy="75.408" r="4.823"/>
					<circle fill="#EF8822" cx="315.375" cy="75.408" r="2.541"/>
				</g>
				<polygon fill="#F7CB1A" points="347.822,74.192 342.139,68.355 336.721,73.773 342.558,79.457 				"/>
				<rect x="304.839" y="89.968" fill="#F7CB1A" width="21.273" height="20.462"/>
			</g>
		</g>
		<g>
			<circle fill="#414042" cx="516.944" cy="85.666" r="44.667"/>
			<g>
				<g>
					<g>
						<path fill="#77B743" d="M531.382,65.104h-7.563v2h7.563c1.103,0,2,0.897,2,2v38.625c0,1.103-0.897,2-2,2h-28.875
							c-1.104,0-2-0.897-2-2V69.104c0-1.103,0.896-2,2-2h7.563v-2h-7.563c-2.206,0-4,1.794-4,4v38.625c0,2.206,1.794,4,4,4h28.875
							c2.205,0,4-1.794,4-4V69.104C535.382,66.898,533.587,65.104,531.382,65.104z"/>
					</g>
					<g>
						<rect x="510.819" y="63.354" fill="#77B743" width="12.25" height="3.75"/>
					</g>
					<path fill="#77B743" d="M516.944,59.187c-1.588,0-2.875,1.287-2.875,2.875s1.287,2.875,2.875,2.875s2.875-1.287,2.875-2.875
						S518.532,59.187,516.944,59.187z M516.944,63.354c-0.714,0-1.292-0.578-1.292-1.292s0.578-1.292,1.292-1.292
						c0.713,0,1.291,0.578,1.291,1.292S517.657,63.354,516.944,63.354z"/>
				</g>
				<g>
					<path fill="#77B743" d="M509.124,77.229h-5.25v-5.25h5.25V77.229z M504.874,76.229h3.25v-3.25h-3.25V76.229z"/>
				</g>
				<g>
					<rect x="511.749" y="73.979" fill="#77B743" width="17.25" height="1.125"/>
				</g>
				<g>
					<polygon fill="#77B743" points="506.354,75.312 505.53,74.489 505.884,74.135 506.354,74.604 507.406,73.552 507.76,73.905 
											"/>
				</g>
				<g>
					<path fill="#77B743" d="M509.124,87.229h-5.25v-5.25h5.25V87.229z M504.874,86.229h3.25v-3.25h-3.25V86.229z"/>
				</g>
				<g>
					<rect x="511.749" y="83.979" fill="#77B743" width="17.25" height="1.125"/>
				</g>
				<g>
					<polygon fill="#77B743" points="506.354,85.312 505.53,84.489 505.884,84.135 506.354,84.604 507.406,83.552 507.76,83.905 
											"/>
				</g>
				<g>
					<path fill="#77B743" d="M509.124,97.229h-5.25v-5.25h5.25V97.229z M504.874,96.229h3.25v-3.25h-3.25V96.229z"/>
				</g>
				<g>
					<rect x="511.749" y="93.979" fill="#77B743" width="17.25" height="1.125"/>
				</g>
				<g>
					<polygon fill="#77B743" points="506.354,95.312 505.53,94.489 505.884,94.135 506.354,94.604 507.406,93.552 507.76,93.905 
											"/>
				</g>
			</g>
		</g>
		<g>
			<circle fill="#414042" cx="324.945" cy="215.668" r="44.666"/>
			<g>
				<g>
					<rect x="323.456" y="210.261" fill="#81C7E8" width="25.559" height="14.2"/>
					<rect x="322.567" y="204.582" fill="#81C7E8" width="27.336" height="4.438"/>
				</g>
			</g>
			<g>
				<g>
					<rect x="291.79" y="210.261" fill="#81C7E8" width="25.559" height="14.2"/>
					<rect x="290.901" y="204.582" fill="#81C7E8" width="27.336" height="4.438"/>
				</g>
			</g>
			<path fill="#81C7E8" d="M355.049,225.97h-71.168c0.2,0.801,0.436,1.588,0.681,2.371c1.382,0.269,2.425,1.482,2.425,2.942
				c0,0.674-0.23,1.29-0.606,1.791c0.544,1.201,1.122,2.383,1.771,3.521h66.897c2.934,0,5.313-2.378,5.313-5.313
				S357.982,225.97,355.049,225.97z M293.986,234.283c-1.657,0-3-1.343-3-3s1.343-3,3-3s3,1.343,3,3
				S295.644,234.283,293.986,234.283z M303.986,234.283c-1.657,0-3-1.343-3-3s1.343-3,3-3s3,1.343,3,3
				S305.644,234.283,303.986,234.283z M313.986,234.283c-1.657,0-3-1.343-3-3s1.343-3,3-3s3,1.343,3,3
				S315.644,234.283,313.986,234.283z M323.986,234.283c-1.657,0-3-1.343-3-3s1.343-3,3-3s3,1.343,3,3
				S325.644,234.283,323.986,234.283z M333.986,234.283c-1.657,0-3-1.343-3-3s1.343-3,3-3s3,1.343,3,3
				S335.644,234.283,333.986,234.283z M343.986,234.283c-1.657,0-3-1.343-3-3s1.343-3,3-3s3,1.343,3,3
				S345.644,234.283,343.986,234.283z M353.986,234.283c-1.657,0-3-1.343-3-3s1.343-3,3-3s3,1.343,3,3
				S355.644,234.283,353.986,234.283z"/>
		</g>
		<g>
			<circle fill="#414042" cx="516.944" cy="215.668" r="44.667"/>
			<rect x="483.776" y="201.333" fill="#F7CB1A" width="42.501" height="28.333"/>
			<rect x="485.36" y="230.417" width="61.917" height="3.917"/>
			<rect x="536.027" y="230.417" fill="#FFFFFF" width="11.25" height="3.917"/>
			<polygon fill="#BE1E2D" points="527.402,229.667 546.652,229.667 546.652,218.333 541.652,208.458 527.402,208.458 			"/>
			<path d="M501.133,233c-0.012-3.904-3.178-7.065-7.085-7.065s-7.074,3.161-7.086,7.065H501.133z"/>
			<g>
				<circle cx="494.048" cy="233.021" r="5.271"/>
				<circle fill="#D1D3D4" cx="494.048" cy="233.021" r="3.136"/>
			</g>
			<path d="M538.115,234.313c0.078-0.419,0.123-0.85,0.123-1.292c0-3.914-3.172-7.086-7.086-7.086s-7.086,3.172-7.086,7.086
				c0,0.442,0.045,0.872,0.123,1.292H538.115z"/>
			<g>
				<circle cx="531.152" cy="233.021" r="5.271"/>
				<circle fill="#D1D3D4" cx="531.152" cy="233.021" r="3.136"/>
			</g>
			<polygon fill="#75B4D2" points="544.235,218.125 531.735,217.125 531.735,209.75 540.235,209.75 			"/>
		</g>
	</g>
</g>
<g id="woman">
	<g>
		<g>
			<g>
				<path fill="#003660" d="M379.552,340.15h87.885v214.473c0,10.91-8.844,19.754-19.754,19.754l0,0
					c-10.91,0-19.754-8.844-19.754-19.754V385.304l0.021-1.183v-3.317c0-2.461-1.994-4.456-4.456-4.456l0,0
					c-2.46,0-4.456,1.995-4.456,4.456v3.317l0.021,2.258v168.244c0,10.91-8.845,19.754-19.754,19.754l0,0
					c-10.91,0-19.754-8.844-19.754-19.754V340.15"/>
			</g>
			<path fill="#002B52" d="M423.169,365.979c-12.446,0.023-22.533,10.12-22.533,22.574v177.383c0,2.897,0.566,5.66,1.561,8.206
				c9.537-1.403,16.863-9.595,16.863-19.52V386.379l-0.021-2.258v-3.317c0-2.461,1.996-4.456,4.456-4.456
				c2.462,0,4.456,1.995,4.456,4.456v3.317l-0.021,1.183v169.319c0,10.91,8.844,19.754,19.754,19.754s19.754-8.844,19.754-19.754
				V340.15h-44.268V365.979z"/>
		</g>
		<path fill="#3C2415" d="M465.979,182.591c0,23.599-19.131,42.731-42.732,42.731l0,0c-23.6,0-42.732-19.133-42.732-42.731v-44.826
			c0-23.603,19.133-42.732,42.732-42.732l0,0c23.602,0,42.732,19.13,42.732,42.732V182.591z"/>
		<path fill="#FFFFFF" d="M374.426,332.631v-66.195v-18.343c0-0.391,0.316-0.705,0.705-0.705c0.391,0,0.707,0.314,0.707,0.705
			v18.343l-0.014,9.499l-0.002,75.932c0,6.739,5.463,12.204,12.203,12.204h70.939c6.74,0,12.203-5.465,12.203-12.204v-75.932
			l-0.027-9.499v-18.343c0-0.391,0.318-0.705,0.705-0.705c0.391,0,0.705,0.314,0.705,0.705v18.343v66.195
			c0,0,0.076,2.167-1.076,4.303h20.461l-0.006-4.233v-82.844l-0.002-2.418V232.39c0-19.593-15.883-35.476-35.477-35.476h-65.906
			c-19.592,0-35.475,15.883-35.475,35.476v16.66l-0.004,0.807v83.7l-0.021,3.377h20.461
			C374.352,334.798,374.426,332.631,374.426,332.631z"/>
		<line fill="none" stroke="#000000" stroke-miterlimit="10" x1="367.746" y1="376.217" x2="367.746" y2="376.217"/>
		<path fill="#FED09E" d="M470.939,337.79c0,0-0.729,1.427-0.918,1.871c-0.607,1.423-0.9,3.007-0.9,4.651v2.252l-0.016,7.902v10.569
			c0,1.55,1.254,2.806,2.803,2.806c1.551,0,2.807-1.256,2.807-2.806v-10.569v-2.602c0-0.564,0.453-1.018,1.014-1.018
			c0.564,0,1.018,0.453,1.018,1.018v23.076c1.475,0.617,3.096,0.96,4.793,0.96c6.861,0,12.42-5.559,12.42-12.418v-19.171
			c0-1.6-0.303-3.128-0.854-4.532c-0.313-0.8-0.705-1.556-1.17-2.265v-0.582h-20.461C471.316,337.22,471.145,337.507,470.939,337.79
			z"/>
		<path fill="#FFDAA2" d="M353.873,339.78c-0.551,1.404-0.854,2.933-0.854,4.532v19.171c0,6.859,5.559,12.418,12.418,12.418
			c1.701,0,3.32-0.343,4.793-0.96v-23.076c0-0.564,0.455-1.018,1.018-1.018c0.561,0,1.018,0.453,1.018,1.018l-0.004,2.602v10.569
			c0,1.55,1.258,2.806,2.807,2.806c1.551,0,2.807-1.256,2.807-2.806v-10.569l-0.02-7.902v-2.252c0-1.645-0.289-3.229-0.9-4.651
			c-0.189-0.444-0.916-1.871-0.916-1.871c-0.205-0.283-0.379-0.57-0.533-0.856h-20.461l-0.004,0.582
			C354.578,338.225,354.186,338.98,353.873,339.78z"/>
		<path d="M475.881,553.885H467.1c0.021,0.312,0.047,0.624,0.047,0.941v1.411c0,7.124-5.775,12.9-12.9,12.9h-13.504
			c-4.777,0-8.941-2.607-11.172-6.469c-2.365,3.351-3.77,7.43-3.785,11.839h70.791C496.535,563.109,487.291,553.885,475.881,553.885
			z"/>
		<path d="M371.092,553.885h8.779c-0.021,0.312-0.047,0.624-0.047,0.941v1.411c0,7.124,5.777,12.9,12.9,12.9h13.506
			c4.779,0,8.941-2.607,11.17-6.469c2.365,3.351,3.773,7.43,3.789,11.839h-70.793C350.438,563.109,359.684,553.885,371.092,553.885z
			"/>
		<path fill="#FFDAA2" d="M396.063,156.62c0,4.106-3.328,7.436-7.436,7.436l0,0c-4.107,0-7.439-3.329-7.439-7.436v-6.158
			c0-4.106,3.332-7.436,7.439-7.436l0,0c4.107,0,7.436,3.329,7.436,7.436V156.62z"/>
		<path fill="#FED09E" d="M393.377,155.505c0,2.623-2.127,4.752-4.75,4.752l0,0c-2.623,0-4.752-2.129-4.752-4.752v-3.931
			c0-2.624,2.129-4.749,4.752-4.749l0,0c2.623,0,4.75,2.125,4.75,4.749V155.505z"/>
		<path fill="#E6BE91" d="M465.805,156.62c0,4.106-3.328,7.436-7.436,7.436l0,0c-4.107,0-7.439-3.329-7.439-7.436v-6.158
			c0-4.106,3.332-7.436,7.439-7.436l0,0c4.107,0,7.436,3.329,7.436,7.436V156.62z"/>
		<path fill="#DBB58B" d="M463.119,155.508c0,2.62-2.127,4.749-4.75,4.749l0,0c-2.623,0-4.752-2.129-4.752-4.749v-3.934
			c0-2.624,2.129-4.749,4.752-4.749l0,0c2.623,0,4.75,2.125,4.75,4.749V155.508z"/>
		<path fill="#F1F2F2" d="M491.93,249.856l-0.002-2.418V232.39c0-19.593-15.883-35.476-35.477-35.476H423.15V364.07h35.814
			c6.74,0,12.203-5.465,12.203-12.204v-75.932l-0.029-9.499l0.002-18.343c0-0.391,0.318-0.705,0.705-0.705
			c0.391,0,0.705,0.314,0.705,0.705v18.343v66.195c0,0,0.076,2.167-1.076,4.303h20.461l-0.006-4.233V249.856z"/>
		<path fill="#3B121E" d="M425.646,252.5c0,0-14,33-0.5,55l26-16c0,0-17-20-9.5-39.5L425.646,252.5z"/>
		<path fill="#461121" d="M456.451,196.914h-60.004l-0.051,0.336c0,0-4.75,71.5,30,71.5c0,0,29.75,1.25,30.75-34
			c0,0,0.625-26.875,18.785-32.005C470.339,199.063,463.647,196.914,456.451,196.914z"/>
		<path fill="#FFDAA2" d="M423.498,92.635c-20.039,0-36.281,16.245-36.281,36.282v24.188c0,15.389,9.586,28.531,23.111,33.807v14.57
			c0,7.271,5.895,13.168,13.17,13.168c7.271,0,13.168-5.896,13.168-13.168v-14.57c13.523-5.271,23.111-18.415,23.111-33.807v-24.188
			C459.777,108.88,443.535,92.635,423.498,92.635z"/>
		<path fill="#FED09E" d="M423.146,214.633c0.115,0.003,0.232,0.017,0.352,0.017c7.271,0,13.168-5.896,13.168-13.168v-14.57
			c13.523-5.271,23.111-18.415,23.111-33.807v-24.188c0-12.891-6.727-24.204-16.855-30.639h-19.775V214.633z"/>
		<path fill="#3C2415" d="M411.738,143.026c0,1.779-1.445,3.223-3.225,3.223c-1.783,0-3.227-1.443-3.227-3.223
			c0-1.783,1.443-3.225,3.227-3.225C410.293,139.802,411.738,141.243,411.738,143.026z"/>
		<path fill="#3C2415" d="M441.705,143.026c0,1.779-1.445,3.223-3.225,3.223c-1.783,0-3.225-1.443-3.225-3.223
			c0-1.783,1.441-3.225,3.225-3.225C440.26,139.802,441.705,141.243,441.705,143.026z"/>
		<polygon fill="#E6BE91" points="423.146,146.453 423.146,163.989 427.473,161.256 		"/>
		<polygon fill="#ED1C24" points="429.631,172.732 423.146,175.198 416.66,172.732 		"/>
		<path fill="#3C2415" d="M414.387,134.813c0,0.473-0.385,0.856-0.857,0.856h-10.48c-0.473,0-0.857-0.384-0.857-0.856l0,0
			c0-0.472,0.385-0.856,0.857-0.856h10.48C414.002,133.956,414.387,134.341,414.387,134.813L414.387,134.813z"/>
		<path fill="#3C2415" d="M444.42,134.813c0,0.473-0.385,0.856-0.855,0.856h-10.482c-0.473,0-0.857-0.384-0.857-0.856l0,0
			c0-0.472,0.385-0.856,0.857-0.856h10.482C444.035,133.956,444.42,134.341,444.42,134.813L444.42,134.813z"/>
		<path fill="#3C2415" d="M447.434,113.05c0,0-7.256,14.715-33.057,14.715c0,0,18.344-5.241,23.383-13.908
			c0,0-19.352,11.69-35.477,13.706c0,0-14.414-2.136-13.656,32.694c0,0,1.16-17.98-3.678-17.576l0.807-29.026l23.783-22.979
			l22.979-0.403l24.189,16.125l6.047,34.871c0,0-3.225,3.629-3.225,14.312c0,0-2.822-19.753-2.822-28.823
			C456.707,126.757,456.303,115.267,447.434,113.05z"/>
		<path fill="#FED09E" d="M472.551,307.587v25.044c0,0,0.076,2.167-1.076,4.303h20.461l-0.006-4.233v-25.113H472.551z"/>
		<path fill="#FFDAA2" d="M374.426,332.631v-25.045h-19.359v25.971l-0.021,3.377h20.461
			C374.352,334.798,374.426,332.631,374.426,332.631z"/>
		<polygon fill="#FFDAA2" points="437.652,202.437 423.146,239.829 409.641,202.437 		"/>
		<polygon fill="#FED09E" points="435.652,217.009 423.146,240.009 423.146,196.884 436.646,196.884 		"/>
		<g>
			<g>
				<path fill="#FFCF1E" d="M423.5,78.929c-23.01,0-41.658,18.652-41.658,41.656v8.869h83.312v-8.869
					C465.153,97.581,446.505,78.929,423.5,78.929z"/>
				<rect x="379.521" y="127.271" fill="#FFC222" width="87.952" height="4.301"/>
			</g>
			<path fill="#FFC222" d="M426.052,104.023c0,1.409-1.144,2.553-2.554,2.553l0,0c-1.41,0-2.555-1.144-2.555-2.553V79.028
				c0-1.408,1.145-2.553,2.555-2.553l0,0c1.41,0,2.554,1.145,2.554,2.553V104.023z"/>
			<path fill="#FFC222" d="M409.928,107.249c0,1.409-1.145,2.553-2.555,2.553l0,0c-1.412,0-2.555-1.144-2.555-2.553V82.254
				c0-1.409,1.143-2.553,2.555-2.553l0,0c1.41,0,2.555,1.144,2.555,2.553V107.249z"/>
			<path fill="#FFC222" d="M442.177,107.249c0,1.409-1.143,2.553-2.555,2.553l0,0c-1.41,0-2.553-1.144-2.553-2.553V82.254
				c0-1.409,1.143-2.553,2.553-2.553l0,0c1.412,0,2.555,1.144,2.555,2.553V107.249z"/>
		</g>
		<polygon fill="#E6E7E8" points="457.021,221.321 443.043,214.384 423.84,239.829 440.584,207.384 		"/>
		<polygon fill="#F1F2F2" points="436.678,190.666 457.084,221.384 442.584,211.884 424.012,239.884 436.678,202.999 		"/>
		<polygon fill="#E6E7E8" points="389.965,221.321 403.945,214.384 423.146,239.829 406.402,207.384 		"/>
		<polygon fill="#F1F2F2" points="410.309,190.666 389.902,221.384 404.402,211.884 422.975,239.884 410.309,202.999 		"/>
		<polygon fill="#EBEBEC" points="491.928,307.588 472.521,307.588 470.146,292.587 498.646,292.587 		"/>
		<polygon fill="#F1F2F2" points="355.053,307.588 374.521,307.588 376.834,292.587 348.334,292.587 		"/>
	</g>
</g>
</svg>
