<?xml version="1.0" encoding="utf-8"?>
<!-- Generator: Adobe Illustrator 16.0.0, SVG Export Plug-In . SVG Version: 6.00 Build 0)  -->
<!DOCTYPE svg PUBLIC "-//W3C//DTD SVG 1.0//EN" "http://www.w3.org/TR/2001/REC-SVG-20010904/DTD/svg10.dtd">
<svg version="1.0" xmlns="http://www.w3.org/2000/svg" xmlns:xlink="http://www.w3.org/1999/xlink" x="0px" y="0px"
	 width="841.89px" height="595.28px" viewBox="0 0 841.89 595.28" enable-background="new 0 0 841.89 595.28" xml:space="preserve">
<g id="man">
	<g>
		<path fill="#FFFFFF" d="M372.047,346.988v-66.195V262.45c0-0.391,0.316-0.705,0.705-0.705c0.391,0,0.707,0.314,0.707,0.705v18.343
			l-0.014,9.499l-0.002,55.932c0,6.739,5.463,12.204,12.203,12.204h70.939c6.74,0,12.203-5.465,12.203-12.204v-55.932l-0.027-9.499
			V262.45c0-0.391,0.318-0.705,0.705-0.705c0.391,0,0.705,0.314,0.705,0.705v18.343v66.195c0,0,0.076,2.167-1.076,4.303h20.461
			l-0.006-4.233v-82.844l-0.002-2.418v-15.049c0-19.593-15.883-35.476-35.477-35.476h-65.906c-19.592,0-35.475,15.883-35.475,35.476
			v16.66l-0.004,0.807v83.7l-0.021,3.377h20.461C371.973,349.155,372.047,346.988,372.047,346.988z"/>
		<line fill="none" stroke="#000000" stroke-miterlimit="10" x1="365.367" y1="390.574" x2="365.367" y2="390.574"/>
		<path fill="#FED09E" d="M468.561,352.147c0,0-0.729,1.427-0.918,1.871c-0.607,1.423-0.9,3.007-0.9,4.651v2.252l-0.016,7.902
			v10.569c0,1.55,1.254,2.806,2.803,2.806c1.551,0,2.807-1.256,2.807-2.806v-10.569v-2.602c0-0.564,0.453-1.018,1.014-1.018
			c0.564,0,1.018,0.453,1.018,1.018v23.076c1.475,0.617,3.096,0.96,4.793,0.96c6.861,0,12.42-5.559,12.42-12.418V358.67
			c0-1.6-0.303-3.128-0.854-4.532c-0.313-0.8-0.705-1.556-1.17-2.265v-0.582h-20.461
			C468.938,351.577,468.766,351.864,468.561,352.147z"/>
		<polygon fill="#BE1E2D" points="423.848,237.261 420.771,237.261 417.695,237.261 410.817,338.481 420.771,345.675 
			430.727,338.481 		"/>
		<path fill="#FFDAA2" d="M351.494,354.138c-0.551,1.404-0.854,2.933-0.854,4.532v19.171c0,6.859,5.559,12.418,12.418,12.418
			c1.701,0,3.32-0.343,4.793-0.96v-23.076c0-0.564,0.455-1.018,1.018-1.018c0.561,0,1.018,0.453,1.018,1.018l-0.004,2.602v10.569
			c0,1.55,1.258,2.806,2.807,2.806c1.551,0,2.807-1.256,2.807-2.806v-10.569l-0.02-7.902v-2.252c0-1.645-0.289-3.229-0.9-4.651
			c-0.189-0.444-0.916-1.871-0.916-1.871c-0.205-0.283-0.379-0.57-0.533-0.856h-20.461l-0.004,0.582
			C352.199,352.582,351.807,353.338,351.494,354.138z"/>
		<path fill="#F1F2F2" d="M489.551,264.214l-0.002-2.418v-15.049c0-19.593-15.883-35.476-35.477-35.476h-33.301v147.156h35.814
			c6.74,0,12.203-5.465,12.203-12.204v-55.932l-0.029-9.499l0.002-18.343c0-0.391,0.318-0.705,0.705-0.705
			c0.391,0,0.705,0.314,0.705,0.705v18.343v66.195c0,0,0.076,2.167-1.076,4.303h20.461l-0.006-4.233V264.214z"/>
		<path fill="#4D4E4E" d="M427.268,293.237l-22.102-81.966h-16.998c-5.254,0-10.236,1.151-14.723,3.201v47.902
			c0.002,0.026,0.016,0.049,0.016,0.075v18.343l-0.016,9.202v56.238c0.006,6.734,5.465,12.194,12.203,12.194h41.619V293.237z"/>
		<g>
			<path fill="#5E5E5E" d="M377.175,354.517h87.885v214.473c0,10.91-8.844,19.754-19.754,19.754l0,0
				c-10.91,0-19.754-8.844-19.754-19.754V399.67l0.021-1.183v-3.317c0-2.461-1.994-4.456-4.456-4.456l0,0
				c-2.46,0-4.456,1.995-4.456,4.456v3.317l0.021,2.258v168.244c0,10.91-8.845,19.754-19.754,19.754l0,0
				c-10.91,0-19.754-8.844-19.754-19.754V354.517"/>
		</g>
		<polygon fill="#BE1E2D" points="423.873,237.602 417.671,237.602 414.068,228.998 427.475,228.998 		"/>
		<polygon fill="#B61C2A" points="420.771,237.261 420.766,237.261 420.766,345.671 420.771,345.675 430.727,338.481 
			423.848,237.261 		"/>
		<polygon fill="#B61C2A" points="420.766,237.602 423.873,237.602 427.475,228.998 420.766,228.998 		"/>
		<path fill="#4D4E4E" d="M414.938,293.237l22.102-81.966h17c5.254,0,10.236,1.151,14.721,3.201v47.902
			c-0.002,0.026-0.014,0.049-0.014,0.075v18.343l0.014,9.202v56.238c-0.004,6.734-5.465,12.194-12.201,12.194h-41.621V293.237z"/>
		<circle fill="#5E5E5E" cx="420.268" cy="288.987" r="2.75"/>
		<circle fill="#5E5E5E" cx="420.268" cy="322.987" r="2.75"/>
		<circle fill="#5E5E5E" cx="420.268" cy="352.987" r="2.75"/>
		<path fill="#4D4E4E" d="M420.792,380.346c-12.446,0.023-22.533,10.12-22.533,22.574v177.383c0,2.897,0.566,5.66,1.561,8.206
			c9.537-1.403,16.863-9.595,16.863-19.52V400.745l-0.021-2.258v-3.317c0-2.461,1.996-4.456,4.456-4.456
			c2.462,0,4.456,1.995,4.456,4.456v3.317l-0.021,1.183v169.319c0,10.91,8.844,19.754,19.754,19.754s19.754-8.844,19.754-19.754
			V354.517h-44.268V380.346z"/>
		<path d="M418.815,588.874c-0.045-11.398-9.289-20.625-20.695-20.625h-29.406c-11.404,0-20.654,9.227-20.695,20.625H418.815z"/>
		<path d="M494.198,588.874c-0.039-11.398-9.283-20.625-20.695-20.625h-29.4c-11.404,0-20.658,9.227-20.695,20.625H494.198z"/>
		<path fill="#4D4E4E" d="M489.551,347.058v-82.844l-0.002-2.418v-15.049c0-19.593-15.883-35.476-35.477-35.476h-12.616
			l-23.803,88.383v65.583h51.136v-74.945l-0.027-9.499V262.45c0-0.391,0.318-0.705,0.705-0.705c0.391,0,0.705,0.314,0.705,0.705
			v18.343v66.195c0,0,0.076,2.167-1.076,4.303h20.461L489.551,347.058z"/>
		<polygon fill="#5E5E5E" points="444.871,240.487 451.121,247.237 417.662,299.584 437.446,211.271 454.621,237.737 		"/>
		<path fill="#5E5E5E" d="M372.047,346.988v-66.195V262.45c0-0.391,0.316-0.705,0.705-0.705c0.391,0,0.707,0.314,0.707,0.705v18.343
			l-0.014,9.499l-0.002,74.945h50.446v-65.583l-19.803-88.383h-15.921c-19.592,0-35.475,15.883-35.475,35.476v16.66l-0.004,0.807
			v83.7l-0.021,3.377h20.461C371.973,349.155,372.047,346.988,372.047,346.988z"/>
		<polygon fill="#4D4E4E" points="396.662,240.487 390.412,247.237 423.871,299.584 404.087,211.271 386.912,237.737 		"/>
		<circle fill="#4D4E4E" cx="419.268" cy="302.987" r="2.75"/>
		<circle fill="#4D4E4E" cx="419.268" cy="331.487" r="2.75"/>
		<circle fill="#4D4E4E" cx="419.268" cy="359.987" r="2.75"/>
		<g>
			<path fill="#FFDAA2" d="M393.683,170.958c0,4.106-3.33,7.437-7.436,7.437l0,0c-4.107,0-7.439-3.33-7.439-7.437v-6.157
				c0-4.107,3.332-7.437,7.439-7.437l0,0c4.105,0,7.436,3.329,7.436,7.437V170.958z"/>
			<path fill="#FED09E" d="M390.995,169.845c0,2.624-2.125,4.751-4.748,4.751l0,0c-2.625,0-4.754-2.127-4.754-4.751v-3.933
				c0-2.623,2.129-4.75,4.754-4.75l0,0c2.623,0,4.748,2.127,4.748,4.75V169.845z"/>
			<path fill="#E6BE91" d="M463.427,170.958c0,4.106-3.33,7.437-7.438,7.437l0,0c-4.107,0-7.439-3.33-7.439-7.437v-6.157
				c0-4.107,3.332-7.437,7.439-7.437l0,0c4.107,0,7.438,3.329,7.438,7.437V170.958z"/>
			<path fill="#DBB58B" d="M460.739,169.846c0,2.623-2.125,4.75-4.75,4.75l0,0c-2.623,0-4.752-2.127-4.752-4.75v-3.934
				c0-2.623,2.129-4.75,4.752-4.75l0,0c2.625,0,4.75,2.127,4.75,4.75V169.846z"/>
			<path fill="#FFDAA2" d="M421.118,106.972c-20.041,0-36.283,16.246-36.283,36.282v24.189c0,15.39,9.588,28.533,23.111,33.807
				v14.57c0,7.271,5.896,13.17,13.172,13.17c7.271,0,13.168-5.898,13.168-13.17v-14.57c13.523-5.271,23.111-18.415,23.111-33.807
				v-24.189C457.397,123.218,441.155,106.972,421.118,106.972z"/>
			<path fill="#FED09E" d="M457.326,141.076c-0.012-0.219-0.031-0.436-0.049-0.654c-0.039-0.516-0.09-1.029-0.15-1.539
				c-0.027-0.229-0.057-0.457-0.088-0.684c-0.078-0.559-0.17-1.115-0.273-1.668c-0.027-0.145-0.047-0.289-0.078-0.434
				c-0.139-0.699-0.301-1.391-0.479-2.076c-0.033-0.127-0.074-0.253-0.107-0.379c-0.154-0.56-0.318-1.113-0.498-1.662
				c-0.061-0.183-0.123-0.361-0.184-0.543c-0.182-0.524-0.373-1.043-0.578-1.559c-0.057-0.14-0.109-0.282-0.168-0.422
				c-0.545-1.323-1.164-2.606-1.855-3.846c-0.051-0.091-0.105-0.183-0.156-0.274c-0.309-0.539-0.629-1.071-0.963-1.592
				c-0.059-0.091-0.117-0.183-0.174-0.274c-1.193-1.825-2.543-3.539-4.033-5.117c-0.033-0.035-0.064-0.069-0.098-0.102
				c-2.039-2.14-4.332-4.033-6.84-5.627c-0.012-0.008-0.025-0.016-0.037-0.023l-0.91-0.562c-5.414-3.216-11.734-5.068-18.488-5.068
				c-0.119,0-0.236,0.008-0.354,0.009v121.991c0.117,0.003,0.234,0.018,0.354,0.018c7.271,0,13.168-5.898,13.168-13.17v-14.57
				c13.523-5.271,23.111-18.415,23.111-33.807v-24.189C457.398,142.522,457.371,141.798,457.326,141.076z"/>
			<g>
				<path fill="#3C2415" d="M455.968,176.428c-0.148,0.625-0.283,1.187-0.396,1.621
					C455.716,177.511,455.858,176.973,455.968,176.428z"/>
				<path fill="#3C2415" d="M448.362,114.833c0,0,4.902-9.474-3.428-14.176c0,0-52.342-17.537-62.623,26.205
					c0,0-0.67,15.99,1.145,27.076c0,0,1.008,15.118,3.023,23.383c0,0-3.023-16.73,4.031-25.197c0,0,7.055-7.055,3.023-14.513
					c0,0,0.076-0.31,0.246-0.828c20.854-0.448,39.867-8.242,39.867-8.242c-2.822,4.635-24.189,8.465-24.189,8.465
					c32.857-1.209,35.881-12.497,35.881-12.497s6.65,7.257,6.854,14.312c0,0-4.436,6.449,0.201,12.295
					c0,0,6.016,13.271,3.574,25.313c1.055-4.512,3.076-22.49,3.076-22.49S466.704,120.947,448.362,114.833z"/>
				<path fill="#3C2415" d="M455.571,178.049c-0.117,0.43-0.215,0.863-0.355,1.287C455.216,179.336,455.354,178.876,455.571,178.049
					z"/>
			</g>
			<path fill="#3C2415" d="M382.312,126.862c0,0-0.063-25.472,12.187-36.472c0,0-6.5,7,28.75,6.75L382.312,126.862z"/>
		</g>
		<polygon fill="#3C2415" points="427.25,187.091 420.766,189.556 414.281,187.091 		"/>
		<circle fill="#3C2415" cx="406.134" cy="157.364" r="3.225"/>
		<circle fill="#3C2415" cx="436.101" cy="157.364" r="3.226"/>
		<polygon fill="#E6BE91" points="420.766,160.819 420.766,178.355 425.092,175.622 		"/>
		<path fill="#F1F2F2" d="M407.926,205.917c0,0-12.5,9.708-7.25,32.458c0,0,5.75-13.25,17.25-9.75c0,0-9.063-2.063-10-12.25V205.917
			z"/>
		<path fill="#E6E7E8" d="M434.264,205.917c0,0,12.5,9.708,7.25,32.458c0,0-5.75-13.25-17.25-9.75c0,0,9.063-2.063,10-12.25V205.917
			z"/>
	</g>
</g>
<g id="background">
	<g>
		<g>
			<polygon fill="#414042" points="567.818,127.258 533.778,133.895 531.877,122.384 566.243,117.721 			"/>
			<path fill="#681310" d="M539.405,127.053c0.9,5.449-2.787,10.596-8.236,11.496l-43.412,7.171
				c-5.449,0.9-10.596-2.788-11.496-8.236l0,0c-0.9-5.45,2.788-10.596,8.236-11.496l43.412-7.171
				C533.358,117.917,538.505,121.604,539.405,127.053L539.405,127.053z"/>
			
				<rect x="565.026" y="120.268" transform="matrix(0.9866 -0.163 0.163 0.9866 -12.3703 94.1413)" fill="#414042" width="4.666" height="4.334"/>
			
				<line fill="none" stroke="#414042" stroke-width="3" stroke-miterlimit="10" x1="543.431" y1="144.333" x2="690.431" y2="163.333"/>
			
				<line fill="none" stroke="#414042" stroke-width="2" stroke-miterlimit="10" x1="552.931" y1="123.333" x2="552.931" y2="145.833"/>
			<path fill="none" stroke="#414042" stroke-width="2" stroke-miterlimit="10" d="M568.526,122.186c0,0,17.237-4.519,32.07,16.647
				c0,0,21.334,32.833,62.25,24.75"/>
		</g>
		<g>
			<polygon fill="#414042" points="274.071,127.258 308.111,133.895 310.012,122.384 275.646,117.721 			"/>
			<path fill="#681310" d="M302.484,127.053c-0.9,5.449,2.787,10.596,8.236,11.496l43.412,7.171
				c5.449,0.9,10.596-2.788,11.496-8.236l0,0c0.9-5.45-2.788-10.596-8.236-11.496l-43.412-7.171
				C308.531,117.917,303.385,121.604,302.484,127.053L302.484,127.053z"/>
			
				<rect x="272.197" y="120.268" transform="matrix(-0.9866 -0.163 0.163 -0.9866 525.4252 287.9921)" fill="#414042" width="4.666" height="4.334"/>
			
				<line fill="none" stroke="#414042" stroke-width="3" stroke-miterlimit="10" x1="298.459" y1="144.333" x2="151.459" y2="163.333"/>
			
				<line fill="none" stroke="#414042" stroke-width="2" stroke-miterlimit="10" x1="288.959" y1="123.333" x2="288.959" y2="145.833"/>
			<path fill="none" stroke="#414042" stroke-width="2" stroke-miterlimit="10" d="M273.363,122.186c0,0-17.237-4.519-32.07,16.647
				c0,0-21.334,32.833-62.25,24.75"/>
		</g>
		<g>
			<polygon points="309.593,202.872 350.275,200.312 349.337,189.603 308.829,194.155 			"/>
			<circle fill="#004869" cx="361.286" cy="193.749" r="14"/>
			
				<line fill="none" stroke="#414042" stroke-width="2" stroke-miterlimit="10" x1="322.764" y1="183.833" x2="322.764" y2="193.167"/>
			
				<line fill="none" stroke="#414042" stroke-width="3" stroke-miterlimit="10" x1="331.764" y1="183.333" x2="246.764" y2="192.333"/>
		</g>
		<g>
			<polygon points="531.457,202.872 490.774,200.312 491.713,189.603 532.221,194.155 			"/>
			<circle fill="#004869" cx="479.764" cy="193.749" r="14"/>
			
				<line fill="none" stroke="#414042" stroke-width="2" stroke-miterlimit="10" x1="518.286" y1="183.833" x2="518.286" y2="193.167"/>
			
				<line fill="none" stroke="#414042" stroke-width="3" stroke-miterlimit="10" x1="509.286" y1="183.333" x2="594.286" y2="192.333"/>
		</g>
		<g>
			<polygon points="388.509,308.865 379.781,306.667 391.024,257.937 401.691,260.623 			"/>
			<path fill="#FFDAA2" d="M407.874,292.666c0,4.972-4.029,9-9,9h-13.5c-4.971,0-9-4.03-9-9v-12c0-4.971,4.029-9,9-9h13.5
				c4.971,0.001,9,4.03,9,9.001V292.666z"/>
			<path fill="#681310" d="M406.905,261.078c-0.943,3.748-4.748,6.022-8.497,5.078l-6.466-1.628
				c-3.749-0.944-6.021-4.75-5.078-8.498l11.792-38.624c0.944-3.749,4.748-6.022,8.498-5.078l2.586,0.651
				c3.749,0.944,6.022,4.749,5.078,8.498L406.905,261.078z"/>
			<path fill="#4D4E4E" d="M373.146,277.492h-66.195h-38.354v19.379h104.619l4.233,0.006v-20.461
				C375.313,277.568,373.146,277.492,373.146,277.492z"/>
		</g>
	</g>
</g>
</svg>
