<?xml version="1.0" encoding="utf-8"?>
<!-- Generator: Adobe Illustrator 16.0.0, SVG Export Plug-In . SVG Version: 6.00 Build 0)  -->
<!DOCTYPE svg PUBLIC "-//W3C//DTD SVG 1.0//EN" "http://www.w3.org/TR/2001/REC-SVG-20010904/DTD/svg10.dtd">
<svg version="1.0" xmlns="http://www.w3.org/2000/svg" xmlns:xlink="http://www.w3.org/1999/xlink" x="0px" y="0px"
	 width="841.89px" height="595.28px" viewBox="0 0 841.89 595.28" enable-background="new 0 0 841.89 595.28" xml:space="preserve">
<g id="background">
	<g>
		<rect x="268.945" y="34" fill="#E6E7E8" width="304" height="226"/>
		<g>
			<circle fill="#681310" cx="278.945" cy="44" r="4.333"/>
			<path fill="#7E1617" d="M277.445,44c0-1.23,0.239-2.365,0.64-3.294c-1.468,0.383-2.557,1.706-2.557,3.294
				s1.089,2.911,2.557,3.294C277.684,46.365,277.445,45.23,277.445,44z"/>
		</g>
		<g>
			<circle fill="#681310" cx="564.444" cy="44" r="4.333"/>
			<path fill="#7E1617" d="M562.945,44c0-1.23,0.238-2.365,0.64-3.294c-1.468,0.383-2.558,1.706-2.558,3.294s1.09,2.911,2.558,3.294
				C563.184,46.365,562.945,45.23,562.945,44z"/>
		</g>
		<g>
			<circle fill="#681310" cx="278.945" cy="250" r="4.333"/>
			<path fill="#7E1617" d="M277.445,250c0-1.23,0.239-2.365,0.64-3.294c-1.468,0.383-2.557,1.706-2.557,3.294
				s1.089,2.911,2.557,3.294C277.684,252.365,277.445,251.23,277.445,250z"/>
		</g>
		<g>
			<circle fill="#681310" cx="564.444" cy="250" r="4.333"/>
			<path fill="#7E1617" d="M562.945,250c0-1.23,0.238-2.365,0.64-3.294c-1.468,0.383-2.558,1.706-2.558,3.294
				s1.09,2.911,2.558,3.294C563.184,252.365,562.945,251.23,562.945,250z"/>
		</g>
		<rect x="355.945" y="86" fill="none" stroke="#D1D3D4" stroke-miterlimit="10" width="186" height="128"/>
		<rect x="355.945" y="86" fill="none" stroke="#D1D3D4" stroke-miterlimit="10" width="85" height="128"/>
		<rect x="295.945" y="153" fill="none" stroke="#D1D3D4" stroke-miterlimit="10" width="60" height="61"/>
		<rect x="295.945" y="86" fill="none" stroke="#D1D3D4" stroke-miterlimit="10" width="60" height="67"/>
		<line fill="none" stroke="#D1D3D4" stroke-miterlimit="10" x1="440.945" y1="151" x2="541.945" y2="151"/>
		<line fill="none" stroke="#D1D3D4" stroke-miterlimit="10" x1="295.986" y1="86" x2="355.986" y2="153"/>
		<line fill="none" stroke="#D1D3D4" stroke-miterlimit="10" x1="355.986" y1="86" x2="295.986" y2="153"/>
	</g>
</g>
<g id="woman">
	<g>
		<g>
			<g>
				<path fill="#003660" d="M377.006,340.15h87.884v214.473c0,10.91-8.844,19.754-19.754,19.754l0,0
					c-10.91,0-19.754-8.844-19.754-19.754V385.304l0.021-1.183v-3.317c0-2.461-1.994-4.456-4.456-4.456l0,0
					c-2.46,0-4.456,1.995-4.456,4.456v3.317l0.021,2.258v168.244c0,10.91-8.845,19.754-19.754,19.754l0,0
					c-10.91,0-19.754-8.844-19.754-19.754V340.15"/>
			</g>
			<path fill="#002B52" d="M420.624,365.979c-12.446,0.023-22.533,10.12-22.533,22.574v177.383c0,2.897,0.566,5.66,1.561,8.206
				c9.537-1.403,16.863-9.595,16.863-19.52V386.379l-0.021-2.258v-3.317c0-2.461,1.996-4.456,4.456-4.456
				c2.461,0,4.456,1.995,4.456,4.456v3.317l-0.021,1.183v169.319c0,10.91,8.844,19.754,19.754,19.754s19.754-8.844,19.754-19.754
				V340.15h-44.267V365.979z"/>
		</g>
		<path fill="#3C2415" d="M463.434,182.591c0,23.599-19.131,42.731-42.733,42.731l0,0c-23.6,0-42.732-19.133-42.732-42.731v-44.826
			c0-23.603,19.133-42.732,42.732-42.732l0,0c23.602,0,42.733,19.13,42.733,42.732V182.591z"/>
		<path fill="#FFFFFF" d="M371.88,332.631v-66.195v-18.343c0-0.391,0.316-0.705,0.705-0.705c0.391,0,0.707,0.314,0.707,0.705v18.343
			l-0.014,9.499l-0.002,75.932c0,6.739,5.463,12.204,12.203,12.204h70.94c6.74,0,12.203-5.465,12.203-12.204v-75.932l-0.027-9.499
			v-18.343c0-0.391,0.318-0.705,0.705-0.705c0.391,0,0.705,0.314,0.705,0.705v18.343v66.195c0,0,0.076,2.167-1.076,4.303h20.461
			l-0.006-4.233v-82.844l-0.002-2.418V232.39c0-19.593-15.883-35.476-35.477-35.476H388c-19.592,0-35.475,15.883-35.475,35.476
			v16.66l-0.004,0.807v83.7l-0.021,3.377h20.461C371.806,334.798,371.88,332.631,371.88,332.631z"/>
		<line fill="none" stroke="#000000" stroke-miterlimit="10" x1="365.201" y1="376.217" x2="365.201" y2="376.217"/>
		<path fill="#FED09E" d="M468.395,337.79c0,0-0.729,1.427-0.918,1.871c-0.607,1.423-0.9,3.007-0.9,4.651v2.252l-0.016,7.902v10.569
			c0,1.55,1.254,2.806,2.803,2.806c1.551,0,2.807-1.256,2.807-2.806v-10.569v-2.602c0-0.564,0.453-1.018,1.014-1.018
			c0.564,0,1.018,0.453,1.018,1.018v23.076c1.475,0.617,3.096,0.96,4.793,0.96c6.861,0,12.42-5.559,12.42-12.418v-19.171
			c0-1.6-0.303-3.128-0.854-4.532c-0.313-0.8-0.705-1.556-1.17-2.265v-0.582H468.93C468.771,337.22,468.6,337.507,468.395,337.79z"
			/>
		<path fill="#FFDAA2" d="M351.328,339.78c-0.551,1.404-0.854,2.933-0.854,4.532v19.171c0,6.859,5.559,12.418,12.418,12.418
			c1.701,0,3.32-0.343,4.793-0.96v-23.076c0-0.564,0.455-1.018,1.018-1.018c0.561,0,1.018,0.453,1.018,1.018l-0.004,2.602v10.569
			c0,1.55,1.258,2.806,2.807,2.806c1.551,0,2.807-1.256,2.807-2.806v-10.569l-0.02-7.902v-2.252c0-1.645-0.289-3.229-0.9-4.651
			c-0.189-0.444-0.916-1.871-0.916-1.871c-0.205-0.283-0.379-0.57-0.533-0.856H352.5l-0.004,0.582
			C352.033,338.225,351.64,338.98,351.328,339.78z"/>
		<path d="M473.336,553.885h-8.781c0.021,0.312,0.047,0.624,0.047,0.941v1.411c0,7.124-5.775,12.9-12.9,12.9h-13.504
			c-4.777,0-8.941-2.607-11.172-6.469c-2.365,3.351-3.77,7.43-3.785,11.839h70.791C493.99,563.109,484.746,553.885,473.336,553.885z
			"/>
		<path d="M368.546,553.885h8.779c-0.021,0.312-0.047,0.624-0.047,0.941v1.411c0,7.124,5.777,12.9,12.9,12.9h13.506
			c4.779,0,8.941-2.607,11.17-6.469c2.365,3.351,3.773,7.43,3.789,11.839h-70.793C347.892,563.109,357.138,553.885,368.546,553.885z
			"/>
		<path fill="#FFDAA2" d="M393.517,156.62c0,4.106-3.328,7.436-7.436,7.436l0,0c-4.107,0-7.439-3.329-7.439-7.436v-6.158
			c0-4.106,3.332-7.436,7.439-7.436l0,0c4.107,0,7.436,3.329,7.436,7.436V156.62z"/>
		<path fill="#FED09E" d="M390.832,155.505c0,2.623-2.127,4.752-4.75,4.752l0,0c-2.623,0-4.752-2.129-4.752-4.752v-3.931
			c0-2.624,2.129-4.749,4.752-4.749l0,0c2.623,0,4.75,2.125,4.75,4.749V155.505z"/>
		<path fill="#E6BE91" d="M463.26,156.62c0,4.106-3.328,7.436-7.436,7.436l0,0c-4.107,0-7.439-3.329-7.439-7.436v-6.158
			c0-4.106,3.332-7.436,7.439-7.436l0,0c4.107,0,7.436,3.329,7.436,7.436V156.62z"/>
		<path fill="#DBB58B" d="M460.574,155.508c0,2.62-2.127,4.749-4.75,4.749l0,0c-2.623,0-4.752-2.129-4.752-4.749v-3.934
			c0-2.624,2.129-4.749,4.752-4.749l0,0c2.623,0,4.75,2.125,4.75,4.749V155.508z"/>
		<path fill="#F1F2F2" d="M489.385,249.856l-0.002-2.418V232.39c0-19.593-15.883-35.476-35.477-35.476h-33.301V364.07h35.815
			c6.74,0,12.203-5.465,12.203-12.204v-75.932l-0.029-9.499l0.002-18.343c0-0.391,0.318-0.705,0.705-0.705
			c0.391,0,0.705,0.314,0.705,0.705v18.343v66.195c0,0,0.076,2.167-1.076,4.303h20.461l-0.006-4.233V249.856z"/>
		<path fill="#FFDAA2" d="M420.953,92.635c-20.039,0-36.281,16.245-36.281,36.282v24.188c0,15.389,9.586,28.531,23.111,33.807v14.57
			c0,7.271,5.895,13.168,13.17,13.168c7.272,0,13.168-5.896,13.168-13.168v-14.57c13.523-5.271,23.111-18.415,23.111-33.807v-24.188
			C457.232,108.88,440.99,92.635,420.953,92.635z"/>
		<path fill="#FED09E" d="M420.6,214.633c0.115,0.003,0.232,0.017,0.352,0.017c7.271,0,13.167-5.896,13.167-13.168v-14.57
			c13.523-5.271,23.111-18.415,23.111-33.807v-24.188c0-12.891-6.727-24.204-16.855-30.639H420.6V214.633z"/>
		<path fill="#3C2415" d="M409.193,143.026c0,1.779-1.445,3.223-3.225,3.223c-1.783,0-3.227-1.443-3.227-3.223
			c0-1.783,1.443-3.225,3.227-3.225C407.748,139.802,409.193,141.243,409.193,143.026z"/>
		<path fill="#3C2415" d="M439.16,143.026c0,1.779-1.445,3.223-3.225,3.223c-1.783,0-3.225-1.443-3.225-3.223
			c0-1.783,1.441-3.225,3.225-3.225C437.715,139.802,439.16,141.243,439.16,143.026z"/>
		<polygon fill="#E6BE91" points="420.601,146.453 420.601,163.989 424.928,161.256 		"/>
		<polygon fill="#ED1C24" points="427.086,172.732 420.601,175.198 414.115,172.732 		"/>
		<path fill="#3C2415" d="M411.841,134.813c0,0.473-0.385,0.856-0.857,0.856h-10.48c-0.473,0-0.857-0.384-0.857-0.856l0,0
			c0-0.472,0.385-0.856,0.857-0.856h10.48C411.457,133.956,411.841,134.341,411.841,134.813L411.841,134.813z"/>
		<path fill="#3C2415" d="M441.875,134.813c0,0.473-0.385,0.856-0.855,0.856h-10.482c-0.473,0-0.857-0.384-0.857-0.856l0,0
			c0-0.472,0.385-0.856,0.857-0.856h10.482C441.49,133.956,441.875,134.341,441.875,134.813L441.875,134.813z"/>
		<path fill="#3C2415" d="M444.889,113.05c0,0-7.256,14.715-33.057,14.715c0,0,18.344-5.241,23.383-13.908
			c0,0-19.352,11.69-35.477,13.706c0,0-14.414-2.136-13.656,32.694c0,0,1.16-17.98-3.678-17.576l0.807-29.026l23.783-22.979
			l22.979-0.403l24.189,16.125l6.047,34.871c0,0-3.225,3.629-3.225,14.312c0,0-2.822-19.753-2.822-28.823
			C454.162,126.757,453.758,115.267,444.889,113.05z"/>
		<path fill="#FED09E" d="M470.006,307.587v25.044c0,0,0.076,2.167-1.076,4.303h20.461l-0.006-4.233v-25.113H470.006z"/>
		<path fill="#FFDAA2" d="M371.88,332.631v-25.045h-19.359v25.971l-0.021,3.377h20.461
			C371.806,334.798,371.88,332.631,371.88,332.631z"/>
		<polygon fill="#FFDAA2" points="435.107,202.437 420.601,239.829 407.095,202.437 		"/>
		<polygon fill="#FED09E" points="433.107,217.009 420.601,240.009 420.601,196.884 434.102,196.884 		"/>
		<g>
			<g>
				<path fill="#FFCF1E" d="M420.955,78.929c-23.01,0-41.658,18.652-41.658,41.656v8.869h83.311v-8.869
					C462.607,97.581,443.959,78.929,420.955,78.929z"/>
				<rect x="376.976" y="127.271" fill="#FFC222" width="87.952" height="4.301"/>
			</g>
			<path fill="#FFC222" d="M423.506,104.023c0,1.409-1.143,2.553-2.553,2.553l0,0c-1.41,0-2.555-1.144-2.555-2.553V79.028
				c0-1.408,1.145-2.553,2.555-2.553l0,0c1.411,0,2.553,1.145,2.553,2.553V104.023z"/>
			<path fill="#FFC222" d="M407.382,107.249c0,1.409-1.145,2.553-2.555,2.553l0,0c-1.412,0-2.555-1.144-2.555-2.553V82.254
				c0-1.409,1.143-2.553,2.555-2.553l0,0c1.41,0,2.555,1.144,2.555,2.553V107.249z"/>
			<path fill="#FFC222" d="M439.631,107.249c0,1.409-1.143,2.553-2.555,2.553l0,0c-1.41,0-2.553-1.144-2.553-2.553V82.254
				c0-1.409,1.143-2.553,2.553-2.553l0,0c1.412,0,2.555,1.144,2.555,2.553V107.249z"/>
		</g>
		<path fill="none" stroke="#000000" stroke-width="0.5" stroke-miterlimit="10" d="M405.438,196.833
			c-4.21,6.075-6.838,14.646-6.838,24.152c0,18.418,9.85,33.349,22,33.349c12.15,0,22-14.931,22-33.349
			c0-9.506-2.627-18.077-6.838-24.152"/>
		<polygon fill="#E6E7E8" points="454.477,221.321 440.498,214.384 421.294,239.829 438.039,207.384 		"/>
		<polygon fill="#F1F2F2" points="434.133,190.666 454.539,221.384 440.039,211.884 421.466,239.884 434.133,202.999 		"/>
		<polygon fill="#E6E7E8" points="387.419,221.321 401.4,214.384 420.601,239.829 403.857,207.384 		"/>
		<polygon fill="#F1F2F2" points="407.763,190.666 387.357,221.384 401.857,211.884 420.429,239.884 407.763,202.999 		"/>
		<circle fill="#D12527" cx="420.601" cy="254.333" r="3.543"/>
		<circle fill="#EF8822" cx="414.289" cy="253.021" r="2.834"/>
		<circle fill="#F7CB1A" cx="410.102" cy="250.458" r="2.126"/>
		<circle fill="#792982" cx="431.103" cy="250.458" r="2.126"/>
		<circle fill="#148ECE" cx="426.852" cy="253.021" r="2.834"/>
		<polygon fill="#EBEBEC" points="489.383,307.588 469.977,307.588 467.602,292.587 496.102,292.587 		"/>
		<polygon fill="#F1F2F2" points="352.507,307.588 371.976,307.588 374.289,292.587 345.789,292.587 		"/>
	</g>
</g>
</svg>
