<?xml version="1.0" encoding="utf-8"?>
<!-- Generator: Adobe Illustrator 16.0.0, SVG Export Plug-In . SVG Version: 6.00 Build 0)  -->
<!DOCTYPE svg PUBLIC "-//W3C//DTD SVG 1.0//EN" "http://www.w3.org/TR/2001/REC-SVG-20010904/DTD/svg10.dtd">
<svg version="1.0" id="man" xmlns="http://www.w3.org/2000/svg" xmlns:xlink="http://www.w3.org/1999/xlink" x="0px" y="0px"
	 width="841.89px" height="595.28px" viewBox="0 0 841.89 595.28" enable-background="new 0 0 841.89 595.28" xml:space="preserve">
<g>
	<path fill="#FFDAA2" d="M351.331,310.25c-0.551,1.404-0.854,2.934-0.854,4.532v19.173c0,6.857,5.559,12.418,12.418,12.418
		c1.701,0,3.32-0.343,4.793-0.962v-23.076c0-0.563,0.455-1.017,1.018-1.017c0.561,0,1.018,0.454,1.018,1.017l-0.004,2.601v10.572
		c0,1.549,1.258,2.805,2.807,2.805c1.551,0,2.807-1.256,2.807-2.805v-10.572l-0.02-7.901v-2.252c0-1.645-0.289-3.228-0.9-4.65
		c-0.189-0.446-0.916-1.873-0.916-1.873c-0.205-0.281-0.379-0.568-0.533-0.856h-20.461l-0.004,0.584
		C352.036,308.693,351.642,309.451,351.331,310.25z"/>
	<g>
		<path fill="#5E5E5E" d="M377.013,310.628h87.882v214.471c0,10.91-8.844,19.754-19.754,19.754l0,0
			c-10.91,0-19.754-8.844-19.754-19.754V355.779l0.021-1.183v-3.316c0-2.461-1.994-4.457-4.454-4.457l0,0
			c-2.459,0-4.457,1.996-4.457,4.457v3.316l0.023,2.259v168.243c0,10.91-8.844,19.754-19.754,19.754l0,0
			c-10.91,0-19.754-8.844-19.754-19.754V310.628"/>
	</g>
	<path fill="#4D4E4E" d="M420.63,336.455c-12.447,0.024-22.535,10.121-22.535,22.575v177.382c0,2.897,0.566,5.66,1.563,8.206
		c9.537-1.403,16.863-9.595,16.863-19.52V356.855l-0.023-2.259v-3.316c0-2.461,1.998-4.457,4.457-4.457
		c2.46,0,4.454,1.996,4.454,4.457v3.316l-0.021,1.183v169.319c0,10.91,8.844,19.754,19.754,19.754s19.754-8.844,19.754-19.754
		V310.628H420.63V336.455z"/>
	<path fill="#FFFFFF" d="M371.884,303.102v-66.199v-18.342c0-0.391,0.316-0.706,0.707-0.706c0.389,0,0.705,0.315,0.705,0.706v18.342
		l-0.016,9.5v55.935c0,6.739,5.463,12.204,12.203,12.204h70.938c6.74,0,12.205-5.465,12.205-12.204v-55.935l-0.029-9.5v-18.342
		c0-0.391,0.318-0.706,0.705-0.706c0.391,0,0.705,0.315,0.705,0.706v18.342v66.199c0,0,0.076,2.165-1.076,4.301h20.463l-0.006-4.232
		v-82.846l-0.004-2.42v-15.048c0-19.593-15.883-35.477-35.477-35.477h-65.905c-19.592,0-35.477,15.884-35.477,35.477v16.661
		l-0.002,0.807v83.702l-0.021,3.376h20.461C371.81,305.267,371.884,303.102,371.884,303.102z"/>
	<path fill="#F1F2F2" d="M489.389,220.324l-0.004-2.42v-15.048c0-19.593-15.883-35.477-35.477-35.477H420.63v147.161h35.792
		c6.74,0,12.205-5.465,12.205-12.204v-55.935l-0.029-9.5v-18.342c0-0.391,0.318-0.706,0.705-0.706c0.391,0,0.705,0.315,0.705,0.706
		v18.342v66.199c0,0,0.076,2.165-1.076,4.301h20.463l-0.006-4.232V220.324z"/>
	<path d="M494.033,544.983c-0.041-11.398-9.285-20.625-20.695-20.625h-29.4c-11.404,0-20.658,9.227-20.697,20.625H494.033z"/>
	<path fill="#414042" d="M418.651,544.983c-0.043-11.398-9.287-20.625-20.695-20.625h-29.404c-11.404,0-20.654,9.227-20.695,20.625
		H418.651z"/>
	<path fill="#FED09E" d="M468.396,308.259c0,0-0.729,1.427-0.916,1.873c-0.609,1.423-0.902,3.006-0.902,4.65v2.252l-0.016,7.901
		v10.572c0,1.549,1.254,2.805,2.803,2.805c1.551,0,2.807-1.256,2.807-2.805v-10.572v-2.601c0-0.563,0.455-1.017,1.016-1.017
		c0.563,0,1.016,0.454,1.016,1.017v23.076c1.475,0.619,3.098,0.962,4.795,0.962c6.859,0,12.418-5.561,12.418-12.418v-19.173
		c0-1.599-0.303-3.128-0.854-4.532c-0.313-0.799-0.705-1.557-1.168-2.264v-0.584h-20.463
		C468.773,307.69,468.602,307.978,468.396,308.259z"/>
	<path fill="#282829" d="M489.385,217.904v-15.048c0-19.593-15.883-35.477-35.477-35.477h-65.905
		c-19.592,0-35.477,15.884-35.477,35.477v16.661l-0.002,0.807v75.45h19.359v-58.872v-18.342c0-0.391,0.316-0.706,0.707-0.706
		c0.389,0,0.705,0.315,0.705,0.706v18.342l-0.016,9.5v59.372h0.001l-0.001,0.628v165.935h95.347V306.402l-0.002-0.628h0.002v-59.372
		l-0.029-9.5v-18.342c0-0.391,0.318-0.706,0.705-0.706c0.391,0,0.705,0.315,0.705,0.706v18.342v58.872h19.381v-75.45
		L489.385,217.904z"/>
	<path d="M489.385,202.856c0-19.593-15.883-35.477-35.477-35.477h-33.726v304.957h48.444V306.402l-0.002-0.628h0.002v-59.372
		l-0.029-9.5v-18.342c0-0.391,0.318-0.706,0.705-0.706c0.391,0,0.705,0.315,0.705,0.706v18.342v58.872h19.381v-75.45l-0.004-2.42
		V202.856z"/>
	<path fill="#FFFFFF" d="M403.968,167.379v4.232c0,9.203,7.459,16.664,16.662,16.664c9.2,0,16.659-7.461,16.659-16.664v-4.232
		H403.968z"/>
	<path fill="#F1F2F2" d="M420.183,188.253c0.15,0.004,0.296,0.022,0.447,0.022c9.2,0,16.659-7.461,16.659-16.664v-4.232h-17.106
		V188.253z"/>
	<g>
		<path fill="#FFDAA2" d="M393.956,128.906c0.001,3.978-3.226,7.204-7.204,7.204l0,0c-3.979,0.001-7.206-3.224-7.206-7.202v-5.965
			c-0.001-3.979,3.225-7.204,7.203-7.204l0,0c3.979,0,7.206,3.225,7.206,7.203L393.956,128.906z"/>
		<path fill="#FED09E" d="M391.354,127.828c-0.001,2.542-2.061,4.603-4.603,4.603l0,0c-2.541,0-4.603-2.061-4.603-4.602l0.001-3.809
			c-0.003-2.542,2.061-4.601,4.602-4.602l0,0c2.542,0,4.601,2.059,4.6,4.6L391.354,127.828z"/>
		<path fill="#E6BE91" d="M461.512,128.897c0,3.979-3.223,7.203-7.201,7.203l0,0c-3.979,0.001-7.205-3.224-7.205-7.201l-0.004-5.965
			c0-3.979,3.229-7.203,7.207-7.203l0,0c3.979-0.001,7.203,3.223,7.203,7.201V128.897z"/>
		<path fill="#DBB58B" d="M458.91,127.821c0,2.539-2.057,4.602-4.598,4.601l0,0c-2.541,0.001-4.605-2.061-4.604-4.601l-0.002-3.811
			c0-2.541,2.059-4.601,4.602-4.602l0,0c2.541,0,4.6,2.06,4.604,4.602L458.91,127.821z"/>
		<path fill="#FFDAA2" d="M420.524,66.92c-19.413,0.003-35.145,15.741-35.143,35.152l0.003,23.431
			c0.002,14.908,9.292,27.637,22.393,32.746l0.001,14.111c0.002,7.045,5.713,12.758,12.76,12.756
			c7.044,0,12.753-5.713,12.753-12.758v-14.113c13.098-5.109,22.387-17.843,22.383-32.752l-0.004-23.431
			C455.666,82.652,439.934,66.918,420.524,66.92z"/>
		<path fill="#FED09E" d="M455.604,99.952c-0.014-0.211-0.035-0.421-0.053-0.634c-0.035-0.499-0.084-0.996-0.146-1.49
			c-0.025-0.221-0.051-0.442-0.08-0.662c-0.076-0.542-0.164-1.08-0.266-1.615c-0.029-0.14-0.047-0.281-0.076-0.421
			c-0.133-0.677-0.291-1.347-0.465-2.011c-0.033-0.123-0.07-0.245-0.104-0.367c-0.15-0.541-0.311-1.078-0.484-1.609
			c-0.055-0.176-0.117-0.351-0.178-0.525c-0.174-0.508-0.359-1.012-0.559-1.511c-0.057-0.135-0.107-0.273-0.162-0.408
			c-0.529-1.282-1.129-2.524-1.799-3.725c-0.051-0.089-0.102-0.177-0.154-0.266c-0.295-0.521-0.605-1.038-0.93-1.542
			c-0.055-0.089-0.115-0.177-0.17-0.266c-1.154-1.768-2.463-3.427-3.908-4.956c-0.031-0.034-0.061-0.067-0.094-0.099
			c-1.975-2.073-4.197-3.906-6.625-5.45c-0.012-0.008-0.023-0.016-0.037-0.023l-0.881-0.544c-5.244-3.114-11.369-4.908-17.909-4.907
			c-0.115,0-0.229,0.008-0.342,0.009l0.016,118.171c0.113,0.003,0.229,0.017,0.342,0.016c7.044,0,12.751-5.713,12.753-12.758
			l-0.002-14.113c13.098-5.109,22.387-17.843,22.385-32.752l-0.006-23.431C455.672,101.353,455.645,100.651,455.604,99.952z"/>
		<path d="M433.117,85.688c0,0-17.442,17.966-42.171,21.875c0,0-4.914,8.365-4.653,23.822l-1.009-15.392
			c0,0-1.889,0.064-3.841,2.604c0,0-8.982-25.353-1.697-43.577c0,0,10.67-27.597,46.598-24.477c0,0,21.031,2.798,20.568,15.096
			c0,0,20.764,2.861,12.764,44.061l-1.76,6.736l-1.82-0.585c0,0,0.285,12.544-0.639,16.109c0,0-0.859-18.94-6.328-32.021
			C449.129,99.938,443.465,84.126,433.117,85.688z"/>
	</g>
	<polygon fill="#3C2415" points="427.086,143.201 420.603,145.666 414.118,143.201 	"/>
	<circle fill="#3C2415" cx="405.973" cy="113.49" r="3.225"/>
	<circle fill="#3C2415" cx="435.938" cy="113.49" r="3.226"/>
	<polygon fill="#E6BE91" points="420.183,116.918 420.183,134.455 424.51,131.721 	"/>
	<polygon fill="#FFFFFF" points="444.932,268.359 395.434,268.359 410.434,185.109 429.932,185.109 	"/>
	<polygon fill="#F1F2F2" points="420.183,268.359 444.932,268.359 429.932,185.109 420.183,185.109 	"/>
</g>
</svg>
