<?xml version="1.0" encoding="utf-8"?>
<!-- Generator: Adobe Illustrator 16.0.0, SVG Export Plug-In . SVG Version: 6.00 Build 0)  -->
<!DOCTYPE svg PUBLIC "-//W3C//DTD SVG 1.0//EN" "http://www.w3.org/TR/2001/REC-SVG-20010904/DTD/svg10.dtd">
<svg version="1.0" xmlns="http://www.w3.org/2000/svg" xmlns:xlink="http://www.w3.org/1999/xlink" x="0px" y="0px"
	 width="841.89px" height="595.28px" viewBox="0 0 841.89 595.28" enable-background="new 0 0 841.89 595.28" xml:space="preserve">
<g id="background">
	<g>
		<circle fill="#E6E7E8" cx="420.945" cy="40.667" r="44.667"/>
		<circle fill="#E6E7E8" cx="525.945" cy="109.667" r="44.667"/>
		<circle fill="#E6E7E8" cx="525.945" cy="219.667" r="44.667"/>
		<circle fill="#E6E7E8" cx="315.945" cy="109.667" r="44.667"/>
		<circle fill="#E6E7E8" cx="315.945" cy="219.667" r="44.667"/>
		<g>
			<g>
				<path fill="#4EAFDE" d="M401.813,47.985V60.18h0.016c0.345,2.955,9.343,5.321,20.397,5.321c11.057,0,20.053-2.366,20.398-5.321
					h0.016V47.985H401.813z"/>
				<ellipse fill="#67BBE5" cx="422.227" cy="48.096" rx="20.414" ry="5.496"/>
			</g>
			<g>
				<path fill="#4EAFDE" d="M401.813,33.853v12.194h0.016c0.345,2.955,9.343,5.321,20.397,5.321c11.057,0,20.053-2.366,20.398-5.321
					h0.016V33.853H401.813z"/>
				<ellipse fill="#67BBE5" cx="422.227" cy="33.963" rx="20.414" ry="5.496"/>
			</g>
			<path fill="#4EAFDE" d="M401.813,19.719v12.195h0.016c0.345,2.955,9.343,5.32,20.397,5.32c11.057,0,20.053-2.366,20.398-5.32
				h0.016V19.719H401.813z"/>
			<ellipse fill="#67BBE5" cx="422.227" cy="19.83" rx="20.414" ry="5.496"/>
		</g>
		<path fill="#ACD38D" stroke="#3C5B2B" stroke-width="3" stroke-miterlimit="10" d="M316.716,87.547h19.375v29.251
			c0,0-2.659,17.476-20.134,21.654c-17.475-4.178-20.134-21.654-20.134-21.654V87.547h19.375H316.716z"/>
		<polyline fill="none" stroke="#3C5B2B" stroke-width="5" stroke-miterlimit="10" points="308.456,109.5 314.706,115.75 
			325.706,104.75 		"/>
		<path fill="#148ECE" d="M550.029,114.912c0-5.148-3.188-9.542-7.696-11.337c0.015-0.185,0.028-0.37,0.028-0.558
			c0-3.891-3.153-7.043-7.044-7.043c-0.349,0-0.688,0.034-1.024,0.083c-1.041-4.877-5.37-8.535-10.558-8.535
			c-5.965,0-10.8,4.835-10.8,10.8c0,0.24,0.021,0.475,0.036,0.71c-6.606,1.201-11.618,6.972-11.618,13.925
			c0,7.533,5.883,13.674,13.304,14.121v0.043h0.849c0.004,0,0.008,0,0.012,0c0.005,0,0.009,0,0.013,0h22.279
			c0.005,0,0.009,0,0.013,0s0.008,0,0.012,0h0.927v-0.047C545.063,126.592,550.029,121.337,550.029,114.912z"/>
		<g>
			<g>
				<path fill="#D1D3D4" d="M344.486,237.688c0,0.354-0.288,0.64-0.641,0.64h-56.818c-0.354,0-0.641-0.286-0.641-0.64v-37.132
					c0-0.354,0.287-0.64,0.641-0.64h56.818c0.353,0,0.641,0.286,0.641,0.64V237.688z"/>
				<path fill="#C7C8CA" d="M343.845,199.916h-28.409v38.412h28.409c0.353,0,0.641-0.286,0.641-0.64v-37.132
					C344.486,200.202,344.198,199.916,343.845,199.916z"/>
				<rect x="281.583" y="238.303" fill="#BCBEC0" width="67.706" height="2.081"/>
				<path fill="#A7A9AC" d="M281.582,240.38c0.29,0.348,0.729,0.628,1.257,0.804h65.193c0.529-0.176,0.967-0.456,1.257-0.804
					H281.582z"/>
				<path fill="#282829" d="M344.127,237.649c0,0.177-0.143,0.32-0.321,0.32h-56.741c-0.178,0-0.32-0.144-0.32-0.32v-37.054
					c0-0.177,0.143-0.32,0.32-0.32h56.741c0.178,0,0.321,0.143,0.321,0.32V237.649z"/>
				<path d="M343.806,200.275h-28.37v37.694h28.37c0.178,0,0.321-0.144,0.321-0.32v-37.054
					C344.127,200.418,343.984,200.275,343.806,200.275z"/>
				<rect x="289.486" y="202.769" fill="#414042" width="52.073" height="33.079"/>
				<path fill="#9D9FA2" d="M315.436,241.184h32.596c0.529-0.176,0.967-0.456,1.257-0.804h-33.854V241.184z"/>
				<rect x="315.436" y="238.303" fill="#B1B3B6" width="33.853" height="2.081"/>
				<rect x="315.436" y="202.769" fill="#3F3F40" width="26.123" height="33.079"/>
			</g>
			<rect x="292.402" y="204.793" fill="#FAE48C" width="9.657" height="0.751"/>
			<rect x="294.767" y="208.34" fill="#EA918C" width="6.208" height="0.751"/>
			<rect x="294.767" y="210.706" fill="#F8C37F" width="10.149" height="0.751"/>
			<rect x="297.132" y="213.07" fill="#81C7E8" width="6.307" height="0.751"/>
			<rect x="299.497" y="215.435" fill="#EA918C" width="9.657" height="0.751"/>
			<rect x="297.132" y="217.8" fill="#FAE48C" width="7.095" height="0.751"/>
			<rect x="293.584" y="220.165" fill="#EA918C" width="9.657" height="0.751"/>
			<rect x="294.767" y="222.529" fill="#FAE48C" width="13.007" height="0.751"/>
			<rect x="297.132" y="224.894" fill="#EA918C" width="5.42" height="0.751"/>
			<rect x="299.497" y="227.259" fill="#81C7E8" width="7.686" height="0.751"/>
		</g>
		<g>
			<rect x="527.789" y="192" fill="none" stroke="#000000" stroke-width="0.25" stroke-miterlimit="10" width="12" height="8"/>
			<polygon fill="none" stroke="#000000" stroke-width="0.25" stroke-miterlimit="10" points="533.789,227.053 526.485,221.75 
				533.789,216.447 541.093,221.75 			"/>
			<ellipse fill="none" stroke="#000000" stroke-width="0.25" stroke-miterlimit="10" cx="533.789" cy="245" rx="5.25" ry="3.25"/>
			
				<line fill="none" stroke="#000000" stroke-width="0.25" stroke-miterlimit="10" x1="533.789" y1="200.167" x2="533.789" y2="216.833"/>
			
				<line fill="none" stroke="#000000" stroke-width="0.25" stroke-miterlimit="10" x1="533.789" y1="241.5" x2="533.789" y2="226.75"/>
			<polyline fill="none" stroke="#000000" stroke-width="0.25" stroke-miterlimit="10" points="526.623,221.75 512.373,221.75 
				512.373,230.083 			"/>
			<polyline fill="none" stroke="#000000" stroke-width="0.25" stroke-miterlimit="10" points="528.519,244.938 512.373,244.938 
				512.373,235.625 			"/>
			<circle fill="none" stroke="#000000" stroke-width="0.25" stroke-miterlimit="10" cx="512.373" cy="232.833" r="2.833"/>
			<polyline fill="none" stroke="#000000" stroke-width="0.25" stroke-miterlimit="10" points="509.539,232.833 506.707,232.833 
				506.707,195.333 527.707,195.333 			"/>
		</g>
	</g>
</g>
<g id="man">
	<g>
		<line fill="none" stroke="#000000" stroke-miterlimit="10" x1="365.203" y1="390.575" x2="365.203" y2="390.575"/>
		<g>
			<g>
				<path fill="#00557F" d="M377.011,354.518h87.885V568.99c0,10.91-8.844,19.754-19.754,19.754l0,0
					c-10.91,0-19.754-8.844-19.754-19.754V399.671l0.021-1.183v-3.317c0-2.461-1.994-4.456-4.457-4.456l0,0
					c-2.46,0-4.456,1.995-4.456,4.456v3.317l0.021,2.258V568.99c0,10.91-8.845,19.754-19.754,19.754l0,0
					c-10.91,0-19.754-8.844-19.754-19.754V354.518"/>
			</g>
		</g>
		<path fill="#282829" d="M489.385,261.797v-15.049c0-19.593-15.883-35.476-35.477-35.476h-65.906
			c-19.592,0-35.475,15.883-35.475,35.476v16.66l-0.004,0.807v17.536h19.36v-0.957v-18.343c0-0.391,0.316-0.705,0.705-0.705
			c0.391,0,0.707,0.314,0.707,0.705v18.343l-0.014,9.499l-0.002,55.932c0,6.739,5.463,12.204,12.203,12.204h70.939
			c6.74,0,12.203-5.465,12.203-12.204v-55.932l-0.027-9.499v-18.343c0-0.391,0.318-0.705,0.705-0.705
			c0.391,0,0.705,0.314,0.705,0.705v18.343v1.16h19.379v-17.739L489.385,261.797z"/>
		<path fill="#004869" d="M420.628,380.347c-12.446,0.023-22.533,10.12-22.533,22.574v177.383c0,2.897,0.566,5.66,1.561,8.206
			c9.537-1.403,16.863-9.595,16.863-19.52V400.746l-0.021-2.258v-3.317c0-2.461,1.996-4.456,4.456-4.456
			c2.462,0,4.457,1.995,4.457,4.456v3.317l-0.021,1.183V568.99c0,10.91,8.844,19.754,19.754,19.754s19.754-8.844,19.754-19.754
			V354.518h-44.268V380.347z"/>
		<path d="M468.625,290.293l-0.029-9.499l0.002-18.343c0-0.391,0.318-0.705,0.705-0.705c0.391,0,0.705,0.314,0.705,0.705v18.343
			v1.16h19.379v-17.739l-0.002-2.418v-15.049c0-19.593-15.883-35.476-35.477-35.476h-33.3v147.156h35.814
			c6.74,0,12.203-5.465,12.203-12.204V290.293z"/>
		<path d="M418.652,588.875c-0.045-11.398-9.289-20.625-20.695-20.625H368.55c-11.404,0-20.654,9.227-20.695,20.625H418.652z"/>
		<path d="M494.035,588.875c-0.039-11.398-9.283-20.625-20.695-20.625h-29.4c-11.404,0-20.658,9.227-20.695,20.625H494.035z"/>
		<path fill="#FED09E" d="M490.563,354.139c-0.313-0.8-0.705-1.556-1.17-2.265v-0.582l0,0l-0.006-4.233v-65.105h-19.379v65.036
			c0,0,0.076,2.167-1.076,4.303l0,0c-0.158,0.286-0.33,0.573-0.535,0.856c0,0-0.729,1.427-0.918,1.871
			c-0.607,1.423-0.9,3.007-0.9,4.651v2.252l-0.016,7.902v10.569c0,1.55,1.254,2.806,2.803,2.806c1.551,0,2.807-1.256,2.807-2.806
			v-10.569v-2.602c0-0.564,0.453-1.018,1.014-1.018c0.564,0,1.018,0.453,1.018,1.018V389.3c1.475,0.617,3.096,0.96,4.793,0.96
			c6.861,0,12.42-5.559,12.42-12.418v-19.171C491.416,357.071,491.113,355.543,490.563,354.139z"/>
		<path fill="#FFDAA2" d="M375.313,360.923v-2.252c0-1.645-0.289-3.229-0.9-4.651c-0.189-0.444-0.916-1.871-0.916-1.871
			c-0.205-0.283-0.379-0.57-0.533-0.856c-1.154-2.136-1.08-4.303-1.08-4.303v-65.036h-19.36v65.961l-0.021,3.377l-0.004,0.582
			c-0.463,0.709-0.855,1.465-1.168,2.265c-0.551,1.404-0.854,2.933-0.854,4.532v19.171c0,6.859,5.559,12.418,12.418,12.418
			c1.701,0,3.32-0.343,4.793-0.96v-23.076c0-0.564,0.455-1.018,1.018-1.018c0.561,0,1.018,0.453,1.018,1.018l-0.004,2.602v10.569
			c0,1.55,1.258,2.806,2.807,2.806c1.551,0,2.807-1.256,2.807-2.806v-10.569L375.313,360.923z"/>
		<path fill="#E6BE91" d="M403.94,211.272v4.233c0,9.203,7.462,16.664,16.665,16.664s16.661-7.461,16.661-16.664v-4.233H403.94z"/>
		<g>
			<path fill="#FFDAA2" d="M393.52,170.959c0,4.106-3.33,7.437-7.436,7.437l0,0c-4.107,0-7.439-3.33-7.439-7.437v-6.157
				c0-4.107,3.332-7.437,7.439-7.437l0,0c4.105,0,7.436,3.329,7.436,7.437V170.959z"/>
			<path fill="#FED09E" d="M390.833,169.846c0,2.624-2.125,4.751-4.748,4.751l0,0c-2.625,0-4.754-2.127-4.754-4.751v-3.933
				c0-2.623,2.129-4.75,4.754-4.75l0,0c2.623,0,4.748,2.127,4.748,4.75V169.846z"/>
			<path fill="#E6BE91" d="M463.264,170.959c0,4.106-3.33,7.437-7.438,7.437l0,0c-4.107,0-7.439-3.33-7.439-7.437v-6.157
				c0-4.107,3.332-7.437,7.439-7.437l0,0c4.107,0,7.438,3.329,7.438,7.437V170.959z"/>
			<path fill="#DBB58B" d="M460.576,169.847c0,2.623-2.125,4.75-4.75,4.75l0,0c-2.623,0-4.752-2.127-4.752-4.75v-3.934
				c0-2.623,2.129-4.75,4.752-4.75l0,0c2.625,0,4.75,2.127,4.75,4.75V169.847z"/>
			<path fill="#FFDAA2" d="M420.956,106.973c-20.041,0-36.283,16.246-36.283,36.282v24.189c0,15.39,9.588,28.533,23.111,33.807
				v14.57c0,7.271,5.896,13.17,13.172,13.17c7.271,0,13.167-5.898,13.167-13.17v-14.57c13.523-5.271,23.111-18.415,23.111-33.807
				v-24.189C457.234,123.219,440.992,106.973,420.956,106.973z"/>
			<path fill="#FED09E" d="M457.164,141.077c-0.012-0.219-0.031-0.436-0.049-0.654c-0.039-0.516-0.09-1.029-0.15-1.539
				c-0.027-0.229-0.057-0.457-0.088-0.684c-0.078-0.559-0.17-1.115-0.273-1.668c-0.027-0.145-0.047-0.289-0.078-0.434
				c-0.139-0.699-0.301-1.391-0.479-2.076c-0.033-0.127-0.074-0.253-0.107-0.379c-0.154-0.56-0.318-1.113-0.498-1.662
				c-0.061-0.183-0.123-0.361-0.184-0.543c-0.182-0.524-0.373-1.043-0.578-1.559c-0.057-0.14-0.109-0.282-0.168-0.422
				c-0.545-1.323-1.164-2.606-1.855-3.846c-0.051-0.091-0.105-0.183-0.156-0.274c-0.309-0.539-0.629-1.071-0.963-1.592
				c-0.059-0.091-0.117-0.183-0.174-0.274c-1.193-1.825-2.543-3.539-4.033-5.117c-0.033-0.035-0.064-0.069-0.098-0.102
				c-2.039-2.14-4.332-4.033-6.84-5.627c-0.012-0.008-0.025-0.016-0.037-0.023l-0.91-0.562c-5.414-3.216-11.734-5.068-18.489-5.068
				c-0.119,0-0.236,0.008-0.354,0.009v121.991c0.117,0.003,0.234,0.018,0.354,0.018c7.272,0,13.168-5.898,13.168-13.17v-14.57
				c13.523-5.271,23.111-18.415,23.111-33.807v-24.189C457.236,142.523,457.209,141.799,457.164,141.077z"/>
			<g>
				<path fill="#3C2415" d="M455.805,176.429c-0.148,0.625-0.283,1.187-0.396,1.621
					C455.553,177.512,455.695,176.974,455.805,176.429z"/>
				<path fill="#3C2415" d="M448.199,114.834c0,0,4.902-9.474-3.428-14.176c0,0-52.341-17.537-62.623,26.205
					c0,0-0.67,15.99,1.145,27.076c0,0,1.008,15.118,3.023,23.383c0,0-3.023-16.73,4.031-25.197c0,0,7.055-7.055,3.023-14.513
					c0,0,0.076-0.31,0.246-0.828c20.854-0.448,39.867-8.242,39.867-8.242c-2.822,4.635-24.189,8.465-24.189,8.465
					c32.857-1.209,35.88-12.497,35.88-12.497s6.65,7.257,6.854,14.312c0,0-4.436,6.449,0.201,12.295c0,0,6.016,13.271,3.574,25.313
					c1.055-4.512,3.076-22.49,3.076-22.49S466.541,120.948,448.199,114.834z"/>
				<path fill="#3C2415" d="M455.408,178.05c-0.117,0.43-0.215,0.863-0.355,1.287C455.053,179.337,455.191,178.877,455.408,178.05z"
					/>
			</g>
			<path fill="#3C2415" d="M382.149,126.863c0,0-0.063-25.472,12.187-36.472c0,0-6.5,7,28.75,6.75L382.149,126.863z"/>
		</g>
		<polygon fill="#3C2415" points="427.088,187.092 420.603,189.557 414.119,187.092 		"/>
		<polygon fill="#E6BE91" points="420.604,160.82 420.604,178.356 424.93,175.623 		"/>
		<circle fill="#3C2415" cx="405.971" cy="157.365" r="3.225"/>
		<circle fill="#3C2415" cx="435.938" cy="157.365" r="3.226"/>
	</g>
</g>
</svg>
