<?xml version="1.0" encoding="utf-8"?>
<!-- Generator: Adobe Illustrator 16.0.0, SVG Export Plug-In . SVG Version: 6.00 Build 0)  -->
<!DOCTYPE svg PUBLIC "-//W3C//DTD SVG 1.0//EN" "http://www.w3.org/TR/2001/REC-SVG-20010904/DTD/svg10.dtd">
<svg version="1.0" xmlns="http://www.w3.org/2000/svg" xmlns:xlink="http://www.w3.org/1999/xlink" x="0px" y="0px"
	 width="841.89px" height="595.28px" viewBox="0 0 841.89 595.28" enable-background="new 0 0 841.89 595.28" xml:space="preserve">
<g id="background">
	<g>
		<rect x="268.945" y="34" fill="#E6E7E8" width="304" height="226"/>
		<g>
			<circle fill="#681310" cx="278.945" cy="44" r="4.333"/>
			<path fill="#7E1617" d="M277.445,44c0-1.23,0.239-2.365,0.64-3.294c-1.468,0.383-2.557,1.706-2.557,3.294
				s1.089,2.911,2.557,3.294C277.684,46.365,277.445,45.23,277.445,44z"/>
		</g>
		<g>
			<circle fill="#681310" cx="564.444" cy="44" r="4.333"/>
			<path fill="#7E1617" d="M562.945,44c0-1.23,0.238-2.365,0.64-3.294c-1.468,0.383-2.558,1.706-2.558,3.294s1.09,2.911,2.558,3.294
				C563.184,46.365,562.945,45.23,562.945,44z"/>
		</g>
		<g>
			<circle fill="#681310" cx="278.945" cy="250" r="4.333"/>
			<path fill="#7E1617" d="M277.445,250c0-1.23,0.239-2.365,0.64-3.294c-1.468,0.383-2.557,1.706-2.557,3.294
				s1.089,2.911,2.557,3.294C277.684,252.365,277.445,251.23,277.445,250z"/>
		</g>
		<g>
			<circle fill="#681310" cx="564.444" cy="250" r="4.333"/>
			<path fill="#7E1617" d="M562.945,250c0-1.23,0.238-2.365,0.64-3.294c-1.468,0.383-2.558,1.706-2.558,3.294
				s1.09,2.911,2.558,3.294C563.184,252.365,562.945,251.23,562.945,250z"/>
		</g>
		<rect x="355.945" y="86" fill="none" stroke="#D1D3D4" stroke-miterlimit="10" width="186" height="128"/>
		<rect x="355.945" y="86" fill="none" stroke="#D1D3D4" stroke-miterlimit="10" width="85" height="128"/>
		<rect x="295.945" y="153" fill="none" stroke="#D1D3D4" stroke-miterlimit="10" width="60" height="61"/>
		<rect x="295.945" y="86" fill="none" stroke="#D1D3D4" stroke-miterlimit="10" width="60" height="67"/>
		<line fill="none" stroke="#D1D3D4" stroke-miterlimit="10" x1="440.945" y1="151" x2="541.945" y2="151"/>
		<line fill="none" stroke="#D1D3D4" stroke-miterlimit="10" x1="295.986" y1="86" x2="355.986" y2="153"/>
		<line fill="none" stroke="#D1D3D4" stroke-miterlimit="10" x1="355.986" y1="86" x2="295.986" y2="153"/>
	</g>
</g>
<g id="man">
	<g>
		<g>
			<g>
				<path fill="#003660" d="M377.011,312.299h87.885v214.473c0,10.91-8.844,19.754-19.754,19.754l0,0
					c-10.91,0-19.754-8.844-19.754-19.754V357.452l0.021-1.183v-3.317c0-2.461-1.994-4.456-4.457-4.456l0,0
					c-2.46,0-4.456,1.995-4.456,4.456v3.317l0.021,2.258v168.244c0,10.91-8.845,19.754-19.754,19.754l0,0
					c-10.91,0-19.754-8.844-19.754-19.754V312.299"/>
			</g>
			<path fill="#002B52" d="M420.628,338.128c-12.446,0.023-22.533,10.12-22.533,22.574v177.383c0,2.897,0.566,5.66,1.561,8.206
				c9.537-1.403,16.863-9.595,16.863-19.52V358.527l-0.021-2.258v-3.317c0-2.461,1.996-4.456,4.456-4.456
				c2.462,0,4.457,1.995,4.457,4.456v3.317l-0.021,1.183v169.319c0,10.91,8.844,19.754,19.754,19.754s19.754-8.844,19.754-19.754
				V312.299h-44.268V338.128z"/>
			<path d="M418.652,546.656c-0.045-11.398-9.289-20.625-20.695-20.625H368.55c-11.404,0-20.654,9.227-20.695,20.625H418.652z"/>
			<path d="M494.035,546.656c-0.039-11.398-9.283-20.625-20.695-20.625h-29.4c-11.404,0-20.658,9.227-20.695,20.625H494.035z"/>
			<path fill="#FFFFFF" d="M371.883,304.771v-66.195v-18.343c0-0.391,0.316-0.705,0.705-0.705c0.391,0,0.707,0.314,0.707,0.705
				v18.343l-0.014,9.499l-0.002,55.932c0,6.739,5.463,12.204,12.203,12.204h70.939c6.74,0,12.203-5.465,12.203-12.204v-55.932
				l-0.027-9.499v-18.343c0-0.391,0.318-0.705,0.705-0.705c0.391,0,0.705,0.314,0.705,0.705v18.343v66.195
				c0,0,0.076,2.167-1.076,4.303h20.461l-0.006-4.233v-82.844l-0.002-2.418v-15.049c0-19.593-15.883-35.476-35.477-35.476h-65.906
				c-19.592,0-35.475,15.883-35.475,35.476v16.66l-0.004,0.807v83.7l-0.021,3.377h20.461
				C371.809,306.938,371.883,304.771,371.883,304.771z"/>
			<line fill="none" stroke="#000000" stroke-miterlimit="10" x1="365.203" y1="348.356" x2="365.203" y2="348.356"/>
			<path fill="#FED09E" d="M468.396,309.93c0,0-0.729,1.427-0.918,1.871c-0.607,1.423-0.9,3.007-0.9,4.651v2.252l-0.016,7.902
				v10.569c0,1.55,1.254,2.806,2.803,2.806c1.551,0,2.807-1.256,2.807-2.806v-10.569v-2.602c0-0.564,0.453-1.018,1.014-1.018
				c0.564,0,1.018,0.453,1.018,1.018v23.076c1.475,0.617,3.096,0.96,4.793,0.96c6.861,0,12.42-5.559,12.42-12.418v-19.171
				c0-1.6-0.303-3.128-0.854-4.532c-0.313-0.8-0.705-1.556-1.17-2.265v-0.582h-20.461
				C468.773,309.359,468.602,309.646,468.396,309.93z"/>
			<path fill="#FFDAA2" d="M351.33,311.92c-0.551,1.404-0.854,2.933-0.854,4.532v19.171c0,6.859,5.559,12.418,12.418,12.418
				c1.701,0,3.32-0.343,4.793-0.96v-23.076c0-0.564,0.455-1.018,1.018-1.018c0.561,0,1.018,0.453,1.018,1.018l-0.004,2.602v10.569
				c0,1.55,1.258,2.806,2.807,2.806c1.551,0,2.807-1.256,2.807-2.806v-10.569l-0.02-7.902v-2.252c0-1.645-0.289-3.229-0.9-4.651
				c-0.189-0.444-0.916-1.871-0.916-1.871c-0.205-0.283-0.379-0.57-0.533-0.856h-20.461l-0.004,0.582
				C352.035,310.364,351.643,311.12,351.33,311.92z"/>
			<path fill="#F1F2F2" d="M489.387,221.996l-0.002-2.418v-15.049c0-19.593-15.883-35.476-35.477-35.476h-33.3V316.21h35.814
				c6.74,0,12.203-5.465,12.203-12.204v-55.932l-0.029-9.499l0.002-18.343c0-0.391,0.318-0.705,0.705-0.705
				c0.391,0,0.705,0.314,0.705,0.705v18.343v66.195c0,0,0.076,2.167-1.076,4.303h20.461l-0.006-4.233V221.996z"/>
			<polygon fill="#BE1E2D" points="423.686,195.043 420.609,195.043 417.533,195.043 410.655,296.264 420.609,303.457 
				430.564,296.264 			"/>
			<g>
				<path fill="#FFDAA2" d="M393.52,128.74c0,4.106-3.33,7.437-7.436,7.437l0,0c-4.107,0-7.439-3.33-7.439-7.437v-6.157
					c0-4.107,3.332-7.437,7.439-7.437l0,0c4.105,0,7.436,3.329,7.436,7.437V128.74z"/>
				<path fill="#FED09E" d="M390.833,127.627c0,2.624-2.125,4.751-4.748,4.751l0,0c-2.625,0-4.754-2.127-4.754-4.751v-3.933
					c0-2.623,2.129-4.75,4.754-4.75l0,0c2.623,0,4.748,2.127,4.748,4.75V127.627z"/>
				<path fill="#E6BE91" d="M463.264,128.74c0,4.106-3.33,7.437-7.438,7.437l0,0c-4.107,0-7.439-3.33-7.439-7.437v-6.157
					c0-4.107,3.332-7.437,7.439-7.437l0,0c4.107,0,7.438,3.329,7.438,7.437V128.74z"/>
				<path fill="#DBB58B" d="M460.576,127.628c0,2.623-2.125,4.75-4.75,4.75l0,0c-2.623,0-4.752-2.127-4.752-4.75v-3.934
					c0-2.623,2.129-4.75,4.752-4.75l0,0c2.625,0,4.75,2.127,4.75,4.75V127.628z"/>
				<path fill="#FFDAA2" d="M420.956,64.754c-20.041,0-36.283,16.246-36.283,36.282v24.189c0,15.39,9.588,28.533,23.111,33.807
					v14.57c0,7.271,5.896,13.17,13.172,13.17c7.271,0,13.167-5.898,13.167-13.17v-14.57c13.523-5.271,23.111-18.415,23.111-33.807
					v-24.189C457.234,81,440.992,64.754,420.956,64.754z"/>
				<path fill="#FED09E" d="M457.164,98.858c-0.012-0.219-0.031-0.436-0.049-0.654c-0.039-0.516-0.09-1.029-0.15-1.539
					c-0.027-0.229-0.057-0.457-0.088-0.684c-0.078-0.559-0.17-1.115-0.273-1.668c-0.027-0.145-0.047-0.289-0.078-0.434
					c-0.139-0.699-0.301-1.391-0.479-2.076c-0.033-0.127-0.074-0.253-0.107-0.379c-0.154-0.56-0.318-1.113-0.498-1.662
					c-0.061-0.183-0.123-0.361-0.184-0.543c-0.182-0.524-0.373-1.043-0.578-1.559c-0.057-0.14-0.109-0.282-0.168-0.422
					c-0.545-1.323-1.164-2.606-1.855-3.846c-0.051-0.091-0.105-0.183-0.156-0.274c-0.309-0.539-0.629-1.071-0.963-1.592
					c-0.059-0.091-0.117-0.183-0.174-0.274c-1.193-1.825-2.543-3.539-4.033-5.117c-0.033-0.035-0.064-0.069-0.098-0.102
					c-2.039-2.14-4.332-4.033-6.84-5.627c-0.012-0.008-0.025-0.016-0.037-0.023l-0.91-0.562c-5.414-3.216-11.734-5.068-18.489-5.068
					c-0.119,0-0.236,0.008-0.354,0.009v121.991c0.117,0.003,0.234,0.018,0.354,0.018c7.272,0,13.168-5.898,13.168-13.17v-14.57
					c13.523-5.271,23.111-18.415,23.111-33.807v-24.189C457.236,100.305,457.209,99.58,457.164,98.858z"/>
				<g>
					<path fill="#3C2415" d="M455.805,134.21c-0.148,0.625-0.283,1.187-0.396,1.621C455.553,135.293,455.695,134.755,455.805,134.21
						z"/>
					<path fill="#3C2415" d="M448.199,72.616c0,0,0.263-8.765-8.067-13.467c0,0-47.702-18.246-57.983,25.496
						c0,0-0.67,15.99,1.145,27.076c0,0,1.008,15.118,3.023,23.383c0,0-3.023-16.73,4.031-25.197c0,0,7.055-7.055,3.023-14.513
						c0,0,0.076-0.31,0.246-0.828c20.854-0.448,39.867-8.242,39.867-8.242c-2.822,4.635-24.189,8.465-24.189,8.465
						c32.857-1.209,35.88-12.497,35.88-12.497s6.65,7.257,6.854,14.312c0,0-4.436,6.449,0.201,12.295c0,0,6.016,13.271,3.574,25.313
						c1.055-4.512,3.076-22.49,3.076-22.49S466.541,78.729,448.199,72.616z"/>
					<path fill="#3C2415" d="M455.408,135.831c-0.117,0.43-0.215,0.863-0.355,1.287
						C455.053,137.118,455.191,136.658,455.408,135.831z"/>
				</g>
			</g>
			<polygon fill="#3C2415" points="427.088,144.874 420.603,147.338 414.119,144.874 			"/>
			<circle fill="#3C2415" cx="405.971" cy="115.146" r="3.225"/>
			<circle fill="#3C2415" cx="435.938" cy="115.146" r="3.226"/>
			<polygon fill="#BE1E2D" points="423.711,195.384 417.508,195.384 413.906,186.78 427.313,186.78 			"/>
			<polygon fill="#B61C2A" points="420.609,195.043 420.603,195.043 420.603,303.453 420.609,303.457 430.564,296.264 
				423.686,195.043 			"/>
			<polygon fill="#B61C2A" points="420.603,195.384 423.711,195.384 427.313,186.78 420.603,186.78 			"/>
			<polygon fill="#E6E7E8" points="437.934,224.616 437.934,248.966 448.728,253.189 459.521,248.966 459.521,224.616 			"/>
			<path fill="#FED09E" d="M470.008,239.735v65.036c0,0,0.076,2.167-1.076,4.303h20.461l-0.006-4.233v-65.105H470.008z"/>
			<path fill="#FFDAA2" d="M371.883,304.771v-65.036h-19.36v65.961l-0.021,3.377h20.461
				C371.809,306.938,371.883,304.771,371.883,304.771z"/>
			<polygon fill="#E6BE91" points="420.604,118.602 420.604,136.138 424.93,133.404 			"/>
			<path fill="#F1F2F2" d="M407.763,163.699c0,0-12.5,9.708-7.25,32.458c0,0,5.75-13.25,17.25-9.75c0,0-9.063-2.063-10-12.25
				V163.699z"/>
			<path fill="#E6E7E8" d="M434.102,163.699c0,0,12.5,9.708,7.25,32.458c0,0-5.75-13.25-17.25-9.75c0,0,9.063-2.063,10-12.25
				V163.699z"/>
		</g>
		<g>
			<g>
				<path fill="#FFCF1E" d="M420.605,51.077c-23.01,0-41.658,18.652-41.658,41.656v8.869h83.312v-8.869
					C462.259,69.729,443.61,51.077,420.605,51.077z"/>
				<rect x="376.627" y="99.419" fill="#FFC222" width="87.952" height="4.301"/>
			</g>
			<path fill="#FFC222" d="M423.157,76.172c0,1.409-1.144,2.553-2.554,2.553l0,0c-1.41,0-2.555-1.144-2.555-2.553V51.177
				c0-1.408,1.145-2.553,2.555-2.553l0,0c1.41,0,2.554,1.145,2.554,2.553V76.172z"/>
			<path fill="#FFC222" d="M407.033,79.397c0,1.409-1.145,2.553-2.555,2.553l0,0c-1.412,0-2.555-1.144-2.555-2.553V54.402
				c0-1.409,1.143-2.553,2.555-2.553l0,0c1.41,0,2.555,1.144,2.555,2.553V79.397z"/>
			<path fill="#FFC222" d="M439.282,79.397c0,1.409-1.143,2.553-2.555,2.553l0,0c-1.41,0-2.553-1.144-2.553-2.553V54.402
				c0-1.409,1.143-2.553,2.553-2.553l0,0c1.412,0,2.555,1.144,2.555,2.553V79.397z"/>
		</g>
	</g>
</g>
<g id="woman">
</g>
</svg>
