<?xml version="1.0" encoding="utf-8"?>
<!-- Generator: Adobe Illustrator 16.0.0, SVG Export Plug-In . SVG Version: 6.00 Build 0)  -->
<!DOCTYPE svg PUBLIC "-//W3C//DTD SVG 1.0//EN" "http://www.w3.org/TR/2001/REC-SVG-20010904/DTD/svg10.dtd">
<svg version="1.0" xmlns="http://www.w3.org/2000/svg" xmlns:xlink="http://www.w3.org/1999/xlink" x="0px" y="0px"
	 width="841.89px" height="595.28px" viewBox="0 0 841.89 595.28" enable-background="new 0 0 841.89 595.28" xml:space="preserve">
<g id="background">
	<g>
		<g>
			<circle fill="#414042" cx="324.945" cy="85.666" r="44.667"/>
			<g>
				<path fill="#EF8822" d="M320.377,75.591L320.377,75.591c-0.021-2.766-2.269-5.002-5.039-5.002s-5.018,2.236-5.037,5.002h-0.002
					l-2.015,13.666h14.107L320.377,75.591z"/>
				<path fill="#C3C3C3" d="M348.169,79.708c-0.352,0.353-0.924,0.353-1.275,0l-4.334-4.334c-0.352-0.352-0.352-0.922,0-1.274l0,0
					c0.353-0.352,0.923-0.352,1.275,0l4.334,4.334C348.521,78.787,348.521,79.357,348.169,79.708L348.169,79.708z"/>
				
					<rect x="312.37" y="64.093" transform="matrix(0.7071 -0.7071 0.7071 0.7071 46.1708 248.0368)" fill="#EF8822" width="20.259" height="8.382"/>
				<polygon fill="#EF8822" points="340.976,77.008 326.459,62.874 331.239,58.093 345.374,72.61 				"/>
				<g>
					<circle fill="#F7CB1A" cx="329.589" cy="61.194" r="4.192"/>
					<circle fill="#EF8822" cx="329.589" cy="61.195" r="2.209"/>
				</g>
				<g>
					<circle fill="#F7CB1A" cx="315.375" cy="75.408" r="4.823"/>
					<circle fill="#EF8822" cx="315.375" cy="75.408" r="2.541"/>
				</g>
				<polygon fill="#F7CB1A" points="347.822,74.192 342.139,68.355 336.721,73.773 342.558,79.457 				"/>
				<rect x="304.839" y="89.968" fill="#F7CB1A" width="21.273" height="20.462"/>
			</g>
		</g>
		<g>
			<circle fill="#414042" cx="516.944" cy="85.666" r="44.667"/>
			<g>
				<g>
					<g>
						<path fill="#77B743" d="M531.382,65.104h-7.563v2h7.563c1.103,0,2,0.897,2,2v38.625c0,1.103-0.897,2-2,2h-28.875
							c-1.104,0-2-0.897-2-2V69.104c0-1.103,0.896-2,2-2h7.563v-2h-7.563c-2.206,0-4,1.794-4,4v38.625c0,2.206,1.794,4,4,4h28.875
							c2.205,0,4-1.794,4-4V69.104C535.382,66.898,533.587,65.104,531.382,65.104z"/>
					</g>
					<g>
						<rect x="510.819" y="63.354" fill="#77B743" width="12.25" height="3.75"/>
					</g>
					<path fill="#77B743" d="M516.944,59.187c-1.588,0-2.875,1.287-2.875,2.875s1.287,2.875,2.875,2.875s2.875-1.287,2.875-2.875
						S518.532,59.187,516.944,59.187z M516.944,63.354c-0.714,0-1.292-0.578-1.292-1.292s0.578-1.292,1.292-1.292
						c0.713,0,1.291,0.578,1.291,1.292S517.657,63.354,516.944,63.354z"/>
				</g>
				<g>
					<path fill="#77B743" d="M509.124,77.229h-5.25v-5.25h5.25V77.229z M504.874,76.229h3.25v-3.25h-3.25V76.229z"/>
				</g>
				<g>
					<rect x="511.749" y="73.979" fill="#77B743" width="17.25" height="1.125"/>
				</g>
				<g>
					<polygon fill="#77B743" points="506.354,75.312 505.53,74.489 505.884,74.135 506.354,74.604 507.406,73.552 507.76,73.905 
											"/>
				</g>
				<g>
					<path fill="#77B743" d="M509.124,87.229h-5.25v-5.25h5.25V87.229z M504.874,86.229h3.25v-3.25h-3.25V86.229z"/>
				</g>
				<g>
					<rect x="511.749" y="83.979" fill="#77B743" width="17.25" height="1.125"/>
				</g>
				<g>
					<polygon fill="#77B743" points="506.354,85.312 505.53,84.489 505.884,84.135 506.354,84.604 507.406,83.552 507.76,83.905 
											"/>
				</g>
				<g>
					<path fill="#77B743" d="M509.124,97.229h-5.25v-5.25h5.25V97.229z M504.874,96.229h3.25v-3.25h-3.25V96.229z"/>
				</g>
				<g>
					<rect x="511.749" y="93.979" fill="#77B743" width="17.25" height="1.125"/>
				</g>
				<g>
					<polygon fill="#77B743" points="506.354,95.312 505.53,94.489 505.884,94.135 506.354,94.604 507.406,93.552 507.76,93.905 
											"/>
				</g>
			</g>
		</g>
		<g>
			<circle fill="#414042" cx="324.945" cy="215.668" r="44.666"/>
			<g>
				<g>
					<rect x="323.456" y="210.261" fill="#81C7E8" width="25.559" height="14.2"/>
					<rect x="322.567" y="204.582" fill="#81C7E8" width="27.336" height="4.438"/>
				</g>
			</g>
			<g>
				<g>
					<rect x="291.79" y="210.261" fill="#81C7E8" width="25.559" height="14.2"/>
					<rect x="290.901" y="204.582" fill="#81C7E8" width="27.336" height="4.438"/>
				</g>
			</g>
			<path fill="#81C7E8" d="M355.049,225.97h-71.168c0.2,0.801,0.436,1.588,0.681,2.371c1.382,0.269,2.425,1.482,2.425,2.942
				c0,0.674-0.23,1.29-0.606,1.791c0.544,1.201,1.122,2.383,1.771,3.521h66.897c2.934,0,5.313-2.378,5.313-5.313
				S357.982,225.97,355.049,225.97z M293.986,234.283c-1.657,0-3-1.343-3-3s1.343-3,3-3s3,1.343,3,3
				S295.644,234.283,293.986,234.283z M303.986,234.283c-1.657,0-3-1.343-3-3s1.343-3,3-3s3,1.343,3,3
				S305.644,234.283,303.986,234.283z M313.986,234.283c-1.657,0-3-1.343-3-3s1.343-3,3-3s3,1.343,3,3
				S315.644,234.283,313.986,234.283z M323.986,234.283c-1.657,0-3-1.343-3-3s1.343-3,3-3s3,1.343,3,3
				S325.644,234.283,323.986,234.283z M333.986,234.283c-1.657,0-3-1.343-3-3s1.343-3,3-3s3,1.343,3,3
				S335.644,234.283,333.986,234.283z M343.986,234.283c-1.657,0-3-1.343-3-3s1.343-3,3-3s3,1.343,3,3
				S345.644,234.283,343.986,234.283z M353.986,234.283c-1.657,0-3-1.343-3-3s1.343-3,3-3s3,1.343,3,3
				S355.644,234.283,353.986,234.283z"/>
		</g>
		<g>
			<circle fill="#414042" cx="516.944" cy="215.668" r="44.667"/>
			<rect x="483.776" y="201.333" fill="#F7CB1A" width="42.501" height="28.333"/>
			<rect x="485.36" y="230.417" width="61.917" height="3.917"/>
			<rect x="536.027" y="230.417" fill="#FFFFFF" width="11.25" height="3.917"/>
			<polygon fill="#BE1E2D" points="527.402,229.667 546.652,229.667 546.652,218.333 541.652,208.458 527.402,208.458 			"/>
			<path d="M501.133,233c-0.012-3.904-3.178-7.065-7.085-7.065s-7.074,3.161-7.086,7.065H501.133z"/>
			<g>
				<circle cx="494.048" cy="233.021" r="5.271"/>
				<circle fill="#D1D3D4" cx="494.048" cy="233.021" r="3.136"/>
			</g>
			<path d="M538.115,234.313c0.078-0.419,0.123-0.85,0.123-1.292c0-3.914-3.172-7.086-7.086-7.086s-7.086,3.172-7.086,7.086
				c0,0.442,0.045,0.872,0.123,1.292H538.115z"/>
			<g>
				<circle cx="531.152" cy="233.021" r="5.271"/>
				<circle fill="#D1D3D4" cx="531.152" cy="233.021" r="3.136"/>
			</g>
			<polygon fill="#75B4D2" points="544.235,218.125 531.735,217.125 531.735,209.75 540.235,209.75 			"/>
		</g>
	</g>
</g>
<g id="man">
	<g>
		<g>
			<path fill="#003660" d="M377.49,340.15h87.885v214.473c0,10.91-8.844,19.754-19.754,19.754l0,0
				c-10.91,0-19.754-8.844-19.754-19.754V385.304l0.021-1.183v-3.317c0-2.461-1.994-4.456-4.456-4.456l0,0
				c-2.46,0-4.456,1.995-4.456,4.456v3.317l0.021,2.258v168.244c0,10.91-8.845,19.754-19.754,19.754l0,0
				c-10.91,0-19.754-8.844-19.754-19.754V340.15"/>
		</g>
		<path fill="#002B52" d="M421.107,365.979c-12.446,0.023-22.533,10.12-22.533,22.574v177.383c0,2.897,0.566,5.66,1.561,8.206
			c9.537-1.403,16.863-9.595,16.863-19.52V386.379l-0.021-2.258v-3.317c0-2.461,1.996-4.456,4.456-4.456
			c2.462,0,4.456,1.995,4.456,4.456v3.317l-0.021,1.183v169.319c0,10.91,8.844,19.754,19.754,19.754s19.754-8.844,19.754-19.754
			V340.15h-44.268V365.979z"/>
		<path d="M419.131,574.508c-0.045-11.398-9.289-20.625-20.695-20.625h-29.406c-11.404,0-20.654,9.227-20.695,20.625H419.131z"/>
		<path d="M494.514,574.508c-0.039-11.398-9.283-20.625-20.695-20.625h-29.4c-11.404,0-20.658,9.227-20.695,20.625H494.514z"/>
		<path fill="#FFFFFF" d="M372.362,332.622v-66.195v-18.343c0-0.391,0.316-0.705,0.705-0.705c0.391,0,0.707,0.314,0.707,0.705
			v18.343l-0.014,9.499l-0.002,55.932c0,6.739,5.463,12.204,12.203,12.204h70.939c6.74,0,12.203-5.465,12.203-12.204v-55.932
			l-0.027-9.499v-18.343c0-0.391,0.318-0.705,0.705-0.705c0.391,0,0.705,0.314,0.705,0.705v18.343v66.195
			c0,0,0.076,2.167-1.076,4.303h20.461l-0.006-4.233v-82.844l-0.002-2.418v-15.049c0-19.593-15.883-35.476-35.477-35.476h-65.906
			c-19.592,0-35.475,15.883-35.475,35.476v16.66l-0.004,0.807v83.7l-0.021,3.377h20.461
			C372.288,334.789,372.362,332.622,372.362,332.622z"/>
		<line fill="none" stroke="#000000" stroke-miterlimit="10" x1="365.683" y1="376.208" x2="365.683" y2="376.208"/>
		<path fill="#FED09E" d="M468.876,337.781c0,0-0.729,1.427-0.918,1.871c-0.607,1.423-0.9,3.007-0.9,4.651v2.252l-0.016,7.902
			v10.569c0,1.55,1.254,2.806,2.803,2.806c1.551,0,2.807-1.256,2.807-2.806v-10.569v-2.602c0-0.564,0.453-1.018,1.014-1.018
			c0.564,0,1.018,0.453,1.018,1.018v23.076c1.475,0.617,3.096,0.96,4.793,0.96c6.861,0,12.42-5.559,12.42-12.418v-19.171
			c0-1.6-0.303-3.128-0.854-4.532c-0.313-0.8-0.705-1.556-1.17-2.265v-0.582h-20.461
			C469.253,337.211,469.081,337.498,468.876,337.781z"/>
		<path fill="#FFDAA2" d="M351.81,339.771c-0.551,1.404-0.854,2.933-0.854,4.532v19.171c0,6.859,5.559,12.418,12.418,12.418
			c1.701,0,3.32-0.343,4.793-0.96v-23.076c0-0.564,0.455-1.018,1.018-1.018c0.561,0,1.018,0.453,1.018,1.018l-0.004,2.602v10.569
			c0,1.55,1.258,2.806,2.807,2.806c1.551,0,2.807-1.256,2.807-2.806v-10.569l-0.02-7.902v-2.252c0-1.645-0.289-3.229-0.9-4.651
			c-0.189-0.444-0.916-1.871-0.916-1.871c-0.205-0.283-0.379-0.57-0.533-0.856h-20.461l-0.004,0.582
			C352.515,338.216,352.122,338.972,351.81,339.771z"/>
		<path fill="#F1F2F2" d="M489.866,249.848l-0.002-2.418v-15.049c0-19.593-15.883-35.476-35.477-35.476h-33.301v147.156h35.814
			c6.74,0,12.203-5.465,12.203-12.204v-55.932l-0.029-9.499l0.002-18.343c0-0.391,0.318-0.705,0.705-0.705
			c0.391,0,0.705,0.314,0.705,0.705v18.343v66.195c0,0,0.076,2.167-1.076,4.303h20.461l-0.006-4.233V249.848z"/>
		<polygon fill="#BBDBA2" points="424.164,222.895 421.088,222.895 418.012,222.895 411.134,324.115 421.088,331.309 
			431.043,324.115 		"/>
		<g>
			<path fill="#FFDAA2" d="M393.999,156.593c0,4.106-3.33,7.437-7.436,7.437l0,0c-4.107,0-7.439-3.33-7.439-7.437v-6.157
				c0-4.107,3.332-7.437,7.439-7.437l0,0c4.105,0,7.436,3.329,7.436,7.437V156.593z"/>
			<path fill="#FED09E" d="M391.312,155.479c0,2.624-2.125,4.751-4.748,4.751l0,0c-2.625,0-4.754-2.127-4.754-4.751v-3.933
				c0-2.623,2.129-4.75,4.754-4.75l0,0c2.623,0,4.748,2.127,4.748,4.75V155.479z"/>
			<path fill="#E6BE91" d="M463.743,156.593c0,4.106-3.33,7.437-7.438,7.437l0,0c-4.107,0-7.439-3.33-7.439-7.437v-6.157
				c0-4.107,3.332-7.437,7.439-7.437l0,0c4.107,0,7.438,3.329,7.438,7.437V156.593z"/>
			<path fill="#DBB58B" d="M461.056,155.48c0,2.623-2.125,4.75-4.75,4.75l0,0c-2.623,0-4.752-2.127-4.752-4.75v-3.934
				c0-2.623,2.129-4.75,4.752-4.75l0,0c2.625,0,4.75,2.127,4.75,4.75V155.48z"/>
			<path fill="#FFDAA2" d="M421.435,92.607c-20.041,0-36.283,16.246-36.283,36.282v24.189c0,15.39,9.588,28.533,23.111,33.807v14.57
				c0,7.271,5.896,13.17,13.172,13.17c7.271,0,13.168-5.898,13.168-13.17v-14.57c13.523-5.271,23.111-18.415,23.111-33.807v-24.189
				C457.714,108.853,441.472,92.607,421.435,92.607z"/>
			<path fill="#FED09E" d="M457.643,126.711c-0.012-0.219-0.031-0.436-0.049-0.654c-0.039-0.516-0.09-1.029-0.15-1.539
				c-0.027-0.229-0.057-0.457-0.088-0.684c-0.078-0.559-0.17-1.115-0.273-1.668c-0.027-0.145-0.047-0.289-0.078-0.434
				c-0.139-0.699-0.301-1.391-0.479-2.076c-0.033-0.127-0.074-0.253-0.107-0.379c-0.154-0.56-0.318-1.113-0.498-1.662
				c-0.061-0.183-0.123-0.361-0.184-0.543c-0.182-0.524-0.373-1.043-0.578-1.559c-0.057-0.14-0.109-0.282-0.168-0.422
				c-0.545-1.323-1.164-2.606-1.855-3.846c-0.051-0.091-0.105-0.183-0.156-0.274c-0.309-0.539-0.629-1.071-0.963-1.592
				c-0.059-0.091-0.117-0.183-0.174-0.274c-1.193-1.825-2.543-3.539-4.033-5.117c-0.033-0.035-0.064-0.069-0.098-0.102
				c-2.039-2.14-4.332-4.033-6.84-5.627c-0.012-0.008-0.025-0.016-0.037-0.023l-0.91-0.562c-5.414-3.216-11.734-5.068-18.488-5.068
				c-0.119,0-0.236,0.008-0.354,0.009v121.991c0.117,0.003,0.234,0.018,0.354,0.018c7.271,0,13.168-5.898,13.168-13.17v-14.57
				c13.523-5.271,23.111-18.415,23.111-33.807v-24.189C457.715,128.157,457.688,127.433,457.643,126.711z"/>
			<g>
				<path fill="#3C2415" d="M456.284,162.063c-0.148,0.625-0.283,1.187-0.396,1.621
					C456.032,163.146,456.175,162.607,456.284,162.063z"/>
				<path fill="#3C2415" d="M448.679,100.468c0,0,0.263-8.765-8.067-13.467c0,0-47.702-18.246-57.983,25.496
					c0,0-0.67,15.99,1.145,27.076c0,0,1.008,15.118,3.023,23.383c0,0-3.023-16.73,4.031-25.197c0,0,7.055-7.055,3.023-14.513
					c0,0,0.076-0.31,0.246-0.828c20.854-0.448,39.867-8.242,39.867-8.242c-2.822,4.635-24.189,8.465-24.189,8.465
					c32.857-1.209,35.881-12.497,35.881-12.497s6.65,7.257,6.854,14.312c0,0-4.436,6.449,0.201,12.295
					c0,0,6.016,13.271,3.574,25.313c1.055-4.512,3.076-22.49,3.076-22.49S467.021,106.582,448.679,100.468z"/>
				<path fill="#3C2415" d="M455.888,163.684c-0.117,0.43-0.215,0.863-0.355,1.287C455.532,164.971,455.671,164.511,455.888,163.684
					z"/>
			</g>
		</g>
		<polygon fill="#3C2415" points="427.566,172.725 421.082,175.19 414.598,172.725 		"/>
		<circle fill="#3C2415" cx="406.45" cy="142.998" r="3.225"/>
		<circle fill="#3C2415" cx="436.417" cy="142.998" r="3.226"/>
		<polygon fill="#BBDBA2" points="424.189,223.236 417.987,223.236 414.385,214.632 427.791,214.632 		"/>
		<polygon fill="#ACD38D" points="421.088,222.895 421.082,222.895 421.082,331.305 421.088,331.309 431.043,324.115 
			424.164,222.895 		"/>
		<polygon fill="#ACD38D" points="421.082,223.236 424.189,223.236 427.791,214.632 421.082,214.632 		"/>
		<polygon fill="#E6E7E8" points="438.413,252.467 438.413,276.817 449.207,281.041 460.001,276.817 460.001,252.467 		"/>
		<path fill="#FED09E" d="M470.487,267.586v65.036c0,0,0.076,2.167-1.076,4.303h20.461l-0.006-4.233v-65.105H470.487z"/>
		<path fill="#FFDAA2" d="M372.362,332.622v-65.036h-19.359v65.961l-0.021,3.377h20.461
			C372.288,334.789,372.362,332.622,372.362,332.622z"/>
		<polygon fill="#E6BE91" points="421.083,146.453 421.083,163.989 425.409,161.256 		"/>
		<path fill="#F1F2F2" d="M408.242,191.551c0,0-12.5,9.708-7.25,32.458c0,0,5.75-13.25,17.25-9.75c0,0-9.063-2.063-10-12.25V191.551
			z"/>
		<path fill="#E6E7E8" d="M434.58,191.551c0,0,12.5,9.708,7.25,32.458c0,0-5.75-13.25-17.25-9.75c0,0,9.063-2.063,10-12.25V191.551z
			"/>
		<g>
			<g>
				<path fill="#FFCF1E" d="M421.085,78.929c-23.01,0-41.658,18.652-41.658,41.656v8.869h83.312v-8.869
					C462.738,97.581,444.09,78.929,421.085,78.929z"/>
				<rect x="377.106" y="127.271" fill="#FFC222" width="87.952" height="4.301"/>
			</g>
			<path fill="#FFC222" d="M423.637,104.023c0,1.409-1.144,2.553-2.554,2.553l0,0c-1.41,0-2.555-1.144-2.555-2.553V79.028
				c0-1.408,1.145-2.553,2.555-2.553l0,0c1.41,0,2.554,1.145,2.554,2.553V104.023z"/>
			<path fill="#FFC222" d="M407.513,107.249c0,1.409-1.145,2.553-2.555,2.553l0,0c-1.412,0-2.555-1.144-2.555-2.553V82.254
				c0-1.409,1.143-2.553,2.555-2.553l0,0c1.41,0,2.555,1.144,2.555,2.553V107.249z"/>
			<path fill="#FFC222" d="M439.762,107.249c0,1.409-1.143,2.553-2.555,2.553l0,0c-1.41,0-2.553-1.144-2.553-2.553V82.254
				c0-1.409,1.143-2.553,2.553-2.553l0,0c1.412,0,2.555,1.144,2.555,2.553V107.249z"/>
		</g>
	</g>
</g>
</svg>
