<?xml version="1.0" encoding="utf-8"?>
<!-- Generator: Adobe Illustrator 16.0.0, SVG Export Plug-In . SVG Version: 6.00 Build 0)  -->
<!DOCTYPE svg PUBLIC "-//W3C//DTD SVG 1.0//EN" "http://www.w3.org/TR/2001/REC-SVG-20010904/DTD/svg10.dtd">
<svg version="1.0" xmlns="http://www.w3.org/2000/svg" xmlns:xlink="http://www.w3.org/1999/xlink" x="0px" y="0px"
	 width="841.89px" height="595.28px" viewBox="0 0 841.89 595.28" enable-background="new 0 0 841.89 595.28" xml:space="preserve">
<g id="woman">
	<g>
		<path fill="#3C2415" d="M463.601,196.957c0,23.599-19.131,42.731-42.732,42.731l0,0c-23.6,0-42.732-19.133-42.732-42.731v-54.826
			c0-23.603,19.133-42.732,42.732-42.732l0,0c23.602,0,42.732,19.13,42.732,42.732V196.957z"/>
		<path fill="#FFDAA2" d="M377.175,568.991c0,10.909,8.844,19.753,19.754,19.753s19.754-8.844,19.754-19.753V469.82h-39.508V568.991
			z"/>
		<path fill="#FED09E" d="M416.683,568.991V469.82h-18.424v110.483c0,2.897,0.566,5.66,1.563,8.205
			C409.356,587.106,416.683,578.915,416.683,568.991z"/>
		<path fill="#FED09E" d="M425.552,469.82v99.171c0,10.909,8.844,19.753,19.754,19.753s19.754-8.844,19.754-19.753V469.82H425.552z"
			/>
		<polygon fill="#282829" points="377.175,354.524 377.175,469.82 416.683,469.82 425.552,469.82 465.06,469.82 465.06,354.524 		
			"/>
		<path fill="#FFFFFF" d="M372.048,346.997v-66.195v-18.343c0-0.391,0.316-0.705,0.705-0.705c0.391,0,0.707,0.314,0.707,0.705
			v18.343l-0.014,9.499l-0.002,55.932c0,6.739,5.463,12.204,12.203,12.204h70.939c6.74,0,12.203-5.465,12.203-12.204v-55.932
			l-0.027-9.499v-18.343c0-0.391,0.318-0.705,0.705-0.705c0.391,0,0.705,0.314,0.705,0.705v18.343v66.195
			c0,0,0.076,2.167-1.076,4.303h20.461l-0.006-4.233v-82.844l-0.002-2.418v-15.049c0-19.593-15.883-35.476-35.477-35.476h-65.906
			c-19.592,0-35.475,15.883-35.475,35.476v16.66l-0.004,0.807v83.7l-0.021,3.377h20.461
			C371.974,349.164,372.048,346.997,372.048,346.997z"/>
		<line fill="none" stroke="#000000" stroke-miterlimit="10" x1="365.368" y1="390.583" x2="365.368" y2="390.583"/>
		<path fill="#FED09E" d="M468.562,352.156c0,0-0.729,1.427-0.918,1.871c-0.607,1.423-0.9,3.007-0.9,4.651v2.252l-0.016,7.902
			v10.569c0,1.55,1.254,2.806,2.803,2.806c1.551,0,2.807-1.256,2.807-2.806v-10.569v-2.602c0-0.564,0.453-1.018,1.014-1.018
			c0.564,0,1.018,0.453,1.018,1.018v23.076c1.475,0.617,3.096,0.96,4.793,0.96c6.861,0,12.42-5.559,12.42-12.418v-19.171
			c0-1.6-0.303-3.128-0.854-4.532c-0.313-0.8-0.705-1.556-1.17-2.265V351.3h-20.461
			C468.938,351.586,468.767,351.873,468.562,352.156z"/>
		<path fill="#FFDAA2" d="M351.495,354.146c-0.551,1.404-0.854,2.933-0.854,4.532v19.171c0,6.859,5.559,12.418,12.418,12.418
			c1.701,0,3.32-0.343,4.793-0.96v-23.076c0-0.564,0.455-1.018,1.018-1.018c0.561,0,1.018,0.453,1.018,1.018l-0.004,2.602v10.569
			c0,1.55,1.258,2.806,2.807,2.806c1.551,0,2.807-1.256,2.807-2.806v-10.569l-0.02-7.902v-2.252c0-1.645-0.289-3.229-0.9-4.651
			c-0.189-0.444-0.916-1.871-0.916-1.871c-0.205-0.283-0.379-0.57-0.533-0.856h-20.461l-0.004,0.582
			C352.2,352.591,351.808,353.347,351.495,354.146z"/>
		<path d="M473.503,568.251h-8.781c0.021,0.312,0.047,0.624,0.047,0.941v1.411c0,7.124-5.775,12.9-12.9,12.9h-13.504
			c-4.777,0-8.941-2.607-11.172-6.469c-2.365,3.351-3.77,7.43-3.785,11.839h70.791C494.157,577.476,484.913,568.251,473.503,568.251
			z"/>
		<path d="M368.714,568.251h8.779c-0.021,0.312-0.047,0.624-0.047,0.941v1.411c0,7.124,5.777,12.9,12.9,12.9h13.506
			c4.779,0,8.941-2.607,11.17-6.469c2.365,3.351,3.773,7.43,3.789,11.839h-70.793C348.06,577.476,357.306,568.251,368.714,568.251z"
			/>
		<path fill="#FFDAA2" d="M393.685,170.986c0,4.106-3.328,7.436-7.436,7.436l0,0c-4.107,0-7.439-3.329-7.439-7.436v-6.158
			c0-4.106,3.332-7.436,7.439-7.436l0,0c4.107,0,7.436,3.329,7.436,7.436V170.986z"/>
		<path fill="#FED09E" d="M390.999,169.871c0,2.623-2.127,4.752-4.75,4.752l0,0c-2.623,0-4.752-2.129-4.752-4.752v-3.931
			c0-2.624,2.129-4.749,4.752-4.749l0,0c2.623,0,4.75,2.125,4.75,4.749V169.871z"/>
		<path fill="#E6BE91" d="M463.427,170.986c0,4.106-3.328,7.436-7.436,7.436l0,0c-4.107,0-7.439-3.329-7.439-7.436v-6.158
			c0-4.106,3.332-7.436,7.439-7.436l0,0c4.107,0,7.436,3.329,7.436,7.436V170.986z"/>
		<path fill="#DBB58B" d="M460.741,169.874c0,2.62-2.127,4.749-4.75,4.749l0,0c-2.623,0-4.752-2.129-4.752-4.749v-3.934
			c0-2.624,2.129-4.749,4.752-4.749l0,0c2.623,0,4.75,2.125,4.75,4.749V169.874z"/>
		<polygon points="420.774,469.82 425.552,469.82 465.06,469.82 465.06,354.524 420.774,354.524 		"/>
		<path fill="#F1F2F2" d="M489.552,264.223l-0.002-2.418v-15.049c0-19.593-15.883-35.476-35.477-35.476h-33.301v147.156h35.814
			c6.74,0,12.203-5.465,12.203-12.204v-55.932l-0.029-9.499l0.002-18.343c0-0.391,0.318-0.705,0.705-0.705
			c0.391,0,0.705,0.314,0.705,0.705v18.343v66.195c0,0,0.076,2.167-1.076,4.303h20.461l-0.006-4.233V264.223z"/>
		<path fill="#FFDAA2" d="M421.12,107.001c-20.039,0-36.281,16.245-36.281,36.282v24.188c0,15.389,9.586,28.531,23.111,33.807v14.57
			c0,7.271,5.895,13.168,13.17,13.168c7.271,0,13.168-5.896,13.168-13.168v-14.57c13.523-5.271,23.111-18.415,23.111-33.807v-24.188
			C457.399,123.246,441.157,107.001,421.12,107.001z"/>
		<path fill="#FED09E" d="M420.77,228.999c0.115,0.003,0.232,0.017,0.352,0.017c7.271,0,13.168-5.896,13.168-13.168v-14.57
			c13.523-5.271,23.111-18.415,23.111-33.807v-24.188c0-12.891-6.727-24.204-16.855-30.639H420.77V228.999z"/>
		<path fill="#3C2415" d="M409.36,157.393c0,1.779-1.445,3.223-3.225,3.223c-1.783,0-3.227-1.443-3.227-3.223
			c0-1.783,1.443-3.225,3.227-3.225C407.915,154.168,409.36,155.609,409.36,157.393z"/>
		<path fill="#3C2415" d="M439.327,157.393c0,1.779-1.445,3.223-3.225,3.223c-1.783,0-3.225-1.443-3.225-3.223
			c0-1.783,1.441-3.225,3.225-3.225C437.882,154.168,439.327,155.609,439.327,157.393z"/>
		<polygon fill="#E6BE91" points="420.769,160.819 420.769,178.355 425.095,175.622 		"/>
		<polygon fill="#ED1C24" points="427.253,187.099 420.769,189.564 414.282,187.099 		"/>
		<path fill="#3C2415" d="M412.009,149.179c0,0.473-0.385,0.856-0.857,0.856h-10.48c-0.473,0-0.857-0.384-0.857-0.856l0,0
			c0-0.472,0.385-0.856,0.857-0.856h10.48C411.624,148.322,412.009,148.707,412.009,149.179L412.009,149.179z"/>
		<path fill="#3C2415" d="M442.042,149.179c0,0.473-0.385,0.856-0.855,0.856h-10.482c-0.473,0-0.857-0.384-0.857-0.856l0,0
			c0-0.472,0.385-0.856,0.857-0.856h10.482C441.657,148.322,442.042,148.707,442.042,149.179L442.042,149.179z"/>
		<path fill="#3C2415" d="M445.056,127.416c0,0-7.256,14.715-33.057,14.715c0,0,18.344-5.241,23.383-13.908
			c0,0-19.352,11.69-35.477,13.706c0,0-14.414-2.136-13.656,32.694c0,0,1.16-17.98-3.678-17.576l0.807-29.026l23.783-22.979
			l22.979-0.403l24.189,16.125l6.047,34.871c0,0-3.225,3.629-3.225,14.312c0,0-2.822-19.753-2.822-28.823
			C454.329,141.123,453.925,129.633,445.056,127.416z"/>
		<path fill="#FED09E" d="M470.173,341.953v5.044c0,0,0.076,2.167-1.076,4.303h20.461l-0.006-4.233v-5.113H470.173z"/>
		<path fill="#FFDAA2" d="M372.048,346.997v-45.044h-19.359v45.97l-0.021,3.377h20.461
			C371.974,349.164,372.048,346.997,372.048,346.997z"/>
		<path fill="#931A1D" d="M468.79,365.334v-75.033l-0.029-9.499l0.002-18.343c0-0.391,0.318-0.705,0.705-0.705
			c0.391,0,0.705,0.314,0.705,0.705v18.343v66.195c0,0,0.076,2.167-1.076,4.303h20.461l-0.006-4.233v-82.844l-0.002-2.418v-15.049
			c0-19.593-15.883-35.476-35.477-35.476l-17.923-0.03l-15.378,93.084v61H468.79z"/>
		<path fill="#A71E22" d="M372.042,346.997v-66.195v-18.343c0-0.391,0.314-0.705,0.705-0.705c0.387,0,0.705,0.314,0.705,0.705
			l0.002,18.343l-0.029,9.499v75.033h48.018v-61l-15.378-93.084l-17.923,0.03c-19.594,0-35.477,15.883-35.477,35.476v15.049
			l-0.002,2.418v82.844l-0.006,4.233h20.461C371.966,349.164,372.042,346.997,372.042,346.997z"/>
		<polygon fill="#FFDAA2" points="435.275,216.803 420.77,254.195 407.264,216.803 		"/>
		<polygon fill="#FED09E" points="433.275,231.375 420.77,254.375 420.77,211.25 434.27,211.25 		"/>
		<polygon fill="#681310" points="420.9,303.5 444.233,261 431.567,247.5 449.9,246 443.567,236.167 431.567,244.5 		"/>
		<polygon fill="#7E1617" points="420.776,304.334 443.65,258.25 432.9,246.333 450.65,244.75 436.9,211.667 434.27,211.25 
			434.9,217 		"/>
		<polygon fill="#7E1617" points="421.314,303.5 397.981,261 410.647,247.5 392.314,246 398.647,236.167 410.647,244.5 		"/>
		<polygon fill="#931A1D" points="421.438,304.334 398.564,258.25 409.314,246.333 391.564,244.75 405.314,211.667 407.945,211.25 
			407.314,217 		"/>
		<polygon fill="#E6E7E8" points="454.645,235.688 440.665,228.75 421.463,254.195 438.207,221.75 		"/>
		<polygon fill="#F1F2F2" points="434.301,205.032 454.707,235.75 440.207,226.25 421.635,254.25 434.301,217.365 		"/>
		<polygon fill="#E6E7E8" points="387.588,235.688 401.567,228.75 420.77,254.195 404.025,221.75 		"/>
		<polygon fill="#F1F2F2" points="407.932,205.032 387.525,235.75 402.025,226.25 420.598,254.25 407.932,217.365 		"/>
	</g>
</g>
<g id="background">
	<g>
		<g>
			<polygon fill="#414042" points="567.818,127.258 533.778,133.895 531.877,122.384 566.243,117.721 			"/>
			<path fill="#681310" d="M539.405,127.053c0.9,5.449-2.787,10.596-8.236,11.496l-43.412,7.171
				c-5.449,0.9-10.596-2.788-11.496-8.236l0,0c-0.9-5.45,2.788-10.596,8.236-11.496l43.412-7.171
				C533.358,117.917,538.505,121.604,539.405,127.053L539.405,127.053z"/>
			
				<rect x="565.026" y="120.268" transform="matrix(0.9866 -0.163 0.163 0.9866 -12.3703 94.1413)" fill="#414042" width="4.666" height="4.334"/>
			
				<line fill="none" stroke="#414042" stroke-width="3" stroke-miterlimit="10" x1="543.431" y1="144.333" x2="690.431" y2="163.333"/>
			
				<line fill="none" stroke="#414042" stroke-width="2" stroke-miterlimit="10" x1="552.931" y1="123.333" x2="552.931" y2="145.833"/>
			<path fill="none" stroke="#414042" stroke-width="2" stroke-miterlimit="10" d="M568.526,122.186c0,0,17.237-4.519,32.07,16.647
				c0,0,21.334,32.833,62.25,24.75"/>
		</g>
		<g>
			<polygon fill="#414042" points="274.071,127.258 308.111,133.895 310.012,122.384 275.646,117.721 			"/>
			<path fill="#681310" d="M302.484,127.053c-0.9,5.449,2.787,10.596,8.236,11.496l43.412,7.171
				c5.449,0.9,10.596-2.788,11.496-8.236l0,0c0.9-5.45-2.788-10.596-8.236-11.496l-43.412-7.171
				C308.531,117.917,303.385,121.604,302.484,127.053L302.484,127.053z"/>
			
				<rect x="272.197" y="120.268" transform="matrix(-0.9866 -0.163 0.163 -0.9866 525.4252 287.9921)" fill="#414042" width="4.666" height="4.334"/>
			
				<line fill="none" stroke="#414042" stroke-width="3" stroke-miterlimit="10" x1="298.459" y1="144.333" x2="151.459" y2="163.333"/>
			
				<line fill="none" stroke="#414042" stroke-width="2" stroke-miterlimit="10" x1="288.959" y1="123.333" x2="288.959" y2="145.833"/>
			<path fill="none" stroke="#414042" stroke-width="2" stroke-miterlimit="10" d="M273.363,122.186c0,0-17.237-4.519-32.07,16.647
				c0,0-21.334,32.833-62.25,24.75"/>
		</g>
		<g>
			<polygon points="309.593,202.872 350.275,200.312 349.337,189.603 308.829,194.155 			"/>
			<circle fill="#004869" cx="361.286" cy="193.749" r="14"/>
			
				<line fill="none" stroke="#414042" stroke-width="2" stroke-miterlimit="10" x1="322.764" y1="183.833" x2="322.764" y2="193.167"/>
			
				<line fill="none" stroke="#414042" stroke-width="3" stroke-miterlimit="10" x1="331.764" y1="183.333" x2="246.764" y2="192.333"/>
		</g>
		<g>
			<polygon points="531.457,202.872 490.774,200.312 491.713,189.603 532.221,194.155 			"/>
			<circle fill="#004869" cx="479.764" cy="193.749" r="14"/>
			
				<line fill="none" stroke="#414042" stroke-width="2" stroke-miterlimit="10" x1="518.286" y1="183.833" x2="518.286" y2="193.167"/>
			
				<line fill="none" stroke="#414042" stroke-width="3" stroke-miterlimit="10" x1="509.286" y1="183.333" x2="594.286" y2="192.333"/>
		</g>
		<g>
			<polygon points="388.509,308.865 379.781,306.667 391.024,257.937 401.691,260.623 			"/>
			<path fill="#FFDAA2" d="M407.874,292.666c0,4.972-4.029,9-9,9h-13.5c-4.971,0-9-4.03-9-9v-12c0-4.971,4.029-9,9-9h13.5
				c4.971,0.001,9,4.03,9,9.001V292.666z"/>
			<path fill="#681310" d="M406.905,261.078c-0.943,3.748-4.748,6.022-8.497,5.078l-6.466-1.628
				c-3.749-0.944-6.021-4.75-5.078-8.498l11.792-38.624c0.944-3.749,4.748-6.022,8.498-5.078l2.586,0.651
				c3.749,0.944,6.022,4.749,5.078,8.498L406.905,261.078z"/>
			<path fill="#4D4E4E" d="M373.146,277.492h-66.195h-38.354v19.379h104.619l4.233,0.006v-20.461
				C375.313,277.568,373.146,277.492,373.146,277.492z"/>
		</g>
	</g>
</g>
</svg>
