<?xml version="1.0" encoding="utf-8"?>
<!-- Generator: Adobe Illustrator 16.0.0, SVG Export Plug-In . SVG Version: 6.00 Build 0)  -->
<!DOCTYPE svg PUBLIC "-//W3C//DTD SVG 1.0//EN" "http://www.w3.org/TR/2001/REC-SVG-20010904/DTD/svg10.dtd">
<svg version="1.0" xmlns="http://www.w3.org/2000/svg" xmlns:xlink="http://www.w3.org/1999/xlink" x="0px" y="0px"
	 width="841.89px" height="595.28px" viewBox="0 0 841.89 595.28" enable-background="new 0 0 841.89 595.28" xml:space="preserve">
<g id="background">
	<g>
		<g>
			<path fill="#FFCF1E" d="M388.443,78.929c-23.01,0-41.658,18.652-41.658,41.656v8.869h83.312v-8.869
				C430.097,97.581,411.448,78.929,388.443,78.929z"/>
			<rect x="344.465" y="127.271" fill="#FFC222" width="87.952" height="4.301"/>
		</g>
		<path fill="#FFC222" d="M390.995,104.023c0,1.409-1.144,2.553-2.554,2.553l0,0c-1.41,0-2.555-1.144-2.555-2.553V79.028
			c0-1.408,1.145-2.553,2.555-2.553l0,0c1.41,0,2.554,1.145,2.554,2.553V104.023z"/>
		<path fill="#FFC222" d="M374.871,107.249c0,1.409-1.145,2.553-2.555,2.553l0,0c-1.412,0-2.555-1.144-2.555-2.553V82.254
			c0-1.409,1.143-2.553,2.555-2.553l0,0c1.41,0,2.555,1.144,2.555,2.553V107.249z"/>
		<path fill="#FFC222" d="M407.12,107.249c0,1.409-1.143,2.553-2.555,2.553l0,0c-1.41,0-2.553-1.144-2.553-2.553V82.254
			c0-1.409,1.143-2.553,2.553-2.553l0,0c1.412,0,2.555,1.144,2.555,2.553V107.249z"/>
	</g>
	<g>
		<rect x="445.682" y="109.104" fill="#C3C3C3" width="31.541" height="9.14"/>
		<rect x="277.397" y="110.985" fill="#C3C3C3" width="287.466" height="5.376"/>
		<rect x="451.416" y="56.278" fill="#C3C3C3" width="20.072" height="52.825"/>
		<g>
			<path fill="#C3C3C3" d="M443.71,118.198v231.45h35.483v-231.45H443.71z M475.43,345.615h-27.955V122.23h27.955V345.615z"/>
			<rect x="445.523" y="155.834" fill="#C3C3C3" width="31.543" height="3.943"/>
			
				<rect x="441.227" y="142.707" transform="matrix(0.7689 -0.6393 0.6393 0.7689 14.226 328.7184)" fill="#C3C3C3" width="41.3" height="3.943"/>
			
				<rect x="441.227" y="180.343" transform="matrix(0.7689 -0.6393 0.6393 0.7689 -9.8355 337.4147)" fill="#C3C3C3" width="41.3" height="3.942"/>
			
				<rect x="441.227" y="217.978" transform="matrix(0.7689 -0.6393 0.6393 0.7689 -33.8968 346.1108)" fill="#C3C3C3" width="41.3" height="3.943"/>
			
				<rect x="441.227" y="255.615" transform="matrix(0.7689 -0.6393 0.6393 0.7689 -57.9576 354.8118)" fill="#C3C3C3" width="41.3" height="3.942"/>
			
				<rect x="441.227" y="293.251" transform="matrix(0.7689 -0.6393 0.6393 0.7689 -82.0208 363.4985)" fill="#C3C3C3" width="41.299" height="3.942"/>
			
				<rect x="441.227" y="330.887" transform="matrix(0.7689 -0.6393 0.6393 0.7689 -106.0817 372.1943)" fill="#C3C3C3" width="41.299" height="3.942"/>
			<rect x="445.523" y="193.471" fill="#C3C3C3" width="31.543" height="3.942"/>
			<rect x="445.523" y="231.106" fill="#C3C3C3" width="31.543" height="3.942"/>
			<rect x="445.523" y="268.743" fill="#C3C3C3" width="31.543" height="3.941"/>
			<rect x="445.523" y="306.378" fill="#C3C3C3" width="31.543" height="3.942"/>
		</g>
		<path fill="#C3C3C3" d="M468.173,59.272c0,3.712-3.009,6.721-6.721,6.721l0,0c-3.712,0-6.721-3.009-6.721-6.721V49.057
			c0-3.711,3.009-6.721,6.721-6.721l0,0c3.712,0,6.721,3.009,6.721,6.721V59.272z"/>
		<rect x="528.731" y="117.429" fill="#C3C3C3" width="36.381" height="12.456"/>
		<rect x="528.731" y="131.139" fill="#C3C3C3" width="36.381" height="12.456"/>
		<g>
			<polygon fill="#C3C3C3" points="279.272,114.346 278.889,113.342 461.523,43.526 461.755,43.684 563.266,112.862 562.66,113.75 
				461.381,44.73 			"/>
		</g>
		<g>
			<circle fill="#C3C3C3" cx="283.946" cy="223.616" r="7.169"/>
			<g>
				<path fill="#C3C3C3" d="M283.946,229.992c-3.615,0-6.556-2.94-6.556-6.555V113.651h13.111v109.786
					C290.502,227.051,287.561,229.992,283.946,229.992z M279.391,115.651v107.786c0,2.512,2.043,4.555,4.556,4.555
					s4.556-2.043,4.556-4.555V115.651H279.391z"/>
			</g>
		</g>
		<path fill="#C3C3C3" d="M285.246,235.133v-4.909h-2.554v5.779h1.255v0.022c2.075,0,3.763,1.688,3.763,3.764
			s-1.688,3.764-3.763,3.764s-3.764-1.688-3.764-3.764h-1.076c0,2.668,2.171,4.839,4.839,4.839c2.668,0,4.839-2.171,4.839-4.839
			C288.785,237.572,287.284,235.703,285.246,235.133z"/>
	</g>
	<g>
		<path fill="#CECDCD" d="M425.725,276.583c0,0.644-0.521,1.167-1.166,1.167h-12.833c-0.645,0-1.167-0.522-1.167-1.167v-18.667
			c0-0.644,0.522-1.167,1.167-1.167h12.833c0.645,0,1.166,0.522,1.166,1.167V276.583z"/>
		<circle fill="#CECDCD" cx="418.142" cy="253.625" r="2.25"/>
		<rect x="415.188" y="263.167" fill="#A5A5A5" width="5.907" height="7.417"/>
		<g>
			<circle fill="#CECDCD" cx="418.142" cy="265.988" r="1.312"/>
			<path fill="#CECDCD" d="M420.7,270.124c0-0.02,0.006-0.039,0.006-0.06c0-1.417-1.148-2.565-2.565-2.565s-2.565,1.148-2.565,2.565
				c0,0.021,0.006,0.04,0.006,0.06H420.7z"/>
		</g>
	</g>
</g>
<g id="woman">
	<g>
		<g>
			<g>
				<g>
					<path fill="#003660" d="M344.849,340.18h87.885v214.473c0,10.91-8.844,19.754-19.754,19.754l0,0
						c-10.91,0-19.754-8.844-19.754-19.754V385.333l0.021-1.183v-3.317c0-2.461-1.994-4.456-4.456-4.456l0,0
						c-2.46,0-4.456,1.995-4.456,4.456v3.317l0.021,2.258v168.244c0,10.91-8.845,19.754-19.754,19.754l0,0
						c-10.91,0-19.754-8.844-19.754-19.754V340.18"/>
				</g>
				<path fill="#002B52" d="M388.466,366.009c-12.446,0.023-22.533,10.12-22.533,22.574v177.384c0,2.896,0.566,5.66,1.561,8.205
					c9.537-1.402,16.863-9.594,16.863-19.52V386.408l-0.021-2.258v-3.317c0-2.461,1.996-4.456,4.456-4.456
					c2.462,0,4.456,1.995,4.456,4.456v3.317l-0.021,1.183v169.319c0,10.91,8.844,19.754,19.754,19.754s19.754-8.844,19.754-19.754
					V340.18h-44.268V366.009z"/>
			</g>
			<path fill="#3C2415" d="M431.274,182.613c0,23.599-19.131,42.731-42.732,42.731l0,0c-23.6,0-42.732-19.133-42.732-42.731v-44.826
				c0-23.603,19.133-42.732,42.732-42.732l0,0c23.602,0,42.732,19.13,42.732,42.732V182.613z"/>
			<path fill="#FFFFFF" d="M339.722,332.653v-66.195v-18.343c0-0.391,0.316-0.705,0.705-0.705c0.391,0,0.707,0.314,0.707,0.705
				v18.343l-0.014,9.499l-0.002,55.932c0,6.739,5.463,12.204,12.203,12.204h70.939c6.74,0,12.203-5.465,12.203-12.204v-55.932
				l-0.027-9.499v-18.343c0-0.391,0.318-0.705,0.705-0.705c0.391,0,0.705,0.314,0.705,0.705v18.343v66.195
				c0,0,0.076,2.167-1.076,4.303h20.461l-0.006-4.233v-82.844l-0.002-2.418v-15.049c0-19.593-15.883-35.476-35.477-35.476h-65.906
				c-19.592,0-35.475,15.883-35.475,35.476v16.66l-0.004,0.807v83.7l-0.021,3.377h20.461
				C339.647,334.82,339.722,332.653,339.722,332.653z"/>
			<line fill="none" stroke="#000000" stroke-miterlimit="10" x1="333.042" y1="376.239" x2="333.042" y2="376.239"/>
			<path fill="#FED09E" d="M436.235,337.813c0,0-0.729,1.427-0.918,1.871c-0.607,1.423-0.9,3.007-0.9,4.651v2.252l-0.016,7.902
				v10.569c0,1.55,1.254,2.806,2.803,2.806c1.551,0,2.807-1.256,2.807-2.806v-10.569v-2.602c0-0.564,0.453-1.018,1.014-1.018
				c0.564,0,1.018,0.453,1.018,1.018v23.076c1.475,0.617,3.096,0.96,4.793,0.96c6.861,0,12.42-5.559,12.42-12.418v-19.171
				c0-1.6-0.303-3.128-0.854-4.532c-0.313-0.8-0.705-1.556-1.17-2.265v-0.582h-20.461
				C436.612,337.242,436.44,337.529,436.235,337.813z"/>
			<path fill="#FFDAA2" d="M319.169,339.803c-0.551,1.404-0.854,2.933-0.854,4.532v19.171c0,6.859,5.559,12.418,12.418,12.418
				c1.701,0,3.32-0.343,4.793-0.96v-23.076c0-0.564,0.455-1.018,1.018-1.018c0.561,0,1.018,0.453,1.018,1.018l-0.004,2.602v10.569
				c0,1.55,1.258,2.806,2.807,2.806c1.551,0,2.807-1.256,2.807-2.806v-10.569l-0.02-7.902v-2.252c0-1.645-0.289-3.229-0.9-4.651
				c-0.189-0.444-0.916-1.871-0.916-1.871c-0.205-0.283-0.379-0.57-0.533-0.856h-20.461l-0.004,0.582
				C319.874,338.247,319.481,339.003,319.169,339.803z"/>
			<path d="M441.177,553.907h-8.781c0.021,0.312,0.047,0.624,0.047,0.941v1.411c0,7.124-5.775,12.9-12.9,12.9h-13.504
				c-4.777,0-8.941-2.607-11.172-6.469c-2.365,3.351-3.77,7.43-3.785,11.839h70.791
				C461.831,563.132,452.587,553.907,441.177,553.907z"/>
			<path d="M336.388,553.907h8.779c-0.021,0.312-0.047,0.624-0.047,0.941v1.411c0,7.124,5.777,12.9,12.9,12.9h13.506
				c4.779,0,8.941-2.607,11.17-6.469c2.365,3.351,3.773,7.43,3.789,11.839h-70.793C315.733,563.132,324.979,553.907,336.388,553.907
				z"/>
			<path fill="#FFDAA2" d="M361.358,156.643c0,4.106-3.328,7.436-7.436,7.436l0,0c-4.107,0-7.439-3.329-7.439-7.436v-6.158
				c0-4.106,3.332-7.436,7.439-7.436l0,0c4.107,0,7.436,3.329,7.436,7.436V156.643z"/>
			<path fill="#FED09E" d="M358.673,155.527c0,2.623-2.127,4.752-4.75,4.752l0,0c-2.623,0-4.752-2.129-4.752-4.752v-3.931
				c0-2.624,2.129-4.749,4.752-4.749l0,0c2.623,0,4.75,2.125,4.75,4.749V155.527z"/>
			<path fill="#E6BE91" d="M431.101,156.643c0,4.106-3.328,7.436-7.436,7.436l0,0c-4.107,0-7.439-3.329-7.439-7.436v-6.158
				c0-4.106,3.332-7.436,7.439-7.436l0,0c4.107,0,7.436,3.329,7.436,7.436V156.643z"/>
			<path fill="#DBB58B" d="M428.415,155.53c0,2.62-2.127,4.749-4.75,4.749l0,0c-2.623,0-4.752-2.129-4.752-4.749v-3.934
				c0-2.624,2.129-4.749,4.752-4.749l0,0c2.623,0,4.75,2.125,4.75,4.749V155.53z"/>
			<path fill="#F1F2F2" d="M457.226,249.879l-0.002-2.418v-15.049c0-19.593-15.883-35.476-35.477-35.476h-33.301v147.156h35.814
				c6.74,0,12.203-5.465,12.203-12.204v-55.932l-0.029-9.499l0.002-18.343c0-0.391,0.318-0.705,0.705-0.705
				c0.391,0,0.705,0.314,0.705,0.705v18.343v66.195c0,0,0.076,2.167-1.076,4.303h20.461l-0.006-4.233V249.879z"/>
			<path fill="#FFDAA2" d="M388.794,92.657c-20.039,0-36.281,16.245-36.281,36.282v24.188c0,15.389,9.586,28.531,23.111,33.807
				v14.57c0,7.271,5.895,13.168,13.17,13.168c7.271,0,13.168-5.896,13.168-13.168v-14.57c13.523-5.271,23.111-18.415,23.111-33.807
				v-24.188C425.073,108.902,408.831,92.657,388.794,92.657z"/>
			<path fill="#FED09E" d="M388.443,214.655c0.115,0.003,0.232,0.017,0.352,0.017c7.271,0,13.168-5.896,13.168-13.168v-14.57
				c13.523-5.271,23.111-18.415,23.111-33.807v-24.188c0-12.891-6.727-24.204-16.855-30.639h-19.775V214.655z"/>
			<path fill="#3C2415" d="M377.034,143.049c0,1.779-1.445,3.223-3.225,3.223c-1.783,0-3.227-1.443-3.227-3.223
				c0-1.783,1.443-3.225,3.227-3.225C375.589,139.824,377.034,141.266,377.034,143.049z"/>
			<path fill="#3C2415" d="M407.001,143.049c0,1.779-1.445,3.223-3.225,3.223c-1.783,0-3.225-1.443-3.225-3.223
				c0-1.783,1.441-3.225,3.225-3.225C405.556,139.824,407.001,141.266,407.001,143.049z"/>
			<polygon fill="#E6BE91" points="388.442,146.476 388.442,164.012 392.769,161.278 			"/>
			<polygon fill="#ED1C24" points="394.927,172.755 388.442,175.221 381.956,172.755 			"/>
			<path fill="#3C2415" d="M379.683,134.835c0,0.473-0.385,0.856-0.857,0.856h-10.48c-0.473,0-0.857-0.384-0.857-0.856l0,0
				c0-0.472,0.385-0.856,0.857-0.856h10.48C379.298,133.979,379.683,134.363,379.683,134.835L379.683,134.835z"/>
			<path fill="#3C2415" d="M409.716,134.835c0,0.473-0.385,0.856-0.855,0.856h-10.482c-0.473,0-0.857-0.384-0.857-0.856l0,0
				c0-0.472,0.385-0.856,0.857-0.856h10.482C409.331,133.979,409.716,134.363,409.716,134.835L409.716,134.835z"/>
			<path fill="#3C2415" d="M412.729,113.072c0,0-7.256,14.715-33.057,14.715c0,0,18.344-5.241,23.383-13.908
				c0,0-19.352,11.69-35.477,13.706c0,0-14.414-2.136-13.656,32.694c0,0,1.16-17.98-3.678-17.576l0.807-29.026l23.783-22.979
				l22.979-0.403l24.189,16.125l6.047,34.871c0,0-3.225,3.629-3.225,14.312c0,0-2.822-19.753-2.822-28.823
				C422.003,126.779,421.599,115.289,412.729,113.072z"/>
			<path fill="#FED09E" d="M437.847,327.609v5.044c0,0,0.076,2.167-1.076,4.303h20.461l-0.006-4.233v-5.113H437.847z"/>
			<path fill="#FFDAA2" d="M339.722,332.653v-45.044h-19.359v45.97l-0.021,3.377h20.461
				C339.647,334.82,339.722,332.653,339.722,332.653z"/>
			<path fill="#6C6C6C" d="M436.464,350.99v-75.033l-0.029-9.499l0.002-18.343c0-0.391,0.318-0.705,0.705-0.705
				c0.391,0,0.705,0.314,0.705,0.705v18.343v66.195c0,0,0.076,2.167-1.076,4.303h20.461l-0.006-4.233v-82.844l-0.002-2.418v-15.049
				c0-19.593-15.883-35.476-35.477-35.476l-17.923-0.03l-15.378,93.084v61H436.464z"/>
			<path fill="#7D7D7D" d="M339.716,332.653v-66.195v-18.343c0-0.391,0.314-0.705,0.705-0.705c0.387,0,0.705,0.314,0.705,0.705
				l0.002,18.343l-0.029,9.499v75.033h48.018v-61l-15.378-93.084l-17.923,0.03c-19.594,0-35.477,15.883-35.477,35.476v15.049
				l-0.002,2.418v82.844l-0.006,4.233h20.461C339.64,334.82,339.716,332.653,339.716,332.653z"/>
			<polygon fill="#FFDAA2" points="402.949,202.459 388.443,239.852 374.938,202.459 			"/>
			<polygon fill="#FED09E" points="400.949,217.031 388.443,240.031 388.443,196.906 401.943,196.906 			"/>
			<polygon fill="#4D4E4E" points="388.574,289.156 411.907,246.656 399.241,233.156 417.574,231.656 411.241,221.822 
				399.241,230.156 			"/>
			<polygon fill="#5E5E5E" points="388.45,289.99 411.324,243.906 400.574,231.99 418.324,230.406 404.574,197.322 401.943,196.906 
				402.574,202.656 			"/>
			<polygon fill="#4D4E4E" points="388.988,289.156 365.655,246.656 378.321,233.156 359.988,231.656 366.321,221.822 
				378.321,230.156 			"/>
			<polygon fill="#6C6C6C" points="389.112,289.99 366.238,243.906 376.988,231.99 359.238,230.406 372.988,197.322 
				375.619,196.906 374.988,202.656 			"/>
			<polygon fill="#E6E7E8" points="422.318,221.344 408.339,214.406 389.137,239.852 405.881,207.406 			"/>
			<polygon fill="#F1F2F2" points="401.975,190.688 422.381,221.406 407.881,211.906 389.309,239.906 401.975,203.021 			"/>
			<polygon fill="#E6E7E8" points="355.262,221.344 369.241,214.406 388.443,239.852 371.699,207.406 			"/>
			<polygon fill="#F1F2F2" points="375.605,190.688 355.199,221.406 369.699,211.906 388.271,239.906 375.605,203.021 			"/>
			<g>
				<g>
					<path fill="#FFCF1E" d="M388.816,78.929c-23.01,0-41.658,18.652-41.658,41.656v8.869h83.312v-8.869
						C430.47,97.581,411.821,78.929,388.816,78.929z"/>
					<rect x="344.838" y="127.271" fill="#FFC222" width="87.952" height="4.301"/>
				</g>
				<path fill="#FFC222" d="M391.368,104.023c0,1.409-1.144,2.553-2.554,2.553l0,0c-1.41,0-2.555-1.144-2.555-2.553V79.028
					c0-1.408,1.145-2.553,2.555-2.553l0,0c1.41,0,2.554,1.145,2.554,2.553V104.023z"/>
				<path fill="#FFC222" d="M375.244,107.249c0,1.409-1.145,2.553-2.555,2.553l0,0c-1.412,0-2.555-1.144-2.555-2.553V82.254
					c0-1.409,1.143-2.553,2.555-2.553l0,0c1.41,0,2.555,1.144,2.555,2.553V107.249z"/>
				<path fill="#FFC222" d="M407.493,107.249c0,1.409-1.143,2.553-2.555,2.553l0,0c-1.41,0-2.553-1.144-2.553-2.553V82.254
					c0-1.409,1.143-2.553,2.553-2.553l0,0c1.412,0,2.555,1.144,2.555,2.553V107.249z"/>
			</g>
			<g>
				<path fill="#CECDCD" d="M426.219,276.583c0,0.644-0.523,1.167-1.168,1.167h-12.832c-0.645,0-1.168-0.522-1.168-1.167v-18.667
					c0-0.644,0.523-1.167,1.168-1.167h12.832c0.645,0,1.168,0.522,1.168,1.167V276.583z"/>
				<circle fill="#CECDCD" cx="418.635" cy="253.625" r="2.25"/>
				<rect x="415.682" y="263.167" fill="#A5A5A5" width="5.906" height="7.417"/>
				<g>
					<circle fill="#CECDCD" cx="418.635" cy="265.988" r="1.313"/>
					<path fill="#CECDCD" d="M421.193,270.124c0-0.02,0.006-0.039,0.006-0.06c0-1.417-1.147-2.565-2.564-2.565
						s-2.564,1.148-2.564,2.565c0,0.021,0.006,0.04,0.006,0.06H421.193z"/>
				</g>
			</g>
		</g>
	</g>
</g>
</svg>
