<?xml version="1.0" encoding="utf-8"?>
<!-- Generator: Adobe Illustrator 16.0.0, SVG Export Plug-In . SVG Version: 6.00 Build 0)  -->
<!DOCTYPE svg PUBLIC "-//W3C//DTD SVG 1.0//EN" "http://www.w3.org/TR/2001/REC-SVG-20010904/DTD/svg10.dtd">
<svg version="1.0" xmlns="http://www.w3.org/2000/svg" xmlns:xlink="http://www.w3.org/1999/xlink" x="0px" y="0px"
	 width="841.89px" height="595.28px" viewBox="0 0 841.89 595.28" enable-background="new 0 0 841.89 595.28" xml:space="preserve">
<g id="background">
	<g>
		<polygon fill="#FFFFFF" stroke="#D1D3D4" stroke-miterlimit="10" points="256.852,259.667 248.519,308 309.519,364.333 
			325.79,335.589 305.852,284.333 		"/>
		<path fill="#78451C" d="M325.154,566.874v-1.744c0-7.433-6.026-13.459-13.459-13.459h-47.894c-7.433,0-13.459,6.026-13.459,13.459
			v1.744H325.154z"/>
		<rect x="283.916" y="20.604" fill="#78451C" width="7.666" height="533.729"/>
		<circle fill="#78451C" cx="287.75" cy="20.334" r="7.333"/>
		<g>
			<polygon fill="#ED1C24" stroke="#D1D3D4" stroke-miterlimit="10" points="287.749,27.667 263.576,161.28 308.698,197.236 			"/>
			<path fill="#FFFFFF" stroke="#D1D3D4" stroke-miterlimit="10" d="M249.802,269.451l75.988,66.138l-17.092-138.353l-45.122-35.956
				l-17.326,95.77C245.912,259.987,245.802,266.001,249.802,269.451z"/>
		</g>
	</g>
	<g>
		<circle fill="#78451C" cx="557.749" cy="20.334" r="7.333"/>
		<polygon fill="#002045" points="526.852,259.667 518.519,308 579.519,364.333 595.79,335.589 575.851,284.333 		"/>
		<path fill="#78451C" d="M595.153,566.874v-1.744c0-7.433-6.025-13.459-13.459-13.459h-47.893c-7.434,0-13.459,6.026-13.459,13.459
			v1.744H595.153z"/>
		<rect x="553.915" y="20.604" fill="#78451C" width="7.666" height="533.729"/>
		<path fill="#002045" d="M578.697,197.236L557.748,27.667L533.575,161.28l-17.326,95.77c-0.338,2.937-0.447,8.952,3.553,12.401
			l75.988,66.138L578.697,197.236z"/>
		<polygon fill="#FEC022" points="566.594,153.319 571.185,149.983 573.024,151.32 571.735,140.885 571.185,139.19 569.431,144.586 
			563.757,144.586 568.348,147.922 		"/>
		<polygon fill="#FEC022" points="557.848,155.268 559.602,160.665 565.275,160.665 560.685,164 562.438,169.397 557.848,166.062 
			553.257,169.397 555.011,164 550.42,160.665 556.094,160.665 		"/>
		<polygon fill="#FEC022" points="558.685,175.207 560.438,180.603 566.112,180.603 561.521,183.938 563.275,189.335 558.685,186 
			554.094,189.335 555.848,183.938 551.257,180.603 556.931,180.603 		"/>
		<polygon fill="#FEC022" points="568.685,191.707 570.438,197.103 576.112,197.103 571.521,200.438 573.275,205.835 568.685,202.5 
			564.094,205.835 565.848,200.438 561.257,197.103 566.931,197.103 		"/>
	</g>
</g>
<g id="man">
	<g>
		<path fill="#FFFFFF" d="M371.804,324.988v-66.195V240.45c0-0.391,0.316-0.705,0.705-0.705c0.391,0,0.707,0.314,0.707,0.705v18.343
			l-0.014,9.499l-0.002,55.932c0,6.739,5.463,12.204,12.203,12.204h70.939c6.74,0,12.203-5.465,12.203-12.204v-55.932l-0.027-9.499
			V240.45c0-0.391,0.318-0.705,0.705-0.705c0.391,0,0.705,0.314,0.705,0.705v18.343v66.195c0,0,0.076,2.167-1.076,4.303h20.461
			l-0.006-4.233v-82.844l-0.002-2.418v-15.049c0-19.593-15.883-35.476-35.477-35.476h-65.906c-19.592,0-35.475,15.883-35.475,35.476
			v16.66l-0.004,0.807v83.7l-0.021,3.377h20.461C371.73,327.155,371.804,324.988,371.804,324.988z"/>
		<line fill="none" stroke="#000000" stroke-miterlimit="10" x1="365.125" y1="368.574" x2="365.125" y2="368.574"/>
		<path fill="#FED09E" d="M468.317,330.146c0,0-0.729,1.428-0.918,1.871c-0.607,1.424-0.9,3.008-0.9,4.652v2.252l-0.016,7.902
			v10.568c0,1.551,1.254,2.807,2.803,2.807c1.551,0,2.807-1.256,2.807-2.807v-10.568v-2.602c0-0.564,0.453-1.018,1.014-1.018
			c0.564,0,1.018,0.453,1.018,1.018v23.076c1.475,0.617,3.096,0.959,4.793,0.959c6.861,0,12.42-5.559,12.42-12.418v-19.17
			c0-1.6-0.303-3.129-0.854-4.533c-0.313-0.799-0.705-1.555-1.17-2.264v-0.582h-20.461
			C468.694,329.576,468.522,329.863,468.317,330.146z"/>
		<path fill="#FFDAA2" d="M351.251,332.137c-0.551,1.404-0.854,2.934-0.854,4.533v19.17c0,6.859,5.559,12.418,12.418,12.418
			c1.701,0,3.32-0.342,4.793-0.959v-23.076c0-0.564,0.455-1.018,1.018-1.018c0.561,0,1.018,0.453,1.018,1.018l-0.004,2.602v10.568
			c0,1.551,1.258,2.807,2.807,2.807c1.551,0,2.807-1.256,2.807-2.807v-10.568l-0.02-7.902v-2.252c0-1.645-0.289-3.229-0.9-4.652
			c-0.189-0.443-0.916-1.871-0.916-1.871c-0.205-0.283-0.379-0.57-0.533-0.855h-20.461l-0.004,0.582
			C351.957,330.582,351.564,331.338,351.251,332.137z"/>
		<path fill="#F1F2F2" d="M489.308,242.214l-0.002-2.418v-15.049c0-19.593-15.883-35.476-35.477-35.476h-33.301v147.156h35.814
			c6.74,0,12.203-5.465,12.203-12.204v-55.932l-0.029-9.499l0.002-18.343c0-0.391,0.318-0.705,0.705-0.705
			c0.391,0,0.705,0.314,0.705,0.705v18.343v66.195c0,0,0.076,2.167-1.076,4.303h20.461l-0.006-4.233V242.214z"/>
		<polygon fill="#BE1E2D" points="423.606,215.261 420.531,215.261 417.455,215.261 410.577,316.481 420.531,323.675 
			430.485,316.481 		"/>
		<path fill="#F1F2F2" d="M407.685,183.917c0,0-12.5,9.708-7.25,32.458c0,0,5.75-13.25,17.25-9.75c0,0-9.063-2.063-10-12.25V183.917
			z"/>
		<path fill="#E6E7E8" d="M434.022,183.917c0,0,12.5,9.708,7.25,32.458c0,0-5.75-13.25-17.25-9.75c0,0,9.063-2.063,10-12.25V183.917
			z"/>
		<path fill="#4D4E4E" d="M427.024,271.237l-23.699-81.966h-15.4c-5.254,0-10.236,1.151-14.723,3.201v47.902
			c0.002,0.026,0.016,0.049,0.016,0.075v18.343l-0.016,9.202v56.238c0.006,6.733,5.465,12.194,12.203,12.194h41.619V271.237z"/>
		<g>
			<path fill="#5E5E5E" d="M376.932,332.516h87.885v214.473c0,10.91-8.844,19.754-19.754,19.754l0,0
				c-10.91,0-19.754-8.844-19.754-19.754V377.67l0.021-1.184v-3.316c0-2.461-1.994-4.457-4.457-4.457l0,0
				c-2.459,0-4.455,1.996-4.455,4.457v3.316l0.021,2.258v168.244c0,10.91-8.846,19.754-19.754,19.754l0,0
				c-10.911,0-19.754-8.844-19.754-19.754V332.516"/>
		</g>
		<polygon fill="#BE1E2D" points="423.632,215.602 417.43,215.602 413.828,206.998 427.233,206.998 		"/>
		<polygon fill="#B61C2A" points="420.531,215.261 420.525,215.261 420.525,323.671 420.531,323.675 430.485,316.481 
			423.606,215.261 		"/>
		<polygon fill="#B61C2A" points="420.525,215.602 423.632,215.602 427.233,206.998 420.525,206.998 		"/>
		<path fill="#4D4E4E" d="M414.694,271.237l23.72-81.966h15.382c5.254,0,10.236,1.151,14.721,3.201v47.902
			c-0.002,0.026-0.014,0.049-0.014,0.075v18.343l0.014,9.202v56.238c-0.004,6.733-5.465,12.194-12.201,12.194h-41.621V271.237z"/>
		<circle fill="#5E5E5E" cx="420.024" cy="266.987" r="2.75"/>
		<circle fill="#5E5E5E" cx="420.024" cy="300.987" r="2.75"/>
		<circle fill="#5E5E5E" cx="420.024" cy="330.986" r="2.75"/>
		<path fill="#4D4E4E" d="M420.55,358.346c-12.447,0.023-22.533,10.119-22.533,22.574v177.383c0,2.896,0.566,5.66,1.561,8.205
			c9.537-1.402,16.863-9.594,16.863-19.52V378.744l-0.021-2.258v-3.316c0-2.461,1.996-4.457,4.455-4.457
			c2.463,0,4.457,1.996,4.457,4.457v3.316l-0.021,1.184v169.318c0,10.91,8.844,19.754,19.754,19.754s19.754-8.844,19.754-19.754
			V332.516H420.55V358.346z"/>
		<path d="M418.573,566.873c-0.045-11.398-9.289-20.625-20.695-20.625h-29.407c-11.404,0-20.654,9.227-20.695,20.625H418.573z"/>
		<path d="M493.956,566.873c-0.039-11.398-9.283-20.625-20.695-20.625h-29.4c-11.404,0-20.658,9.227-20.695,20.625H493.956z"/>
		<path fill="#4D4E4E" d="M489.308,325.058v-82.844l-0.002-2.418v-15.049c0-19.593-15.883-35.476-35.477-35.476h-12.615
			l-23.803,88.382v65.583h51.135v-74.944l-0.027-9.499V240.45c0-0.391,0.318-0.705,0.705-0.705c0.391,0,0.705,0.314,0.705,0.705
			v18.343v66.195c0,0,0.076,2.167-1.076,4.303h20.461L489.308,325.058z"/>
		<polygon fill="#5E5E5E" points="444.628,218.487 450.878,225.237 417.419,277.585 438.394,189.271 454.378,215.737 		"/>
		<path fill="#5E5E5E" d="M371.804,324.988v-66.195V240.45c0-0.391,0.316-0.705,0.705-0.705c0.391,0,0.707,0.314,0.707,0.705v18.343
			l-0.014,9.499l-0.002,74.944h50.447v-65.583l-21.416-88.382h-14.309c-19.592,0-35.475,15.883-35.475,35.476v16.66l-0.004,0.807
			v83.7l-0.021,3.377h20.461C371.73,327.155,371.804,324.988,371.804,324.988z"/>
		<polygon fill="#4D4E4E" points="396.419,218.487 390.169,225.237 423.628,277.585 402.248,189.271 386.669,215.737 		"/>
		<circle fill="#4D4E4E" cx="419.024" cy="280.987" r="2.75"/>
		<circle fill="#4D4E4E" cx="419.024" cy="309.487" r="2.75"/>
		<circle fill="#4D4E4E" cx="419.024" cy="337.986" r="2.75"/>
		<g>
			<path fill="#FFDAA2" d="M393.442,148.958c0,4.106-3.33,7.437-7.436,7.437l0,0c-4.107,0-7.439-3.33-7.439-7.437v-6.157
				c0-4.107,3.332-7.437,7.439-7.437l0,0c4.105,0,7.436,3.329,7.436,7.437V148.958z"/>
			<path fill="#FED09E" d="M390.754,147.845c0,2.624-2.125,4.751-4.748,4.751l0,0c-2.625,0-4.754-2.127-4.754-4.751v-3.933
				c0-2.623,2.129-4.75,4.754-4.75l0,0c2.623,0,4.748,2.127,4.748,4.75V147.845z"/>
			<path fill="#E6BE91" d="M463.186,148.958c0,4.106-3.33,7.437-7.438,7.437l0,0c-4.107,0-7.439-3.33-7.439-7.437v-6.157
				c0-4.107,3.332-7.437,7.439-7.437l0,0c4.107,0,7.438,3.329,7.438,7.437V148.958z"/>
			<path fill="#DBB58B" d="M460.498,147.846c0,2.623-2.125,4.75-4.75,4.75l0,0c-2.623,0-4.752-2.127-4.752-4.75v-3.934
				c0-2.623,2.129-4.75,4.752-4.75l0,0c2.625,0,4.75,2.127,4.75,4.75V147.846z"/>
			<path fill="#FFDAA2" d="M420.877,84.972c-20.041,0-36.283,16.246-36.283,36.282v24.189c0,15.39,9.588,28.533,23.111,33.807v14.57
				c0,7.271,5.896,13.17,13.172,13.17c7.271,0,13.167-5.898,13.167-13.17v-14.57c13.523-5.271,23.111-18.415,23.111-33.807v-24.189
				C457.156,101.218,440.914,84.972,420.877,84.972z"/>
			<path fill="#FED09E" d="M457.085,119.076c-0.012-0.219-0.031-0.436-0.049-0.654c-0.039-0.516-0.09-1.029-0.15-1.539
				c-0.027-0.229-0.057-0.457-0.088-0.684c-0.078-0.559-0.17-1.115-0.273-1.668c-0.027-0.145-0.047-0.289-0.078-0.434
				c-0.139-0.699-0.301-1.391-0.479-2.076c-0.033-0.127-0.074-0.253-0.107-0.379c-0.154-0.56-0.318-1.113-0.498-1.662
				c-0.061-0.183-0.123-0.361-0.184-0.543c-0.182-0.524-0.373-1.043-0.578-1.559c-0.057-0.14-0.109-0.282-0.168-0.422
				c-0.545-1.323-1.164-2.606-1.855-3.846c-0.051-0.091-0.105-0.183-0.156-0.274c-0.309-0.539-0.629-1.071-0.963-1.592
				c-0.059-0.091-0.117-0.183-0.174-0.274c-1.193-1.825-2.543-3.539-4.033-5.117c-0.033-0.035-0.064-0.069-0.098-0.102
				c-2.039-2.14-4.332-4.033-6.84-5.627c-0.012-0.008-0.025-0.016-0.037-0.023l-0.91-0.562c-5.414-3.216-11.734-5.068-18.488-5.068
				c-0.119,0-0.236,0.008-0.354,0.009v121.991c0.117,0.003,0.234,0.018,0.354,0.018c7.271,0,13.167-5.898,13.167-13.17v-14.57
				c13.523-5.271,23.111-18.415,23.111-33.807v-24.189C457.157,120.522,457.13,119.798,457.085,119.076z"/>
			<g>
				<path fill="#3C2415" d="M455.727,154.428c-0.148,0.625-0.283,1.187-0.396,1.621
					C455.475,155.511,455.617,154.973,455.727,154.428z"/>
				<path fill="#3C2415" d="M448.121,92.833c0,0,4.902-9.474-3.428-14.176c0,0-52.341-17.537-62.623,26.205
					c0,0-0.67,15.99,1.145,27.076c0,0,1.008,15.118,3.023,23.383c0,0-3.023-16.73,4.031-25.197c0,0,7.055-7.055,3.023-14.513
					c0,0,0.076-0.31,0.246-0.828c20.854-0.448,39.867-8.242,39.867-8.242c-2.822,4.635-24.189,8.465-24.189,8.465
					c32.857-1.209,35.88-12.497,35.88-12.497s6.65,7.257,6.854,14.312c0,0-4.436,6.449,0.201,12.295c0,0,6.016,13.271,3.574,25.313
					c1.055-4.512,3.076-22.49,3.076-22.49S466.463,98.947,448.121,92.833z"/>
				<path fill="#3C2415" d="M455.33,156.049c-0.117,0.43-0.215,0.863-0.355,1.287C454.975,157.336,455.113,156.876,455.33,156.049z"
					/>
			</g>
			<path fill="#3C2415" d="M382.071,104.862c0,0-0.063-25.472,12.187-36.472c0,0-6.5,7,28.75,6.75L382.071,104.862z"/>
		</g>
		<polygon fill="#3C2415" points="427.009,165.091 420.525,167.556 414.041,165.091 		"/>
		<circle fill="#3C2415" cx="405.893" cy="135.364" r="3.225"/>
		<circle fill="#3C2415" cx="435.859" cy="135.364" r="3.226"/>
		<polygon fill="#E6BE91" points="420.525,138.819 420.525,156.355 424.852,153.622 		"/>
	</g>
</g>
</svg>
