<?xml version="1.0" encoding="utf-8"?>
<!-- Generator: Adobe Illustrator 16.0.0, SVG Export Plug-In . SVG Version: 6.00 Build 0)  -->
<!DOCTYPE svg PUBLIC "-//W3C//DTD SVG 1.0//EN" "http://www.w3.org/TR/2001/REC-SVG-20010904/DTD/svg10.dtd">
<svg version="1.0" xmlns="http://www.w3.org/2000/svg" xmlns:xlink="http://www.w3.org/1999/xlink" x="0px" y="0px"
	 width="841.89px" height="595.28px" viewBox="0 0 841.89 595.28" enable-background="new 0 0 841.89 595.28" xml:space="preserve">
<g id="background">
	<g>
		<polygon fill="#FFFFFF" stroke="#D1D3D4" stroke-miterlimit="10" points="256.852,259.667 248.519,308 309.519,364.333 
			325.79,335.589 305.852,284.333 		"/>
		<path fill="#78451C" d="M325.154,566.874v-1.744c0-7.433-6.026-13.459-13.459-13.459h-47.894c-7.433,0-13.459,6.026-13.459,13.459
			v1.744H325.154z"/>
		<rect x="283.916" y="20.604" fill="#78451C" width="7.666" height="533.729"/>
		<circle fill="#78451C" cx="287.75" cy="20.334" r="7.333"/>
		<g>
			<polygon fill="#ED1C24" stroke="#D1D3D4" stroke-miterlimit="10" points="287.749,27.667 263.576,161.28 308.698,197.236 			"/>
			<path fill="#FFFFFF" stroke="#D1D3D4" stroke-miterlimit="10" d="M249.802,269.451l75.988,66.138l-17.092-138.353l-45.122-35.956
				l-17.326,95.77C245.912,259.987,245.802,266.001,249.802,269.451z"/>
		</g>
	</g>
	<g>
		<circle fill="#78451C" cx="557.749" cy="20.334" r="7.333"/>
		<polygon fill="#002045" points="526.852,259.667 518.519,308 579.519,364.333 595.79,335.589 575.851,284.333 		"/>
		<path fill="#78451C" d="M595.153,566.874v-1.744c0-7.433-6.025-13.459-13.459-13.459h-47.893c-7.434,0-13.459,6.026-13.459,13.459
			v1.744H595.153z"/>
		<rect x="553.915" y="20.604" fill="#78451C" width="7.666" height="533.729"/>
		<path fill="#002045" d="M578.697,197.236L557.748,27.667L533.575,161.28l-17.326,95.77c-0.338,2.937-0.447,8.952,3.553,12.401
			l75.988,66.138L578.697,197.236z"/>
		<polygon fill="#FEC022" points="566.594,153.319 571.185,149.983 573.024,151.32 571.735,140.885 571.185,139.19 569.431,144.586 
			563.757,144.586 568.348,147.922 		"/>
		<polygon fill="#FEC022" points="557.848,155.268 559.602,160.665 565.275,160.665 560.685,164 562.438,169.397 557.848,166.062 
			553.257,169.397 555.011,164 550.42,160.665 556.094,160.665 		"/>
		<polygon fill="#FEC022" points="558.685,175.207 560.438,180.603 566.112,180.603 561.521,183.938 563.275,189.335 558.685,186 
			554.094,189.335 555.848,183.938 551.257,180.603 556.931,180.603 		"/>
		<polygon fill="#FEC022" points="568.685,191.707 570.438,197.103 576.112,197.103 571.521,200.438 573.275,205.835 568.685,202.5 
			564.094,205.835 565.848,200.438 561.257,197.103 566.931,197.103 		"/>
	</g>
</g>
<g id="woman">
	<g>
		<g>
			<path fill="#3C2415" d="M463.357,174.957c0,23.599-19.131,42.731-42.732,42.731l0,0c-23.6,0-42.732-19.133-42.732-42.731v-54.826
				c0-23.603,19.133-42.732,42.732-42.732l0,0c23.601,0,42.732,19.13,42.732,42.732V174.957z"/>
			<path fill="#FFDAA2" d="M376.932,546.991c0,10.909,8.844,19.753,19.754,19.753s19.754-8.844,19.754-19.753V447.82h-39.508
				V546.991z"/>
			<path fill="#FED09E" d="M416.44,546.991V447.82h-18.424v110.483c0,2.897,0.566,5.66,1.563,8.205
				C409.114,565.106,416.44,556.915,416.44,546.991z"/>
			<path fill="#FED09E" d="M425.309,447.82v99.171c0,10.909,8.844,19.753,19.754,19.753s19.754-8.844,19.754-19.753V447.82H425.309z
				"/>
			<polygon fill="#282829" points="376.932,332.524 376.932,447.82 416.44,447.82 425.309,447.82 464.816,447.82 464.816,332.524 
							"/>
			<path fill="#FFFFFF" d="M371.805,324.997v-66.195v-18.343c0-0.391,0.316-0.705,0.705-0.705c0.391,0,0.707,0.314,0.707,0.705
				v18.343l-0.014,9.499l-0.002,55.932c0,6.739,5.463,12.204,12.203,12.204h70.939c6.74,0,12.203-5.465,12.203-12.204v-55.932
				l-0.027-9.499v-18.343c0-0.391,0.318-0.705,0.705-0.705c0.391,0,0.705,0.314,0.705,0.705v18.343v66.195
				c0,0,0.076,2.167-1.076,4.303h20.461l-0.006-4.233v-82.844l-0.002-2.418v-15.049c0-19.593-15.883-35.476-35.477-35.476h-65.906
				c-19.592,0-35.475,15.883-35.475,35.476v16.66l-0.004,0.807v83.7l-0.021,3.377h20.461
				C371.731,327.164,371.805,324.997,371.805,324.997z"/>
			<line fill="none" stroke="#000000" stroke-miterlimit="10" x1="365.125" y1="368.583" x2="365.125" y2="368.583"/>
			<path fill="#FED09E" d="M468.318,330.156c0,0-0.729,1.427-0.918,1.871c-0.607,1.423-0.9,3.007-0.9,4.651v2.252l-0.016,7.902
				v10.569c0,1.55,1.254,2.806,2.803,2.806c1.551,0,2.807-1.256,2.807-2.806v-10.569v-2.602c0-0.564,0.453-1.018,1.014-1.018
				c0.564,0,1.018,0.453,1.018,1.018v23.076c1.475,0.617,3.096,0.96,4.793,0.96c6.861,0,12.42-5.559,12.42-12.418v-19.171
				c0-1.6-0.303-3.128-0.854-4.532c-0.313-0.8-0.705-1.556-1.17-2.265V329.3h-20.461
				C468.695,329.586,468.523,329.873,468.318,330.156z"/>
			<path fill="#FFDAA2" d="M351.252,332.146c-0.551,1.404-0.854,2.933-0.854,4.532v19.171c0,6.859,5.559,12.418,12.418,12.418
				c1.701,0,3.32-0.343,4.793-0.96v-23.076c0-0.564,0.455-1.018,1.018-1.018c0.561,0,1.018,0.453,1.018,1.018l-0.004,2.602v10.569
				c0,1.55,1.258,2.806,2.807,2.806c1.551,0,2.807-1.256,2.807-2.806v-10.569l-0.02-7.902v-2.252c0-1.645-0.289-3.229-0.9-4.651
				c-0.189-0.444-0.916-1.871-0.916-1.871c-0.205-0.283-0.379-0.57-0.533-0.856h-20.461l-0.004,0.582
				C351.958,330.591,351.565,331.347,351.252,332.146z"/>
			<path d="M473.26,546.251h-8.781c0.021,0.312,0.047,0.624,0.047,0.941v1.411c0,7.124-5.775,12.9-12.9,12.9h-13.504
				c-4.777,0-8.941-2.607-11.172-6.469c-2.365,3.351-3.77,7.43-3.785,11.839h70.791C493.914,555.476,484.67,546.251,473.26,546.251z
				"/>
			<path d="M368.471,546.251h8.779c-0.021,0.312-0.047,0.624-0.047,0.941v1.411c0,7.124,5.777,12.9,12.9,12.9h13.506
				c4.779,0,8.941-2.607,11.17-6.469c2.365,3.351,3.773,7.43,3.789,11.839h-70.793C347.817,555.476,357.063,546.251,368.471,546.251
				z"/>
			<path fill="#FFDAA2" d="M393.442,148.986c0,4.106-3.328,7.436-7.436,7.436l0,0c-4.107,0-7.439-3.329-7.439-7.436v-6.158
				c0-4.106,3.332-7.436,7.439-7.436l0,0c4.107,0,7.436,3.329,7.436,7.436V148.986z"/>
			<path fill="#FED09E" d="M390.756,147.871c0,2.623-2.127,4.752-4.75,4.752l0,0c-2.623,0-4.752-2.129-4.752-4.752v-3.931
				c0-2.624,2.129-4.749,4.752-4.749l0,0c2.623,0,4.75,2.125,4.75,4.749V147.871z"/>
			<path fill="#E6BE91" d="M463.184,148.986c0,4.106-3.328,7.436-7.436,7.436l0,0c-4.107,0-7.439-3.329-7.439-7.436v-6.158
				c0-4.106,3.332-7.436,7.439-7.436l0,0c4.107,0,7.436,3.329,7.436,7.436V148.986z"/>
			<path fill="#DBB58B" d="M460.498,147.874c0,2.62-2.127,4.749-4.75,4.749l0,0c-2.623,0-4.752-2.129-4.752-4.749v-3.934
				c0-2.624,2.129-4.749,4.752-4.749l0,0c2.623,0,4.75,2.125,4.75,4.749V147.874z"/>
			<polygon points="420.532,447.82 425.309,447.82 464.816,447.82 464.816,332.524 420.532,332.524 			"/>
			<path fill="#F1F2F2" d="M489.309,242.223l-0.002-2.418v-15.049c0-19.593-15.883-35.476-35.477-35.476h-33.3v147.156h35.814
				c6.74,0,12.203-5.465,12.203-12.204v-55.932l-0.029-9.499l0.002-18.343c0-0.391,0.318-0.705,0.705-0.705
				c0.391,0,0.705,0.314,0.705,0.705v18.343v66.195c0,0,0.076,2.167-1.076,4.303h20.461l-0.006-4.233V242.223z"/>
			<path fill="#FFDAA2" d="M420.877,85.001c-20.039,0-36.281,16.245-36.281,36.282v24.188c0,15.389,9.586,28.531,23.111,33.807
				v14.57c0,7.271,5.895,13.168,13.17,13.168c7.271,0,13.167-5.896,13.167-13.168v-14.57c13.523-5.271,23.111-18.415,23.111-33.807
				v-24.188C457.156,101.246,440.914,85.001,420.877,85.001z"/>
			<path fill="#FED09E" d="M420.527,206.999c0.115,0.003,0.232,0.017,0.352,0.017c7.271,0,13.167-5.896,13.167-13.168v-14.57
				c13.523-5.271,23.111-18.415,23.111-33.807v-24.188c0-12.891-6.727-24.204-16.855-30.639h-19.775V206.999z"/>
			<path fill="#3C2415" d="M409.118,135.393c0,1.779-1.445,3.223-3.225,3.223c-1.783,0-3.227-1.443-3.227-3.223
				c0-1.783,1.443-3.225,3.227-3.225C407.672,132.168,409.118,133.609,409.118,135.393z"/>
			<path fill="#3C2415" d="M439.084,135.393c0,1.779-1.445,3.223-3.225,3.223c-1.783,0-3.225-1.443-3.225-3.223
				c0-1.783,1.441-3.225,3.225-3.225C437.639,132.168,439.084,133.609,439.084,135.393z"/>
			<polygon fill="#E6BE91" points="420.526,138.819 420.526,156.355 424.852,153.622 			"/>
			<polygon fill="#ED1C24" points="427.01,165.099 420.526,167.564 414.04,165.099 			"/>
			<path fill="#3C2415" d="M411.766,127.179c0,0.473-0.385,0.856-0.857,0.856h-10.48c-0.473,0-0.857-0.384-0.857-0.856l0,0
				c0-0.472,0.385-0.856,0.857-0.856h10.48C411.381,126.322,411.766,126.707,411.766,127.179L411.766,127.179z"/>
			<path fill="#3C2415" d="M441.799,127.179c0,0.473-0.385,0.856-0.855,0.856h-10.482c-0.473,0-0.857-0.384-0.857-0.856l0,0
				c0-0.472,0.385-0.856,0.857-0.856h10.482C441.414,126.322,441.799,126.707,441.799,127.179L441.799,127.179z"/>
			<path fill="#3C2415" d="M444.813,105.416c0,0-7.256,14.715-33.056,14.715c0,0,18.343-5.241,23.382-13.908
				c0,0-19.351,11.69-35.476,13.706c0,0-14.414-2.136-13.656,32.694c0,0,1.16-17.98-3.678-17.576l0.807-29.026l23.783-22.979
				l22.978-0.403l24.189,16.125l6.047,34.871c0,0-3.225,3.629-3.225,14.312c0,0-2.822-19.753-2.822-28.823
				C454.086,119.123,453.682,107.633,444.813,105.416z"/>
			<path fill="#FED09E" d="M469.93,319.953v5.044c0,0,0.076,2.167-1.076,4.303h20.461l-0.006-4.233v-5.113H469.93z"/>
			<path fill="#FFDAA2" d="M371.805,324.997v-45.044h-19.359v45.97l-0.021,3.377h20.461
				C371.731,327.164,371.805,324.997,371.805,324.997z"/>
			<path fill="#A76027" d="M468.547,343.334v-75.033l-0.029-9.499l0.002-18.343c0-0.391,0.318-0.705,0.705-0.705
				c0.391,0,0.705,0.314,0.705,0.705v18.343v66.195c0,0,0.076,2.167-1.076,4.303h20.461l-0.006-4.233v-82.844l-0.002-2.418v-15.049
				c0-19.593-15.883-35.476-35.477-35.476l-17.923-0.03l-15.377,93.083v61H468.547z"/>
			<path fill="#C06D29" d="M371.799,324.997v-66.195v-18.343c0-0.391,0.314-0.705,0.705-0.705c0.387,0,0.705,0.314,0.705,0.705
				l0.002,18.343l-0.029,9.499v75.033H421.2v-61l-15.378-93.083l-17.923,0.03c-19.594,0-35.477,15.883-35.477,35.476v15.049
				l-0.002,2.418v82.844l-0.006,4.233h20.461C371.723,327.164,371.799,324.997,371.799,324.997z"/>
			<polygon fill="#FFDAA2" points="435.032,194.803 420.527,232.195 407.021,194.803 			"/>
			<polygon fill="#FED09E" points="433.032,209.375 420.527,232.375 420.527,189.25 434.026,189.25 			"/>
			<polygon fill="#6C3E16" points="420.658,281.5 443.99,239 431.324,225.5 449.657,224 443.324,214.167 431.324,222.5 			"/>
			<polygon fill="#78451C" points="420.534,282.333 443.407,236.25 432.657,224.333 450.407,222.75 436.657,189.667 434.026,189.25 
				434.657,195 			"/>
			<polygon fill="#78451C" points="421.072,281.5 397.739,239 410.405,225.5 392.072,224 398.405,214.167 410.405,222.5 			"/>
			<polygon fill="#905322" points="421.196,282.333 398.322,236.25 409.072,224.333 391.322,222.75 405.072,189.667 407.703,189.25 
				407.072,195 			"/>
			<polygon fill="#E6E7E8" points="454.401,213.688 440.422,206.75 421.22,232.195 437.964,199.75 			"/>
			<polygon fill="#F1F2F2" points="434.058,183.032 454.464,213.75 439.964,204.25 421.392,232.25 434.058,195.365 			"/>
			<polygon fill="#E6E7E8" points="387.345,213.688 401.325,206.75 420.527,232.195 403.783,199.75 			"/>
			<polygon fill="#F1F2F2" points="407.689,183.032 387.283,213.75 401.783,204.25 420.355,232.25 407.689,195.365 			"/>
		</g>
	</g>
</g>
</svg>
