<?xml version="1.0" encoding="utf-8"?>
<!-- Generator: Adobe Illustrator 16.0.0, SVG Export Plug-In . SVG Version: 6.00 Build 0)  -->
<!DOCTYPE svg PUBLIC "-//W3C//DTD SVG 1.0//EN" "http://www.w3.org/TR/2001/REC-SVG-20010904/DTD/svg10.dtd">
<svg version="1.0" xmlns="http://www.w3.org/2000/svg" xmlns:xlink="http://www.w3.org/1999/xlink" x="0px" y="0px"
	 width="841.89px" height="595.28px" viewBox="0 0 841.89 595.28" enable-background="new 0 0 841.89 595.28" xml:space="preserve">
<g id="background">
	<g>
		<g>
			<circle fill="#F1F2F2" cx="417.106" cy="40.667" r="44.667"/>
			<path fill="#F7CB1A" d="M433.901,32.708c0-9.297-7.536-16.833-16.833-16.833c-9.297,0-16.833,7.537-16.833,16.833
				c0,5.047,2.232,9.563,5.75,12.648l-0.083,0.019c0,0,5.167,4.5,5.167,9.333h6.271h1.396h4.271c0-4.833,5.166-9.333,5.166-9.333
				l-0.031-0.008C431.664,42.281,433.901,37.761,433.901,32.708z"/>
			<path fill="#4D4E4E" d="M424.256,58.958c0,0.69-0.561,1.25-1.25,1.25H411.13c-0.69,0-1.25-0.56-1.25-1.25l0,0
				c0-0.69,0.56-1.25,1.25-1.25h11.875C423.695,57.708,424.256,58.268,424.256,58.958L424.256,58.958z"/>
			<path fill="#4D4E4E" d="M424.256,61.958c0,0.69-0.561,1.25-1.25,1.25H411.13c-0.69,0-1.25-0.56-1.25-1.25l0,0
				c0-0.69,0.56-1.25,1.25-1.25h11.875C423.695,60.708,424.256,61.268,424.256,61.958L424.256,61.958z"/>
			<path fill="#4D4E4E" d="M414.63,65.458h4.875c0.897,0,1.625-0.728,1.625-1.625h-8.125
				C413.005,64.731,413.733,65.458,414.63,65.458z"/>
			<g>
				<path fill="none" stroke="#FFFFFF" stroke-width="2" stroke-miterlimit="10" d="M413.809,55.5c0,0,0.5-8.333-3.833-16.333"/>
				<path fill="none" stroke="#FFFFFF" stroke-width="2" stroke-miterlimit="10" d="M420.327,55.5c0,0-0.5-8.333,3.833-16.333"/>
			</g>
			<path fill="none" stroke="#FFFFFF" stroke-width="2" stroke-miterlimit="10" d="M410.271,41.25c0,0,1.833-1.542,3.75-0.25
				c0,0,2.584-1.625,4.792,0.125c0,0,2.792-2.125,5.125,0.042"/>
			<path fill="#4D4E4E" d="M424.256,55.958c0,0.69-0.561,1.25-1.25,1.25H411.13c-0.69,0-1.25-0.56-1.25-1.25l0,0
				c0-0.69,0.56-1.25,1.25-1.25h11.875C423.695,54.708,424.256,55.268,424.256,55.958L424.256,55.958z"/>
		</g>
		<circle fill="#F1F2F2" cx="324.451" cy="156.333" r="32.667"/>
		<circle fill="#F1F2F2" cx="330.206" cy="82.697" r="27.667"/>
		<circle fill="#F1F2F2" cx="495.078" cy="81.692" r="33.666"/>
		<g>
			<circle fill="#F1F2F2" cx="514.105" cy="156.333" r="36"/>
			<path fill="#4D4E4E" d="M536.855,158.795v-4.925l-4.812-0.825c-0.472-2.592-1.483-4.993-2.927-7.079l2.816-3.98l-3.482-3.482
				l-3.98,2.815c-2.086-1.443-4.486-2.454-7.079-2.926l-0.824-4.811h-4.925l-0.825,4.811c-2.591,0.473-4.992,1.484-7.077,2.927
				l-3.981-2.816l-3.482,3.482l2.816,3.981c-1.442,2.086-2.454,4.486-2.926,7.078l-4.813,0.825v4.925l4.813,0.825
				c0.472,2.592,1.483,4.992,2.926,7.078l-2.816,3.981l3.482,3.482l3.981-2.816c2.085,1.443,4.486,2.454,7.077,2.927l0.825,4.812
				h4.925l0.825-4.812c2.592-0.472,4.992-1.483,7.078-2.926l3.979,2.816l3.482-3.482l-2.815-3.98
				c1.443-2.086,2.455-4.486,2.927-7.079L536.855,158.795z M514.105,166.083c-5.385,0-9.75-4.365-9.75-9.75s4.365-9.75,9.75-9.75
				s9.75,4.365,9.75,9.75S519.49,166.083,514.105,166.083z"/>
		</g>
		<path fill="#148ECE" d="M343.889,162.396c0-4.111-2.548-7.621-6.147-9.055c0.012-0.147,0.022-0.295,0.022-0.445
			c0-3.107-2.518-5.625-5.625-5.625c-0.279,0-0.55,0.027-0.818,0.066c-0.832-3.895-4.289-6.816-8.432-6.816
			c-4.764,0-8.625,3.861-8.625,8.625c0,0.191,0.017,0.379,0.029,0.567c-5.276,0.959-9.279,5.567-9.279,11.12
			c0,6.016,4.699,10.921,10.625,11.278v0.034h0.678c0.003,0,0.006,0,0.01,0s0.006,0,0.01,0h17.793c0.003,0,0.006,0,0.01,0
			s0.006,0,0.01,0h0.74v-0.038C339.922,171.724,343.889,167.528,343.889,162.396z"/>
		<g>
			<g>
				<path fill="#81C7E8" d="M342.536,81.81l3.843-3.843c-4.144-4.144-9.864-6.71-16.173-6.71s-12.029,2.566-16.173,6.71l3.843,3.843
					c3.159-3.159,7.521-5.115,12.33-5.115C335.015,76.694,339.376,78.651,342.536,81.81z"/>
				<path fill="#81C7E8" d="M318.943,82.877l3.843,3.843c1.9-1.901,4.525-3.078,7.42-3.078c2.894,0,5.519,1.177,7.42,3.078
					l3.843-3.843c-2.886-2.886-6.87-4.673-11.263-4.673C325.813,78.204,321.828,79.991,318.943,82.877z"/>
				<path fill="#81C7E8" d="M330.206,85.15c-2.482,0-4.729,1.006-6.356,2.634l6.354,6.354h0.004l6.354-6.354
					C334.936,86.156,332.688,85.15,330.206,85.15z"/>
			</g>
		</g>
		<g>
			<path fill="#4D4E4E" d="M505.225,96.763c0,1.319-1.068,2.388-2.387,2.388h-15.52c-1.318,0-2.387-1.069-2.387-2.388V66.622
				c0-1.319,1.068-2.388,2.387-2.388h15.52c1.318,0,2.387,1.069,2.387,2.388V96.763z"/>
			<rect x="486.274" y="66.771" fill="#BBDBA2" width="17.607" height="27.705"/>
			<circle fill="#FFFFFF" cx="495.078" cy="96.788" r="1.492"/>
			<polygon fill="#ACD38D" points="503.882,72.078 486.274,89.686 486.274,94.476 503.882,94.476 			"/>
		</g>
	</g>
</g>
<g id="woman">
	<g>
		<path fill="#3C2415" d="M463.438,196.957c0,23.599-19.131,42.731-42.733,42.731l0,0c-23.6,0-42.732-19.133-42.732-42.731v-54.826
			c0-23.603,19.133-42.732,42.732-42.732l0,0c23.602,0,42.733,19.13,42.733,42.732V196.957z"/>
		<path fill="#FFDAA2" d="M377.011,568.991c0,10.909,8.844,19.753,19.754,19.753s19.754-8.844,19.754-19.753V469.82h-39.508V568.991
			z"/>
		<path fill="#FED09E" d="M416.519,568.991V469.82h-18.424v110.483c0,2.897,0.566,5.66,1.563,8.205
			C409.193,587.106,416.519,578.915,416.519,568.991z"/>
		<path fill="#FED09E" d="M425.389,469.82v99.171c0,10.909,8.844,19.753,19.754,19.753s19.754-8.844,19.754-19.753V469.82H425.389z"
			/>
		<polygon fill="#282829" points="377.011,354.524 377.011,469.82 416.519,469.82 425.389,469.82 464.896,469.82 464.896,354.524 		
			"/>
		<path fill="#FFFFFF" d="M371.884,346.997v-66.195v-18.343c0-0.391,0.316-0.705,0.705-0.705c0.391,0,0.707,0.314,0.707,0.705
			v18.343l-0.014,9.499l-0.002,55.932c0,6.739,5.463,12.204,12.203,12.204h70.94c6.74,0,12.203-5.465,12.203-12.204v-55.932
			l-0.027-9.499v-18.343c0-0.391,0.318-0.705,0.705-0.705c0.391,0,0.705,0.314,0.705,0.705v18.343v66.195
			c0,0,0.076,2.167-1.076,4.303h20.461l-0.006-4.233v-82.844l-0.002-2.418v-15.049c0-19.593-15.883-35.476-35.477-35.476h-65.907
			c-19.592,0-35.475,15.883-35.475,35.476v16.66l-0.004,0.807v83.7l-0.021,3.377h20.461
			C371.81,349.164,371.884,346.997,371.884,346.997z"/>
		<line fill="none" stroke="#000000" stroke-miterlimit="10" x1="365.205" y1="390.583" x2="365.205" y2="390.583"/>
		<path fill="#FED09E" d="M468.398,352.156c0,0-0.729,1.427-0.918,1.871c-0.607,1.423-0.9,3.007-0.9,4.651v2.252l-0.016,7.902
			v10.569c0,1.55,1.254,2.806,2.803,2.806c1.551,0,2.807-1.256,2.807-2.806v-10.569v-2.602c0-0.564,0.453-1.018,1.014-1.018
			c0.564,0,1.018,0.453,1.018,1.018v23.076c1.475,0.617,3.096,0.96,4.793,0.96c6.861,0,12.42-5.559,12.42-12.418v-19.171
			c0-1.6-0.303-3.128-0.854-4.532c-0.313-0.8-0.705-1.556-1.17-2.265V351.3h-20.461
			C468.775,351.586,468.604,351.873,468.398,352.156z"/>
		<path fill="#FFDAA2" d="M351.332,354.146c-0.551,1.404-0.854,2.933-0.854,4.532v19.171c0,6.859,5.559,12.418,12.418,12.418
			c1.701,0,3.32-0.343,4.793-0.96v-23.076c0-0.564,0.455-1.018,1.018-1.018c0.561,0,1.018,0.453,1.018,1.018l-0.004,2.602v10.569
			c0,1.55,1.258,2.806,2.807,2.806c1.551,0,2.807-1.256,2.807-2.806v-10.569l-0.02-7.902v-2.252c0-1.645-0.289-3.229-0.9-4.651
			c-0.189-0.444-0.916-1.871-0.916-1.871c-0.205-0.283-0.379-0.57-0.533-0.856h-20.461l-0.004,0.582
			C352.037,352.591,351.644,353.347,351.332,354.146z"/>
		<path d="M473.34,568.251h-8.781c0.021,0.312,0.047,0.624,0.047,0.941v1.411c0,7.124-5.775,12.9-12.9,12.9h-13.504
			c-4.777,0-8.941-2.607-11.172-6.469c-2.365,3.351-3.77,7.43-3.785,11.839h70.791C493.994,577.476,484.75,568.251,473.34,568.251z"
			/>
		<path d="M368.55,568.251h8.779c-0.021,0.312-0.047,0.624-0.047,0.941v1.411c0,7.124,5.777,12.9,12.9,12.9h13.506
			c4.779,0,8.941-2.607,11.17-6.469c2.365,3.351,3.773,7.43,3.789,11.839h-70.793C347.896,577.476,357.142,568.251,368.55,568.251z"
			/>
		<path fill="#FFDAA2" d="M393.521,170.986c0,4.106-3.328,7.436-7.436,7.436l0,0c-4.107,0-7.439-3.329-7.439-7.436v-6.158
			c0-4.106,3.332-7.436,7.439-7.436l0,0c4.107,0,7.436,3.329,7.436,7.436V170.986z"/>
		<path fill="#FED09E" d="M390.835,169.871c0,2.623-2.127,4.752-4.75,4.752l0,0c-2.623,0-4.752-2.129-4.752-4.752v-3.931
			c0-2.624,2.129-4.749,4.752-4.749l0,0c2.623,0,4.75,2.125,4.75,4.749V169.871z"/>
		<path fill="#E6BE91" d="M463.264,170.986c0,4.106-3.328,7.436-7.436,7.436l0,0c-4.107,0-7.439-3.329-7.439-7.436v-6.158
			c0-4.106,3.332-7.436,7.439-7.436l0,0c4.107,0,7.436,3.329,7.436,7.436V170.986z"/>
		<path fill="#DBB58B" d="M460.578,169.874c0,2.62-2.127,4.749-4.75,4.749l0,0c-2.623,0-4.752-2.129-4.752-4.749v-3.934
			c0-2.624,2.129-4.749,4.752-4.749l0,0c2.623,0,4.75,2.125,4.75,4.749V169.874z"/>
		<polygon points="420.611,469.82 425.389,469.82 464.896,469.82 464.896,354.524 420.611,354.524 		"/>
		<path fill="#F1F2F2" d="M489.389,264.223l-0.002-2.418v-15.049c0-19.593-15.883-35.476-35.477-35.476h-33.301v147.156h35.815
			c6.74,0,12.203-5.465,12.203-12.204v-55.932l-0.029-9.499l0.002-18.343c0-0.391,0.318-0.705,0.705-0.705
			c0.391,0,0.705,0.314,0.705,0.705v18.343v66.195c0,0,0.076,2.167-1.076,4.303h20.461l-0.006-4.233V264.223z"/>
		<path fill="#E6BE91" d="M403.944,211.28v4.233c0,9.203,7.463,16.664,16.666,16.664c9.203,0,16.66-7.461,16.66-16.664v-4.233
			H403.944z"/>
		<path fill="#E6BE91" d="M403.944,211.28v4.233c0,9.203,7.463,16.664,16.666,16.664c9.203,0,16.66-7.461,16.66-16.664v-4.233
			H403.944z"/>
		<path fill="#FFDAA2" d="M420.957,107.001c-20.039,0-36.281,16.245-36.281,36.282v24.188c0,15.389,9.586,28.531,23.111,33.807
			v14.57c0,7.271,5.895,13.168,13.17,13.168c7.272,0,13.168-5.896,13.168-13.168v-14.57c13.523-5.271,23.111-18.415,23.111-33.807
			v-24.188C457.236,123.246,440.994,107.001,420.957,107.001z"/>
		<path fill="#FED09E" d="M420.607,228.999c0.115,0.003,0.232,0.017,0.352,0.017c7.272,0,13.168-5.896,13.168-13.168v-14.57
			c13.523-5.271,23.111-18.415,23.111-33.807v-24.188c0-12.891-6.727-24.204-16.855-30.639h-19.776V228.999z"/>
		<path fill="#3C2415" d="M409.197,157.393c0,1.779-1.445,3.223-3.225,3.223c-1.783,0-3.227-1.443-3.227-3.223
			c0-1.783,1.443-3.225,3.227-3.225C407.751,154.168,409.197,155.609,409.197,157.393z"/>
		<path fill="#3C2415" d="M439.164,157.393c0,1.779-1.445,3.223-3.225,3.223c-1.783,0-3.225-1.443-3.225-3.223
			c0-1.783,1.441-3.225,3.225-3.225C437.719,154.168,439.164,155.609,439.164,157.393z"/>
		<polygon fill="#E6BE91" points="420.605,160.819 420.605,178.355 424.932,175.622 		"/>
		<polygon fill="#ED1C24" points="427.09,187.099 420.605,189.564 414.119,187.099 		"/>
		<path fill="#3C2415" d="M411.845,149.179c0,0.473-0.385,0.856-0.857,0.856h-10.48c-0.473,0-0.857-0.384-0.857-0.856l0,0
			c0-0.472,0.385-0.856,0.857-0.856h10.48C411.46,148.322,411.845,148.707,411.845,149.179L411.845,149.179z"/>
		<path fill="#3C2415" d="M441.879,149.179c0,0.473-0.385,0.856-0.855,0.856h-10.482c-0.473,0-0.857-0.384-0.857-0.856l0,0
			c0-0.472,0.385-0.856,0.857-0.856h10.482C441.494,148.322,441.879,148.707,441.879,149.179L441.879,149.179z"/>
		<path fill="#3C2415" d="M444.893,127.416c0,0-7.256,14.715-33.057,14.715c0,0,18.344-5.241,23.383-13.908
			c0,0-19.352,11.69-35.477,13.706c0,0-14.414-2.136-13.656,32.694c0,0,1.16-17.98-3.678-17.576l0.807-29.026l23.783-22.979
			l22.979-0.403l24.189,16.125l6.047,34.871c0,0-3.225,3.629-3.225,14.312c0,0-2.822-19.753-2.822-28.823
			C454.166,141.123,453.762,129.633,444.893,127.416z"/>
		<path fill="#FED09E" d="M470.01,324.453v14.488c0,0,0.076,6.224-1.076,12.358h20.461l-0.006-12.159v-14.688H470.01z"/>
		<path fill="#FFDAA2" d="M371.884,346.997v-45.044h-19.359v45.97l-0.021,3.377h20.461
			C371.81,349.164,371.884,346.997,371.884,346.997z"/>
		<g>
			<path fill="#EF8822" d="M469.314,261.754c0.389,0,0.705,0.314,0.705,0.705v18.343V326h19.359v-61.777l-0.004-0.807v-16.66
				c0-19.593-15.883-35.476-35.475-35.476h-12.104v4.22c0,9.789-6.867,17.962-16.043,20l11.123,135.937h19.543
				c6.74,0,12.203-5.465,12.203-12.204l-0.002-68.932l-0.014-9.499v-18.343C468.607,262.068,468.924,261.754,469.314,261.754z"/>
		</g>
		<g>
			<path fill="#F29320" d="M400.107,215.5v-4.22h-12.104c-19.592,0-35.475,15.883-35.475,35.476v16.66l-0.004,0.807V326h19.359
				v-45.198v-18.343c0-0.391,0.316-0.705,0.705-0.705c0.391,0,0.707,0.314,0.707,0.705v18.343l-0.014,9.499l-0.002,68.932
				c0,6.739,5.463,12.204,12.203,12.204h19.542L416.149,235.5C406.973,233.462,400.107,225.289,400.107,215.5z"/>
		</g>
	</g>
</g>
</svg>
