<?xml version="1.0" encoding="utf-8"?>
<!-- Generator: Adobe Illustrator 16.0.0, SVG Export Plug-In . SVG Version: 6.00 Build 0)  -->
<!DOCTYPE svg PUBLIC "-//W3C//DTD SVG 1.0//EN" "http://www.w3.org/TR/2001/REC-SVG-20010904/DTD/svg10.dtd">
<svg version="1.0" id="woman" xmlns="http://www.w3.org/2000/svg" xmlns:xlink="http://www.w3.org/1999/xlink" x="0px" y="0px"
	 width="841.89px" height="595.28px" viewBox="0 0 841.89 595.28" enable-background="new 0 0 841.89 595.28" xml:space="preserve">
<g>
	<path fill="#3C2415" d="M463.458,154.963c0,23.599-19.13,42.731-42.73,42.731l0,0c-23.6,0-42.732-19.133-42.732-42.731v-54.826
		c0-23.603,19.133-42.731,42.732-42.731l0,0c23.601,0,42.73,19.129,42.73,42.731V154.963z"/>
	<path fill="#FFDAA2" d="M351.33,312.141c-0.551,1.404-0.854,2.934-0.854,4.532v19.173c0,6.857,5.559,12.418,12.418,12.418
		c1.701,0,3.32-0.343,4.793-0.962v-23.076c0-0.563,0.455-1.017,1.018-1.017c0.561,0,1.018,0.454,1.018,1.017l-0.004,2.601v10.572
		c0,1.549,1.258,2.805,2.807,2.805c1.551,0,2.807-1.256,2.807-2.805v-10.572l-0.02-7.901v-2.252c0-1.645-0.289-3.228-0.9-4.65
		c-0.189-0.446-0.916-1.873-0.916-1.873c-0.205-0.281-0.379-0.568-0.533-0.856h-20.461l-0.004,0.584
		C352.035,310.584,351.641,311.342,351.33,312.141z"/>
	<g>
		<path fill="#5E5E5E" d="M377.012,312.519h87.884v214.471c0,10.91-8.844,19.754-19.754,19.754l0,0
			c-10.91,0-19.754-8.844-19.754-19.754V357.67l0.021-1.183v-3.316c0-2.461-1.994-4.457-4.456-4.457l0,0
			c-2.459,0-4.457,1.996-4.457,4.457v3.316l0.023,2.259v168.243c0,10.91-8.844,19.754-19.754,19.754l0,0
			c-10.91,0-19.754-8.844-19.754-19.754V312.519"/>
	</g>
	<path fill="#4D4E4E" d="M420.629,338.346c-12.447,0.024-22.535,10.121-22.535,22.575v177.382c0,2.897,0.566,5.66,1.563,8.206
		c9.537-1.403,16.863-9.595,16.863-19.52V358.746l-0.023-2.259v-3.316c0-2.461,1.998-4.457,4.457-4.457
		c2.462,0,4.456,1.996,4.456,4.457v3.316l-0.021,1.183v169.319c0,10.91,8.844,19.754,19.754,19.754s19.754-8.844,19.754-19.754
		V312.519h-44.267V338.346z"/>
	<path fill="#FFFFFF" d="M371.883,304.992v-66.199v-18.342c0-0.391,0.316-0.706,0.707-0.706c0.389,0,0.705,0.315,0.705,0.706v18.342
		l-0.016,9.5v55.935c0,6.739,5.463,12.204,12.203,12.204h70.94c6.74,0,12.205-5.465,12.205-12.204v-55.935l-0.029-9.5v-18.342
		c0-0.391,0.318-0.706,0.705-0.706c0.391,0,0.705,0.315,0.705,0.706v18.342v66.199c0,0,0.076,2.165-1.076,4.301h20.463l-0.006-4.232
		v-82.846l-0.004-2.42v-15.048c0-19.593-15.883-35.477-35.477-35.477h-65.907c-19.592,0-35.477,15.884-35.477,35.477v16.661
		l-0.002,0.807v83.702l-0.021,3.376h20.461C371.809,307.157,371.883,304.992,371.883,304.992z"/>
	<path fill="#F1F2F2" d="M489.39,222.215l-0.004-2.42v-15.048c0-19.593-15.883-35.477-35.477-35.477h-33.28v147.161h35.794
		c6.74,0,12.205-5.465,12.205-12.204v-55.935l-0.029-9.5v-18.342c0-0.391,0.318-0.706,0.705-0.706c0.391,0,0.705,0.315,0.705,0.706
		v18.342v66.199c0,0,0.076,2.165-1.076,4.301h20.463l-0.006-4.232V222.215z"/>
	<path d="M494.034,546.874c-0.041-11.398-9.285-20.625-20.695-20.625h-29.4c-11.404,0-20.658,9.227-20.697,20.625H494.034z"/>
	<path fill="#414042" d="M418.65,546.874c-0.043-11.398-9.287-20.625-20.695-20.625h-29.404c-11.404,0-20.654,9.227-20.695,20.625
		H418.65z"/>
	<path fill="#FED09E" d="M468.397,310.149c0,0-0.729,1.427-0.916,1.873c-0.609,1.423-0.902,3.006-0.902,4.65v2.252l-0.016,7.901
		v10.572c0,1.549,1.254,2.805,2.803,2.805c1.551,0,2.807-1.256,2.807-2.805v-10.572v-2.601c0-0.563,0.455-1.017,1.016-1.017
		c0.563,0,1.016,0.454,1.016,1.017v23.076c1.475,0.619,3.098,0.962,4.795,0.962c6.859,0,12.418-5.561,12.418-12.418v-19.173
		c0-1.599-0.303-3.128-0.854-4.532c-0.313-0.799-0.705-1.557-1.168-2.264v-0.584h-20.463
		C468.774,309.581,468.603,309.868,468.397,310.149z"/>
	<path fill="#282829" d="M489.386,219.795v-15.048c0-19.593-15.883-35.477-35.477-35.477h-65.907
		c-19.592,0-35.477,15.884-35.477,35.477v16.661l-0.002,0.807v75.45h19.359v-58.872v-18.342c0-0.391,0.316-0.706,0.707-0.706
		c0.389,0,0.705,0.315,0.705,0.706v18.342l-0.016,9.5v59.372h0.001l-0.001,0.628v165.935h95.349V308.293l-0.002-0.628h0.002v-59.372
		l-0.029-9.5v-18.342c0-0.391,0.318-0.706,0.705-0.706c0.391,0,0.705,0.315,0.705,0.706v18.342v58.872h19.381v-75.45
		L489.386,219.795z"/>
	<path fill="#FFFFFF" d="M403.967,169.27v4.232c0,9.203,7.459,16.664,16.662,16.664c9.202,0,16.661-7.461,16.661-16.664v-4.232
		H403.967z"/>
	<path d="M489.386,204.747c0-19.593-15.883-35.477-35.477-35.477h-33.727v304.957h48.445V308.293l-0.002-0.628h0.002v-59.372
		l-0.029-9.5v-18.342c0-0.391,0.318-0.706,0.705-0.706c0.391,0,0.705,0.315,0.705,0.706v18.342v58.872h19.381v-75.45l-0.004-2.42
		V204.747z"/>
	<path fill="#F1F2F2" d="M420.183,190.144c0.149,0.004,0.296,0.022,0.446,0.022c9.202,0,16.661-7.461,16.661-16.664v-4.232h-17.107
		V190.144z"/>
	<polygon fill="#FFFFFF" points="444.933,270.25 395.433,270.25 410.433,187 429.933,187 	"/>
	<polygon fill="#F1F2F2" points="420.183,270.25 444.933,270.25 429.933,187 420.183,187 	"/>
	<path fill="#FFDAA2" d="M420.978,64.991c-20.041,0-36.283,16.246-36.283,36.283v24.189c0,15.391,9.588,28.533,23.111,33.807v14.57
		c0,7.271,5.896,13.17,13.172,13.17c7.273,0,13.168-5.898,13.168-13.17v-14.57c13.525-5.271,23.113-18.416,23.113-33.807v-24.189
		C457.259,81.237,441.015,64.991,420.978,64.991z"/>
	<path fill="#FFDAA2" d="M393.542,128.978c0,4.107-3.328,7.438-7.438,7.438l0,0c-4.105,0-7.438-3.33-7.438-7.438v-6.156
		c0-4.107,3.332-7.438,7.438-7.438l0,0c4.109,0,7.438,3.33,7.438,7.438V128.978z"/>
	<path fill="#FED09E" d="M390.856,127.864c0,2.625-2.127,4.752-4.752,4.752l0,0c-2.623,0-4.75-2.127-4.75-4.752v-3.932
		c0-2.623,2.127-4.75,4.75-4.75l0,0c2.625,0,4.752,2.127,4.752,4.75V127.864z"/>
	<path fill="#E6BE91" d="M463.286,128.978c0,4.107-3.328,7.438-7.436,7.438l0,0c-4.107,0-7.439-3.33-7.439-7.438v-6.156
		c0-4.107,3.332-7.438,7.439-7.438l0,0c4.107,0,7.436,3.33,7.436,7.438V128.978z"/>
	<path fill="#DBB58B" d="M460.601,127.866c0,2.623-2.127,4.75-4.75,4.75l0,0c-2.625,0-4.754-2.127-4.754-4.75v-3.934
		c0-2.623,2.129-4.75,4.754-4.75l0,0c2.623,0,4.75,2.127,4.75,4.75V127.866z"/>
	<path fill="#FED09E" d="M457.185,99.097c-0.012-0.219-0.031-0.436-0.049-0.654c-0.039-0.516-0.088-1.029-0.15-1.539
		c-0.027-0.229-0.055-0.457-0.086-0.684c-0.08-0.559-0.17-1.115-0.275-1.668c-0.025-0.145-0.047-0.289-0.076-0.436
		c-0.141-0.699-0.301-1.391-0.48-2.074c-0.033-0.129-0.072-0.254-0.107-0.381c-0.154-0.559-0.318-1.113-0.498-1.66
		c-0.059-0.184-0.121-0.363-0.184-0.543c-0.182-0.525-0.373-1.045-0.578-1.561c-0.057-0.139-0.107-0.281-0.166-0.422
		c-0.545-1.322-1.166-2.605-1.855-3.846c-0.053-0.09-0.107-0.182-0.158-0.273c-0.309-0.539-0.627-1.07-0.961-1.592
		c-0.059-0.092-0.117-0.184-0.176-0.273c-1.191-1.826-2.541-3.539-4.033-5.117c-0.033-0.035-0.064-0.07-0.098-0.102
		c-2.037-2.141-4.332-4.033-6.84-5.627c-0.012-0.008-0.023-0.016-0.037-0.023l-0.91-0.563c-5.414-3.217-11.734-5.068-18.488-5.068
		c-0.119,0-0.236,0.008-0.352,0.01v121.992c0.115,0.004,0.232,0.018,0.352,0.018c7.273,0,13.168-5.898,13.168-13.17v-14.57
		c13.525-5.271,23.113-18.416,23.113-33.807v-24.189C457.259,100.542,457.229,99.817,457.185,99.097z"/>
	<path fill="#3C2415" d="M444.914,85.412c0,0-7.256,14.714-33.056,14.714c0,0,18.342-5.24,23.381-13.908
		c0,0-19.35,11.691-35.475,13.707c0,0-14.416-2.135-13.656,32.695c0,0,1.158-17.98-3.68-17.578l0.807-29.025l23.785-22.979
		l22.978-0.402l24.188,16.125l6.047,34.871c0,0-3.226,3.628-3.226,14.311c0,0-2.821-19.754-2.821-28.824
		C454.187,99.118,453.783,87.63,444.914,85.412z"/>
	<polygon fill="#3C2415" points="427.086,145.091 420.602,147.556 414.117,145.091 	"/>
	<circle fill="#3C2415" cx="405.972" cy="115.381" r="3.225"/>
	<circle fill="#3C2415" cx="435.938" cy="115.381" r="3.226"/>
	<polygon fill="#E6BE91" points="420.183,118.809 420.183,136.345 424.511,133.611 	"/>
</g>
</svg>
