<?xml version="1.0" encoding="utf-8"?>
<!-- Generator: Adobe Illustrator 16.0.0, SVG Export Plug-In . SVG Version: 6.00 Build 0)  -->
<!DOCTYPE svg PUBLIC "-//W3C//DTD SVG 1.0//EN" "http://www.w3.org/TR/2001/REC-SVG-20010904/DTD/svg10.dtd">
<svg version="1.0" xmlns="http://www.w3.org/2000/svg" xmlns:xlink="http://www.w3.org/1999/xlink" x="0px" y="0px"
	 width="841.89px" height="595.28px" viewBox="0 0 841.89 595.28" enable-background="new 0 0 841.89 595.28" xml:space="preserve">
<g id="background">
	<g>
		<g>
			<circle fill="#F1F2F2" cx="417.189" cy="40.667" r="44.666"/>
			<path fill="#F7CB1A" d="M433.984,32.708c0-9.297-7.536-16.833-16.833-16.833s-16.833,7.537-16.833,16.833
				c0,5.047,2.232,9.563,5.75,12.648l-0.083,0.019c0,0,5.167,4.5,5.167,9.333h6.271h1.396h4.271c0-4.833,5.167-9.333,5.167-9.333
				l-0.032-0.008C431.748,42.281,433.984,37.761,433.984,32.708z"/>
			<path fill="#4D4E4E" d="M424.339,58.958c0,0.69-0.56,1.25-1.25,1.25h-11.875c-0.69,0-1.25-0.56-1.25-1.25l0,0
				c0-0.69,0.56-1.25,1.25-1.25h11.875C423.779,57.708,424.339,58.268,424.339,58.958L424.339,58.958z"/>
			<path fill="#4D4E4E" d="M424.339,61.958c0,0.69-0.56,1.25-1.25,1.25h-11.875c-0.69,0-1.25-0.56-1.25-1.25l0,0
				c0-0.69,0.56-1.25,1.25-1.25h11.875C423.779,60.708,424.339,61.268,424.339,61.958L424.339,61.958z"/>
			<path fill="#4D4E4E" d="M414.714,65.458h4.875c0.897,0,1.625-0.728,1.625-1.625h-8.125
				C413.089,64.731,413.816,65.458,414.714,65.458z"/>
			<g>
				<path fill="none" stroke="#FFFFFF" stroke-width="2" stroke-miterlimit="10" d="M413.893,55.5c0,0,0.5-8.333-3.833-16.333"/>
				<path fill="none" stroke="#FFFFFF" stroke-width="2" stroke-miterlimit="10" d="M420.41,55.5c0,0-0.5-8.333,3.833-16.333"/>
			</g>
			<path fill="none" stroke="#FFFFFF" stroke-width="2" stroke-miterlimit="10" d="M410.354,41.25c0,0,1.833-1.542,3.75-0.25
				c0,0,2.584-1.625,4.792,0.125c0,0,2.792-2.125,5.125,0.042"/>
			<path fill="#4D4E4E" d="M424.339,55.958c0,0.69-0.56,1.25-1.25,1.25h-11.875c-0.69,0-1.25-0.56-1.25-1.25l0,0
				c0-0.69,0.56-1.25,1.25-1.25h11.875C423.779,54.708,424.339,55.268,424.339,55.958L424.339,55.958z"/>
		</g>
		<circle fill="#F1F2F2" cx="324.367" cy="156.167" r="32.667"/>
		<circle fill="#F1F2F2" cx="330.289" cy="82.697" r="27.667"/>
		<circle fill="#F1F2F2" cx="495.285" cy="81.346" r="33.666"/>
		<g>
			<circle fill="#F1F2F2" cx="514.189" cy="156.333" r="36"/>
			<path fill="#4D4E4E" d="M536.939,158.795v-4.925l-4.813-0.825c-0.471-2.592-1.482-4.993-2.926-7.079l2.816-3.98l-3.482-3.482
				l-3.98,2.815c-2.086-1.443-4.486-2.454-7.08-2.926l-0.824-4.811h-4.924l-0.826,4.811c-2.59,0.473-4.992,1.484-7.076,2.927
				l-3.982-2.816l-3.482,3.482l2.816,3.981c-1.441,2.086-2.453,4.486-2.926,7.078l-4.813,0.825v4.925l4.813,0.825
				c0.473,2.592,1.484,4.992,2.926,7.078l-2.816,3.981l3.482,3.482l3.982-2.816c2.084,1.443,4.486,2.454,7.076,2.927l0.826,4.812
				h4.924l0.826-4.812c2.592-0.472,4.992-1.483,7.078-2.926l3.979,2.816l3.482-3.482l-2.814-3.98
				c1.443-2.086,2.455-4.486,2.926-7.079L536.939,158.795z M514.189,166.083c-5.385,0-9.75-4.365-9.75-9.75s4.365-9.75,9.75-9.75
				s9.75,4.365,9.75,9.75S519.574,166.083,514.189,166.083z"/>
		</g>
		<g>
			<rect x="474.618" y="70.68" fill="#FFFFFF" width="41.334" height="21.333"/>
			<path fill="#53803A" d="M510.455,90.138L510.455,90.138c0-2.149,1.742-3.891,3.891-3.891v-9.802
				c-2.148,0-3.891-1.742-3.891-3.891h-30.339c0,2.148-1.741,3.891-3.891,3.891h-0.001v9.802l0,0c2.15,0,3.892,1.741,3.892,3.891
				l0,0H510.455z"/>
			<circle fill="#FFFFFF" cx="495.285" cy="81.346" r="5.125"/>
		</g>
		<rect x="314.826" y="86.917" fill="#148ECE" width="8.25" height="12.75"/>
		<rect x="324.826" y="83.417" fill="#148ECE" width="8.25" height="16.25"/>
		<rect x="334.826" y="72.042" fill="#148ECE" width="8.25" height="27.625"/>
		<polyline fill="none" stroke="#77B743" stroke-width="2" stroke-miterlimit="10" points="318.784,86.25 328.951,79.917 
			339.201,68.417 		"/>
		<circle fill="#FFFFFF" stroke="#77B743" stroke-miterlimit="10" cx="318.784" cy="86.167" r="2.083"/>
		<circle fill="#FFFFFF" stroke="#77B743" stroke-miterlimit="10" cx="329.034" cy="79.917" r="2.083"/>
		<circle fill="#FFFFFF" stroke="#77B743" stroke-miterlimit="10" cx="339.201" cy="68.5" r="2.083"/>
		<g>
			<circle fill="#FFFFFF" stroke="#D12527" stroke-width="3" stroke-miterlimit="10" cx="324.368" cy="156.167" r="19.75"/>
			<polyline fill="none" stroke="#D12527" stroke-width="3" stroke-linecap="round" stroke-miterlimit="10" points="317.507,150.25 
				324.945,157.688 334.854,147.778 			"/>
		</g>
	</g>
</g>
<g id="man">
	<g>
		<line fill="none" stroke="#000000" stroke-miterlimit="10" x1="365.203" y1="390.575" x2="365.203" y2="390.575"/>
		<g>
			<g>
				<path fill="#00557F" d="M377.011,354.518h87.885V568.99c0,10.91-8.844,19.754-19.754,19.754l0,0
					c-10.91,0-19.754-8.844-19.754-19.754V399.671l0.021-1.183v-3.317c0-2.461-1.994-4.456-4.457-4.456l0,0
					c-2.46,0-4.456,1.995-4.456,4.456v3.317l0.021,2.258V568.99c0,10.91-8.845,19.754-19.754,19.754l0,0
					c-10.91,0-19.754-8.844-19.754-19.754V354.518"/>
			</g>
		</g>
		<path fill="#F1F2F2" d="M489.385,261.797v-15.049c0-19.593-15.883-35.476-35.477-35.476h-65.906
			c-19.592,0-35.475,15.883-35.475,35.476v16.66l-0.004,0.807v17.536h19.36v-0.957v-18.343c0-0.391,0.316-0.705,0.705-0.705
			c0.391,0,0.707,0.314,0.707,0.705v18.343l-0.014,9.499l-0.002,55.932c0,6.739,5.463,12.204,12.203,12.204h70.939
			c6.74,0,12.203-5.465,12.203-12.204v-55.932l-0.027-9.499v-18.343c0-0.391,0.318-0.705,0.705-0.705
			c0.391,0,0.705,0.314,0.705,0.705v18.343v1.16h19.379v-17.739L489.385,261.797z"/>
		<path fill="#004869" d="M420.628,380.347c-12.446,0.023-22.533,10.12-22.533,22.574v177.383c0,2.897,0.566,5.66,1.561,8.206
			c9.537-1.403,16.863-9.595,16.863-19.52V400.746l-0.021-2.258v-3.317c0-2.461,1.996-4.456,4.456-4.456
			c2.462,0,4.457,1.995,4.457,4.456v3.317l-0.021,1.183V568.99c0,10.91,8.844,19.754,19.754,19.754s19.754-8.844,19.754-19.754
			V354.518h-44.268V380.347z"/>
		<path fill="#EBEBEC" d="M468.625,290.293l-0.029-9.499l0.002-18.343c0-0.391,0.318-0.705,0.705-0.705
			c0.391,0,0.705,0.314,0.705,0.705v18.343v1.16h19.379v-17.739l-0.002-2.418v-15.049c0-19.593-15.883-35.476-35.477-35.476h-33.3
			v147.156h35.814c6.74,0,12.203-5.465,12.203-12.204V290.293z"/>
		<path d="M418.652,588.875c-0.045-11.398-9.289-20.625-20.695-20.625H368.55c-11.404,0-20.654,9.227-20.695,20.625H418.652z"/>
		<path d="M494.035,588.875c-0.039-11.398-9.283-20.625-20.695-20.625h-29.4c-11.404,0-20.658,9.227-20.695,20.625H494.035z"/>
		<path fill="#FED09E" d="M490.563,354.139c-0.313-0.8-0.705-1.556-1.17-2.265v-0.582l0,0l-0.006-4.233v-65.105h-19.379v65.036
			c0,0,0.076,2.167-1.076,4.303l0,0c-0.158,0.286-0.33,0.573-0.535,0.856c0,0-0.729,1.427-0.918,1.871
			c-0.607,1.423-0.9,3.007-0.9,4.651v2.252l-0.016,7.902v10.569c0,1.55,1.254,2.806,2.803,2.806c1.551,0,2.807-1.256,2.807-2.806
			v-10.569v-2.602c0-0.564,0.453-1.018,1.014-1.018c0.564,0,1.018,0.453,1.018,1.018V389.3c1.475,0.617,3.096,0.96,4.793,0.96
			c6.861,0,12.42-5.559,12.42-12.418v-19.171C491.416,357.071,491.113,355.543,490.563,354.139z"/>
		<path fill="#FFDAA2" d="M375.313,360.923v-2.252c0-1.645-0.289-3.229-0.9-4.651c-0.189-0.444-0.916-1.871-0.916-1.871
			c-0.205-0.283-0.379-0.57-0.533-0.856c-1.154-2.136-1.08-4.303-1.08-4.303v-65.036h-19.36v65.961l-0.021,3.377l-0.004,0.582
			c-0.463,0.709-0.855,1.465-1.168,2.265c-0.551,1.404-0.854,2.933-0.854,4.532v19.171c0,6.859,5.559,12.418,12.418,12.418
			c1.701,0,3.32-0.343,4.793-0.96v-23.076c0-0.564,0.455-1.018,1.018-1.018c0.561,0,1.018,0.453,1.018,1.018l-0.004,2.602v10.569
			c0,1.55,1.258,2.806,2.807,2.806c1.551,0,2.807-1.256,2.807-2.806v-10.569L375.313,360.923z"/>
		<path fill="#E6BE91" d="M403.94,211.272v4.233c0,9.203,7.462,16.664,16.665,16.664s16.661-7.461,16.661-16.664v-4.233H403.94z"/>
		<g>
			<path fill="#FFDAA2" d="M393.52,170.959c0,4.106-3.33,7.437-7.436,7.437l0,0c-4.107,0-7.439-3.33-7.439-7.437v-6.157
				c0-4.107,3.332-7.437,7.439-7.437l0,0c4.105,0,7.436,3.329,7.436,7.437V170.959z"/>
			<path fill="#FED09E" d="M390.833,169.846c0,2.624-2.125,4.751-4.748,4.751l0,0c-2.625,0-4.754-2.127-4.754-4.751v-3.933
				c0-2.623,2.129-4.75,4.754-4.75l0,0c2.623,0,4.748,2.127,4.748,4.75V169.846z"/>
			<path fill="#E6BE91" d="M463.264,170.959c0,4.106-3.33,7.437-7.438,7.437l0,0c-4.107,0-7.439-3.33-7.439-7.437v-6.157
				c0-4.107,3.332-7.437,7.439-7.437l0,0c4.107,0,7.438,3.329,7.438,7.437V170.959z"/>
			<path fill="#DBB58B" d="M460.576,169.847c0,2.623-2.125,4.75-4.75,4.75l0,0c-2.623,0-4.752-2.127-4.752-4.75v-3.934
				c0-2.623,2.129-4.75,4.752-4.75l0,0c2.625,0,4.75,2.127,4.75,4.75V169.847z"/>
			<path fill="#FFDAA2" d="M420.956,106.973c-20.041,0-36.283,16.246-36.283,36.282v24.189c0,15.39,9.588,28.533,23.111,33.807
				v14.57c0,7.271,5.896,13.17,13.172,13.17c7.271,0,13.167-5.898,13.167-13.17v-14.57c13.523-5.271,23.111-18.415,23.111-33.807
				v-24.189C457.234,123.219,440.992,106.973,420.956,106.973z"/>
			<path fill="#FED09E" d="M457.164,141.077c-0.012-0.219-0.031-0.436-0.049-0.654c-0.039-0.516-0.09-1.029-0.15-1.539
				c-0.027-0.229-0.057-0.457-0.088-0.684c-0.078-0.559-0.17-1.115-0.273-1.668c-0.027-0.145-0.047-0.289-0.078-0.434
				c-0.139-0.699-0.301-1.391-0.479-2.076c-0.033-0.127-0.074-0.253-0.107-0.379c-0.154-0.56-0.318-1.113-0.498-1.662
				c-0.061-0.183-0.123-0.361-0.184-0.543c-0.182-0.524-0.373-1.043-0.578-1.559c-0.057-0.14-0.109-0.282-0.168-0.422
				c-0.545-1.323-1.164-2.606-1.855-3.846c-0.051-0.091-0.105-0.183-0.156-0.274c-0.309-0.539-0.629-1.071-0.963-1.592
				c-0.059-0.091-0.117-0.183-0.174-0.274c-1.193-1.825-2.543-3.539-4.033-5.117c-0.033-0.035-0.064-0.069-0.098-0.102
				c-2.039-2.14-4.332-4.033-6.84-5.627c-0.012-0.008-0.025-0.016-0.037-0.023l-0.91-0.562c-5.414-3.216-11.734-5.068-18.489-5.068
				c-0.119,0-0.236,0.008-0.354,0.009v121.991c0.117,0.003,0.234,0.018,0.354,0.018c7.272,0,13.168-5.898,13.168-13.17v-14.57
				c13.523-5.271,23.111-18.415,23.111-33.807v-24.189C457.236,142.523,457.209,141.799,457.164,141.077z"/>
			<g>
				<path fill="#3C2415" d="M455.805,176.429c-0.148,0.625-0.283,1.187-0.396,1.621
					C455.553,177.512,455.695,176.974,455.805,176.429z"/>
				<path fill="#3C2415" d="M448.199,114.834c0,0,4.902-9.474-3.428-14.176c0,0-52.341-17.537-62.623,26.205
					c0,0-0.67,15.99,1.145,27.076c0,0,1.008,15.118,3.023,23.383c0,0-3.023-16.73,4.031-25.197c0,0,7.055-7.055,3.023-14.513
					c0,0,0.076-0.31,0.246-0.828c20.854-0.448,39.867-8.242,39.867-8.242c-2.822,4.635-24.189,8.465-24.189,8.465
					c32.857-1.209,35.88-12.497,35.88-12.497s6.65,7.257,6.854,14.312c0,0-4.436,6.449,0.201,12.295c0,0,6.016,13.271,3.574,25.313
					c1.055-4.512,3.076-22.49,3.076-22.49S466.541,120.948,448.199,114.834z"/>
				<path fill="#3C2415" d="M455.408,178.05c-0.117,0.43-0.215,0.863-0.355,1.287C455.053,179.337,455.191,178.877,455.408,178.05z"
					/>
			</g>
			<path fill="#3C2415" d="M382.149,126.863c0,0-0.063-25.472,12.187-36.472c0,0-6.5,7,28.75,6.75L382.149,126.863z"/>
		</g>
		<polygon fill="#3C2415" points="427.088,187.092 420.603,189.557 414.119,187.092 		"/>
		<polygon fill="#E6BE91" points="420.604,160.82 420.604,178.356 424.93,175.623 		"/>
		<circle fill="#3C2415" cx="405.971" cy="157.365" r="3.225"/>
		<circle fill="#3C2415" cx="435.938" cy="157.365" r="3.226"/>
		<path fill="#947A2E" d="M424.717,291c15.1-30.447,9.563-78.779,9.459-79.728h19.803c19.592,0,35.475,15.883,35.475,35.476v16.66
			l0.004,0.807v87.536h-19.359v-70.957v-18.343c0-0.391-0.316-0.705-0.705-0.705c-0.391,0-0.707,0.314-0.707,0.705v18.343
			l0.014,9.499l0.002,65.932c0,6.739-5.463,12.204-12.203,12.204h-20.956c-1.213-0.062-5.202-0.594-6.349-4.875l-7.143-27.054
			C413.884,307.5,424.717,291,424.717,291z"/>
		<path fill="#7B6629" d="M421.26,300.005c1.553-5.76,3.457-9.005,3.457-9.005c14.409-29.054,10.027-74.392,9.504-79.304
			l12.746,11.054l-6,4l6,4.25C446.967,231,438.211,278.347,421.26,300.005z"/>
		<path fill="#AB8E30" d="M417.263,291c-15.1-30.447-9.563-78.779-9.458-79.728h-19.803c-19.592,0-35.475,15.883-35.475,35.476
			v16.66l-0.004,0.807v87.536h19.36v-70.957v-18.343c0-0.391,0.316-0.705,0.705-0.705c0.391,0,0.707,0.314,0.707,0.705v18.343
			l-0.014,9.499l-0.002,65.932c0,6.739,5.463,12.204,12.203,12.204h20.956c1.213-0.062,5.202-0.594,6.349-4.875l7.143-27.054
			C428.097,307.5,417.263,291,417.263,291z"/>
		<path fill="#947A2E" d="M420.72,300.005c-1.553-5.76-3.457-9.005-3.457-9.005c-14.409-29.054-10.026-74.392-9.504-79.304
			l-12.746,11.054l6,4l-6,4.25C395.013,231,403.77,278.347,420.72,300.005z"/>
		<circle fill="#947A2E" cx="419.263" cy="311.25" r="2.25"/>
		<circle fill="#947A2E" cx="416.013" cy="333.75" r="2.25"/>
	</g>
</g>
</svg>
