<?xml version="1.0" encoding="utf-8"?>
<!-- Generator: Adobe Illustrator 16.0.0, SVG Export Plug-In . SVG Version: 6.00 Build 0)  -->
<!DOCTYPE svg PUBLIC "-//W3C//DTD SVG 1.0//EN" "http://www.w3.org/TR/2001/REC-SVG-20010904/DTD/svg10.dtd">
<svg version="1.0" id="Layer_1" xmlns="http://www.w3.org/2000/svg" xmlns:xlink="http://www.w3.org/1999/xlink" x="0px" y="0px"
	 width="148.479px" height="489.477px" viewBox="0 0 148.479 489.477" enable-background="new 0 0 148.479 489.477"
	 xml:space="preserve">
<g>
	<path fill="#3C2415" d="M117.881,97.559c0,23.599-19.131,42.731-42.732,42.731l0,0c-23.6,0-42.732-19.133-42.732-42.731V42.732
		C32.416,19.13,51.549,0,75.148,0l0,0c23.602,0,42.732,19.13,42.732,42.732V97.559z"/>
	<path fill="#FFDAA2" d="M31.455,469.594c0,10.908,8.844,19.752,19.754,19.752s19.754-8.844,19.754-19.752v-99.172H31.455V469.594z"
		/>
	<path fill="#FED09E" d="M70.963,469.594v-99.172H52.539v110.484c0,2.896,0.566,5.66,1.563,8.205
		C63.637,487.709,70.963,479.518,70.963,469.594z"/>
	<path fill="#FED09E" d="M79.832,370.422v99.172c0,10.908,8.844,19.752,19.754,19.752s19.754-8.844,19.754-19.752v-99.172H79.832z"
		/>
	<polygon fill="#92A1AB" points="31.455,255.126 31.455,370.422 70.963,370.422 79.832,370.422 119.34,370.422 119.34,255.126 	"/>
	<path fill="#FFFFFF" d="M26.328,247.599v-66.195v-18.343c0-0.391,0.316-0.705,0.705-0.705c0.391,0,0.707,0.314,0.707,0.705v18.343
		l-0.014,9.499l-0.002,55.932c0,6.739,5.463,12.204,12.203,12.204h70.939c6.74,0,12.203-5.465,12.203-12.204v-55.932l-0.027-9.499
		v-18.343c0-0.391,0.318-0.705,0.705-0.705c0.391,0,0.705,0.314,0.705,0.705v18.343v66.195c0,0,0.076,2.167-1.076,4.303h20.461
		l-0.006-4.233v-82.844l-0.002-2.418v-15.049c0-19.593-15.883-35.476-35.477-35.476H42.447c-19.592,0-35.475,15.883-35.475,35.476
		v16.66l-0.004,0.807v83.7l-0.021,3.377h20.461C26.254,249.766,26.328,247.599,26.328,247.599z"/>
	<line fill="none" stroke="#000000" stroke-miterlimit="10" x1="19.648" y1="291.185" x2="19.648" y2="291.185"/>
	<path fill="#FED09E" d="M122.842,252.758c0,0-0.729,1.427-0.918,1.871c-0.607,1.423-0.9,3.007-0.9,4.651v2.252l-0.016,7.902v10.569
		c0,1.55,1.254,2.806,2.803,2.806c1.551,0,2.807-1.256,2.807-2.806v-10.569v-2.602c0-0.564,0.453-1.018,1.014-1.018
		c0.564,0,1.018,0.453,1.018,1.018v23.076c1.475,0.617,3.096,0.96,4.793,0.96c6.861,0,12.42-5.559,12.42-12.418V259.28
		c0-1.6-0.303-3.128-0.854-4.532c-0.313-0.8-0.705-1.556-1.17-2.265v-0.582h-20.461
		C123.219,252.188,123.047,252.475,122.842,252.758z"/>
	<path fill="#FFDAA2" d="M5.775,254.748c-0.551,1.404-0.854,2.933-0.854,4.532v19.171c0,6.859,5.559,12.418,12.418,12.418
		c1.701,0,3.32-0.343,4.793-0.96v-23.076c0-0.564,0.455-1.018,1.018-1.018c0.561,0,1.018,0.453,1.018,1.018l-0.004,2.602v10.569
		c0,1.55,1.258,2.806,2.807,2.806c1.551,0,2.807-1.256,2.807-2.806v-10.569l-0.02-7.902v-2.252c0-1.645-0.289-3.229-0.9-4.651
		c-0.189-0.444-0.916-1.871-0.916-1.871c-0.205-0.283-0.379-0.57-0.533-0.856H6.947l-0.004,0.582
		C6.48,253.192,6.088,253.948,5.775,254.748z"/>
	<path d="M127.783,468.854h-8.781c0.021,0.311,0.047,0.623,0.047,0.941v1.41c0,7.125-5.775,12.9-12.9,12.9H92.645
		c-4.777,0-8.941-2.607-11.172-6.469c-2.365,3.352-3.77,7.43-3.785,11.84h70.791C148.438,478.078,139.193,468.854,127.783,468.854z"
		/>
	<path d="M22.994,468.854h8.779c-0.021,0.311-0.047,0.623-0.047,0.941v1.41c0,7.125,5.777,12.9,12.9,12.9h13.506
		c4.779,0,8.941-2.607,11.17-6.469c2.365,3.352,3.773,7.43,3.789,11.84H2.299C2.34,478.078,11.586,468.854,22.994,468.854z"/>
	<path fill="#FFDAA2" d="M47.965,71.588c0,4.106-3.328,7.436-7.436,7.436l0,0c-4.107,0-7.439-3.329-7.439-7.436V65.43
		c0-4.106,3.332-7.436,7.439-7.436l0,0c4.107,0,7.436,3.329,7.436,7.436V71.588z"/>
	<path fill="#FED09E" d="M45.279,70.473c0,2.623-2.127,4.752-4.75,4.752l0,0c-2.623,0-4.752-2.129-4.752-4.752v-3.931
		c0-2.624,2.129-4.749,4.752-4.749l0,0c2.623,0,4.75,2.125,4.75,4.749V70.473z"/>
	<path fill="#E6BE91" d="M117.707,71.588c0,4.106-3.328,7.436-7.436,7.436l0,0c-4.107,0-7.439-3.329-7.439-7.436V65.43
		c0-4.106,3.332-7.436,7.439-7.436l0,0c4.107,0,7.436,3.329,7.436,7.436V71.588z"/>
	<path fill="#DBB58B" d="M115.021,70.476c0,2.62-2.127,4.749-4.75,4.749l0,0c-2.623,0-4.752-2.129-4.752-4.749v-3.934
		c0-2.624,2.129-4.749,4.752-4.749l0,0c2.623,0,4.75,2.125,4.75,4.749V70.476z"/>
	<polygon fill="#8998A1" points="75.055,370.422 79.832,370.422 119.34,370.422 119.34,255.126 75.055,255.126 	"/>
	<path fill="#F1F2F2" d="M143.832,164.824l-0.002-2.418v-15.049c0-19.593-15.883-35.476-35.477-35.476H75.053v147.156h35.814
		c6.74,0,12.203-5.465,12.203-12.204v-55.932l-0.029-9.499l0.002-18.343c0-0.391,0.318-0.705,0.705-0.705
		c0.391,0,0.705,0.314,0.705,0.705v18.343v66.195c0,0,0.076,2.167-1.076,4.303h20.461l-0.006-4.233V164.824z"/>
	<path fill="#FFDAA2" d="M75.4,7.603c-20.039,0-36.281,16.245-36.281,36.282v24.188c0,15.389,9.586,28.531,23.111,33.807v14.57
		c0,7.271,5.895,13.168,13.17,13.168c7.271,0,13.168-5.896,13.168-13.168v-14.57c13.523-5.271,23.111-18.415,23.111-33.807V43.885
		C111.68,23.848,95.438,7.603,75.4,7.603z"/>
	<path fill="#FED09E" d="M75.049,129.601c0.115,0.003,0.232,0.017,0.352,0.017c7.271,0,13.168-5.896,13.168-13.168v-14.57
		c13.523-5.271,23.111-18.415,23.111-33.807V43.885c0-12.891-6.727-24.204-16.855-30.639H75.049V129.601z"/>
	<path fill="#3C2415" d="M63.641,57.994c0,1.779-1.445,3.223-3.225,3.223c-1.783,0-3.227-1.443-3.227-3.223
		c0-1.783,1.443-3.225,3.227-3.225C62.195,54.77,63.641,56.211,63.641,57.994z"/>
	<path fill="#3C2415" d="M93.607,57.994c0,1.779-1.445,3.223-3.225,3.223c-1.783,0-3.225-1.443-3.225-3.223
		c0-1.783,1.441-3.225,3.225-3.225C92.162,54.77,93.607,56.211,93.607,57.994z"/>
	<polygon fill="#E6BE91" points="75.049,61.421 75.049,78.957 79.375,76.224 	"/>
	<polygon fill="#ED1C24" points="81.533,87.7 75.049,90.166 68.563,87.7 	"/>
	<path fill="#3C2415" d="M66.289,49.78c0,0.473-0.385,0.856-0.857,0.856h-10.48c-0.473,0-0.857-0.384-0.857-0.856l0,0
		c0-0.472,0.385-0.856,0.857-0.856h10.48C65.904,48.924,66.289,49.309,66.289,49.78L66.289,49.78z"/>
	<path fill="#3C2415" d="M96.322,49.78c0,0.473-0.385,0.856-0.855,0.856H84.984c-0.473,0-0.857-0.384-0.857-0.856l0,0
		c0-0.472,0.385-0.856,0.857-0.856h10.482C95.938,48.924,96.322,49.309,96.322,49.78L96.322,49.78z"/>
	<path fill="#3C2415" d="M99.336,28.018c0,0-7.256,14.715-33.057,14.715c0,0,18.344-5.241,23.383-13.908
		c0,0-19.352,11.69-35.477,13.706c0,0-14.414-2.136-13.656,32.694c0,0,1.16-17.98-3.678-17.576l0.807-29.026L61.441,5.644
		L84.42,5.24l24.189,16.125l6.047,34.871c0,0-3.225,3.629-3.225,14.312c0,0-2.822-19.753-2.822-28.823
		C108.609,41.725,108.205,30.234,99.336,28.018z"/>
	<polygon fill="#E6E7E8" points="92.117,167.435 92.117,191.785 102.91,196.009 113.705,191.785 113.705,167.435 	"/>
	<rect x="94.348" y="169.602" fill="#754C29" width="16.834" height="20.833"/>
	<g>
		<g>
			<path fill="#ED1C24" d="M107.865,177.601c-0.428-2.459-2.561-4.332-5.143-4.332c-2.58,0-4.713,1.873-5.141,4.332H107.865z"/>
			<path fill="#FFFFFF" d="M107.441,177.601c-0.457-2.188-2.395-3.833-4.719-3.833c-2.322,0-4.262,1.645-4.717,3.833H107.441z"/>
		</g>
		<path fill="#FFC621" d="M107.072,184.935c0.006-0.085,0.025-0.165,0.025-0.25v-6c0-2.416-1.959-4.375-4.375-4.375
			s-4.375,1.959-4.375,4.375v6c0,0.085,0.021,0.165,0.025,0.25H107.072z"/>
		<path d="M108.133,185.748c0,0.793-0.643,1.438-1.438,1.438h-7.82c-0.793,0-1.438-0.645-1.438-1.438l0,0
			c0-0.793,0.645-1.438,1.438-1.438h7.82C107.49,184.31,108.133,184.955,108.133,185.748L108.133,185.748z"/>
		<polygon fill="#FFFFFF" points="102.807,181.992 101.977,180.309 100.119,180.039 101.463,178.729 101.145,176.879 
			102.807,177.752 104.467,176.879 104.15,178.729 105.494,180.039 103.637,180.309 		"/>
	</g>
	<path fill="#FED09E" d="M124.453,182.554v65.044c0,0,0.076,2.167-1.076,4.303h20.461l-0.006-4.233v-65.114H124.453z"/>
	<path fill="#FFDAA2" d="M26.328,247.599v-65.044H6.969v65.97l-0.021,3.377h20.461C26.254,249.766,26.328,247.599,26.328,247.599z"
		/>
	<polygon fill="#8998A1" points="78.123,137.863 75.047,137.863 71.971,137.863 65.094,239.083 75.047,246.276 85.002,239.083 	"/>
	<polygon fill="#808E97" points="78.148,138.204 71.947,138.204 68.344,129.6 81.75,129.6 	"/>
	<polygon fill="#808E97" points="75.049,246.275 85.002,239.083 78.123,137.863 75.049,137.863 	"/>
	<polygon fill="#78858D" points="75.049,138.204 78.148,138.204 81.75,129.6 75.049,129.6 	"/>
	<polygon fill="#F1F2F2" points="75.049,129.613 62.174,105.723 54.299,111.848 61.674,141.223 	"/>
	<polygon fill="#E6E7E8" points="75.07,129.613 87.945,105.723 95.82,111.848 88.445,141.223 	"/>
</g>
</svg>
