<?xml version="1.0" encoding="utf-8"?>
<!-- Generator: Adobe Illustrator 16.0.0, SVG Export Plug-In . SVG Version: 6.00 Build 0)  -->
<!DOCTYPE svg PUBLIC "-//W3C//DTD SVG 1.0//EN" "http://www.w3.org/TR/2001/REC-SVG-20010904/DTD/svg10.dtd">
<svg version="1.0" id="Layer_1" xmlns="http://www.w3.org/2000/svg" xmlns:xlink="http://www.w3.org/1999/xlink" x="0px" y="0px"
	 width="150.254px" height="498.484px" viewBox="0 0 150.254 498.484" enable-background="new 0 0 150.254 498.484"
	 xml:space="preserve">
<g>
	<path fill="#FFFFFF" d="M27.103,256.599v-66.195v-18.343c0-0.391,0.316-0.705,0.705-0.705c0.391,0,0.707,0.314,0.707,0.705v18.343
		l-0.014,9.499l-0.002,55.932c0,6.739,5.463,12.204,12.203,12.204h70.939c6.74,0,12.203-5.465,12.203-12.204v-55.932l-0.027-9.499
		v-18.343c0-0.391,0.318-0.705,0.705-0.705c0.391,0,0.705,0.314,0.705,0.705v18.343v66.195c0,0,0.076,2.167-1.076,4.303h20.461
		l-0.006-4.233v-82.844l-0.002-2.418v-15.049c0-19.593-15.883-35.476-35.477-35.476H43.222c-19.592,0-35.475,15.883-35.475,35.476
		v16.66l-0.004,0.807v83.7l-0.021,3.377h20.461C27.028,258.766,27.103,256.599,27.103,256.599z"/>
	<line fill="none" stroke="#000000" stroke-miterlimit="10" x1="20.422" y1="300.185" x2="20.422" y2="300.185"/>
	<path fill="#FED09E" d="M123.616,261.758c0,0-0.729,1.427-0.918,1.871c-0.607,1.423-0.9,3.007-0.9,4.651v2.252l-0.016,7.902v10.569
		c0,1.55,1.254,2.806,2.803,2.806c1.551,0,2.807-1.256,2.807-2.806v-10.569v-2.602c0-0.564,0.453-1.018,1.014-1.018
		c0.564,0,1.018,0.453,1.018,1.018v23.076c1.475,0.617,3.096,0.96,4.793,0.96c6.861,0,12.42-5.559,12.42-12.418V268.28
		c0-1.6-0.303-3.128-0.854-4.532c-0.313-0.8-0.705-1.556-1.17-2.265v-0.582h-20.461
		C123.993,261.188,123.821,261.475,123.616,261.758z"/>
	<path fill="#FFDAA2" d="M6.549,263.748c-0.551,1.404-0.854,2.933-0.854,4.532v19.171c0,6.859,5.559,12.418,12.418,12.418
		c1.701,0,3.32-0.343,4.793-0.96v-23.076c0-0.564,0.455-1.018,1.018-1.018c0.561,0,1.018,0.453,1.018,1.018l-0.004,2.602v10.569
		c0,1.55,1.258,2.806,2.807,2.806c1.551,0,2.807-1.256,2.807-2.806v-10.569l-0.02-7.902v-2.252c0-1.645-0.289-3.229-0.9-4.651
		c-0.189-0.444-0.916-1.871-0.916-1.871c-0.205-0.283-0.379-0.57-0.533-0.856H7.721l-0.004,0.582
		C7.254,262.192,6.862,262.948,6.549,263.748z"/>
	<path fill="#F1F2F2" d="M144.606,173.824l-0.002-2.418v-15.049c0-19.593-15.883-35.476-35.477-35.476H75.827v147.156h35.814
		c6.74,0,12.203-5.465,12.203-12.204v-55.932l-0.029-9.499l0.002-18.343c0-0.391,0.318-0.705,0.705-0.705
		c0.391,0,0.705,0.314,0.705,0.705v18.343v66.195c0,0,0.076,2.167-1.076,4.303h20.461l-0.006-4.233V173.824z"/>
	<polygon fill="#8998A1" points="78.904,146.872 75.828,146.872 72.752,146.872 65.874,248.092 75.828,255.285 85.783,248.092 	"/>
	<g>
		<path fill="#FFDAA2" d="M48.739,80.568c0,4.106-3.33,7.437-7.436,7.437l0,0c-4.107,0-7.439-3.33-7.439-7.437v-6.157
			c0-4.107,3.332-7.437,7.439-7.437l0,0c4.105,0,7.436,3.329,7.436,7.437V80.568z"/>
		<path fill="#FED09E" d="M46.052,79.455c0,2.624-2.125,4.751-4.748,4.751l0,0c-2.625,0-4.754-2.127-4.754-4.751v-3.933
			c0-2.623,2.129-4.75,4.754-4.75l0,0c2.623,0,4.748,2.127,4.748,4.75V79.455z"/>
		<path fill="#E6BE91" d="M118.483,80.568c0,4.106-3.33,7.437-7.438,7.437l0,0c-4.107,0-7.439-3.33-7.439-7.437v-6.157
			c0-4.107,3.332-7.437,7.439-7.437l0,0c4.107,0,7.438,3.329,7.438,7.437V80.568z"/>
		<path fill="#DBB58B" d="M115.796,79.456c0,2.623-2.125,4.75-4.75,4.75l0,0c-2.623,0-4.752-2.127-4.752-4.75v-3.934
			c0-2.623,2.129-4.75,4.752-4.75l0,0c2.625,0,4.75,2.127,4.75,4.75V79.456z"/>
		<path fill="#FFDAA2" d="M76.175,16.583c-20.041,0-36.283,16.246-36.283,36.282v24.189c0,15.39,9.588,28.533,23.111,33.807v14.57
			c0,7.271,5.896,13.17,13.172,13.17c7.271,0,13.168-5.898,13.168-13.17v-14.57c13.523-5.271,23.111-18.415,23.111-33.807V52.864
			C112.454,32.828,96.212,16.583,76.175,16.583z"/>
		<path fill="#FED09E" d="M112.383,50.687c-0.012-0.219-0.031-0.436-0.049-0.654c-0.039-0.516-0.09-1.029-0.15-1.539
			c-0.027-0.229-0.057-0.457-0.088-0.684c-0.078-0.559-0.17-1.115-0.273-1.668c-0.027-0.145-0.047-0.289-0.078-0.434
			c-0.139-0.699-0.301-1.391-0.479-2.076c-0.033-0.127-0.074-0.253-0.107-0.379c-0.154-0.56-0.318-1.113-0.498-1.662
			c-0.061-0.183-0.123-0.361-0.184-0.543c-0.182-0.524-0.373-1.043-0.578-1.559c-0.057-0.14-0.109-0.282-0.168-0.422
			c-0.545-1.323-1.164-2.606-1.855-3.846c-0.051-0.091-0.105-0.183-0.156-0.274c-0.309-0.539-0.629-1.071-0.963-1.592
			c-0.059-0.091-0.117-0.183-0.174-0.274c-1.193-1.825-2.543-3.539-4.033-5.117c-0.033-0.035-0.064-0.069-0.098-0.102
			c-2.039-2.14-4.332-4.033-6.84-5.627c-0.012-0.008-0.025-0.016-0.037-0.023l-0.91-0.562c-5.414-3.216-11.734-5.068-18.488-5.068
			c-0.119,0-0.236,0.008-0.354,0.009v121.991c0.117,0.003,0.234,0.018,0.354,0.018c7.271,0,13.168-5.898,13.168-13.17v-14.57
			c13.523-5.271,23.111-18.415,23.111-33.807V52.864C112.455,52.133,112.428,51.408,112.383,50.687z"/>
		<g>
			<path fill="#3C2415" d="M111.024,86.038c-0.148,0.625-0.283,1.187-0.396,1.621C110.772,87.121,110.915,86.583,111.024,86.038z"/>
			<path fill="#3C2415" d="M103.419,24.444c0,0,4.902-9.474-3.428-14.176c0,0-52.342-17.537-62.623,26.205
				c0,0-0.67,15.99,1.145,27.076c0,0,1.008,15.118,3.023,23.383c0,0-3.023-16.73,4.031-25.197c0,0,7.055-7.055,3.023-14.513
				c0,0,0.076-0.31,0.246-0.828c20.854-0.448,39.867-8.242,39.867-8.242c-2.822,4.635-24.189,8.465-24.189,8.465
				c32.857-1.209,35.881-12.497,35.881-12.497s6.65,7.257,6.854,14.312c0,0-4.436,6.449,0.201,12.295c0,0,6.016,13.271,3.574,25.313
				c1.055-4.512,3.076-22.49,3.076-22.49S121.761,30.557,103.419,24.444z"/>
			<path fill="#3C2415" d="M110.628,87.659c-0.117,0.43-0.215,0.863-0.355,1.287C110.272,88.946,110.411,88.486,110.628,87.659z"/>
		</g>
		<path fill="#3C2415" d="M37.368,36.472c0,0-0.063-25.472,12.187-36.472c0,0-6.5,7,28.75,6.75L37.368,36.472z"/>
	</g>
	<polygon fill="#3C2415" points="82.307,96.702 75.822,99.167 69.338,96.702 	"/>
	<circle fill="#3C2415" cx="61.19" cy="66.975" r="3.225"/>
	<circle fill="#3C2415" cx="91.157" cy="66.975" r="3.226"/>
	<g>
		<g>
			<path fill="#92A1AB" d="M32.23,264.127h87.885V478.6c0,10.91-8.844,19.754-19.754,19.754l0,0
				c-10.91,0-19.754-8.844-19.754-19.754V309.28l0.021-1.183v-3.317c0-2.461-1.994-4.456-4.456-4.456l0,0
				c-2.46,0-4.456,1.995-4.456,4.456v3.317l0.021,2.258V478.6c0,10.91-8.845,19.754-19.754,19.754l0,0
				c-10.91,0-19.754-8.844-19.754-19.754V264.127"/>
		</g>
	</g>
	<path fill="#8998A1" d="M75.848,289.956c-12.446,0.023-22.533,10.12-22.533,22.574v177.383c0,2.897,0.566,5.66,1.561,8.206
		c9.537-1.403,16.863-9.595,16.863-19.52V310.355l-0.021-2.258v-3.317c0-2.461,1.996-4.456,4.456-4.456
		c2.462,0,4.456,1.995,4.456,4.456v3.317l-0.021,1.183V478.6c0,10.91,8.844,19.754,19.754,19.754s19.754-8.844,19.754-19.754
		V264.127H75.848V289.956z"/>
	<path d="M73.871,498.484c-0.045-11.398-9.289-20.625-20.695-20.625H23.77c-11.404,0-20.654,9.227-20.695,20.625H73.871z"/>
	<path d="M149.254,498.484c-0.039-11.398-9.283-20.625-20.695-20.625h-29.4c-11.404,0-20.658,9.227-20.695,20.625H149.254z"/>
	<polygon fill="#808E97" points="78.93,147.212 72.728,147.212 69.125,138.608 82.531,138.608 	"/>
	<polygon fill="#808E97" points="75.828,146.872 75.822,146.872 75.822,255.281 75.828,255.285 85.783,248.092 78.904,146.872 	"/>
	<polygon fill="#78858D" points="75.822,147.212 78.93,147.212 82.531,138.608 75.822,138.608 	"/>
	<polygon fill="#F1F2F2" points="75.823,138.613 62.948,114.723 55.073,120.848 62.448,150.223 	"/>
	<polygon fill="#E6E7E8" points="75.845,138.613 88.72,114.723 96.595,120.848 89.22,150.223 	"/>
	<polygon fill="#E6E7E8" points="93.152,176.444 93.152,200.794 103.947,205.018 114.74,200.794 114.74,176.444 	"/>
	<rect x="95.385" y="178.61" fill="#754C29" width="16.833" height="20.833"/>
	<g>
		<g>
			<path fill="#ED1C24" d="M108.901,186.61c-0.429-2.459-2.561-4.332-5.142-4.332s-4.713,1.873-5.142,4.332H108.901z"/>
			<path fill="#FFFFFF" d="M108.479,186.61c-0.457-2.188-2.395-3.833-4.719-3.833s-4.262,1.645-4.719,3.833H108.479z"/>
		</g>
		<path fill="#FFC621" d="M108.109,193.944c0.005-0.085,0.025-0.165,0.025-0.25v-6c0-2.416-1.959-4.375-4.375-4.375
			s-4.375,1.959-4.375,4.375v6c0,0.085,0.021,0.165,0.025,0.25H108.109z"/>
		<path d="M109.17,194.756c0,0.793-0.645,1.438-1.438,1.438h-7.82c-0.793,0-1.438-0.645-1.438-1.438l0,0
			c0-0.793,0.645-1.438,1.438-1.438h7.82C108.525,193.319,109.17,193.963,109.17,194.756L109.17,194.756z"/>
		<polygon fill="#FFFFFF" points="103.843,191 103.012,189.318 101.154,189.047 102.498,187.738 102.182,185.888 103.843,186.761 
			105.504,185.888 105.188,187.738 106.531,189.047 104.674,189.318 		"/>
	</g>
	<path fill="#FED09E" d="M125.228,191.563v65.036c0,0,0.076,2.167-1.076,4.303h20.461l-0.006-4.233v-65.105H125.228z"/>
	<path fill="#FFDAA2" d="M27.103,256.599v-65.036H7.743v65.961l-0.021,3.377h20.461C27.028,258.766,27.103,256.599,27.103,256.599z"
		/>
	<polygon fill="#E6BE91" points="75.823,70.43 75.823,87.966 80.148,85.232 	"/>
</g>
</svg>
