<?xml version="1.0" encoding="utf-8"?>
<!-- Generator: Adobe Illustrator 16.0.4, SVG Export Plug-In . SVG Version: 6.00 Build 0)  -->
<!DOCTYPE svg PUBLIC "-//W3C//DTD SVG 1.0//EN" "http://www.w3.org/TR/2001/REC-SVG-20010904/DTD/svg10.dtd">
<svg version="1.0" xmlns="http://www.w3.org/2000/svg" xmlns:xlink="http://www.w3.org/1999/xlink" x="0px" y="0px"
	 width="146.624px" height="499.999px" viewBox="0 0 146.624 499.999" enable-background="new 0 0 146.624 499.999"
	 xml:space="preserve">
<g id="advokat">
</g>
<g id="arsitek">
</g>
<g id="creativeprenuer">
</g>
<g id="diplomat">
</g>
<g id="engineer_manager">
</g>
<g id="entreprenuer">
</g>
<g id="it-consultant">
</g>
<g id="manajemen_operasional">
</g>
<g id="public_relation">
	<g>
		<path fill="#FFFFFF" d="M24.101,257.379v-66.397v-18.398c0-0.392,0.317-0.707,0.707-0.707c0.393,0,0.709,0.315,0.709,0.707v18.398
			l-0.014,9.528l-0.002,56.101c0,6.762,5.48,12.242,12.24,12.242h71.155c6.761,0,12.24-5.48,12.24-12.242V200.51l-0.027-9.528
			v-18.398c0-0.392,0.319-0.707,0.708-0.707c0.391,0,0.707,0.315,0.707,0.707v18.398v66.397c0,0,0.076,2.173-1.08,4.315h20.523
			l-0.006-4.247v-83.095l-0.002-2.425v-15.095c0-19.652-15.931-35.583-35.584-35.583H40.269c-19.651,0-35.581,15.931-35.581,35.583
			v16.711l-0.004,0.809v83.955l-0.022,3.387h20.523C24.026,259.552,24.101,257.379,24.101,257.379z"/>
		<line fill="none" stroke="#231F20" stroke-miterlimit="10" x1="17.401" y1="301.097" x2="17.401" y2="301.097"/>
		<path fill="#FDCF9D" d="M120.908,262.553c0,0-0.731,1.433-0.921,1.877c-0.609,1.429-0.903,3.017-0.903,4.667v2.259l-0.016,7.926
			v10.601c0,1.556,1.259,2.815,2.812,2.815c1.556,0,2.814-1.26,2.814-2.815v-10.601v-2.609c0-0.565,0.455-1.021,1.018-1.021
			c0.566,0,1.021,0.455,1.021,1.021v23.146c1.479,0.619,3.105,0.962,4.808,0.962c6.882,0,12.457-5.576,12.457-12.456v-19.228
			c0-1.605-0.303-3.139-0.855-4.547c-0.313-0.802-0.707-1.561-1.174-2.271v-0.584h-20.523
			C121.286,261.981,121.113,262.269,120.908,262.553z"/>
		<polygon fill="#BE1E2D" points="76.06,147.318 72.974,147.318 69.888,147.318 62.989,248.845 72.974,256.061 82.959,248.845 		"/>
		<path fill="#FFD9A1" d="M3.485,264.55c-0.552,1.408-0.855,2.941-0.855,4.547v19.228c0,6.88,5.575,12.456,12.455,12.456
			c1.707,0,3.331-0.343,4.809-0.962v-23.146c0-0.565,0.456-1.021,1.02-1.021c0.562,0,1.021,0.455,1.021,1.021l-0.004,2.609v10.601
			c0,1.556,1.262,2.815,2.814,2.815c1.556,0,2.816-1.26,2.816-2.815v-10.601l-0.02-7.926v-2.259c0-1.65-0.291-3.238-0.904-4.667
			c-0.19-0.444-0.918-1.877-0.918-1.877c-0.207-0.284-0.381-0.571-0.535-0.858H4.661l-0.004,0.584
			C4.193,262.989,3.799,263.748,3.485,264.55z"/>
		<path fill="#F1F1F2" d="M141.962,174.353l-0.002-2.425v-15.095c0-19.652-15.931-35.583-35.584-35.583H72.974v147.603h35.923
			c6.761,0,12.24-5.48,12.24-12.242V200.51l-0.029-9.528l0.002-18.398c0-0.392,0.319-0.707,0.708-0.707
			c0.391,0,0.707,0.315,0.707,0.707v18.398v66.397c0,0,0.076,2.173-1.08,4.315h20.523l-0.006-4.247V174.353z"/>
		<path fill="#4D4E4E" d="M79.489,203.464L57.321,121.25H40.271c-5.27,0-10.268,1.154-14.768,3.211v48.048
			c0.002,0.025,0.016,0.049,0.016,0.075v18.398l-0.016,9.23v56.408c0.006,6.756,5.482,12.232,12.24,12.232h41.746V203.464z"/>
		<g>
			<path fill="#5E5E5E" d="M29.244,264.929h88.151v215.125c0,10.943-8.869,19.814-19.813,19.814l0,0
				c-10.942,0-19.813-8.871-19.813-19.814V310.222l0.021-1.188v-3.327c0-2.468-2-4.47-4.47-4.47l0,0c-2.468,0-4.47,2.002-4.47,4.47
				v3.327l0.021,2.264v168.756c0,10.943-8.871,19.814-19.814,19.814l0,0c-10.942,0-19.813-8.871-19.813-19.814V264.929"/>
		</g>
		<polygon fill="#BE1E2D" points="76.085,147.66 69.863,147.66 66.25,139.029 79.696,139.029 		"/>
		<polygon fill="#B51C2A" points="72.974,147.318 72.968,147.318 72.968,256.057 72.974,256.061 82.959,248.845 76.06,147.318 		"/>
		<polygon fill="#B51C2A" points="72.968,147.66 76.085,147.66 79.696,139.029 72.968,139.029 		"/>
		<path fill="#4D4E4E" d="M67.122,203.464l22.169-82.214h17.052c5.27,0,10.268,1.154,14.765,3.211v48.048
			c-0.002,0.025-0.014,0.049-0.014,0.075v18.398l0.014,9.23v56.408c-0.004,6.756-5.481,12.232-12.238,12.232H67.122V203.464z"/>
		<circle fill="#5E5E5E" cx="72.468" cy="199.201" r="2.758"/>
		<circle fill="#5E5E5E" cx="72.468" cy="233.304" r="2.758"/>
		<circle fill="#5E5E5E" cx="72.468" cy="263.396" r="2.758"/>
		<path fill="#4D4E4E" d="M72.994,290.838c-12.484,0.023-22.603,10.149-22.603,22.643v177.923c0,2.904,0.568,5.677,1.566,8.229
			c9.565-1.407,16.914-9.623,16.914-19.579V311.298l-0.021-2.264v-3.327c0-2.468,2.002-4.47,4.47-4.47c2.47,0,4.47,2.002,4.47,4.47
			v3.327l-0.021,1.188v169.832c0,10.943,8.871,19.814,19.813,19.814c10.944,0,19.813-8.871,19.813-19.814V264.929H72.994V290.838z"
			/>
		<path fill="#231F20" d="M71.011,499.999c-0.045-11.434-9.316-20.688-20.758-20.688H20.758c-11.439,0-20.717,9.254-20.758,20.688
			H71.011z"/>
		<path fill="#231F20" d="M146.624,499.999c-0.04-11.434-9.312-20.688-20.759-20.688H96.376c-11.439,0-20.722,9.254-20.759,20.688
			H146.624z"/>
		<path fill="#4D4E4E" d="M141.962,257.447v-83.095l-0.002-2.425v-15.095c0-19.652-15.931-35.583-35.584-35.583H93.721
			l-23.875,88.651v65.782h51.291V200.51l-0.027-9.528v-18.398c0-0.392,0.319-0.707,0.708-0.707c0.391,0,0.707,0.315,0.707,0.707
			v18.398v66.397c0,0,0.076,2.173-1.08,4.315h20.523L141.962,257.447z"/>
		<polygon fill="#5E5E5E" points="97.146,150.554 103.416,157.324 69.854,209.83 89.699,121.25 106.926,147.795 		"/>
		<path fill="#5E5E5E" d="M24.101,257.379v-66.397v-18.398c0-0.392,0.317-0.707,0.707-0.707c0.393,0,0.709,0.315,0.709,0.707v18.398
			l-0.014,9.528l-0.002,75.173h50.601v-65.782L56.238,121.25h-15.97c-19.651,0-35.581,15.931-35.581,35.583v16.711l-0.004,0.809
			v83.955l-0.022,3.387h20.523C24.026,259.552,24.101,257.379,24.101,257.379z"/>
		<polygon fill="#4D4E4E" points="48.791,150.554 42.521,157.324 76.083,209.83 56.238,121.25 39.012,147.795 		"/>
		<circle fill="#4D4E4E" cx="71.465" cy="213.244" r="2.758"/>
		<circle fill="#4D4E4E" cx="71.465" cy="241.83" r="2.758"/>
		<circle fill="#4D4E4E" cx="71.465" cy="270.417" r="2.758"/>
		<g>
			<path fill="#FFD9A1" d="M45.803,80.813c0,4.119-3.341,7.459-7.458,7.459l0,0c-4.12,0-7.463-3.34-7.463-7.459v-6.175
				c0-4.12,3.343-7.459,7.463-7.459l0,0c4.117,0,7.458,3.339,7.458,7.459V80.813z"/>
			<path fill="#FDCF9D" d="M43.106,79.696c0,2.632-2.131,4.766-4.762,4.766l0,0c-2.634,0-4.769-2.133-4.769-4.766v-3.944
				c0-2.631,2.135-4.764,4.769-4.764l0,0c2.631,0,4.762,2.133,4.762,4.764V79.696z"/>
			<path fill="#E5BD90" d="M115.759,80.813c0,4.119-3.341,7.459-7.46,7.459l0,0c-4.12,0-7.462-3.34-7.462-7.459v-6.175
				c0-4.12,3.342-7.459,7.462-7.459l0,0c4.119,0,7.46,3.339,7.46,7.459V80.813z"/>
			<path fill="#DBB58A" d="M113.063,79.697c0,2.631-2.133,4.765-4.765,4.765l0,0c-2.632,0-4.767-2.133-4.767-4.765v-3.945
				c0-2.631,2.135-4.764,4.767-4.764l0,0c2.632,0,4.765,2.133,4.765,4.764V79.697z"/>
			<path fill="#FFD9A1" d="M73.321,16.633c-20.102,0-36.394,16.295-36.394,36.392v24.263c0,15.437,9.616,28.62,23.182,33.909v14.614
				c0,7.294,5.914,13.21,13.212,13.21c7.293,0,13.208-5.916,13.208-13.21v-14.614c13.564-5.288,23.182-18.471,23.182-33.909V53.025
				C109.711,32.928,93.419,16.633,73.321,16.633z"/>
			<path fill="#FDCF9D" d="M109.64,50.84c-0.012-0.219-0.031-0.437-0.049-0.656c-0.039-0.518-0.09-1.033-0.151-1.544
				c-0.027-0.229-0.057-0.458-0.088-0.686c-0.078-0.56-0.17-1.118-0.274-1.672c-0.027-0.146-0.047-0.291-0.078-0.435
				c-0.14-0.702-0.302-1.395-0.48-2.083c-0.033-0.127-0.074-0.253-0.107-0.379c-0.154-0.562-0.32-1.117-0.5-1.667
				c-0.061-0.183-0.123-0.363-0.184-0.544c-0.182-0.525-0.374-1.047-0.58-1.563c-0.057-0.141-0.11-0.283-0.169-0.423
				c-0.546-1.328-1.167-2.615-1.86-3.858c-0.052-0.092-0.106-0.183-0.157-0.274c-0.31-0.541-0.631-1.075-0.966-1.598
				c-0.059-0.091-0.117-0.183-0.174-0.274c-1.197-1.831-2.551-3.55-4.045-5.132c-0.033-0.035-0.065-0.069-0.099-0.103
				c-2.045-2.146-4.345-4.045-6.861-5.644c-0.012-0.008-0.025-0.016-0.037-0.023l-0.913-0.563c-5.43-3.226-11.77-5.083-18.544-5.083
				c-0.119,0-0.236,0.008-0.354,0.009v122.362c0.118,0.003,0.235,0.018,0.354,0.018c7.294,0,13.208-5.916,13.208-13.21v-14.614
				c13.564-5.288,23.182-18.471,23.182-33.909V53.025C109.712,52.291,109.685,51.564,109.64,50.84z"/>
			<g>
				<path fill="#3B2314" d="M108.277,86.3c-0.149,0.626-0.285,1.19-0.398,1.626C108.024,87.386,108.168,86.846,108.277,86.3z"/>
				<path fill="#3B2314" d="M100.648,24.519c0,0,4.917-9.503-3.438-14.22c0,0-52.501-17.59-62.812,26.284
					c0,0-0.673,16.038,1.147,27.158c0,0,1.011,15.164,3.032,23.454c0,0-3.032-16.782,4.043-25.273c0,0,7.077-7.076,3.034-14.557
					c0,0,0.076-0.311,0.246-0.831c20.917-0.45,39.988-8.267,39.988-8.267c-2.831,4.649-24.264,8.491-24.264,8.491
					c32.958-1.212,35.99-12.535,35.99-12.535s6.672,7.279,6.875,14.355c0,0-4.449,6.469,0.202,12.333c0,0,6.033,13.312,3.585,25.39
					c1.058-4.526,3.085-22.559,3.085-22.559S119.046,30.65,100.648,24.519z"/>
				<path fill="#3B2314" d="M107.879,87.926c-0.117,0.431-0.215,0.866-0.356,1.291C107.522,89.217,107.662,88.755,107.879,87.926z"
					/>
			</g>
			<path fill="#3B2314" d="M34.397,36.583c0,0-0.064-25.55,12.223-36.583c0,0-6.52,7.021,28.838,6.771L34.397,36.583z"/>
		</g>
		<polygon fill="#3B2314" points="79.472,96.996 72.968,99.468 66.463,96.996 		"/>
		<path fill="#3B2314" d="M61.525,67.178c0,1.787-1.449,3.233-3.233,3.233c-1.789,0-3.234-1.446-3.234-3.233
			s1.445-3.235,3.234-3.235C60.076,63.943,61.525,65.392,61.525,67.178z"/>
		<circle fill="#3B2314" cx="88.35" cy="67.178" r="3.235"/>
		<polygon fill="#E5BD90" points="72.968,70.644 72.968,88.233 77.308,85.491 		"/>
		<path fill="#F1F1F2" d="M60.089,115.878c0,0-12.539,9.738-7.272,32.557c0,0,5.768-13.29,17.303-9.78c0,0-9.09-2.068-10.03-12.287
			V115.878z"/>
		<path fill="#E6E7E8" d="M86.507,115.878c0,0,12.538,9.738,7.272,32.557c0,0-5.769-13.29-17.303-9.78c0,0,9.091-2.068,10.03-12.287
			V115.878z"/>
	</g>
</g>
<g id="teknopreneur">
</g>
<g id="trader2">
</g>
</svg>
