<?xml version="1.0" encoding="utf-8"?>
<!-- Generator: Adobe Illustrator 16.0.4, SVG Export Plug-In . SVG Version: 6.00 Build 0)  -->
<!DOCTYPE svg PUBLIC "-//W3C//DTD SVG 1.0//EN" "http://www.w3.org/TR/2001/REC-SVG-20010904/DTD/svg10.dtd">
<svg version="1.0" id="Layer_1" xmlns="http://www.w3.org/2000/svg" xmlns:xlink="http://www.w3.org/1999/xlink" x="0px" y="0px"
	 width="350px" height="1183.853px" viewBox="0 0 350 1183.853" enable-background="new 0 0 350 1183.853" xml:space="preserve">
<g>
	<path fill="#FFD9A1" d="M8.319,621.827c-1.318,3.361-2.042,7.021-2.042,10.849v45.907c0,16.418,13.309,29.734,29.732,29.734
		c4.073,0,7.949-0.823,11.475-2.306v-55.252c0-1.345,1.09-2.431,2.437-2.431c1.342,0,2.436,1.086,2.436,2.431l-0.009,6.229v25.313
		c0,3.709,3.012,6.716,6.72,6.716c3.713,0,6.721-3.007,6.721-6.716v-25.313l-0.047-18.919v-5.392c0-3.939-0.691-7.725-2.156-11.136
		c-0.454-1.065-2.193-4.485-2.193-4.485c-0.49-0.674-0.907-1.359-1.276-2.049h-48.99l-0.009,1.399
		C10.007,618.097,9.063,619.913,8.319,621.827z"/>
	<g>
		<path fill="#5E5E5E" d="M69.81,622.727h210.423v513.515c0,26.123-21.175,47.299-47.297,47.299l0,0
			c-26.123,0-47.297-21.176-47.297-47.299V730.839l0.051-2.834v-7.942c0-5.891-4.775-10.67-10.669-10.67l0,0
			c-5.888,0-10.672,4.779-10.672,10.67v7.942l0.056,5.408v402.828c0,26.123-21.173,47.299-47.296,47.299l0,0
			c-26.124,0-47.297-21.176-47.297-47.299V622.727"/>
	</g>
	<path fill="#4D4E4E" d="M174.244,684.569c-29.802,0.056-53.958,24.232-53.958,54.05v424.714c0,6.934,1.358,13.551,3.743,19.645
		c22.834-3.359,40.375-22.971,40.375-46.736V733.413l-0.056-5.408v-7.942c0-5.891,4.784-10.67,10.672-10.67
		c5.894,0,10.669,4.779,10.669,10.67v7.942l-0.051,2.834v405.402c0,26.123,21.175,47.299,47.297,47.299s47.297-21.176,47.297-47.299
		V622.727H174.244V684.569z"/>
	<path fill="#FFFFFF" d="M57.53,604.709V446.206V402.29c0-0.936,0.758-1.69,1.692-1.69c0.93,0,1.689,0.754,1.689,1.69v43.916
		l-0.039,22.746v133.923c0,16.141,13.08,29.223,29.22,29.223h169.854c16.138,0,29.223-13.082,29.223-29.223V468.952l-0.07-22.746
		V402.29c0-0.936,0.761-1.69,1.688-1.69c0.936,0,1.689,0.754,1.689,1.69v43.916v158.504c0,0,0.182,5.182-2.578,10.296h48.997
		l-0.014-10.133v-198.36l-0.01-5.794v-36.03c0-46.912-38.029-84.942-84.943-84.942H96.124c-46.909,0-84.943,38.03-84.943,84.942
		v39.893l-0.004,1.931v200.409l-0.051,8.084h48.99C57.352,609.891,57.53,604.709,57.53,604.709z"/>
	<path fill="#F1F1F2" d="M338.88,406.512l-0.01-5.794v-36.03c0-46.912-38.029-84.942-84.943-84.942h-79.684v352.351h85.703
		c16.138,0,29.223-13.082,29.223-29.223V468.952l-0.07-22.746V402.29c0-0.936,0.761-1.69,1.688-1.69c0.936,0,1.689,0.754,1.689,1.69
		v43.916v158.504c0,0,0.182,5.182-2.578,10.296h48.997l-0.014-10.133V406.512z"/>
	<path fill="#231F20" d="M350,1183.853c-0.099-27.293-22.232-49.383-49.55-49.383h-70.396c-27.306,0-49.462,22.09-49.555,49.383H350
		z"/>
	<path fill="#404041" d="M169.507,1183.853c-0.103-27.293-22.237-49.383-49.552-49.383H49.552c-27.306,0-49.454,22.09-49.552,49.383
		H169.507z"/>
	<path fill="#FDCF9D" d="M288.617,617.055c0,0-1.744,3.419-2.193,4.485c-1.458,3.411-2.16,7.196-2.16,11.136v5.392l-0.037,18.919
		v25.313c0,3.709,3.002,6.716,6.71,6.716c3.714,0,6.721-3.007,6.721-6.716v-25.313v-6.229c0-1.345,1.09-2.431,2.432-2.431
		c1.346,0,2.431,1.086,2.431,2.431v55.252c3.532,1.482,7.418,2.306,11.482,2.306c16.423,0,29.732-13.315,29.732-29.734v-45.907
		c0-3.828-0.725-7.488-2.044-10.849c-0.748-1.914-1.688-3.729-2.795-5.422v-1.399h-48.997
		C289.52,615.696,289.108,616.381,288.617,617.055z"/>
	<path fill="#323031" d="M338.87,400.718v-36.03c0-46.912-38.029-84.942-84.943-84.942H96.124c-46.909,0-84.943,38.03-84.943,84.942
		v39.893l-0.004,1.931v180.651H57.53V446.206V402.29c0-0.936,0.758-1.69,1.692-1.69c0.93,0,1.689,0.754,1.689,1.69v43.916
		l-0.039,22.746v142.157h0.002l-0.002,1.506v397.299h228.297V612.614l-0.005-1.506h0.005V468.952l-0.07-22.746V402.29
		c0-0.936,0.761-1.69,1.688-1.69c0.936,0,1.689,0.754,1.689,1.69v43.916v140.958h46.404V406.512L338.87,400.718z"/>
	<path fill="#231F20" d="M338.87,364.688c0-46.912-38.029-84.942-84.943-84.942h-80.752v730.167h115.995V612.614l-0.005-1.506h0.005
		V468.952l-0.07-22.746V402.29c0-0.936,0.761-1.69,1.688-1.69c0.936,0,1.689,0.754,1.689,1.69v43.916v140.958h46.404V406.512
		l-0.01-5.794V364.688z"/>
	<path fill="#FFFFFF" d="M134.35,279.745v10.133c0,22.035,17.859,39.898,39.894,39.898c22.034,0,39.891-17.864,39.891-39.898
		v-10.133H134.35z"/>
	<path fill="#F1F1F2" d="M173.175,329.723c0.359,0.009,0.708,0.054,1.069,0.054c22.034,0,39.891-17.864,39.891-39.898v-10.133
		h-40.96V329.723z"/>
	<g>
		<path fill="#FFD9A1" d="M110.377,187.627c0.002,9.524-7.723,17.25-17.249,17.25l0,0c-9.526,0.002-17.254-7.718-17.254-17.245
			v-14.282c-0.002-9.526,7.721-17.248,17.247-17.25l0,0c9.526,0,17.254,7.722,17.254,17.248L110.377,187.627z"/>
		<path fill="#FDCF9D" d="M104.149,185.046c-0.002,6.088-4.934,11.021-11.021,11.021l0,0c-6.084,0-11.019-4.933-11.019-11.018
			l0.002-9.12c-0.007-6.085,4.933-11.014,11.017-11.017l0,0c6.086,0,11.016,4.929,11.014,11.012L104.149,185.046z"/>
		<path fill="#E5BD90" d="M272.131,187.605c0.002,9.527-7.713,17.248-17.241,17.248l0,0c-9.527,0.002-17.253-7.718-17.253-17.243
			l-0.009-14.281c0-9.526,7.73-17.246,17.255-17.248l0,0c9.527-0.002,17.248,7.717,17.248,17.244V187.605z"/>
		<path fill="#DBB58A" d="M265.901,185.03c0,6.08-4.923,11.018-11.008,11.016l0,0c-6.083,0.002-11.024-4.934-11.022-11.016
			l-0.004-9.124c0-6.083,4.929-11.015,11.017-11.017l0,0c6.085,0,11.014,4.932,11.023,11.017L265.901,185.03z"/>
		<path fill="#FFD9A1" d="M173.992,39.213c-46.481,0.007-84.149,37.691-84.144,84.166l0.007,56.101
			c0.004,35.695,22.248,66.171,53.616,78.404l0.002,33.787c0.005,16.868,13.679,30.546,30.554,30.542
			c16.868,0,30.534-13.678,30.537-30.546l-0.002-33.792c31.361-12.233,53.601-42.72,53.594-78.418l-0.012-56.101
			C258.136,76.879,220.465,39.208,173.992,39.213z"/>
		<path fill="#FDCF9D" d="M257.987,118.302c-0.035-0.505-0.084-1.009-0.127-1.519c-0.084-1.194-0.201-2.384-0.35-3.568
			c-0.061-0.53-0.121-1.059-0.192-1.586c-0.185-1.297-0.393-2.585-0.636-3.867c-0.07-0.334-0.112-0.673-0.182-1.007
			c-0.318-1.621-0.697-3.225-1.113-4.816c-0.08-0.294-0.17-0.587-0.25-0.879c-0.359-1.295-0.741-2.581-1.161-3.854
			c-0.128-0.421-0.278-0.838-0.423-1.258c-0.416-1.217-0.86-2.422-1.337-3.617c-0.135-0.323-0.26-0.654-0.388-0.978
			c-1.268-3.067-2.704-6.043-4.307-8.918c-0.122-0.213-0.246-0.424-0.371-0.635c-0.706-1.249-1.451-2.484-2.227-3.691
			c-0.13-0.216-0.275-0.424-0.405-0.637c-2.764-4.233-5.898-8.205-9.36-11.866c-0.073-0.08-0.143-0.161-0.223-0.235
			c-4.729-4.964-10.049-9.353-15.862-13.05c-0.03-0.019-0.059-0.038-0.089-0.056l-2.109-1.302
			c-12.556-7.456-27.222-11.751-42.882-11.749c-0.276,0-0.548,0.02-0.819,0.022l0.035,282.939c0.272,0.007,0.548,0.04,0.82,0.038
			c16.868,0,30.534-13.678,30.536-30.546l-0.002-33.792c31.36-12.233,53.601-42.72,53.594-78.418l-0.012-56.101
			C258.148,121.656,258.085,119.977,257.987,118.302z"/>
		<path fill="#231F20" d="M204.146,84.149c0,0-41.763,43.016-100.975,52.375c0,0-11.765,20.028-11.142,57.039l-2.415-36.854
			c0,0-4.522,0.154-9.196,6.233c0,0-21.507-60.701-4.064-104.336c0,0,25.548-66.075,111.573-58.605c0,0,50.357,6.698,49.25,36.144
			c0,0,49.713,6.85,30.558,105.498l-4.211,16.128l-4.36-1.4c0,0,0.683,30.035-1.529,38.569c0,0-2.057-45.35-15.152-76.669
			C242.481,118.27,228.92,80.411,204.146,84.149z"/>
	</g>
	<polygon fill="#3B2314" points="189.706,221.853 174.18,227.754 158.653,221.853 	"/>
	<path fill="#3B2314" d="M146.87,150.716c0,4.265-3.46,7.72-7.721,7.72c-4.271,0-7.721-3.455-7.721-7.72
		c0-4.265,3.45-7.723,7.721-7.723C143.41,142.994,146.87,146.452,146.87,150.716z"/>
	<path fill="#3B2314" d="M218.623,150.716c0,4.265-3.461,7.72-7.721,7.72c-4.269,0-7.724-3.455-7.724-7.72
		c0-4.265,3.456-7.723,7.724-7.723C215.162,142.994,218.623,146.452,218.623,150.716z"/>
	<polygon fill="#E5BD90" points="173.175,158.923 173.175,200.912 183.538,194.366 	"/>
	<polygon fill="#FFFFFF" points="232.434,521.525 113.915,521.525 149.83,322.195 196.52,322.195 	"/>
	<polygon fill="#F1F1F2" points="173.175,521.525 232.434,521.525 196.52,322.195 173.175,322.195 	"/>
</g>
</svg>
