<?xml version="1.0" encoding="utf-8"?>
<!-- Generator: Adobe Illustrator 16.0.4, SVG Export Plug-In . SVG Version: 6.00 Build 0)  -->
<!DOCTYPE svg PUBLIC "-//W3C//DTD SVG 1.0//EN" "http://www.w3.org/TR/2001/REC-SVG-20010904/DTD/svg10.dtd">
<svg version="1.0" xmlns="http://www.w3.org/2000/svg" xmlns:xlink="http://www.w3.org/1999/xlink" x="0px" y="0px"
	 width="146.464px" height="490.426px" viewBox="0 0 146.464 490.426" enable-background="new 0 0 146.464 490.426"
	 xml:space="preserve">
<g id="advokat">
</g>
<g id="arsitek">
</g>
<g id="creativeprenuer">
</g>
<g id="diplomat">
	<g>
		<path fill="#3B2314" d="M115.807,97.748c0,23.645-19.168,42.814-42.815,42.814l0,0c-23.646,0-42.815-19.17-42.815-42.814V42.815
			C30.176,19.167,49.346,0,72.991,0l0,0c23.647,0,42.815,19.167,42.815,42.815V97.748z"/>
		<path fill="#FFD9A1" d="M29.213,470.504c0,10.931,8.861,19.792,19.792,19.792c10.932,0,19.793-8.861,19.793-19.792v-99.363H29.213
			V470.504z"/>
		<path fill="#FDCF9D" d="M68.798,470.504v-99.363h-18.46v110.698c0,2.903,0.567,5.671,1.565,8.222
			C61.457,488.655,68.798,480.448,68.798,470.504z"/>
		<path fill="#FDCF9D" d="M77.684,371.141v99.363c0,10.931,8.861,19.792,19.792,19.792c10.932,0,19.793-8.861,19.793-19.792v-99.363
			H77.684z"/>
		<polygon fill="#323031" points="29.213,255.622 29.213,371.141 68.798,371.141 77.684,371.141 117.269,371.141 117.269,255.622 		
			"/>
		<path fill="#FFFFFF" d="M24.076,248.08v-66.324v-18.378c0-0.392,0.317-0.707,0.705-0.707c0.393,0,0.71,0.315,0.71,0.707v18.378
			l-0.014,9.517l-0.002,56.04c0,6.753,5.473,12.229,12.227,12.229h71.077c6.753,0,12.227-5.476,12.227-12.229v-56.04l-0.027-9.517
			v-18.378c0-0.392,0.319-0.707,0.706-0.707c0.392,0,0.707,0.315,0.707,0.707v18.378v66.324c0,0,0.076,2.171-1.078,4.312h20.5
			l-0.006-4.242v-83.004l-0.002-2.423v-15.078c0-19.63-15.913-35.544-35.545-35.544H40.227c-19.63,0-35.544,15.914-35.544,35.544
			v16.693l-0.004,0.808v83.863l-0.021,3.384h20.501C24.002,250.25,24.076,248.08,24.076,248.08z"/>
		<line fill="none" stroke="#231F20" stroke-miterlimit="10" x1="17.384" y1="291.75" x2="17.384" y2="291.75"/>
		<path fill="#FDCF9D" d="M120.776,253.249c0,0-0.729,1.43-0.919,1.875c-0.608,1.426-0.902,3.013-0.902,4.66v2.256l-0.016,7.918
			v10.59c0,1.553,1.257,2.812,2.808,2.812c1.555,0,2.812-1.259,2.812-2.812v-10.59v-2.606c0-0.565,0.454-1.02,1.016-1.02
			c0.565,0,1.02,0.454,1.02,1.02v23.121c1.479,0.618,3.102,0.962,4.803,0.962c6.875,0,12.443-5.569,12.443-12.441v-19.209
			c0-1.603-0.303-3.134-0.854-4.541c-0.313-0.802-0.707-1.559-1.173-2.27v-0.582h-20.5
			C121.155,252.677,120.982,252.965,120.776,253.249z"/>
		<path fill="#FFD9A1" d="M3.483,255.243c-0.552,1.407-0.855,2.938-0.855,4.541v19.209c0,6.872,5.57,12.441,12.442,12.441
			c1.704,0,3.327-0.344,4.802-0.962v-23.121c0-0.565,0.455-1.02,1.019-1.02s1.021,0.454,1.021,1.02l-0.004,2.606v10.59
			c0,1.553,1.261,2.812,2.812,2.812c1.554,0,2.812-1.259,2.812-2.812v-10.59l-0.02-7.918v-2.256c0-1.647-0.291-3.234-0.902-4.66
			c-0.189-0.445-0.918-1.875-0.918-1.875c-0.205-0.283-0.38-0.571-0.534-0.857H4.657l-0.004,0.582
			C4.189,253.684,3.796,254.441,3.483,255.243z"/>
		<path fill="#231F20" d="M125.729,469.763h-8.799c0.021,0.312,0.047,0.625,0.047,0.943v1.413c0,7.139-5.786,12.926-12.925,12.926
			H90.521c-4.786,0-8.958-2.612-11.193-6.48c-2.369,3.356-3.776,7.443-3.792,11.861h70.929
			C146.423,479.006,137.16,469.763,125.729,469.763z"/>
		<path fill="#231F20" d="M20.735,469.763h8.797c-0.021,0.312-0.047,0.625-0.047,0.943v1.413c0,7.139,5.788,12.926,12.925,12.926
			h13.532c4.789,0,8.959-2.612,11.191-6.48c2.37,3.356,3.781,7.443,3.797,11.861H0C0.041,479.006,9.306,469.763,20.735,469.763z"/>
		<path fill="#FFD9A1" d="M45.755,71.727c0,4.114-3.335,7.45-7.45,7.45l0,0c-4.115,0-7.454-3.335-7.454-7.45v-6.17
			c0-4.114,3.339-7.45,7.454-7.45l0,0c4.115,0,7.45,3.335,7.45,7.45V71.727z"/>
		<path fill="#FDCF9D" d="M43.063,70.609c0,2.628-2.131,4.761-4.759,4.761l0,0c-2.628,0-4.762-2.133-4.762-4.761v-3.938
			c0-2.629,2.134-4.758,4.762-4.758l0,0c2.628,0,4.759,2.129,4.759,4.758V70.609z"/>
		<path fill="#E5BD90" d="M115.632,71.727c0,4.114-3.334,7.45-7.449,7.45l0,0c-4.115,0-7.455-3.335-7.455-7.45v-6.17
			c0-4.114,3.34-7.45,7.455-7.45l0,0c4.115,0,7.449,3.335,7.449,7.45V71.727z"/>
		<path fill="#DBB58A" d="M112.94,70.612c0,2.625-2.13,4.758-4.758,4.758l0,0c-2.629,0-4.762-2.133-4.762-4.758v-3.941
			c0-2.629,2.133-4.758,4.762-4.758l0,0c2.628,0,4.758,2.129,4.758,4.758V70.612z"/>
		<polygon fill="#231F20" points="72.897,371.141 77.684,371.141 117.269,371.141 117.269,255.622 72.897,255.622 		"/>
		<path fill="#F1F1F2" d="M141.808,165.145l-0.002-2.423v-15.078c0-19.63-15.913-35.544-35.545-35.544H72.896v147.442h35.884
			c6.753,0,12.227-5.476,12.227-12.229v-56.04l-0.029-9.517l0.002-18.378c0-0.392,0.319-0.707,0.706-0.707
			c0.392,0,0.707,0.315,0.707,0.707v18.378v66.324c0,0,0.076,2.171-1.078,4.312h20.5l-0.006-4.242V165.145z"/>
		<path fill="#FFD9A1" d="M73.243,7.618c-20.078,0-36.352,16.276-36.352,36.353v24.234c0,15.418,9.604,28.587,23.156,33.872v14.599
			c0,7.286,5.906,13.194,13.195,13.194c7.286,0,13.194-5.908,13.194-13.194v-14.599c13.55-5.281,23.155-18.451,23.155-33.872V43.97
			C109.593,23.894,93.319,7.618,73.243,7.618z"/>
		<path fill="#FDCF9D" d="M72.893,129.852c0.114,0.003,0.232,0.017,0.352,0.017c7.286,0,13.194-5.908,13.194-13.194v-14.599
			c13.549-5.281,23.156-18.451,23.156-33.872V43.97c0-12.916-6.74-24.251-16.889-30.698H72.893V129.852z"/>
		<path fill="#3B2314" d="M61.461,58.107c0,1.783-1.448,3.229-3.23,3.229c-1.788,0-3.234-1.446-3.234-3.229
			c0-1.787,1.446-3.231,3.234-3.231C60.013,54.876,61.461,56.32,61.461,58.107z"/>
		<path fill="#3B2314" d="M91.485,58.107c0,1.783-1.447,3.229-3.23,3.229c-1.786,0-3.23-1.446-3.23-3.229
			c0-1.787,1.444-3.231,3.23-3.231C90.038,54.876,91.485,56.32,91.485,58.107z"/>
		<polygon fill="#E5BD90" points="72.892,61.54 72.892,79.11 77.226,76.372 		"/>
		<polygon fill="#EC1C24" points="79.389,87.871 72.892,90.341 66.393,87.871 		"/>
		<path fill="#3B2314" d="M64.114,49.877c0,0.474-0.385,0.858-0.859,0.858h-10.5c-0.474,0-0.859-0.384-0.859-0.858l0,0
			c0-0.473,0.386-0.858,0.859-0.858h10.5C63.729,49.019,64.114,49.404,64.114,49.877L64.114,49.877z"/>
		<path fill="#3B2314" d="M94.206,49.877c0,0.474-0.386,0.858-0.857,0.858H82.847c-0.475,0-0.859-0.384-0.859-0.858l0,0
			c0-0.473,0.385-0.858,0.859-0.858h10.502C93.82,49.019,94.206,49.404,94.206,49.877L94.206,49.877z"/>
		<path fill="#3B2314" d="M97.226,28.072c0,0-7.27,14.744-33.121,14.744c0,0,18.38-5.251,23.429-13.935
			c0,0-19.39,11.713-35.546,13.732c0,0-14.441-2.14-13.683,32.758c0,0,1.162-18.015-3.685-17.61l0.807-29.083L59.258,5.655
			L82.279,5.25l24.237,16.156l6.059,34.939c0,0-3.23,3.635-3.23,14.339c0,0-2.828-19.792-2.828-28.879
			C106.517,41.806,106.112,30.292,97.226,28.072z"/>
		<path fill="#FDCF9D" d="M122.392,243.026v5.054c0,0,0.076,2.171-1.078,4.312h20.5l-0.006-4.242v-5.123H122.392z"/>
		<path fill="#FFD9A1" d="M24.076,248.08v-45.132H4.679v46.06l-0.021,3.384h20.501C24.002,250.25,24.076,248.08,24.076,248.08z"/>
		<path fill="#A66027" d="M121.006,266.452v-75.179l-0.029-9.517l0.002-18.378c0-0.392,0.319-0.707,0.706-0.707
			c0.392,0,0.707,0.315,0.707,0.707v18.378v66.324c0,0,0.076,2.171-1.078,4.312h20.5l-0.006-4.242v-83.004l-0.002-2.423v-15.078
			c0-19.63-15.913-35.544-35.545-35.544l-17.958-0.03l-15.407,93.264v61.119H121.006z"/>
		<path fill="#BF6D29" d="M24.07,248.08v-66.324v-18.378c0-0.392,0.314-0.707,0.705-0.707c0.389,0,0.708,0.315,0.708,0.707
			l0.002,18.378l-0.029,9.517v75.179h48.11v-61.119l-15.407-93.264l-17.958,0.03c-19.632,0-35.546,15.914-35.546,35.544v15.078
			l-0.002,2.423v83.004l-0.006,4.242h20.501C23.994,250.25,24.07,248.08,24.07,248.08z"/>
		<polygon fill="#FFD9A1" points="87.427,117.632 72.893,155.097 59.36,117.632 		"/>
		<polygon fill="#FDCF9D" points="85.423,132.233 72.893,155.278 72.893,112.069 86.419,112.069 		"/>
		<polygon fill="#6C3E16" points="73.022,204.498 96.401,161.915 83.71,148.389 102.08,146.886 95.734,137.034 83.71,145.383 		"/>
		<polygon fill="#78451C" points="72.899,205.333 95.817,159.16 85.047,147.22 102.831,145.634 89.054,112.486 86.419,112.069 
			87.051,117.83 		"/>
		<polygon fill="#78451C" points="73.438,204.498 50.06,161.915 62.751,148.389 44.382,146.886 50.728,137.034 62.751,145.383 		"/>
		<polygon fill="#8F5322" points="73.562,205.333 50.644,159.16 61.415,147.22 43.631,145.634 57.407,112.486 60.043,112.069 
			59.411,117.83 		"/>
		<polygon fill="#E6E7E8" points="106.833,136.554 92.826,129.603 73.587,155.097 90.363,122.589 		"/>
		<polygon fill="#F1F1F2" points="86.45,105.838 106.896,136.616 92.367,127.098 73.759,155.152 86.45,118.195 		"/>
		<polygon fill="#E6E7E8" points="39.646,136.554 53.653,129.603 72.893,155.097 56.115,122.589 		"/>
		<polygon fill="#F1F1F2" points="60.029,105.838 39.584,136.616 54.111,127.098 72.72,155.152 60.029,118.195 		"/>
	</g>
</g>
<g id="engineer_manager">
</g>
<g id="entreprenuer">
</g>
<g id="it-consultant">
</g>
<g id="manajemen_operasional">
</g>
<g id="public_relation">
</g>
<g id="teknopreneur">
</g>
<g id="trader2">
</g>
</svg>
