<?xml version="1.0" encoding="utf-8"?>
<!-- Generator: Adobe Illustrator 16.0.4, SVG Export Plug-In . SVG Version: 6.00 Build 0)  -->
<!DOCTYPE svg PUBLIC "-//W3C//DTD SVG 1.0//EN" "http://www.w3.org/TR/2001/REC-SVG-20010904/DTD/svg10.dtd">
<svg version="1.0" xmlns="http://www.w3.org/2000/svg" xmlns:xlink="http://www.w3.org/1999/xlink" x="0px" y="0px"
	 width="146.624px" height="500px" viewBox="0 0 146.624 500" enable-background="new 0 0 146.624 500" xml:space="preserve">
<g id="advokat">
</g>
<g id="arsitek">
</g>
<g id="creativeprenuer">
</g>
<g id="diplomat">
</g>
<g id="engineer_manager">
</g>
<g id="entreprenuer">
	<g>
		<line fill="none" stroke="#231F20" stroke-miterlimit="10" x1="17.401" y1="301.097" x2="17.401" y2="301.097"/>
		<g>
			<g>
				<path fill="#00557F" d="M29.245,264.929h88.151v215.125c0,10.943-8.87,19.814-19.813,19.814l0,0
					c-10.943,0-19.814-8.871-19.814-19.814V310.22l0.021-1.186v-3.328c0-2.469-2-4.469-4.469-4.469l0,0c-2.468,0-4.47,2-4.47,4.469
					v3.328l0.021,2.264v168.756c0,10.943-8.871,19.814-19.814,19.814l0,0c-10.942,0-19.813-8.871-19.813-19.814V264.929"/>
			</g>
		</g>
		<path fill="#F1F1F2" d="M141.961,171.927v-15.095c0-19.652-15.932-35.583-35.585-35.583H40.27
			c-19.652,0-35.584,15.931-35.584,35.583v16.711l-0.004,0.809v17.589h19.42v-0.96v-18.398c0-0.392,0.317-0.707,0.707-0.707
			c0.393,0,0.709,0.315,0.709,0.707v18.398l-0.014,9.528l-0.002,56.101c0,6.761,5.479,12.242,12.24,12.242h71.155
			c6.761,0,12.24-5.481,12.24-12.242V200.51l-0.027-9.528v-18.398c0-0.392,0.319-0.707,0.707-0.707c0.392,0,0.708,0.315,0.708,0.707
			v18.398v1.163h19.438v-17.792L141.961,171.927z"/>
		<path fill="#004869" d="M72.994,290.837c-12.483,0.023-22.602,10.15-22.602,22.643v177.922c0,2.906,0.568,5.678,1.565,8.231
			c9.566-1.407,16.915-9.624,16.915-19.579V311.298l-0.021-2.264v-3.328c0-2.469,2.002-4.469,4.47-4.469
			c2.469,0,4.469,2,4.469,4.469v3.328l-0.021,1.186v169.834c0,10.943,8.871,19.814,19.814,19.814s19.813-8.871,19.813-19.814
			V264.929H72.994V290.837z"/>
		<path fill="#EAEBEC" d="M121.138,200.51l-0.029-9.528l0.002-18.398c0-0.392,0.319-0.707,0.707-0.707
			c0.392,0,0.708,0.315,0.708,0.707v18.398v1.163h19.438v-17.792l-0.002-2.425v-15.095c0-19.652-15.932-35.583-35.585-35.583H72.974
			v147.604h35.924c6.761,0,12.24-5.481,12.24-12.242V200.51z"/>
		<path fill="#231F20" d="M71.012,500c-0.045-11.434-9.317-20.688-20.758-20.688H20.758C9.319,479.312,0.041,488.566,0,500H71.012z"
			/>
		<path fill="#231F20" d="M146.624,500c-0.039-11.434-9.312-20.688-20.758-20.688h-29.49c-11.438,0-20.721,9.254-20.758,20.688
			H146.624z"/>
		<path fill="#FDCF9D" d="M143.142,264.55c-0.313-0.803-0.707-1.561-1.173-2.272v-0.583h-0.001l-0.006-4.247v-65.303h-19.438v65.233
			c0,0,0.077,2.174-1.079,4.316h0.001c-0.159,0.287-0.331,0.574-0.536,0.858c0,0-0.731,1.431-0.921,1.877
			c-0.609,1.427-0.903,3.016-0.903,4.665v2.26l-0.016,7.926v10.602c0,1.555,1.257,2.814,2.812,2.814s2.814-1.26,2.814-2.814v-10.602
			v-2.609c0-0.566,0.454-1.021,1.017-1.021c0.567,0,1.021,0.454,1.021,1.021v23.146c1.48,0.619,3.105,0.963,4.808,0.963
			c6.882,0,12.458-5.576,12.458-12.456v-19.229C143.998,267.492,143.694,265.958,143.142,264.55z"/>
		<path fill="#FFD9A1" d="M27.541,271.355v-2.26c0-1.649-0.289-3.238-0.902-4.665c-0.19-0.446-0.919-1.877-0.919-1.877
			c-0.206-0.284-0.38-0.571-0.534-0.858c-1.158-2.143-1.084-4.316-1.084-4.316v-65.233H4.682v66.162l-0.021,3.388l-0.004,0.583
			c-0.463,0.712-0.857,1.47-1.171,2.272c-0.553,1.408-0.856,2.941-0.856,4.545v19.229c0,6.88,5.576,12.456,12.456,12.456
			c1.706,0,3.331-0.344,4.808-0.963v-23.146c0-0.566,0.457-1.021,1.021-1.021c0.562,0,1.021,0.454,1.021,1.021l-0.004,2.609v10.602
			c0,1.555,1.264,2.814,2.816,2.814c1.556,0,2.814-1.26,2.814-2.814v-10.602L27.541,271.355z"/>
		<path fill="#E5BD90" d="M56.257,121.249v4.246c0,9.231,7.483,16.714,16.714,16.714c9.231,0,16.714-7.483,16.714-16.714v-4.246
			H56.257z"/>
		<g>
			<path fill="#FFD9A1" d="M45.805,80.813c0,4.119-3.341,7.459-7.459,7.459l0,0c-4.12,0-7.462-3.34-7.462-7.459v-6.176
				c0-4.12,3.342-7.459,7.462-7.459l0,0c4.118,0,7.459,3.339,7.459,7.459V80.813z"/>
			<path fill="#FDCF9D" d="M43.108,79.697c0,2.632-2.131,4.765-4.763,4.765l0,0c-2.633,0-4.768-2.133-4.768-4.765v-3.945
				c0-2.631,2.135-4.764,4.768-4.764l0,0c2.632,0,4.763,2.133,4.763,4.764V79.697z"/>
			<path fill="#E5BD90" d="M115.76,80.813c0,4.119-3.34,7.459-7.46,7.459l0,0c-4.12,0-7.462-3.34-7.462-7.459v-6.176
				c0-4.12,3.342-7.459,7.462-7.459l0,0c4.12,0,7.46,3.339,7.46,7.459V80.813z"/>
			<path fill="#DBB58A" d="M113.064,79.698c0,2.631-2.132,4.764-4.765,4.764l0,0c-2.631,0-4.766-2.133-4.766-4.764v-3.946
				c0-2.631,2.135-4.764,4.766-4.764l0,0c2.633,0,4.765,2.133,4.765,4.764V79.698z"/>
			<path fill="#FFD9A1" d="M73.323,16.633c-20.103,0-36.394,16.295-36.394,36.392v24.263c0,15.437,9.616,28.62,23.182,33.91v14.614
				c0,7.294,5.914,13.21,13.212,13.21c7.293,0,13.208-5.917,13.208-13.21v-14.614c13.564-5.288,23.182-18.471,23.182-33.91V53.025
				C109.713,32.928,93.421,16.633,73.323,16.633z"/>
			<path fill="#FDCF9D" d="M109.641,50.84c-0.012-0.219-0.031-0.437-0.049-0.656c-0.039-0.517-0.09-1.033-0.15-1.544
				c-0.027-0.229-0.057-0.458-0.088-0.686c-0.079-0.56-0.172-1.118-0.275-1.672c-0.027-0.146-0.047-0.291-0.078-0.435
				c-0.139-0.702-0.301-1.395-0.479-2.083c-0.033-0.127-0.074-0.253-0.107-0.38c-0.154-0.562-0.32-1.117-0.5-1.667
				c-0.061-0.183-0.123-0.363-0.184-0.544c-0.183-0.526-0.375-1.047-0.581-1.564c-0.057-0.14-0.109-0.282-0.168-0.423
				c-0.546-1.327-1.167-2.614-1.861-3.857c-0.051-0.092-0.105-0.184-0.156-0.275c-0.31-0.541-0.631-1.075-0.966-1.597
				c-0.059-0.092-0.117-0.184-0.174-0.275c-1.197-1.831-2.552-3.549-4.047-5.132c-0.033-0.035-0.064-0.069-0.098-0.102
				c-2.045-2.147-4.345-4.046-6.86-5.645c-0.012-0.008-0.025-0.016-0.037-0.023l-0.913-0.563c-5.431-3.226-11.77-5.083-18.544-5.083
				c-0.12,0-0.237,0.008-0.355,0.009v122.362c0.118,0.003,0.235,0.018,0.355,0.018c7.293,0,13.207-5.917,13.207-13.21v-14.614
				c13.565-5.288,23.183-18.471,23.183-33.91V53.025C109.714,52.291,109.687,51.564,109.641,50.84z"/>
			<g>
				<path fill="#3B2314" d="M108.278,86.299c-0.149,0.627-0.284,1.19-0.397,1.626C108.025,87.386,108.168,86.846,108.278,86.299z"/>
				<path fill="#3B2314" d="M100.649,24.518c0,0,4.918-9.502-3.438-14.219c0,0-52.501-17.59-62.814,26.284
					c0,0-0.671,16.039,1.149,27.158c0,0,1.011,15.164,3.032,23.454c0,0-3.032-16.781,4.043-25.273c0,0,7.077-7.076,3.032-14.557
					c0,0,0.077-0.311,0.248-0.831c20.917-0.45,39.988-8.267,39.988-8.267c-2.831,4.649-24.264,8.491-24.264,8.491
					c32.958-1.213,35.99-12.536,35.99-12.536s6.67,7.279,6.874,14.355c0,0-4.448,6.468,0.202,12.333c0,0,6.034,13.312,3.585,25.389
					c1.059-4.525,3.086-22.558,3.086-22.558S119.048,30.65,100.649,24.518z"/>
				<path fill="#3B2314" d="M107.881,87.925c-0.117,0.431-0.215,0.866-0.356,1.291C107.524,89.216,107.664,88.755,107.881,87.925z"
					/>
			</g>
			<path fill="#3B2314" d="M34.397,36.583c0,0-0.062-25.55,12.224-36.583c0,0-6.519,7.021,28.838,6.771L34.397,36.583z"/>
		</g>
		<polygon fill="#3B2314" points="79.474,96.996 72.969,99.468 66.465,96.996 		"/>
		<polygon fill="#E5BD90" points="72.969,70.644 72.969,88.233 77.309,85.491 		"/>
		<circle fill="#3B2314" cx="58.293" cy="67.178" r="3.234"/>
		<circle fill="#3B2314" cx="88.351" cy="67.178" r="3.235"/>
		<path fill="#937A2E" d="M77.097,201.219c15.146-30.54,9.591-79.019,9.486-79.97h19.863c19.65,0,35.582,15.931,35.582,35.583
			v16.711l0.004,0.809v87.802h-19.418v-71.173v-18.398c0-0.392-0.318-0.707-0.707-0.707c-0.392,0-0.71,0.315-0.71,0.707v18.398
			l0.014,9.528l0.002,66.132c0,6.76-5.479,12.241-12.24,12.241H87.954c-1.216-0.062-5.218-0.596-6.369-4.89l-7.164-27.137
			C66.23,217.769,77.097,201.219,77.097,201.219z"/>
		<path fill="#7B6629" d="M73.629,210.251c1.559-5.777,3.468-9.032,3.468-9.032c14.452-29.143,10.056-74.618,9.532-79.545
			l12.785,11.087l-6.019,4.012l6.019,4.263C99.414,141.037,90.631,188.528,73.629,210.251z"/>
		<path fill="#AA8D30" d="M69.619,201.219c-15.145-30.54-9.591-79.019-9.486-79.97H40.27c-19.652,0-35.584,15.931-35.584,35.583
			v16.711l-0.004,0.809v87.802h19.42v-71.173v-18.398c0-0.392,0.317-0.707,0.707-0.707c0.393,0,0.709,0.315,0.709,0.707v18.398
			l-0.014,9.528l-0.002,66.132c0,6.76,5.479,12.241,12.24,12.241h21.02c1.217-0.062,5.218-0.596,6.368-4.89l7.164-27.137
			C80.486,217.769,69.619,201.219,69.619,201.219z"/>
		<path fill="#937A2E" d="M73.087,210.251c-1.558-5.777-3.468-9.032-3.468-9.032c-14.451-29.143-10.057-74.618-9.532-79.545
			l-12.785,11.087l6.019,4.012l-6.019,4.263C47.302,141.037,56.085,188.528,73.087,210.251z"/>
		<circle fill="#937A2E" cx="71.625" cy="221.531" r="2.257"/>
		<circle fill="#937A2E" cx="68.366" cy="244.099" r="2.257"/>
	</g>
</g>
<g id="it-consultant">
</g>
<g id="manajemen_operasional">
</g>
<g id="public_relation">
</g>
<g id="teknopreneur">
</g>
<g id="trader2">
</g>
</svg>
