<?xml version="1.0" encoding="utf-8"?>
<!-- Generator: Adobe Illustrator 16.0.4, SVG Export Plug-In . SVG Version: 6.00 Build 0)  -->
<!DOCTYPE svg PUBLIC "-//W3C//DTD SVG 1.0//EN" "http://www.w3.org/TR/2001/REC-SVG-20010904/DTD/svg10.dtd">
<svg version="1.0" xmlns="http://www.w3.org/2000/svg" xmlns:xlink="http://www.w3.org/1999/xlink" x="0px" y="0px"
	 width="146.463px" height="490.426px" viewBox="0 0 146.463 490.426" enable-background="new 0 0 146.463 490.426"
	 xml:space="preserve">
<g id="advokat">
</g>
<g id="arsitek">
</g>
<g id="creativeprenuer">
</g>
<g id="diplomat">
</g>
<g id="engineer_manager">
</g>
<g id="entreprenuer">
</g>
<g id="it-consultant">
</g>
<g id="manajemen_operasional">
</g>
<g id="public_relation">
</g>
<g id="teknopreneur">
	<g>
		<path fill="#3B2314" d="M115.807,97.748c0,23.645-19.169,42.814-42.815,42.814l0,0c-23.646,0-42.815-19.17-42.815-42.814V42.815
			C30.176,19.167,49.346,0,72.991,0l0,0c23.646,0,42.815,19.167,42.815,42.815V97.748z"/>
		<path fill="#FFD9A1" d="M29.213,470.504c0,10.932,8.861,19.793,19.792,19.793s19.792-8.861,19.792-19.793v-99.362H29.213V470.504z
			"/>
		<path fill="#FDCF9D" d="M68.797,470.504v-99.362H50.338v110.697c0,2.903,0.566,5.671,1.564,8.222
			C61.457,488.654,68.797,480.447,68.797,470.504z"/>
		<path fill="#FDCF9D" d="M77.684,371.142v99.362c0,10.932,8.86,19.793,19.793,19.793c10.931,0,19.791-8.861,19.791-19.793v-99.362
			H77.684z"/>
		<polygon fill="#323031" points="29.213,255.621 29.213,371.142 68.797,371.142 77.684,371.142 117.268,371.142 117.268,255.621 		
			"/>
		<path fill="#FFFFFF" d="M24.075,248.079v-66.323v-18.378c0-0.392,0.317-0.707,0.708-0.707s0.707,0.315,0.707,0.707v18.378
			l-0.014,9.517l-0.002,56.042c0,6.751,5.474,12.227,12.227,12.227h71.078c6.754,0,12.227-5.476,12.227-12.227v-56.042l-0.027-9.517
			v-18.378c0-0.392,0.318-0.707,0.706-0.707c0.392,0,0.706,0.315,0.706,0.707v18.378v66.323c0,0,0.076,2.172-1.078,4.312h20.502
			l-0.006-4.241v-83.005l-0.002-2.423v-15.078c0-19.631-15.914-35.544-35.547-35.544H40.226c-19.63,0-35.543,15.914-35.543,35.544
			v16.692l-0.004,0.809v83.862l-0.021,3.384h20.501C24.001,250.251,24.075,248.079,24.075,248.079z"/>
		<line fill="none" stroke="#231F20" stroke-miterlimit="10" x1="17.383" y1="291.75" x2="17.383" y2="291.75"/>
		<path fill="#FDCF9D" d="M120.776,253.249c0,0-0.729,1.429-0.919,1.875c-0.609,1.425-0.902,3.012-0.902,4.659v2.256l-0.016,7.918
			v10.592c0,1.551,1.256,2.81,2.808,2.81c1.554,0,2.812-1.259,2.812-2.81v-10.592v-2.606c0-0.565,0.454-1.02,1.016-1.02
			c0.565,0,1.02,0.454,1.02,1.02v23.121c1.478,0.618,3.103,0.963,4.802,0.963c6.875,0,12.444-5.569,12.444-12.442v-19.209
			c0-1.603-0.304-3.133-0.855-4.54c-0.312-0.803-0.706-1.56-1.171-2.271v-0.582h-20.502
			C121.154,252.678,120.982,252.965,120.776,253.249z"/>
		<path fill="#FFD9A1" d="M3.482,255.243c-0.553,1.407-0.854,2.938-0.854,4.54v19.209c0,6.873,5.569,12.442,12.442,12.442
			c1.704,0,3.326-0.345,4.803-0.963v-23.121c0-0.565,0.455-1.02,1.02-1.02c0.561,0,1.02,0.454,1.02,1.02l-0.004,2.606v10.592
			c0,1.551,1.26,2.81,2.811,2.81c1.555,0,2.812-1.259,2.812-2.81v-10.592l-0.02-7.918v-2.256c0-1.647-0.288-3.234-0.902-4.659
			c-0.189-0.446-0.918-1.875-0.918-1.875c-0.205-0.284-0.379-0.571-0.533-0.858H4.657l-0.004,0.582
			C4.189,253.684,3.796,254.44,3.482,255.243z"/>
		<path fill="#231F20" d="M125.727,469.763h-8.797c0.021,0.313,0.047,0.626,0.047,0.943v1.415c0,7.137-5.787,12.926-12.926,12.926
			h-13.53c-4.786,0-8.958-2.613-11.192-6.482c-2.371,3.356-3.777,7.444-3.793,11.861h70.928
			C146.422,479.006,137.16,469.763,125.727,469.763z"/>
		<path fill="#231F20" d="M20.735,469.763h8.796c-0.021,0.313-0.047,0.626-0.047,0.943v1.415c0,7.137,5.789,12.926,12.926,12.926
			h13.531c4.789,0,8.959-2.613,11.192-6.482c2.37,3.356,3.78,7.444,3.796,11.861H0C0.041,479.006,9.305,469.763,20.735,469.763z"/>
		<path fill="#FFD9A1" d="M45.755,71.728c0,4.114-3.335,7.449-7.45,7.449l0,0c-4.115,0-7.454-3.335-7.454-7.449v-6.171
			c0-4.114,3.339-7.45,7.454-7.45l0,0c4.115,0,7.45,3.335,7.45,7.45V71.728z"/>
		<path fill="#FDCF9D" d="M43.063,70.609c0,2.628-2.132,4.762-4.759,4.762l0,0c-2.629,0-4.762-2.133-4.762-4.762v-3.938
			c0-2.629,2.133-4.758,4.762-4.758l0,0c2.627,0,4.759,2.129,4.759,4.758V70.609z"/>
		<path fill="#E5BD90" d="M115.632,71.728c0,4.114-3.335,7.449-7.45,7.449l0,0c-4.115,0-7.453-3.335-7.453-7.449v-6.171
			c0-4.114,3.338-7.45,7.453-7.45l0,0c4.115,0,7.45,3.335,7.45,7.45V71.728z"/>
		<path fill="#DBB58A" d="M112.942,70.612c0,2.625-2.132,4.759-4.761,4.759l0,0c-2.628,0-4.761-2.133-4.761-4.759v-3.941
			c0-2.629,2.133-4.758,4.761-4.758l0,0c2.629,0,4.761,2.129,4.761,4.758V70.612z"/>
		<polygon fill="#231F20" points="72.896,371.142 77.684,371.142 117.268,371.142 117.268,255.621 72.896,255.621 		"/>
		<path fill="#F1F1F2" d="M141.809,165.145l-0.002-2.423v-15.078c0-19.631-15.914-35.544-35.547-35.544H72.895v147.442h35.885
			c6.754,0,12.227-5.476,12.227-12.227v-56.042l-0.029-9.517l0.002-18.378c0-0.392,0.318-0.707,0.706-0.707
			c0.392,0,0.706,0.315,0.706,0.707v18.378v66.323c0,0,0.076,2.172-1.078,4.312h20.502l-0.006-4.241V165.145z"/>
		<path fill="#E5BD90" d="M56.196,112.099v4.242c0,9.221,7.478,16.696,16.698,16.696s16.692-7.476,16.692-16.696v-4.242H56.196z"/>
		<path fill="#E5BD90" d="M56.196,112.099v4.242c0,9.221,7.478,16.696,16.698,16.696s16.692-7.476,16.692-16.696v-4.242H56.196z"/>
		<path fill="#FFD9A1" d="M73.243,7.617c-20.077,0-36.352,16.277-36.352,36.353v24.234c0,15.418,9.604,28.586,23.156,33.872v14.599
			c0,7.286,5.905,13.194,13.195,13.194c7.285,0,13.193-5.908,13.193-13.194v-14.599c13.55-5.282,23.157-18.451,23.157-33.872V43.97
			C109.594,23.894,93.319,7.617,73.243,7.617z"/>
		<path fill="#FDCF9D" d="M72.893,129.853c0.116,0.003,0.234,0.017,0.353,0.017c7.285,0,13.193-5.908,13.193-13.194v-14.599
			c13.55-5.282,23.157-18.451,23.157-33.872V43.97c0-12.916-6.74-24.251-16.889-30.698H72.893V129.853z"/>
		<path fill="#3B2314" d="M61.461,58.107c0,1.783-1.447,3.229-3.231,3.229c-1.785,0-3.231-1.446-3.231-3.229
			c0-1.787,1.446-3.231,3.231-3.231C60.014,54.876,61.461,56.32,61.461,58.107z"/>
		<path fill="#3B2314" d="M91.485,58.107c0,1.783-1.448,3.229-3.229,3.229c-1.788,0-3.232-1.446-3.232-3.229
			c0-1.787,1.444-3.231,3.232-3.231C90.037,54.876,91.485,56.32,91.485,58.107z"/>
		<polygon fill="#E5BD90" points="72.891,61.54 72.891,79.11 77.226,76.372 		"/>
		<polygon fill="#EC1C24" points="79.389,87.871 72.891,90.341 66.392,87.871 		"/>
		<path fill="#3B2314" d="M64.114,49.877c0,0.474-0.386,0.858-0.859,0.858H52.754c-0.474,0-0.859-0.385-0.859-0.858l0,0
			c0-0.473,0.386-0.858,0.859-0.858h10.501C63.729,49.019,64.114,49.404,64.114,49.877L64.114,49.877z"/>
		<path fill="#3B2314" d="M94.205,49.877c0,0.474-0.385,0.858-0.856,0.858H82.846c-0.473,0-0.859-0.385-0.859-0.858l0,0
			c0-0.473,0.387-0.858,0.859-0.858h10.503C93.82,49.019,94.205,49.404,94.205,49.877L94.205,49.877z"/>
		<path fill="#3B2314" d="M97.225,28.072c0,0-7.27,14.743-33.12,14.743c0,0,18.379-5.251,23.428-13.935
			c0,0-19.389,11.713-35.545,13.732c0,0-14.442-2.14-13.683,32.758c0,0,1.162-18.016-3.686-17.611l0.809-29.083L59.257,5.654
			L82.281,5.25l24.235,16.156l6.06,34.939c0,0-3.232,3.636-3.232,14.339c0,0-2.827-19.792-2.827-28.879
			C106.517,41.806,106.111,30.293,97.225,28.072z"/>
		<path fill="#FDCF9D" d="M122.391,225.492v14.517c0,0,0.076,6.235-1.078,12.382h20.502l-0.006-12.182v-14.717H122.391z"/>
		<path fill="#FFD9A1" d="M24.075,248.079v-45.131H4.679v46.059l-0.021,3.384h20.501C24.001,250.251,24.075,248.079,24.075,248.079z
			"/>
		<g>
			<path fill="#EE8722" d="M121.694,162.671c0.39,0,0.706,0.315,0.706,0.707v18.378v45.286h19.398v-61.897l-0.004-0.809v-16.692
				c0-19.631-15.915-35.544-35.545-35.544H94.123v4.228c0,9.808-6.879,17.997-16.074,20.038l11.145,136.201h19.582
				c6.754,0,12.227-5.477,12.227-12.227L121,191.273l-0.014-9.517v-18.378C120.986,162.986,121.303,162.671,121.694,162.671z"/>
		</g>
		<g>
			<path fill="#F19220" d="M52.354,116.327v-4.228H40.226c-19.63,0-35.543,15.914-35.543,35.544v16.692l-0.004,0.809v61.897h19.396
				v-45.286v-18.378c0-0.392,0.317-0.707,0.708-0.707s0.707,0.315,0.707,0.707v18.378l-0.014,9.517l-0.002,69.067
				c0,6.75,5.474,12.227,12.227,12.227H57.28l11.145-136.201C59.231,134.324,52.354,126.135,52.354,116.327z"/>
		</g>
	</g>
</g>
<g id="trader2">
</g>
</svg>
