<?xml version="1.0" encoding="utf-8"?>
<!-- Generator: Adobe Illustrator 16.0.4, SVG Export Plug-In . SVG Version: 6.00 Build 0)  -->
<!DOCTYPE svg PUBLIC "-//W3C//DTD SVG 1.0//EN" "http://www.w3.org/TR/2001/REC-SVG-20010904/DTD/svg10.dtd">
<svg version="1.0" xmlns="http://www.w3.org/2000/svg" xmlns:xlink="http://www.w3.org/1999/xlink" x="0px" y="0px"
	 width="146.624px" height="500px" viewBox="0 0 146.624 500" enable-background="new 0 0 146.624 500" xml:space="preserve">
<g id="advokat">
</g>
<g id="arsitek">
</g>
<g id="creativeprenuer">
</g>
<g id="diplomat">
</g>
<g id="engineer_manager">
</g>
<g id="entreprenuer">
</g>
<g id="it-consultant">
</g>
<g id="manajemen_operasional">
</g>
<g id="public_relation">
</g>
<g id="teknopreneur">
</g>
<g id="trader2">
	<g>
		<g>
			<path fill="#3B121E" d="M29.244,264.929h88.152v215.125c0,10.943-8.87,19.814-19.814,19.814l0,0
				c-10.942,0-19.812-8.871-19.812-19.814V310.22l0.021-1.186v-3.328c0-2.469-2.001-4.469-4.47-4.469l0,0
				c-2.468,0-4.47,2-4.47,4.469v3.328l0.021,2.264v168.756c0,10.943-8.872,19.814-19.814,19.814l0,0
				c-10.943,0-19.814-8.871-19.814-19.814V264.929"/>
		</g>
		<path fill="#2F111A" d="M72.994,290.837c-12.484,0.023-22.602,10.15-22.602,22.643v177.922c0,2.906,0.568,5.678,1.565,8.231
			c9.565-1.407,16.915-9.624,16.915-19.579V311.298l-0.021-2.264v-3.328c0-2.469,2.002-4.469,4.47-4.469c2.469,0,4.47,2,4.47,4.469
			v3.328l-0.021,1.186v169.834c0,10.943,8.87,19.814,19.812,19.814c10.944,0,19.814-8.871,19.814-19.814V264.929H72.994V290.837z"/>
		<path fill="#231F20" d="M71.012,500c-0.045-11.434-9.317-20.688-20.758-20.688H20.758C9.318,479.312,0.041,488.566,0,500H71.012z"
			/>
		<path fill="#231F20" d="M146.624,500c-0.039-11.434-9.312-20.688-20.759-20.688H96.376c-11.438,0-20.722,9.254-20.759,20.688
			H146.624z"/>
		<path fill="#FFFFFF" d="M24.102,257.378v-66.396v-18.398c0-0.392,0.316-0.707,0.706-0.707c0.393,0,0.71,0.315,0.71,0.707v18.398
			l-0.014,9.528l-0.002,56.101c0,6.761,5.479,12.242,12.24,12.242h71.154c6.761,0,12.24-5.481,12.24-12.242V200.51l-0.027-9.528
			v-18.398c0-0.392,0.319-0.707,0.708-0.707c0.392,0,0.708,0.315,0.708,0.707v18.398v66.396c0,0,0.076,2.174-1.081,4.316h20.523
			l-0.006-4.247v-83.095l-0.002-2.425v-15.095c0-19.652-15.931-35.583-35.585-35.583H40.27c-19.652,0-35.584,15.931-35.584,35.583
			v16.711l-0.004,0.809v83.955l-0.021,3.388h20.524C24.027,259.552,24.102,257.378,24.102,257.378z"/>
		<line fill="none" stroke="#231F20" stroke-miterlimit="10" x1="17.4" y1="301.097" x2="17.4" y2="301.097"/>
		<path fill="#FDCF9D" d="M120.908,262.553c0,0-0.73,1.431-0.921,1.877c-0.609,1.427-0.903,3.016-0.903,4.665v2.26l-0.016,7.926
			v10.602c0,1.555,1.258,2.814,2.812,2.814c1.555,0,2.815-1.26,2.815-2.814v-10.602v-2.609c0-0.566,0.454-1.021,1.017-1.021
			c0.566,0,1.021,0.454,1.021,1.021v23.146c1.479,0.619,3.105,0.963,4.808,0.963c6.882,0,12.458-5.576,12.458-12.456v-19.229
			c0-1.604-0.304-3.137-0.855-4.545c-0.314-0.803-0.708-1.561-1.175-2.272v-0.583h-20.523
			C121.286,261.982,121.113,262.269,120.908,262.553z"/>
		<path fill="#FFD9A1" d="M3.484,264.55c-0.553,1.408-0.855,2.941-0.855,4.545v19.229c0,6.88,5.575,12.456,12.455,12.456
			c1.707,0,3.331-0.344,4.808-0.963v-23.146c0-0.566,0.457-1.021,1.021-1.021c0.562,0,1.021,0.454,1.021,1.021l-0.004,2.609v10.602
			c0,1.555,1.263,2.814,2.815,2.814c1.556,0,2.816-1.26,2.816-2.814v-10.602l-0.02-7.926v-2.26c0-1.649-0.291-3.238-0.904-4.665
			c-0.189-0.446-0.918-1.877-0.918-1.877c-0.206-0.284-0.381-0.571-0.535-0.858H4.66l-0.004,0.583
			C4.192,262.99,3.799,263.748,3.484,264.55z"/>
		<path fill="#F1F1F2" d="M141.962,174.353l-0.002-2.425v-15.095c0-19.652-15.931-35.583-35.585-35.583H72.974v147.604h35.923
			c6.761,0,12.24-5.481,12.24-12.242V200.51l-0.029-9.528l0.002-18.398c0-0.392,0.319-0.707,0.708-0.707
			c0.392,0,0.708,0.315,0.708,0.707v18.398v66.396c0,0,0.076,2.174-1.081,4.316h20.523l-0.006-4.247V174.353z"/>
		<polygon fill="#BE1E2D" points="76.061,147.318 72.975,147.318 69.889,147.318 62.99,248.845 72.975,256.061 82.96,248.845 		"/>
		<g>
			<path fill="#FFD9A1" d="M45.804,80.813c0,4.119-3.341,7.459-7.458,7.459l0,0c-4.121,0-7.462-3.34-7.462-7.459v-6.176
				c0-4.12,3.341-7.459,7.462-7.459l0,0c4.117,0,7.458,3.339,7.458,7.459V80.813z"/>
			<path fill="#FDCF9D" d="M43.108,79.697c0,2.632-2.132,4.765-4.763,4.765l0,0c-2.633,0-4.769-2.133-4.769-4.765v-3.945
				c0-2.631,2.136-4.764,4.769-4.764l0,0c2.631,0,4.763,2.133,4.763,4.764V79.697z"/>
			<path fill="#E5BD90" d="M115.76,80.813c0,4.119-3.34,7.459-7.46,7.459l0,0c-4.12,0-7.462-3.34-7.462-7.459v-6.176
				c0-4.12,3.342-7.459,7.462-7.459l0,0c4.12,0,7.46,3.339,7.46,7.459V80.813z"/>
			<path fill="#DBB58A" d="M113.064,79.698c0,2.631-2.131,4.764-4.765,4.764l0,0c-2.631,0-4.767-2.133-4.767-4.764v-3.946
				c0-2.631,2.136-4.764,4.767-4.764l0,0c2.634,0,4.765,2.133,4.765,4.764V79.698z"/>
			<path fill="#FFD9A1" d="M73.323,16.633c-20.103,0-36.395,16.295-36.395,36.392v24.263c0,15.437,9.618,28.62,23.183,33.91v14.614
				c0,7.294,5.914,13.21,13.212,13.21c7.294,0,13.208-5.917,13.208-13.21v-14.614c13.564-5.288,23.181-18.471,23.181-33.91V53.025
				C109.712,32.928,93.421,16.633,73.323,16.633z"/>
			<path fill="#FDCF9D" d="M109.641,50.84c-0.012-0.219-0.031-0.437-0.049-0.656c-0.039-0.517-0.09-1.033-0.15-1.544
				c-0.027-0.229-0.057-0.458-0.088-0.686c-0.079-0.56-0.172-1.118-0.275-1.672c-0.027-0.146-0.047-0.291-0.078-0.435
				c-0.139-0.702-0.302-1.395-0.479-2.083c-0.033-0.127-0.075-0.253-0.108-0.38c-0.154-0.562-0.318-1.117-0.5-1.667
				c-0.061-0.183-0.123-0.363-0.184-0.544c-0.182-0.526-0.374-1.047-0.58-1.564c-0.057-0.14-0.109-0.282-0.168-0.423
				c-0.547-1.327-1.168-2.614-1.861-3.857c-0.051-0.092-0.105-0.184-0.156-0.275c-0.31-0.541-0.631-1.075-0.967-1.597
				c-0.059-0.092-0.117-0.184-0.174-0.275c-1.196-1.831-2.551-3.549-4.045-5.132c-0.034-0.035-0.065-0.069-0.1-0.102
				c-2.045-2.147-4.344-4.046-6.859-5.645c-0.012-0.008-0.025-0.016-0.037-0.023l-0.914-0.563c-5.43-3.226-11.77-5.083-18.543-5.083
				c-0.121,0-0.238,0.008-0.355,0.009v122.362c0.117,0.003,0.234,0.018,0.355,0.018c7.293,0,13.208-5.917,13.208-13.21v-14.614
				c13.563-5.288,23.181-18.471,23.181-33.91V53.025C109.713,52.291,109.686,51.564,109.641,50.84z"/>
			<g>
				<path fill="#3B2314" d="M108.277,86.299c-0.148,0.627-0.283,1.19-0.396,1.626C108.025,87.386,108.168,86.846,108.277,86.299z"/>
				<path fill="#3B2314" d="M100.648,24.518c0,0,4.919-9.502-3.438-14.219c0,0-52.5-17.59-62.812,26.284
					c0,0-0.672,16.039,1.147,27.158c0,0,1.011,15.164,3.032,23.454c0,0-3.032-16.781,4.044-25.273c0,0,7.076-7.076,3.032-14.557
					c0,0,0.077-0.311,0.248-0.831c20.916-0.45,39.987-8.267,39.987-8.267c-2.831,4.649-24.262,8.491-24.262,8.491
					c32.956-1.213,35.989-12.536,35.989-12.536s6.67,7.279,6.873,14.355c0,0-4.448,6.468,0.203,12.333
					c0,0,6.033,13.312,3.584,25.389c1.059-4.525,3.086-22.558,3.086-22.558S119.047,30.65,100.648,24.518z"/>
				<path fill="#3B2314" d="M107.881,87.925c-0.118,0.431-0.216,0.866-0.356,1.291C107.524,89.216,107.663,88.755,107.881,87.925z"
					/>
			</g>
			<path fill="#3B2314" d="M34.398,36.583c0,0-0.063-25.55,12.223-36.583c0,0-6.52,7.021,28.838,6.771L34.398,36.583z"/>
		</g>
		<polygon fill="#3B2314" points="79.473,96.996 72.969,99.468 66.465,96.996 		"/>
		<circle fill="#3B2314" cx="58.292" cy="67.178" r="3.235"/>
		<circle fill="#3B2314" cx="88.351" cy="67.178" r="3.235"/>
		<polygon fill="#BE1E2D" points="76.086,147.66 69.865,147.66 66.251,139.03 79.699,139.03 		"/>
		<polygon fill="#B51C2A" points="72.975,147.318 72.969,147.318 72.969,256.057 72.975,256.061 82.96,248.845 76.061,147.318 		"/>
		<polygon fill="#B51C2A" points="72.969,147.66 76.086,147.66 79.699,139.03 72.969,139.03 		"/>
		<polygon fill="#E6E7E8" points="90.352,176.98 90.352,201.404 101.18,205.641 112.006,201.404 112.006,176.98 		"/>
		<path fill="#FDCF9D" d="M122.525,192.145v65.233c0,0,0.076,2.174-1.081,4.316h20.523l-0.006-4.247v-65.303H122.525z"/>
		<path fill="#FFD9A1" d="M24.102,257.378v-65.233H4.682v66.162l-0.021,3.388h20.524C24.027,259.552,24.102,257.378,24.102,257.378z
			"/>
		<polygon fill="#E5BD90" points="72.969,70.644 72.969,88.233 77.309,85.491 		"/>
		<path fill="#F1F1F2" d="M60.09,115.879c0,0-12.537,9.737-7.271,32.556c0,0,5.768-13.29,17.302-9.779c0,0-9.089-2.069-10.03-12.287
			V115.879z"/>
		<path fill="#E6E7E8" d="M86.509,115.879c0,0,12.537,9.737,7.271,32.556c0,0-5.767-13.29-17.302-9.779
			c0,0,9.091-2.069,10.031-12.287V115.879z"/>
	</g>
</g>
</svg>
