<?xml version="1.0" encoding="utf-8"?>
<!-- Generator: Adobe Illustrator 16.0.4, SVG Export Plug-In . SVG Version: 6.00 Build 0)  -->
<!DOCTYPE svg PUBLIC "-//W3C//DTD SVG 1.0//EN" "http://www.w3.org/TR/2001/REC-SVG-20010904/DTD/svg10.dtd">
<svg version="1.0" xmlns="http://www.w3.org/2000/svg" xmlns:xlink="http://www.w3.org/1999/xlink" x="0px" y="0px"
	 width="146.18px" height="498.055px" viewBox="0 0 146.18 498.055" enable-background="new 0 0 146.18 498.055"
	 xml:space="preserve">
<g id="advokat">
</g>
<g id="arsitek">
</g>
<g id="creativeprenuer">
</g>
<g id="diplomat">
</g>
<g id="engineer_manager">
	<g>
		<g>
			<g>
				<path fill="#003660" d="M29.156,263.704h87.885v214.473c0,10.91-8.844,19.754-19.754,19.754l0,0
					c-10.91,0-19.754-8.844-19.754-19.754V308.857l0.021-1.183v-3.317c0-2.461-1.994-4.456-4.456-4.456l0,0
					c-2.46,0-4.456,1.995-4.456,4.456v3.317l0.021,2.258v168.244c0,10.91-8.845,19.754-19.755,19.754l0,0
					c-10.909,0-19.753-8.844-19.753-19.754V263.704"/>
			</g>
			<path fill="#002B52" d="M72.772,289.533c-12.445,0.023-22.532,10.12-22.532,22.574v177.384c0,2.896,0.566,5.66,1.561,8.205
				c9.537-1.402,16.863-9.594,16.863-19.52V309.933l-0.021-2.258v-3.317c0-2.461,1.996-4.456,4.456-4.456
				c2.462,0,4.456,1.995,4.456,4.456v3.317l-0.021,1.183v169.319c0,10.91,8.844,19.754,19.754,19.754s19.754-8.844,19.754-19.754
				V263.704H72.772V289.533z"/>
		</g>
		<path fill="#3B2314" d="M115.582,106.138c0,23.599-19.131,42.731-42.733,42.731l0,0c-23.599,0-42.731-19.133-42.731-42.731V61.312
			c0-23.603,19.133-42.732,42.731-42.732l0,0c23.603,0,42.733,19.13,42.733,42.732V106.138z"/>
		<path fill="#FFFFFF" d="M24.029,256.178v-66.195V171.64c0-0.391,0.316-0.705,0.705-0.705c0.391,0,0.707,0.314,0.707,0.705v18.343
			l-0.014,9.499l-0.002,55.932c0,6.739,5.462,12.204,12.203,12.204h70.939c6.74,0,12.203-5.465,12.203-12.204v-55.932l-0.027-9.499
			V171.64c0-0.391,0.319-0.705,0.705-0.705c0.391,0,0.705,0.314,0.705,0.705v18.343v66.195c0,0,0.076,2.167-1.076,4.303h20.461
			l-0.005-4.233v-82.844l-0.002-2.418v-15.049c0-19.593-15.884-35.476-35.478-35.476H40.147c-19.591,0-35.474,15.883-35.474,35.476
			v16.66l-0.004,0.807v83.7l-0.021,3.377h20.46C23.955,258.345,24.029,256.178,24.029,256.178z"/>
		<line fill="none" stroke="#231F20" stroke-miterlimit="10" x1="17.35" y1="299.764" x2="17.35" y2="299.764"/>
		<path fill="#FDCF9D" d="M120.542,261.337c0,0-0.728,1.427-0.918,1.871c-0.606,1.423-0.899,3.007-0.899,4.651v2.252l-0.016,7.902
			v10.569c0,1.55,1.254,2.806,2.802,2.806c1.552,0,2.808-1.256,2.808-2.806v-10.569v-2.602c0-0.564,0.453-1.018,1.014-1.018
			c0.563,0,1.018,0.453,1.018,1.018v23.076c1.475,0.617,3.096,0.96,4.793,0.96c6.861,0,12.42-5.559,12.42-12.418v-19.171
			c0-1.6-0.303-3.128-0.854-4.532c-0.312-0.8-0.706-1.556-1.17-2.265v-0.582h-20.461
			C120.92,260.767,120.748,261.054,120.542,261.337z"/>
		<path fill="#FFD9A1" d="M3.477,263.327c-0.551,1.404-0.854,2.933-0.854,4.532v19.171c0,6.859,5.56,12.418,12.419,12.418
			c1.7,0,3.32-0.343,4.793-0.96v-23.076c0-0.564,0.455-1.018,1.018-1.018c0.561,0,1.018,0.453,1.018,1.018l-0.004,2.602v10.569
			c0,1.55,1.257,2.806,2.807,2.806c1.551,0,2.806-1.256,2.806-2.806v-10.569l-0.02-7.902v-2.252c0-1.645-0.288-3.229-0.899-4.651
			c-0.189-0.444-0.916-1.871-0.916-1.871c-0.205-0.283-0.379-0.57-0.534-0.856H4.648l-0.004,0.582
			C4.182,261.771,3.789,262.527,3.477,263.327z"/>
		<path fill="#231F20" d="M125.483,477.432h-8.781c0.022,0.312,0.048,0.624,0.048,0.941v1.411c0,7.124-5.775,12.9-12.9,12.9H90.345
			c-4.776,0-8.94-2.607-11.171-6.469c-2.365,3.351-3.77,7.43-3.785,11.839h70.791C146.139,486.656,136.895,477.432,125.483,477.432z
			"/>
		<path fill="#231F20" d="M20.695,477.432h8.779c-0.021,0.312-0.048,0.624-0.048,0.941v1.411c0,7.124,5.778,12.9,12.901,12.9h13.506
			c4.778,0,8.941-2.607,11.169-6.469c2.365,3.351,3.774,7.43,3.79,11.839H0C0.041,486.656,9.287,477.432,20.695,477.432z"/>
		<path fill="#FFD9A1" d="M45.666,80.167c0,4.106-3.328,7.436-7.436,7.436l0,0c-4.107,0-7.439-3.329-7.439-7.436v-6.158
			c0-4.106,3.332-7.436,7.439-7.436l0,0c4.107,0,7.436,3.329,7.436,7.436V80.167z"/>
		<path fill="#FDCF9D" d="M42.98,79.052c0,2.623-2.127,4.752-4.75,4.752l0,0c-2.623,0-4.752-2.129-4.752-4.752v-3.931
			c0-2.624,2.129-4.749,4.752-4.749l0,0c2.623,0,4.75,2.125,4.75,4.749V79.052z"/>
		<path fill="#E5BD90" d="M115.408,80.167c0,4.106-3.328,7.436-7.436,7.436l0,0c-4.107,0-7.439-3.329-7.439-7.436v-6.158
			c0-4.106,3.332-7.436,7.439-7.436l0,0c4.107,0,7.436,3.329,7.436,7.436V80.167z"/>
		<path fill="#DBB58A" d="M112.723,79.055c0,2.62-2.127,4.749-4.75,4.749l0,0c-2.623,0-4.752-2.129-4.752-4.749v-3.934
			c0-2.624,2.129-4.749,4.752-4.749l0,0c2.623,0,4.75,2.125,4.75,4.749V79.055z"/>
		<path fill="#F1F1F2" d="M141.534,173.403l-0.002-2.418v-15.049c0-19.593-15.884-35.476-35.478-35.476H72.754v147.156h35.814
			c6.74,0,12.203-5.465,12.203-12.204v-55.932l-0.029-9.499l0.002-18.343c0-0.391,0.319-0.705,0.705-0.705
			c0.391,0,0.705,0.314,0.705,0.705v18.343v66.195c0,0,0.076,2.167-1.076,4.303h20.461l-0.005-4.233V173.403z"/>
		<path fill="#FFD9A1" d="M73.102,16.182c-20.039,0-36.281,16.245-36.281,36.282v24.188c0,15.389,9.586,28.531,23.111,33.807v14.57
			c0,7.271,5.895,13.168,13.17,13.168c7.271,0,13.168-5.896,13.168-13.168v-14.57c13.523-5.271,23.111-18.415,23.111-33.807V52.464
			C109.381,32.427,93.139,16.182,73.102,16.182z"/>
		<path fill="#FDCF9D" d="M72.751,138.18c0.115,0.003,0.232,0.017,0.352,0.017c7.271,0,13.168-5.896,13.168-13.168v-14.57
			c13.523-5.271,23.11-18.415,23.11-33.807V52.464c0-12.891-6.726-24.204-16.854-30.639H72.751V138.18z"/>
		<path fill="#3B2314" d="M61.342,66.573c0,1.779-1.445,3.223-3.225,3.223c-1.783,0-3.227-1.443-3.227-3.223
			c0-1.783,1.443-3.225,3.227-3.225C59.896,63.349,61.342,64.79,61.342,66.573z"/>
		<path fill="#3B2314" d="M91.308,66.573c0,1.779-1.443,3.223-3.224,3.223c-1.783,0-3.225-1.443-3.225-3.223
			c0-1.783,1.441-3.225,3.225-3.225C89.864,63.349,91.308,64.79,91.308,66.573z"/>
		<polygon fill="#E5BD90" points="72.75,70 72.75,87.536 77.076,84.803 		"/>
		<polygon fill="#EC1C24" points="79.234,96.279 72.75,98.745 66.264,96.279 		"/>
		<path fill="#3B2314" d="M63.99,58.359c0,0.473-0.385,0.856-0.857,0.856h-10.48c-0.473,0-0.857-0.384-0.857-0.856l0,0
			c0-0.472,0.385-0.856,0.857-0.856h10.48C63.605,57.503,63.99,57.888,63.99,58.359L63.99,58.359z"/>
		<path fill="#3B2314" d="M94.023,58.359c0,0.473-0.385,0.856-0.855,0.856H82.686c-0.473,0-0.857-0.384-0.857-0.856l0,0
			c0-0.472,0.385-0.856,0.857-0.856h10.482C93.639,57.503,94.023,57.888,94.023,58.359L94.023,58.359z"/>
		<path fill="#3B2314" d="M97.037,36.597c0,0-7.256,14.715-33.057,14.715c0,0,18.344-5.241,23.383-13.908
			c0,0-19.352,11.69-35.477,13.706c0,0-14.414-2.136-13.656,32.694c0,0,1.16-17.98-3.678-17.576l0.807-29.026l23.782-22.979
			l22.979-0.403l24.189,16.125l6.047,34.871c0,0-3.225,3.629-3.225,14.312c0,0-2.822-19.753-2.822-28.823
			C106.311,50.304,105.905,38.813,97.037,36.597z"/>
		<path fill="#FDCF9D" d="M122.154,251.134v5.044c0,0,0.076,2.167-1.076,4.303h20.461l-0.005-4.233v-5.113H122.154z"/>
		<path fill="#FFD9A1" d="M24.029,256.178v-45.044H4.67v45.97l-0.021,3.377h20.46C23.955,258.345,24.029,256.178,24.029,256.178z"/>
		<path fill="#6C6C6C" d="M120.771,274.515v-75.033l-0.029-9.499l0.002-18.343c0-0.391,0.319-0.705,0.705-0.705
			c0.391,0,0.705,0.314,0.705,0.705v18.343v66.195c0,0,0.076,2.167-1.076,4.303h20.461l-0.005-4.233v-82.844l-0.002-2.418v-15.049
			c0-19.593-15.884-35.476-35.478-35.476l-17.923-0.03l-15.378,93.084v61H120.771z"/>
		<path fill="#7D7D7D" d="M24.023,256.178v-66.195V171.64c0-0.391,0.314-0.705,0.705-0.705c0.387,0,0.705,0.314,0.705,0.705
			l0.002,18.343l-0.029,9.499v75.033h48.018v-61l-15.378-93.084l-17.924,0.03c-19.593,0-35.476,15.883-35.476,35.476v15.049
			l-0.002,2.418v82.844l-0.007,4.233h20.461C23.947,258.345,24.023,256.178,24.023,256.178z"/>
		<polygon fill="#FFD9A1" points="87.257,125.983 72.751,163.376 59.245,125.983 		"/>
		<polygon fill="#FDCF9D" points="85.257,140.556 72.751,163.556 72.751,120.431 86.251,120.431 		"/>
		<polygon fill="#4D4E4E" points="72.882,212.681 96.214,170.181 83.548,156.681 101.882,155.181 95.549,145.347 83.548,153.681 		
			"/>
		<polygon fill="#5E5E5E" points="72.758,213.515 95.632,167.431 84.882,155.515 102.632,153.931 88.882,120.847 86.251,120.431 
			86.882,126.181 		"/>
		<polygon fill="#4D4E4E" points="73.296,212.681 49.963,170.181 62.629,156.681 44.296,155.181 50.629,145.347 62.629,153.681 		
			"/>
		<polygon fill="#6C6C6C" points="73.42,213.515 50.546,167.431 61.296,155.515 43.546,153.931 57.296,120.847 59.927,120.431 
			59.296,126.181 		"/>
		<polygon fill="#E6E7E8" points="106.626,144.868 92.646,137.931 73.444,163.376 90.188,130.931 		"/>
		<polygon fill="#F1F1F2" points="86.282,114.212 106.688,144.931 92.188,135.431 73.616,163.431 86.282,126.546 		"/>
		<polygon fill="#E6E7E8" points="39.569,144.868 53.549,137.931 72.751,163.376 56.007,130.931 		"/>
		<polygon fill="#F1F1F2" points="59.913,114.212 39.507,144.931 54.007,135.431 72.579,163.431 59.913,126.546 		"/>
		<g>
			<g>
				<path fill="#FFCE1C" d="M73.124,2.453c-23.01,0-41.658,18.652-41.658,41.656v8.869h83.312v-8.869
					C114.777,21.105,96.129,2.453,73.124,2.453z"/>
				<rect x="29.146" y="50.795" fill="#FFC121" width="87.952" height="4.301"/>
			</g>
			<path fill="#FFC121" d="M75.676,27.548c0,1.409-1.144,2.553-2.554,2.553l0,0c-1.41,0-2.555-1.144-2.555-2.553V2.553
				C70.567,1.145,71.712,0,73.122,0l0,0c1.41,0,2.554,1.145,2.554,2.553V27.548z"/>
			<path fill="#FFC121" d="M59.552,30.773c0,1.409-1.145,2.553-2.555,2.553l0,0c-1.412,0-2.555-1.144-2.555-2.553V5.778
				c0-1.409,1.143-2.553,2.555-2.553l0,0c1.41,0,2.555,1.144,2.555,2.553V30.773z"/>
			<path fill="#FFC121" d="M91.8,30.773c0,1.409-1.142,2.553-2.554,2.553l0,0c-1.41,0-2.553-1.144-2.553-2.553V5.778
				c0-1.409,1.143-2.553,2.553-2.553l0,0c1.412,0,2.554,1.144,2.554,2.553V30.773z"/>
		</g>
		<g>
			<path fill="#CDCCCC" d="M110.526,200.108c0,0.644-0.523,1.167-1.168,1.167H96.526c-0.645,0-1.168-0.522-1.168-1.167v-18.667
				c0-0.645,0.523-1.167,1.168-1.167h12.832c0.645,0,1.168,0.522,1.168,1.167V200.108z"/>
			<circle fill="#CDCCCC" cx="102.942" cy="177.149" r="2.25"/>
			<rect x="99.989" y="186.691" fill="#A4A4A4" width="5.906" height="7.417"/>
			<g>
				<circle fill="#CDCCCC" cx="102.942" cy="189.513" r="1.312"/>
				<path fill="#CDCCCC" d="M105.5,193.648c0-0.02,0.006-0.039,0.006-0.06c0-1.417-1.146-2.565-2.563-2.565
					c-1.418,0-2.564,1.148-2.564,2.565c0,0.021,0.006,0.04,0.006,0.06H105.5z"/>
			</g>
		</g>
	</g>
</g>
<g id="entreprenuer">
</g>
<g id="it-consultant">
</g>
<g id="manajemen_operasional">
</g>
<g id="public_relation">
</g>
<g id="teknopreneur">
</g>
<g id="trader2">
</g>
</svg>
