<?xml version="1.0" encoding="utf-8"?>
<!-- Generator: Adobe Illustrator 16.0.4, SVG Export Plug-In . SVG Version: 6.00 Build 0)  -->
<!DOCTYPE svg PUBLIC "-//W3C//DTD SVG 1.0//EN" "http://www.w3.org/TR/2001/REC-SVG-20010904/DTD/svg10.dtd">
<svg version="1.0" xmlns="http://www.w3.org/2000/svg" xmlns:xlink="http://www.w3.org/1999/xlink" x="0px" y="0px"
	 width="146.623px" height="490.419px" viewBox="0 0 146.623 490.419" enable-background="new 0 0 146.623 490.419"
	 xml:space="preserve">
<g id="advokat">
	<g>
		<path fill="#3B2314" d="M115.826,97.747c0,23.645-19.166,42.814-42.813,42.814l0,0c-23.646,0-42.815-19.169-42.815-42.814V42.814
			C30.197,19.166,49.367,0,73.013,0l0,0c23.647,0,42.813,19.166,42.813,42.814V97.747z"/>
		<path fill="#FFD9A1" d="M3.481,255.23c-0.552,1.407-0.855,2.939-0.855,4.54v19.211c0,6.871,5.57,12.442,12.442,12.442
			c1.705,0,3.326-0.345,4.802-0.965v-23.121c0-0.563,0.456-1.018,1.02-1.018c0.562,0,1.02,0.454,1.02,1.018l-0.004,2.606v10.594
			c0,1.551,1.26,2.81,2.812,2.81c1.554,0,2.812-1.259,2.812-2.81v-10.594l-0.02-7.918v-2.256c0-1.647-0.29-3.232-0.902-4.659
			c-0.189-0.446-0.918-1.877-0.918-1.877c-0.205-0.282-0.38-0.569-0.534-0.856H4.655l-0.004,0.584
			C4.188,253.671,3.792,254.43,3.481,255.23z"/>
		<g>
			<path fill="#5E5E5E" d="M29.213,255.608h88.054v214.887c0,10.932-8.861,19.793-19.793,19.793l0,0
				c-10.931,0-19.792-8.861-19.792-19.793V300.849l0.021-1.186v-3.323c0-2.466-1.998-4.466-4.464-4.466l0,0
				c-2.463,0-4.465,2-4.465,4.466v3.323l0.023,2.264v168.568c0,10.932-8.861,19.793-19.792,19.793l0,0
				c-10.933,0-19.793-8.861-19.793-19.793V255.608"/>
		</g>
		<path fill="#4D4E4E" d="M72.915,281.487c-12.472,0.023-22.579,10.141-22.579,22.617v177.728c0,2.901,0.567,5.671,1.565,8.222
			c9.556-1.406,16.896-9.613,16.896-19.559V301.927l-0.023-2.264v-3.323c0-2.466,2.002-4.466,4.465-4.466
			c2.466,0,4.464,2,4.464,4.466v3.323l-0.021,1.186v169.646c0,10.932,8.861,19.793,19.792,19.793
			c10.932,0,19.793-8.861,19.793-19.793V255.608H72.915V281.487z"/>
		<path fill="#FFFFFF" d="M24.074,248.068V181.74v-18.377c0-0.392,0.317-0.708,0.708-0.708c0.39,0,0.707,0.316,0.707,0.708v18.377
			l-0.016,9.518v56.043c0,6.753,5.473,12.229,12.227,12.229h71.077c6.753,0,12.229-5.476,12.229-12.229v-56.043l-0.029-9.518
			v-18.377c0-0.392,0.319-0.708,0.707-0.708c0.391,0,0.706,0.316,0.706,0.708v18.377v66.328c0,0,0.076,2.168-1.078,4.31h20.503
			l-0.006-4.241V165.13l-0.004-2.425v-15.077c0-19.631-15.914-35.545-35.546-35.545H40.225c-19.63,0-35.545,15.915-35.545,35.545
			v16.693l-0.002,0.809v83.864l-0.022,3.384h20.501C24,250.236,24.074,248.068,24.074,248.068z"/>
		<path fill="#F1F1F2" d="M141.809,165.13l-0.004-2.425v-15.077c0-19.631-15.914-35.545-35.546-35.545H72.915V259.53h35.862
			c6.753,0,12.229-5.476,12.229-12.229v-56.043l-0.029-9.518v-18.377c0-0.392,0.319-0.708,0.707-0.708
			c0.391,0,0.706,0.316,0.706,0.708v18.377v66.328c0,0,0.076,2.168-1.078,4.31h20.503l-0.006-4.241V165.13z"/>
		<path fill="#231F20" d="M146.461,490.419c-0.041-11.42-9.303-20.665-20.734-20.665H96.269c-11.427,0-20.698,9.245-20.737,20.665
			H146.461z"/>
		<path fill="#404041" d="M70.933,490.419c-0.043-11.42-9.305-20.665-20.735-20.665H20.735c-11.426,0-20.694,9.245-20.735,20.665
			H70.933z"/>
		<path fill="#FDCF9D" d="M120.775,253.234c0,0-0.73,1.431-0.918,1.877c-0.61,1.427-0.904,3.012-0.904,4.659v2.256l-0.016,7.918
			v10.594c0,1.551,1.256,2.81,2.809,2.81c1.554,0,2.812-1.259,2.812-2.81v-10.594v-2.606c0-0.563,0.456-1.018,1.018-1.018
			c0.563,0,1.019,0.454,1.019,1.018v23.121c1.477,0.62,3.104,0.965,4.804,0.965c6.872,0,12.442-5.571,12.442-12.442v-19.211
			c0-1.601-0.304-3.133-0.855-4.54c-0.313-0.801-0.707-1.56-1.17-2.269v-0.584h-20.503
			C121.152,252.665,120.98,252.952,120.775,253.234z"/>
		<path fill="#323031" d="M141.805,162.705v-15.077c0-19.631-15.914-35.545-35.546-35.545H40.225
			c-19.63,0-35.545,15.915-35.545,35.545v16.693l-0.002,0.809v75.596h19.397V181.74v-18.377c0-0.392,0.317-0.708,0.708-0.708
			c0.39,0,0.707,0.316,0.707,0.708v18.377l-0.016,9.518v59.487l0,0v0.631v166.256h95.532V251.376l-0.002-0.631h0.002v-59.487
			l-0.029-9.518v-18.377c0-0.392,0.319-0.708,0.707-0.708c0.391,0,0.706,0.316,0.706,0.708v18.377v58.985h19.419V165.13
			L141.805,162.705z"/>
		<path fill="#FFFFFF" d="M56.22,112.082v4.241c0,9.221,7.475,16.696,16.695,16.696c9.219,0,16.692-7.476,16.692-16.696v-4.241
			H56.22z"/>
		<path fill="#231F20" d="M141.805,147.628c0-19.631-15.914-35.545-35.546-35.545H72.467v305.549h48.539V251.376l-0.002-0.631h0.002
			v-59.487l-0.029-9.518v-18.377c0-0.392,0.319-0.708,0.707-0.708c0.391,0,0.706,0.316,0.706,0.708v18.377v58.985h19.419V165.13
			l-0.004-2.425V147.628z"/>
		<path fill="#F1F1F2" d="M72.467,132.996c0.15,0.004,0.298,0.022,0.448,0.022c9.219,0,16.692-7.476,16.692-16.696v-4.241H72.467
			V132.996z"/>
		<polygon fill="#FFFFFF" points="97.265,213.259 47.668,213.259 62.698,129.847 82.235,129.847 		"/>
		<polygon fill="#F1F1F2" points="72.467,213.259 97.265,213.259 82.235,129.847 72.467,129.847 		"/>
		<path fill="#FFD9A1" d="M73.263,7.601c-20.079,0-36.354,16.278-36.354,36.354v24.236c0,15.42,9.606,28.588,23.156,33.872v14.599
			c0,7.286,5.908,13.196,13.197,13.196c7.288,0,13.194-5.91,13.194-13.196v-14.599c13.552-5.282,23.157-18.452,23.157-33.872V43.955
			C109.614,23.878,93.34,7.601,73.263,7.601z"/>
		<path fill="#FFD9A1" d="M45.774,71.711c0,4.116-3.335,7.452-7.452,7.452l0,0c-4.113,0-7.452-3.336-7.452-7.452v-6.168
			c0-4.115,3.339-7.452,7.452-7.452l0,0c4.117,0,7.452,3.336,7.452,7.452V71.711z"/>
		<path fill="#FDCF9D" d="M43.084,70.596c0,2.63-2.132,4.762-4.762,4.762l0,0c-2.628,0-4.759-2.131-4.759-4.762v-3.939
			c0-2.628,2.131-4.759,4.759-4.759l0,0c2.63,0,4.762,2.131,4.762,4.759V70.596z"/>
		<path fill="#E5BD90" d="M115.653,71.711c0,4.116-3.334,7.452-7.449,7.452l0,0c-4.115,0-7.454-3.336-7.454-7.452v-6.168
			c0-4.115,3.339-7.452,7.454-7.452l0,0c4.115,0,7.449,3.336,7.449,7.452V71.711z"/>
		<path fill="#DBB58A" d="M112.963,70.598c0,2.628-2.131,4.76-4.759,4.76l0,0c-2.631,0-4.763-2.131-4.763-4.76v-3.941
			c0-2.628,2.132-4.759,4.763-4.759l0,0c2.628,0,4.759,2.131,4.759,4.759V70.598z"/>
		<path fill="#FDCF9D" d="M109.54,41.772c-0.012-0.219-0.031-0.437-0.049-0.656c-0.039-0.517-0.088-1.031-0.15-1.542
			c-0.027-0.229-0.055-0.458-0.086-0.685c-0.08-0.56-0.17-1.117-0.275-1.671c-0.026-0.145-0.048-0.29-0.077-0.437
			c-0.141-0.701-0.302-1.393-0.481-2.078c-0.033-0.129-0.072-0.254-0.107-0.382c-0.154-0.56-0.318-1.115-0.499-1.663
			c-0.059-0.184-0.121-0.364-0.185-0.544c-0.182-0.526-0.373-1.047-0.578-1.564c-0.057-0.139-0.107-0.282-0.167-0.422
			c-0.546-1.325-1.168-2.611-1.858-3.854c-0.053-0.09-0.108-0.182-0.159-0.274c-0.31-0.54-0.628-1.073-0.963-1.595
			c-0.059-0.092-0.117-0.184-0.176-0.274c-1.194-1.83-2.546-3.546-4.041-5.127c-0.033-0.036-0.064-0.071-0.099-0.102
			c-2.041-2.145-4.34-4.041-6.853-5.638c-0.012-0.008-0.023-0.016-0.037-0.023l-0.912-0.564C86.363,9.456,80.03,7.601,73.263,7.601
			c-0.119,0-0.236,0.008-0.352,0.01V129.84c0.115,0.004,0.232,0.018,0.352,0.018c7.288,0,13.194-5.91,13.194-13.196v-14.599
			c13.552-5.282,23.157-18.452,23.157-33.872V43.955C109.614,43.221,109.585,42.495,109.54,41.772z"/>
		<path fill="#3B2314" d="M97.247,28.062c0,0-7.271,14.742-33.121,14.742c0,0,18.378-5.25,23.427-13.935
			c0,0-19.388,11.714-35.544,13.733c0,0-14.443-2.139-13.683,32.759c0,0,1.161-18.016-3.687-17.613l0.809-29.082l23.83-23.023
			l23.024-0.403l24.233,16.156l6.059,34.939c0,0-3.23,3.635-3.23,14.338c0,0-2.828-19.792-2.828-28.88
			C106.536,41.794,106.134,30.283,97.247,28.062z"/>
		<polygon fill="#3B2314" points="79.385,87.856 72.888,90.326 66.391,87.856 		"/>
		<circle fill="#3B2314" cx="58.228" cy="58.088" r="3.231"/>
		<circle fill="#3B2314" cx="88.254" cy="58.088" r="3.231"/>
		<polygon fill="#E5BD90" points="72.467,61.522 72.467,79.093 76.803,76.354 		"/>
	</g>
</g>
<g id="arsitek">
</g>
<g id="creativeprenuer">
</g>
<g id="diplomat">
</g>
<g id="engineer_manager">
</g>
<g id="entreprenuer">
</g>
<g id="it-consultant">
</g>
<g id="manajemen_operasional">
</g>
<g id="public_relation">
</g>
<g id="teknopreneur">
</g>
<g id="trader2">
</g>
</svg>
