<?xml version="1.0" encoding="utf-8"?>
<!-- Generator: Adobe Illustrator 16.0.4, SVG Export Plug-In . SVG Version: 6.00 Build 0)  -->
<!DOCTYPE svg PUBLIC "-//W3C//DTD SVG 1.0//EN" "http://www.w3.org/TR/2001/REC-SVG-20010904/DTD/svg10.dtd">
<svg version="1.0" xmlns="http://www.w3.org/2000/svg" xmlns:xlink="http://www.w3.org/1999/xlink" x="0px" y="0px"
	 width="146.463px" height="490.426px" viewBox="0 0 146.463 490.426" enable-background="new 0 0 146.463 490.426"
	 xml:space="preserve">
<g id="advokat">
</g>
<g id="arsitek">
</g>
<g id="creativeprenuer">
</g>
<g id="diplomat">
</g>
<g id="engineer_manager">
</g>
<g id="entreprenuer">
	<g>
		<path fill="#3B2314" d="M115.806,97.748c0,23.645-19.168,42.814-42.814,42.814l0,0c-23.645,0-42.816-19.17-42.816-42.814V42.815
			C30.175,19.167,49.347,0,72.991,0l0,0c23.646,0,42.814,19.167,42.814,42.815V97.748z"/>
		<path fill="#FFD9A1" d="M29.214,470.504c0,10.931,8.859,19.792,19.791,19.792s19.793-8.861,19.793-19.792v-99.363H29.214V470.504z
			"/>
		<path fill="#FDCF9D" d="M68.798,470.504v-99.363H50.337v110.698c0,2.903,0.568,5.671,1.566,8.222
			C61.458,488.655,68.798,480.448,68.798,470.504z"/>
		<path fill="#FDCF9D" d="M77.685,371.141v99.363c0,10.931,8.859,19.792,19.791,19.792s19.793-8.861,19.793-19.792v-99.363H77.685z"
			/>
		<path fill="#FFD9A1" d="M24.075,248.08v-66.324v-18.378c0-0.392,0.318-0.707,0.707-0.707c0.393,0,0.709,0.315,0.709,0.707v18.378
			l-0.014,9.517l-0.002,56.04c0,6.753,5.473,12.229,12.227,12.229h71.076c6.754,0,12.229-5.476,12.229-12.229v-56.04l-0.027-9.517
			v-18.378c0-0.392,0.318-0.707,0.705-0.707c0.393,0,0.707,0.315,0.707,0.707v18.378v66.324c0,0,0.076,2.171-1.078,4.312h20.5
			l-0.006-4.242v-83.004l-0.002-2.423v-15.078c0-19.63-15.914-35.544-35.545-35.544H40.228c-19.631,0-35.545,15.914-35.545,35.544
			v16.693l-0.004,0.808v83.863l-0.021,3.384h20.502C24.001,250.25,24.075,248.08,24.075,248.08z"/>
		<line fill="none" stroke="#231F20" stroke-miterlimit="10" x1="17.384" y1="291.75" x2="17.384" y2="291.75"/>
		<path fill="#FDCF9D" d="M120.776,253.249c0,0-0.729,1.43-0.92,1.875c-0.607,1.426-0.9,3.013-0.9,4.66v2.256l-0.016,7.918v10.59
			c0,1.553,1.256,2.812,2.807,2.812c1.555,0,2.812-1.259,2.812-2.812v-10.59v-2.606c0-0.565,0.455-1.02,1.016-1.02
			c0.566,0,1.02,0.454,1.02,1.02v23.121c1.479,0.618,3.102,0.962,4.803,0.962c6.875,0,12.443-5.569,12.443-12.441v-19.209
			c0-1.603-0.305-3.134-0.855-4.541c-0.312-0.802-0.705-1.559-1.172-2.27v-0.582h-20.5
			C121.153,252.677,120.983,252.965,120.776,253.249z"/>
		<path fill="#FFD9A1" d="M3.483,255.243c-0.553,1.407-0.855,2.938-0.855,4.541v19.209c0,6.872,5.57,12.441,12.441,12.441
			c1.705,0,3.328-0.344,4.803-0.962v-23.121c0-0.565,0.457-1.02,1.02-1.02s1.02,0.454,1.02,1.02l-0.004,2.606v10.59
			c0,1.553,1.262,2.812,2.812,2.812c1.555,0,2.812-1.259,2.812-2.812v-10.59l-0.02-7.918v-2.256c0-1.647-0.289-3.234-0.904-4.66
			c-0.188-0.445-0.916-1.875-0.916-1.875c-0.205-0.283-0.379-0.571-0.533-0.857H4.657l-0.004,0.582
			C4.188,253.684,3.796,254.441,3.483,255.243z"/>
		<path fill="#FDCF9D" d="M141.808,165.145l-0.002-2.423v-15.078c0-19.63-15.914-35.544-35.545-35.544H72.896v147.442h35.883
			c6.754,0,12.229-5.476,12.229-12.229v-56.04l-0.029-9.517l0.002-18.378c0-0.392,0.318-0.707,0.705-0.707
			c0.393,0,0.707,0.315,0.707,0.707v18.378v66.324c0,0,0.076,2.171-1.078,4.312h20.5l-0.006-4.242V165.145z"/>
		<path fill="#FDCF9D" d="M122.392,225.492v14.517c0,0,0.076,6.236-1.078,12.383h20.5l-0.006-12.184v-14.716H122.392z"/>
		<path fill="#FFD9A1" d="M24.075,248.08v-45.131H4.679v46.059l-0.021,3.384h20.502C24.001,250.25,24.075,248.08,24.075,248.08z"/>
		<g>
			<polygon fill="#FFDD15" points="28.872,255.623 28.872,371.143 68.454,371.143 77.341,371.143 116.927,371.143 116.927,255.623 
							"/>
			<rect x="72.575" y="255.623" fill="#FFD41A" width="44.352" height="115.521"/>
			<path fill="#FFDD15" d="M105.919,112.1H39.886c-5.262,0-10.246,1.152-14.738,3.2v48.079v18.378v65.87
				c0.168,6.606,5.564,11.915,12.215,11.915h71.076c6.566,0,11.912-5.186,12.197-11.682V115.293
				C116.149,113.249,111.171,112.1,105.919,112.1z"/>
			<path fill="#FFD41A" d="M72.573,112.1v147.442h35.865c6.566,0,11.912-5.186,12.197-11.682V115.293
				c-4.486-2.045-9.465-3.194-14.717-3.194H72.573z"/>
		</g>
		<path fill="#E5BD90" d="M115.632,71.727c0,4.114-3.334,7.45-7.449,7.45l0,0c-4.115,0-7.453-3.335-7.453-7.45v-6.17
			c0-4.114,3.338-7.45,7.453-7.45l0,0c4.115,0,7.449,3.335,7.449,7.45V71.727z"/>
		<path fill="#DBB58A" d="M112.942,70.612c0,2.625-2.131,4.758-4.76,4.758l0,0c-2.629,0-4.762-2.133-4.762-4.758v-3.941
			c0-2.629,2.133-4.758,4.762-4.758l0,0c2.629,0,4.76,2.129,4.76,4.758V70.612z"/>
		<path fill="#FFD9A1" d="M45.755,71.727c0,4.114-3.334,7.45-7.451,7.45l0,0c-4.115,0-7.453-3.335-7.453-7.45v-6.17
			c0-4.114,3.338-7.45,7.453-7.45l0,0c4.117,0,7.451,3.335,7.451,7.45V71.727z"/>
		<path fill="#FDCF9D" d="M43.063,70.609c0,2.628-2.131,4.761-4.76,4.761l0,0c-2.627,0-4.76-2.133-4.76-4.761v-3.938
			c0-2.629,2.133-4.758,4.76-4.758l0,0c2.629,0,4.76,2.129,4.76,4.758V70.609z"/>
		<path fill="#E5BD90" d="M56.196,112.099v4.242c0,9.221,7.479,16.696,16.699,16.696s16.691-7.475,16.691-16.696v-4.242H56.196z"/>
		<path fill="#E5BD90" d="M56.196,112.099v4.242c0,9.221,7.479,16.696,16.699,16.696s16.691-7.475,16.691-16.696v-4.242H56.196z"/>
		<path fill="#FFD9A1" d="M73.243,7.618c-20.078,0-36.352,16.276-36.352,36.353v24.234c0,15.418,9.605,28.587,23.156,33.872v14.599
			c0,7.286,5.906,13.194,13.195,13.194c7.285,0,13.193-5.908,13.193-13.194v-14.599c13.551-5.281,23.156-18.451,23.156-33.872V43.97
			C109.593,23.894,93.319,7.618,73.243,7.618z"/>
		<path fill="#FDCF9D" d="M72.894,129.852c0.115,0.003,0.232,0.017,0.352,0.017c7.285,0,13.193-5.908,13.193-13.194v-14.599
			c13.551-5.281,23.156-18.451,23.156-33.872V43.97c0-12.916-6.738-24.251-16.887-30.698H72.894V129.852z"/>
		<path fill="#3B2314" d="M61.462,58.107c0,1.783-1.449,3.229-3.232,3.229c-1.785,0-3.232-1.446-3.232-3.229
			c0-1.787,1.447-3.231,3.232-3.231C60.013,54.876,61.462,56.32,61.462,58.107z"/>
		<path fill="#3B2314" d="M91.485,58.107c0,1.783-1.447,3.229-3.23,3.229c-1.787,0-3.23-1.446-3.23-3.229
			c0-1.787,1.443-3.231,3.23-3.231C90.038,54.876,91.485,56.32,91.485,58.107z"/>
		<polygon fill="#E5BD90" points="72.892,61.54 72.892,79.11 77.226,76.372 		"/>
		<polygon fill="#EC1C24" points="79.388,87.871 72.892,90.341 66.392,87.871 		"/>
		<path fill="#3B2314" d="M64.114,49.877c0,0.474-0.385,0.858-0.859,0.858h-10.5c-0.475,0-0.859-0.384-0.859-0.858l0,0
			c0-0.473,0.385-0.858,0.859-0.858h10.5C63.729,49.019,64.114,49.404,64.114,49.877L64.114,49.877z"/>
		<path fill="#3B2314" d="M94.206,49.877c0,0.474-0.385,0.858-0.857,0.858H82.847c-0.475,0-0.859-0.384-0.859-0.858l0,0
			c0-0.473,0.385-0.858,0.859-0.858h10.502C93.821,49.019,94.206,49.404,94.206,49.877L94.206,49.877z"/>
		<path fill="#3B2314" d="M97.226,28.072c0,0-7.271,14.744-33.121,14.744c0,0,18.379-5.251,23.428-13.935
			c0,0-19.389,11.713-35.545,13.732c0,0-14.441-2.14-13.684,32.758c0,0,1.164-18.015-3.684-17.61l0.809-29.083L59.257,5.655
			L82.28,5.25l24.236,16.156l6.059,34.939c0,0-3.23,3.635-3.23,14.339c0,0-2.828-19.792-2.828-28.879
			C106.517,41.806,106.112,30.292,97.226,28.072z"/>
		<path fill="#511326" d="M98.571,94.284c0,0-12.023,14.027-37.738,9.519l39.41,17.869
			C100.243,121.671,106.923,108.646,98.571,94.284z"/>
		<path fill="#844058" d="M93.562,148.389c0,0-4.508,65.126-2.254,94.183L48.224,231.3c0,0,1.002-58.614,13.277-90.927l3.006-3.507
			l30.057,8.016L93.562,148.389z"/>
		<path fill="#772844" d="M47.724,94.034c0,0-8.518,5.511-9.018,17.785c0,0,13.025,41.08,61.119,36.07
			c0,0,10.271-11.272,9.52-36.571C109.345,111.317,60.499,109.313,47.724,94.034z"/>
		<path fill="#231F20" d="M125.728,469.763h-8.797c0.021,0.312,0.047,0.625,0.047,0.943v1.413c0,7.139-5.787,12.926-12.926,12.926
			H90.521c-4.785,0-8.959-2.612-11.193-6.48c-2.369,3.356-3.775,7.443-3.791,11.861h70.928
			C146.423,479.006,137.161,469.763,125.728,469.763z"/>
		<path fill="#231F20" d="M20.737,469.763h8.793c-0.021,0.312-0.045,0.625-0.045,0.943v1.413c0,7.139,5.789,12.926,12.926,12.926
			h13.531c4.787,0,8.959-2.612,11.191-6.48c2.369,3.356,3.781,7.443,3.797,11.861H0.001C0.042,479.006,9.306,469.763,20.737,469.763
			z"/>
	</g>
</g>
<g id="it-consultant">
</g>
<g id="manajemen_operasional">
</g>
<g id="public_relation">
</g>
<g id="teknopreneur">
</g>
<g id="trader2">
</g>
</svg>
