<?xml version="1.0" encoding="utf-8"?>
<!-- Generator: Adobe Illustrator 16.0.4, SVG Export Plug-In . SVG Version: 6.00 Build 0)  -->
<!DOCTYPE svg PUBLIC "-//W3C//DTD SVG 1.0//EN" "http://www.w3.org/TR/2001/REC-SVG-20010904/DTD/svg10.dtd">
<svg version="1.0" xmlns="http://www.w3.org/2000/svg" xmlns:xlink="http://www.w3.org/1999/xlink" x="0px" y="0px"
	 width="150.604px" height="499px" viewBox="0 0 150.604 499" enable-background="new 0 0 150.604 499" xml:space="preserve">
<g id="advokat">
</g>
<g id="arsitek">
	<g>
		<g>
			<g>
				<path fill="#003660" d="M31.278,264.187h88.055v214.889c0,10.932-8.859,19.793-19.791,19.793l0,0
					c-10.932,0-19.793-8.861-19.793-19.793V309.427l0.021-1.184v-3.324c0-2.466-1.998-4.465-4.463-4.465l0,0
					c-2.467,0-4.467,1.999-4.467,4.465v3.324l0.021,2.262v168.57c0,10.932-8.861,19.793-19.791,19.793l0,0
					c-10.932,0-19.793-8.861-19.793-19.793V264.187"/>
			</g>
			<path fill="#002B52" d="M74.979,290.067c-12.469,0.022-22.576,10.14-22.576,22.617v177.728c0,2.902,0.566,5.671,1.562,8.223
				c9.557-1.406,16.896-9.614,16.896-19.559v-168.57l-0.021-2.262v-3.324c0-2.466,2-4.465,4.467-4.465
				c2.465,0,4.463,1.999,4.463,4.465v3.324l-0.021,1.184v169.648c0,10.932,8.861,19.793,19.793,19.793s19.791-8.861,19.791-19.793
				V264.187H74.979V290.067z"/>
		</g>
		<path fill="#3B2314" d="M117.874,106.322c0,23.645-19.168,42.814-42.814,42.814l0,0c-23.646,0-42.816-19.17-42.816-42.814V61.409
			c0-23.648,19.17-42.815,42.816-42.815l0,0c23.646,0,42.814,19.167,42.814,42.815V106.322z"/>
		<path fill="#FFFFFF" d="M26.144,256.653V190.33v-18.379c0-0.392,0.316-0.706,0.707-0.706s0.707,0.314,0.707,0.706v18.379
			l-0.014,9.517l-0.002,76.079c0,6.752,5.475,12.229,12.227,12.229h71.078c6.754,0,12.227-5.477,12.227-12.229v-76.079l-0.027-9.517
			v-18.379c0-0.392,0.318-0.706,0.707-0.706c0.391,0,0.705,0.314,0.705,0.706v18.379v66.323c0,0,0.078,2.171-1.078,4.312h20.502
			l-0.006-4.242v-83.004l-0.002-2.423v-15.078c0-19.631-15.914-35.545-35.547-35.545H42.294c-19.631,0-35.543,15.914-35.543,35.545
			v16.692l-0.004,0.809v83.862l-0.021,3.384h20.5C26.069,258.824,26.144,256.653,26.144,256.653z"/>
		<line fill="none" stroke="#231F20" stroke-miterlimit="10" x1="19.45" y1="300.324" x2="19.45" y2="300.324"/>
		<path fill="#FDCF9D" d="M122.845,261.822c0,0-0.73,1.43-0.92,1.875c-0.609,1.426-0.902,3.013-0.902,4.66v2.256l-0.016,7.918v10.59
			c0,1.553,1.256,2.812,2.809,2.812s2.812-1.259,2.812-2.812v-10.59v-2.606c0-0.565,0.453-1.02,1.016-1.02
			c0.564,0,1.02,0.454,1.02,1.02v23.121c1.477,0.618,3.102,0.962,4.801,0.962c6.877,0,12.445-5.569,12.445-12.441v-19.209
			c0-1.603-0.305-3.134-0.855-4.541c-0.312-0.802-0.707-1.559-1.172-2.27v-0.582H123.38
			C123.222,261.25,123.05,261.539,122.845,261.822z"/>
		<path fill="#FFD9A1" d="M5.55,263.816c-0.551,1.407-0.854,2.938-0.854,4.541v19.209c0,6.872,5.568,12.441,12.441,12.441
			c1.705,0,3.328-0.344,4.803-0.962v-23.121c0-0.565,0.455-1.02,1.02-1.02c0.561,0,1.02,0.454,1.02,1.02l-0.004,2.606v10.59
			c0,1.553,1.26,2.812,2.812,2.812s2.811-1.259,2.811-2.812v-10.59l-0.02-7.918v-2.256c0-1.647-0.289-3.234-0.902-4.66
			c-0.189-0.445-0.918-1.875-0.918-1.875c-0.205-0.283-0.379-0.571-0.533-0.857h-20.5l-0.004,0.582
			C6.257,262.257,5.864,263.014,5.55,263.816z"/>
		<path fill="#231F20" d="M127.796,478.336h-8.799c0.021,0.312,0.047,0.625,0.047,0.943v1.413c0,7.139-5.787,12.926-12.926,12.926
			H92.589c-4.787,0-8.959-2.612-11.193-6.48c-2.371,3.356-3.777,7.443-3.793,11.861h70.928
			C148.489,487.58,139.228,478.336,127.796,478.336z"/>
		<path fill="#231F20" d="M22.804,478.336h8.795c-0.021,0.312-0.047,0.625-0.047,0.943v1.413c0,7.139,5.789,12.926,12.926,12.926
			h13.531c4.789,0,8.959-2.612,11.193-6.48c2.369,3.356,3.779,7.443,3.795,11.861H2.067C2.108,487.58,11.372,478.336,22.804,478.336
			z"/>
		<path fill="#FFD9A1" d="M47.821,80.3c0,4.114-3.334,7.45-7.449,7.45l0,0c-4.115,0-7.453-3.336-7.453-7.45v-6.17
			c0-4.114,3.338-7.45,7.453-7.45l0,0c4.115,0,7.449,3.336,7.449,7.45V80.3z"/>
		<path fill="#FDCF9D" d="M45.132,79.183c0,2.628-2.131,4.761-4.76,4.761l0,0c-2.629,0-4.762-2.133-4.762-4.761v-3.938
			c0-2.629,2.133-4.758,4.762-4.758l0,0c2.629,0,4.76,2.129,4.76,4.758V79.183z"/>
		<path fill="#E5BD90" d="M117.7,80.3c0,4.114-3.336,7.45-7.451,7.45l0,0c-4.115,0-7.453-3.336-7.453-7.45v-6.17
			c0-4.114,3.338-7.45,7.453-7.45l0,0c4.115,0,7.451,3.336,7.451,7.45V80.3z"/>
		<path fill="#DBB58A" d="M115.011,79.186c0,2.625-2.133,4.758-4.762,4.758l0,0c-2.627,0-4.76-2.133-4.76-4.758v-3.941
			c0-2.629,2.133-4.758,4.76-4.758l0,0c2.629,0,4.762,2.129,4.762,4.758V79.186z"/>
		<path fill="#F1F1F2" d="M143.876,173.718l-0.002-2.423v-15.078c0-19.631-15.914-35.545-35.547-35.545H74.962v167.481h35.885
			c6.754,0,12.227-5.477,12.227-12.229v-76.079l-0.029-9.517l0.002-18.379c0-0.392,0.318-0.706,0.707-0.706
			c0.391,0,0.705,0.314,0.705,0.706v18.379v66.323c0,0,0.078,2.171-1.078,4.312h20.502l-0.006-4.242V173.718z"/>
		<path fill="#FFD9A1" d="M75.312,16.191c-20.078,0-36.352,16.276-36.352,36.353v24.234c0,15.419,9.604,28.587,23.156,33.872v14.599
			c0,7.286,5.904,13.194,13.195,13.194c7.285,0,13.193-5.908,13.193-13.194V110.65c13.549-5.281,23.156-18.45,23.156-33.872V52.543
			C111.661,32.467,95.388,16.191,75.312,16.191z"/>
		<path fill="#FDCF9D" d="M74.956,138.425c0.115,0.004,0.234,0.018,0.354,0.018c7.285,0,13.193-5.908,13.193-13.194V110.65
			c13.549-5.281,23.156-18.45,23.156-33.872V52.543c0-12.916-6.74-24.251-16.889-30.698H74.956V138.425z"/>
		<path fill="#3B2314" d="M63.528,66.68c0,1.783-1.447,3.229-3.23,3.229c-1.787,0-3.232-1.445-3.232-3.229
			c0-1.786,1.445-3.23,3.232-3.23C62.081,63.45,63.528,64.894,63.528,66.68z"/>
		<path fill="#3B2314" d="M93.554,66.68c0,1.783-1.449,3.229-3.23,3.229c-1.787,0-3.232-1.445-3.232-3.229
			c0-1.786,1.445-3.23,3.232-3.23C92.104,63.45,93.554,64.894,93.554,66.68z"/>
		<polygon fill="#E5BD90" points="74.958,70.114 74.958,87.684 79.294,84.945 		"/>
		<polygon fill="#EC1C24" points="81.456,96.444 74.958,98.915 68.46,96.444 		"/>
		<path fill="#3B2314" d="M66.183,58.451c0,0.474-0.387,0.857-0.859,0.857H54.821c-0.473,0-0.859-0.384-0.859-0.857l0,0
			c0-0.473,0.387-0.858,0.859-0.858h10.502C65.796,57.592,66.183,57.978,66.183,58.451L66.183,58.451z"/>
		<path fill="#3B2314" d="M96.272,58.451c0,0.474-0.385,0.857-0.855,0.857H84.913c-0.473,0-0.859-0.384-0.859-0.857l0,0
			c0-0.473,0.387-0.858,0.859-0.858h10.504C95.888,57.592,96.272,57.978,96.272,58.451L96.272,58.451z"/>
		<path fill="#3B2314" d="M99.292,36.645c0,0-7.27,14.744-33.119,14.744c0,0,18.379-5.252,23.428-13.936
			c0,0-19.389,11.713-35.545,13.732c0,0-14.443-2.14-13.684,32.758c0,0,1.162-18.015-3.686-17.61l0.809-29.082l23.83-23.023
			l23.023-0.404l24.236,16.156l6.059,34.939c0,0-3.232,3.636-3.232,14.339c0,0-2.826-19.791-2.826-28.879
			C108.585,50.379,108.181,38.866,99.292,36.645z"/>
		<path fill="#FDCF9D" d="M124.458,231.56v25.093c0,0,0.078,2.171-1.078,4.312h20.502l-0.006-4.242V231.56H124.458z"/>
		<path fill="#FFD9A1" d="M26.144,256.653v-25.094H6.747v26.021l-0.021,3.384h20.5C26.069,258.824,26.144,256.653,26.144,256.653z"
			/>
		<polygon fill="#FFD9A1" points="89.493,126.206 74.958,163.67 61.427,126.206 		"/>
		<polygon fill="#FDCF9D" points="87.489,140.806 74.958,163.851 74.958,120.642 88.485,120.642 		"/>
		<g>
			<g>
				<path fill="#FFCE1C" d="M75.313,2.458c-23.055,0-41.74,18.688-41.74,41.736v8.887h83.473v-8.887
					C117.046,21.147,98.362,2.458,75.313,2.458z"/>
				<rect x="31.249" y="50.894" fill="#FFC121" width="88.121" height="4.309"/>
			</g>
			<path fill="#FFC121" d="M77.868,27.602c0,1.411-1.145,2.558-2.557,2.558l0,0c-1.414,0-2.561-1.146-2.561-2.558V2.558
				C72.751,1.147,73.897,0,75.312,0l0,0c1.412,0,2.557,1.146,2.557,2.558V27.602z"/>
			<path fill="#FFC121" d="M61.714,30.833c0,1.412-1.146,2.558-2.559,2.558l0,0c-1.416,0-2.561-1.146-2.561-2.558V5.79
				c0-1.412,1.145-2.558,2.561-2.558l0,0c1.412,0,2.559,1.146,2.559,2.558V30.833z"/>
			<path fill="#FFC121" d="M94.024,30.833c0,1.412-1.145,2.558-2.559,2.558l0,0c-1.414,0-2.559-1.146-2.559-2.558V5.79
				c0-1.412,1.145-2.558,2.559-2.558l0,0c1.414,0,2.559,1.146,2.559,2.558V30.833z"/>
		</g>
		<path fill="none" stroke="#231F20" stroke-width="0.5" stroke-miterlimit="10" d="M59.765,120.591
			c-4.217,6.087-6.852,14.674-6.852,24.199c0,18.454,9.869,33.413,22.043,33.413s22.043-14.959,22.043-33.413
			c0-9.525-2.631-18.112-6.852-24.199"/>
		<polygon fill="#E6E7E8" points="108.899,145.127 94.894,138.176 75.653,163.67 92.431,131.163 		"/>
		<polygon fill="#F1F1F2" points="88.517,114.412 108.962,145.19 94.435,135.671 75.825,163.726 88.517,126.769 		"/>
		<polygon fill="#E6E7E8" points="41.712,145.127 55.72,138.176 74.958,163.67 58.183,131.163 		"/>
		<polygon fill="#F1F1F2" points="62.097,114.412 41.649,145.19 56.179,135.671 74.786,163.726 62.097,126.769 		"/>
		<circle fill="#D02527" cx="74.959" cy="178.203" r="3.55"/>
		<circle fill="#EE8722" cx="68.634" cy="176.888" r="2.84"/>
		<circle fill="#F6CA1A" cx="64.439" cy="174.321" r="2.13"/>
		<circle fill="#792981" cx="85.48" cy="174.321" r="2.13"/>
		<circle fill="#148DCD" cx="81.221" cy="176.888" r="2.839"/>
		<polygon fill="#EAEBEC" points="143.874,231.561 124.429,231.561 122.05,216.532 150.604,216.532 		"/>
		<polygon fill="#F1F1F2" points="6.733,231.561 26.239,231.561 28.556,216.532 0.001,216.532 		"/>
	</g>
</g>
<g id="creativeprenuer">
</g>
<g id="diplomat">
</g>
<g id="engineer_manager">
</g>
<g id="entreprenuer">
</g>
<g id="it-consultant">
</g>
<g id="manajemen_operasional">
</g>
<g id="public_relation">
</g>
<g id="teknopreneur">
</g>
<g id="trader2">
</g>
</svg>
