<?xml version="1.0" encoding="utf-8"?>
<!-- Generator: Adobe Illustrator 16.0.4, SVG Export Plug-In . SVG Version: 6.00 Build 0)  -->
<!DOCTYPE svg PUBLIC "-//W3C//DTD SVG 1.0//EN" "http://www.w3.org/TR/2001/REC-SVG-20010904/DTD/svg10.dtd">
<svg version="1.0" xmlns="http://www.w3.org/2000/svg" xmlns:xlink="http://www.w3.org/1999/xlink" x="0px" y="0px"
	 width="146.624px" height="499.546px" viewBox="0 0 146.624 499.546" enable-background="new 0 0 146.624 499.546"
	 xml:space="preserve">
<g id="advokat">
</g>
<g id="arsitek">
</g>
<g id="creativeprenuer">
</g>
<g id="diplomat">
</g>
<g id="engineer_manager">
</g>
<g id="entreprenuer">
</g>
<g id="it-consultant">
</g>
<g id="manajemen_operasional">
	<g>
		<g>
			<path fill="#003660" d="M29.245,264.476h88.151v215.125c0,10.943-8.87,19.814-19.813,19.814l0,0
				c-10.944,0-19.814-8.871-19.814-19.814V309.767l0.021-1.186v-3.329c0-2.468-2-4.468-4.469-4.468l0,0c-2.468,0-4.47,2-4.47,4.468
				v3.329l0.021,2.264v168.756c0,10.943-8.871,19.814-19.814,19.814l0,0c-10.943,0-19.813-8.871-19.813-19.814V264.476"/>
		</g>
		<path fill="#002B52" d="M72.994,290.383c-12.482,0.023-22.602,10.151-22.602,22.643v177.923c0,2.906,0.568,5.677,1.565,8.231
			c9.566-1.409,16.915-9.625,16.915-19.579V310.845l-0.021-2.264v-3.329c0-2.468,2.002-4.468,4.47-4.468
			c2.469,0,4.469,2,4.469,4.468v3.329l-0.021,1.186v169.834c0,10.943,8.87,19.814,19.814,19.814
			c10.943,0,19.813-8.871,19.813-19.814V264.476H72.994V290.383z"/>
		<path fill="#231F20" d="M71.012,499.546c-0.045-11.434-9.317-20.688-20.758-20.688H20.759c-11.439,0-20.718,9.254-20.759,20.688
			H71.012z"/>
		<path fill="#231F20" d="M146.624,499.546c-0.039-11.434-9.312-20.688-20.758-20.688H96.375c-11.438,0-20.72,9.254-20.757,20.688
			H146.624z"/>
		<path fill="#FFFFFF" d="M24.102,256.924v-66.396V172.13c0-0.392,0.318-0.707,0.708-0.707c0.393,0,0.709,0.315,0.709,0.707v18.398
			l-0.014,9.528l-0.002,56.102c0,6.76,5.479,12.24,12.24,12.24h71.155c6.761,0,12.24-5.48,12.24-12.24v-56.102l-0.027-9.528V172.13
			c0-0.392,0.319-0.707,0.707-0.707c0.392,0,0.707,0.315,0.707,0.707v18.398v66.396c0,0,0.076,2.175-1.079,4.315h20.523
			l-0.006-4.245v-83.096l-0.002-2.425v-15.095c0-19.652-15.932-35.583-35.585-35.583H40.271c-19.652,0-35.584,15.931-35.584,35.583
			v16.711l-0.004,0.809v83.954l-0.021,3.387h20.525C24.027,259.099,24.102,256.924,24.102,256.924z"/>
		<line fill="none" stroke="#231F20" stroke-miterlimit="10" x1="17.401" y1="300.642" x2="17.401" y2="300.642"/>
		<path fill="#FDCF9D" d="M120.909,262.1c0,0-0.73,1.431-0.92,1.877c-0.61,1.427-0.904,3.015-0.904,4.665v2.259l-0.016,7.926v10.603
			c0,1.554,1.258,2.813,2.812,2.813s2.813-1.26,2.813-2.813v-10.603v-2.609c0-0.565,0.455-1.021,1.018-1.021
			c0.565,0,1.021,0.455,1.021,1.021v23.146c1.479,0.619,3.105,0.964,4.808,0.964c6.882,0,12.458-5.576,12.458-12.456v-19.229
			c0-1.605-0.305-3.137-0.856-4.545c-0.313-0.804-0.708-1.562-1.173-2.273v-0.584h-20.523
			C121.287,261.529,121.115,261.816,120.909,262.1z"/>
		<path fill="#FFD9A1" d="M3.486,264.097c-0.553,1.408-0.856,2.939-0.856,4.545v19.229c0,6.88,5.575,12.456,12.456,12.456
			c1.706,0,3.329-0.345,4.808-0.964v-23.146c0-0.565,0.457-1.021,1.021-1.021c0.562,0,1.021,0.455,1.021,1.021l-0.004,2.609v10.603
			c0,1.554,1.263,2.813,2.816,2.813c1.556,0,2.814-1.26,2.814-2.813v-10.603l-0.02-7.926v-2.259c0-1.65-0.289-3.238-0.902-4.665
			c-0.19-0.446-0.92-1.877-0.92-1.877c-0.205-0.284-0.379-0.571-0.533-0.86H4.661l-0.004,0.584
			C4.192,262.535,3.8,263.293,3.486,264.097z"/>
		<path fill="#F1F1F2" d="M141.964,173.899l-0.002-2.425v-15.095c0-19.652-15.932-35.583-35.585-35.583H72.975v147.602h35.924
			c6.761,0,12.24-5.48,12.24-12.24v-56.102l-0.029-9.528l0.002-18.398c0-0.392,0.319-0.707,0.707-0.707
			c0.392,0,0.707,0.315,0.707,0.707v18.398v66.396c0,0,0.076,2.175-1.079,4.315h20.523l-0.006-4.245V173.899z"/>
		<polygon fill="#BADAA1" points="76.061,146.864 72.975,146.864 69.89,146.864 62.992,248.392 72.975,255.608 82.96,248.392 		"/>
		<g>
			<path fill="#FFD9A1" d="M45.805,80.36c0,4.119-3.34,7.459-7.458,7.459l0,0c-4.12,0-7.462-3.34-7.462-7.459v-6.175
				c0-4.12,3.342-7.459,7.462-7.459l0,0c4.118,0,7.458,3.339,7.458,7.459V80.36z"/>
			<path fill="#FDCF9D" d="M43.108,79.244c0,2.632-2.131,4.766-4.762,4.766l0,0c-2.634,0-4.769-2.133-4.769-4.766v-3.944
				c0-2.631,2.135-4.764,4.769-4.764l0,0c2.631,0,4.762,2.133,4.762,4.764V79.244z"/>
			<path fill="#E5BD90" d="M115.761,80.36c0,4.119-3.34,7.459-7.46,7.459l0,0c-4.12,0-7.462-3.34-7.462-7.459v-6.175
				c0-4.12,3.342-7.459,7.462-7.459l0,0c4.12,0,7.46,3.339,7.46,7.459V80.36z"/>
			<path fill="#DBB58A" d="M113.065,79.245c0,2.631-2.132,4.765-4.765,4.765l0,0c-2.632,0-4.767-2.133-4.767-4.765v-3.945
				c0-2.631,2.135-4.764,4.767-4.764l0,0c2.633,0,4.765,2.133,4.765,4.764V79.245z"/>
			<path fill="#FFD9A1" d="M73.323,16.18c-20.102,0-36.393,16.295-36.393,36.392v24.263c0,15.437,9.616,28.62,23.181,33.909v14.614
				c0,7.294,5.914,13.21,13.212,13.21c7.294,0,13.208-5.916,13.208-13.21v-14.614c13.564-5.288,23.183-18.471,23.183-33.909V52.572
				C109.714,32.476,93.422,16.18,73.323,16.18z"/>
			<path fill="#FDCF9D" d="M109.64,50.388c-0.012-0.219-0.031-0.437-0.049-0.656c-0.039-0.518-0.09-1.033-0.15-1.544
				c-0.027-0.229-0.057-0.458-0.088-0.686c-0.078-0.56-0.17-1.118-0.274-1.672c-0.027-0.146-0.047-0.291-0.078-0.435
				c-0.139-0.702-0.302-1.395-0.479-2.083c-0.033-0.127-0.075-0.253-0.108-0.379c-0.155-0.562-0.319-1.117-0.499-1.667
				c-0.061-0.183-0.123-0.363-0.186-0.544c-0.182-0.525-0.373-1.047-0.579-1.563c-0.057-0.141-0.109-0.283-0.168-0.423
				c-0.547-1.328-1.169-2.615-1.861-3.858c-0.051-0.092-0.105-0.183-0.156-0.274c-0.311-0.541-0.632-1.075-0.966-1.598
				c-0.06-0.091-0.119-0.183-0.176-0.274c-1.196-1.831-2.55-3.55-4.045-5.132c-0.033-0.035-0.064-0.069-0.098-0.103
				c-2.045-2.146-4.345-4.045-6.86-5.644c-0.012-0.008-0.025-0.016-0.037-0.023l-0.913-0.563c-5.431-3.226-11.77-5.083-18.545-5.083
				c-0.119,0-0.236,0.008-0.354,0.009v122.362c0.118,0.003,0.235,0.018,0.354,0.018c7.294,0,13.208-5.916,13.208-13.21v-14.614
				c13.564-5.288,23.183-18.471,23.183-33.909V52.572C109.714,51.838,109.687,51.112,109.64,50.388z"/>
			<g>
				<path fill="#3B2314" d="M108.278,85.847c-0.148,0.626-0.283,1.19-0.396,1.626C108.026,86.933,108.169,86.394,108.278,85.847z"/>
				<path fill="#3B2314" d="M100.65,24.066c0,0,0.263-8.792-8.093-13.509c0,0-47.846-18.301-58.159,25.573
					c0,0-0.672,16.038,1.148,27.158c0,0,1.012,15.164,3.033,23.454c0,0-3.033-16.782,4.043-25.273c0,0,7.076-7.076,3.032-14.557
					c0,0,0.076-0.311,0.247-0.831c20.918-0.45,39.989-8.267,39.989-8.267c-2.832,4.649-24.264,8.491-24.264,8.491
					c32.957-1.212,35.99-12.535,35.99-12.535s6.67,7.279,6.874,14.355c0,0-4.449,6.469,0.202,12.333c0,0,6.034,13.312,3.584,25.39
					c1.059-4.526,3.086-22.559,3.086-22.559S119.048,30.198,100.65,24.066z"/>
				<path fill="#3B2314" d="M107.882,87.473c-0.117,0.431-0.217,0.866-0.357,1.291C107.524,88.764,107.663,88.302,107.882,87.473z"
					/>
			</g>
		</g>
		<polygon fill="#3B2314" points="79.474,96.542 72.969,99.014 66.465,96.542 		"/>
		<circle fill="#3B2314" cx="58.294" cy="66.725" r="3.234"/>
		<path fill="#3B2314" d="M91.587,66.725c0,1.787-1.451,3.233-3.235,3.233c-1.789,0-3.236-1.446-3.236-3.233
			s1.447-3.235,3.236-3.235C90.136,63.489,91.587,64.938,91.587,66.725z"/>
		<polygon fill="#BADAA1" points="76.086,147.207 69.866,147.207 66.251,138.576 79.698,138.576 		"/>
		<polygon fill="#ABD28C" points="72.975,146.864 72.969,146.864 72.969,255.604 72.975,255.608 82.96,248.392 76.061,146.864 		"/>
		<polygon fill="#ABD28C" points="72.969,147.207 76.086,147.207 79.698,138.576 72.969,138.576 		"/>
		<polygon fill="#E6E7E8" points="90.353,176.526 90.353,200.951 101.18,205.187 112.006,200.951 112.006,176.526 		"/>
		<path fill="#FDCF9D" d="M122.525,191.691v65.233c0,0,0.076,2.175-1.079,4.315h20.523l-0.006-4.245v-65.304H122.525z"/>
		<path fill="#FFD9A1" d="M24.102,256.924v-65.233H4.683v66.162l-0.021,3.387h20.525C24.027,259.099,24.102,256.924,24.102,256.924z
			"/>
		<polygon fill="#E5BD90" points="72.97,70.19 72.97,87.779 77.31,85.038 		"/>
		<path fill="#F1F1F2" d="M60.09,115.425c0,0-12.538,9.738-7.271,32.557c0,0,5.768-13.29,17.302-9.78c0,0-9.09-2.068-10.03-12.287
			V115.425z"/>
		<path fill="#E6E7E8" d="M86.508,115.425c0,0,12.539,9.738,7.272,32.557c0,0-5.768-13.29-17.303-9.78c0,0,9.09-2.068,10.03-12.287
			V115.425z"/>
		<g>
			<g>
				<path fill="#FFCE1C" d="M72.972,2.46c-23.08,0-41.784,18.709-41.784,41.783v8.896h83.564v-8.896
					C114.752,21.17,96.046,2.46,72.972,2.46z"/>
				<rect x="28.859" y="50.949" fill="#FFC121" width="88.22" height="4.314"/>
			</g>
			<path fill="#FFC121" d="M75.532,27.631c0,1.414-1.148,2.561-2.562,2.561l0,0c-1.414,0-2.562-1.147-2.562-2.561V2.56
				c0-1.412,1.148-2.56,2.562-2.56l0,0c1.414,0,2.562,1.148,2.562,2.56V27.631z"/>
			<path fill="#FFC121" d="M59.358,30.867c0,1.414-1.148,2.561-2.562,2.561l0,0c-1.417,0-2.562-1.147-2.562-2.561V5.796
				c0-1.414,1.146-2.561,2.562-2.561l0,0c1.414,0,2.562,1.147,2.562,2.561V30.867z"/>
			<path fill="#FFC121" d="M91.706,30.867c0,1.414-1.147,2.561-2.562,2.561l0,0c-1.414,0-2.562-1.147-2.562-2.561V5.796
				c0-1.414,1.147-2.561,2.562-2.561l0,0c1.415,0,2.562,1.147,2.562,2.561V30.867z"/>
		</g>
	</g>
</g>
<g id="public_relation">
</g>
<g id="teknopreneur">
</g>
<g id="trader2">
</g>
</svg>
