<?xml version="1.0" encoding="utf-8"?>
<!-- Generator: Adobe Illustrator 16.0.4, SVG Export Plug-In . SVG Version: 6.00 Build 0)  -->
<!DOCTYPE svg PUBLIC "-//W3C//DTD SVG 1.0//EN" "http://www.w3.org/TR/2001/REC-SVG-20010904/DTD/svg10.dtd">
<svg version="1.0" xmlns="http://www.w3.org/2000/svg" xmlns:xlink="http://www.w3.org/1999/xlink" x="0px" y="0px"
	 width="146.463px" height="490.375px" viewBox="0 0 146.463 490.375" enable-background="new 0 0 146.463 490.375"
	 xml:space="preserve">
<g id="advokat">
</g>
<g id="arsitek">
</g>
<g id="creativeprenuer">
	<g>
		<g>
			<g>
				<g>
					<path fill="#00557F" d="M29.21,255.572h88.056V470.46c0,10.932-8.86,19.793-19.792,19.793l0,0
						c-10.932,0-19.792-8.861-19.792-19.793V300.812l0.021-1.184v-3.325c0-2.466-1.998-4.464-4.464-4.464l0,0
						c-2.466,0-4.466,1.998-4.466,4.464v3.325l0.021,2.262v168.57c0,10.932-8.86,19.793-19.792,19.793l0,0
						c-10.932,0-19.793-8.861-19.793-19.793V255.572"/>
				</g>
			</g>
			<path fill="#004869" d="M72.912,281.451c-12.469,0.023-22.576,10.141-22.576,22.617v177.728c0,2.903,0.567,5.671,1.563,8.224
				c9.556-1.408,16.896-9.615,16.896-19.559V301.89l-0.021-2.262v-3.325c0-2.466,2-4.464,4.466-4.464s4.464,1.998,4.464,4.464v3.325
				l-0.021,1.184V470.46c0,10.932,8.86,19.793,19.792,19.793s19.792-8.861,19.792-19.793V255.572H72.912V281.451z"/>
		</g>
		<path fill="#3B2314" d="M115.806,97.696c0,23.645-19.168,42.814-42.814,42.814l0,0c-23.646,0-42.816-19.17-42.816-42.814V42.764
			c0-23.648,19.171-42.815,42.816-42.815l0,0c23.646,0,42.814,19.167,42.814,42.815V97.696z"/>
		<path fill="#FFD9A1" d="M24.075,248.028v-66.324v-18.378c0-0.392,0.317-0.707,0.707-0.707c0.392,0,0.708,0.315,0.708,0.707v18.378
			l-0.014,9.517l-0.002,56.04c0,6.753,5.474,12.229,12.228,12.229h71.077c6.753,0,12.227-5.476,12.227-12.229v-56.04l-0.027-9.517
			v-18.378c0-0.392,0.318-0.707,0.706-0.707c0.392,0,0.707,0.315,0.707,0.707v18.378v66.324c0,0,0.076,2.171-1.078,4.312h20.5
			l-0.006-4.242v-83.004l-0.002-2.423v-15.078c0-19.63-15.914-35.544-35.545-35.544H40.226c-19.629,0-35.543,15.914-35.543,35.544
			v16.693l-0.004,0.808v83.863l-0.021,3.384h20.501C24.001,250.199,24.075,248.028,24.075,248.028z"/>
		<line fill="none" stroke="#231F20" stroke-miterlimit="10" x1="17.383" y1="291.699" x2="17.383" y2="291.699"/>
		<path fill="#FDCF9D" d="M120.776,253.197c0,0-0.729,1.43-0.92,1.875c-0.608,1.426-0.901,3.013-0.901,4.66v2.256l-0.016,7.918
			v10.59c0,1.553,1.256,2.812,2.808,2.812c1.554,0,2.812-1.259,2.812-2.812v-10.59v-2.606c0-0.565,0.454-1.02,1.016-1.02
			c0.565,0,1.02,0.454,1.02,1.02v23.121c1.478,0.618,3.102,0.962,4.803,0.962c6.874,0,12.443-5.569,12.443-12.441v-19.209
			c0-1.603-0.303-3.134-0.855-4.541c-0.312-0.802-0.707-1.559-1.172-2.27v-0.582h-20.5
			C121.154,252.625,120.982,252.914,120.776,253.197z"/>
		<path fill="#FFD9A1" d="M3.483,255.191c-0.553,1.407-0.855,2.938-0.855,4.541v19.209c0,6.872,5.569,12.441,12.443,12.441
			c1.703,0,3.325-0.344,4.801-0.962v-23.121c0-0.565,0.456-1.02,1.02-1.02c0.562,0,1.02,0.454,1.02,1.02l-0.004,2.606v10.59
			c0,1.553,1.261,2.812,2.812,2.812c1.554,0,2.812-1.259,2.812-2.812v-10.59l-0.02-7.918v-2.256c0-1.647-0.289-3.234-0.901-4.66
			c-0.19-0.445-0.918-1.875-0.918-1.875c-0.206-0.283-0.381-0.571-0.534-0.857H4.657l-0.004,0.582
			C4.189,253.632,3.796,254.389,3.483,255.191z"/>
		<path fill="#231F20" d="M125.728,469.711h-8.799c0.022,0.312,0.048,0.625,0.048,0.943v1.413c0,7.139-5.787,12.926-12.926,12.926
			h-13.53c-4.787,0-8.959-2.612-11.193-6.48c-2.371,3.356-3.776,7.443-3.792,11.861h70.928
			C146.422,478.955,137.16,469.711,125.728,469.711z"/>
		<path fill="#231F20" d="M20.735,469.711h8.796c-0.021,0.312-0.047,0.625-0.047,0.943v1.413c0,7.139,5.789,12.926,12.926,12.926
			h13.532c4.788,0,8.959-2.612,11.191-6.48c2.37,3.356,3.78,7.443,3.797,11.861H0C0.041,478.955,9.305,469.711,20.735,469.711z"/>
		<path fill="#FDCF9D" d="M141.808,165.093l-0.002-2.423v-15.078c0-19.63-15.914-35.544-35.545-35.544H72.895V259.49h35.885
			c6.753,0,12.227-5.476,12.227-12.229v-56.04l-0.029-9.517l0.002-18.378c0-0.392,0.318-0.707,0.706-0.707
			c0.392,0,0.707,0.315,0.707,0.707v18.378v66.324c0,0,0.076,2.171-1.078,4.312h20.5l-0.006-4.242V165.093z"/>
		<path fill="#FDCF9D" d="M122.392,225.44v14.517c0,0,0.076,6.236-1.078,12.383h20.5l-0.006-12.184V225.44H122.392z"/>
		<path fill="#FFD9A1" d="M24.075,248.028v-45.131H4.679v46.059l-0.021,3.384h20.501C24.001,250.199,24.075,248.028,24.075,248.028z
			"/>
		<path fill="#F19220" d="M105.918,112.048H39.886c-5.263,0-10.246,1.152-14.737,3.2v48.079v18.378v85.909
			c0.165,6.606,5.563,11.915,12.213,11.915h71.075c6.567,0,11.914-5.186,12.199-11.682V115.242
			C116.148,113.197,111.17,112.048,105.918,112.048z"/>
		<path fill="#EE8722" d="M72.573,112.048v167.481h35.863c6.567,0,11.914-5.186,12.199-11.682V115.242
			c-4.487-2.045-9.466-3.194-14.718-3.194H72.573z"/>
		<path fill="#E5BD90" d="M115.632,71.675c0,4.114-3.334,7.45-7.45,7.45l0,0c-4.115,0-7.453-3.335-7.453-7.45v-6.17
			c0-4.114,3.338-7.45,7.453-7.45l0,0c4.116,0,7.45,3.335,7.45,7.45V71.675z"/>
		<path fill="#DBB58A" d="M112.941,70.561c0,2.625-2.131,4.758-4.76,4.758l0,0c-2.628,0-4.761-2.133-4.761-4.758V66.62
			c0-2.629,2.133-4.758,4.761-4.758l0,0c2.629,0,4.76,2.129,4.76,4.758V70.561z"/>
		<path fill="#FFD9A1" d="M45.755,71.675c0,4.114-3.335,7.45-7.45,7.45l0,0c-4.116,0-7.454-3.335-7.454-7.45v-6.17
			c0-4.114,3.338-7.45,7.454-7.45l0,0c4.115,0,7.45,3.335,7.45,7.45V71.675z"/>
		<path fill="#FDCF9D" d="M43.063,70.558c0,2.628-2.131,4.761-4.759,4.761l0,0c-2.628,0-4.762-2.133-4.762-4.761V66.62
			c0-2.629,2.134-4.758,4.762-4.758l0,0c2.628,0,4.759,2.129,4.759,4.758V70.558z"/>
		<path fill="#E5BD90" d="M56.196,112.047v4.242c0,9.221,7.478,16.696,16.698,16.696c9.222,0,16.692-7.475,16.692-16.696v-4.242
			H56.196z"/>
		<path fill="#E5BD90" d="M56.196,112.047v4.242c0,9.221,7.478,16.696,16.698,16.696c9.222,0,16.692-7.475,16.692-16.696v-4.242
			H56.196z"/>
		<path fill="#FFD9A1" d="M73.243,7.566c-20.078,0-36.352,16.276-36.352,36.353v24.234c0,15.418,9.604,28.587,23.156,33.872v14.599
			c0,7.286,5.906,13.194,13.195,13.194c7.285,0,13.193-5.908,13.193-13.194v-14.599c13.55-5.281,23.156-18.451,23.156-33.872V43.918
			C109.593,23.842,93.319,7.566,73.243,7.566z"/>
		<path fill="#FDCF9D" d="M72.893,129.8c0.116,0.003,0.233,0.017,0.353,0.017c7.285,0,13.193-5.908,13.193-13.194v-14.599
			c13.55-5.281,23.156-18.451,23.156-33.872V43.918c0-12.916-6.739-24.251-16.888-30.698H72.893V129.8z"/>
		<path fill="#3B2314" d="M61.461,58.055c0,1.783-1.448,3.229-3.231,3.229c-1.786,0-3.232-1.446-3.232-3.229
			c0-1.787,1.446-3.231,3.232-3.231C60.013,54.824,61.461,56.269,61.461,58.055z"/>
		<path fill="#3B2314" d="M91.485,58.055c0,1.783-1.448,3.229-3.23,3.229c-1.787,0-3.231-1.446-3.231-3.229
			c0-1.787,1.444-3.231,3.231-3.231C90.037,54.824,91.485,56.269,91.485,58.055z"/>
		<polygon fill="#E5BD90" points="72.891,61.488 72.891,79.059 77.226,76.32 		"/>
		<polygon fill="#EC1C24" points="79.388,87.819 72.891,90.29 66.392,87.819 		"/>
		<path fill="#3B2314" d="M64.114,49.825c0,0.474-0.386,0.858-0.859,0.858H52.754c-0.474,0-0.858-0.384-0.858-0.858l0,0
			c0-0.473,0.385-0.858,0.858-0.858h10.501C63.729,48.967,64.114,49.353,64.114,49.825L64.114,49.825z"/>
		<path fill="#3B2314" d="M94.206,49.825c0,0.474-0.386,0.858-0.857,0.858H82.846c-0.474,0-0.859-0.384-0.859-0.858l0,0
			c0-0.473,0.386-0.858,0.859-0.858h10.503C93.82,48.967,94.206,49.353,94.206,49.825L94.206,49.825z"/>
		<path fill="#3B2314" d="M97.226,28.02c0,0-7.271,14.744-33.121,14.744c0,0,18.379-5.251,23.428-13.935
			c0,0-19.389,11.713-35.545,13.732c0,0-14.442-2.14-13.683,32.758c0,0,1.162-18.015-3.686-17.61l0.809-29.083L59.257,5.603
			L82.28,5.199l24.236,16.156l6.059,34.939c0,0-3.23,3.635-3.23,14.339c0,0-2.828-19.792-2.828-28.879
			C106.517,41.754,106.111,30.241,97.226,28.02z"/>
		<path fill="#4D4E4E" d="M98.571,94.232c0,0-12.023,14.027-37.739,9.519l39.411,17.869
			C100.243,121.62,106.922,108.594,98.571,94.232z"/>
		<path fill="#6C6C6C" d="M93.562,148.337c0,0-4.509,65.126-2.254,94.183l-43.084-11.271c0,0,1.002-58.614,13.276-90.927
			l3.006-3.507l30.058,8.016L93.562,148.337z"/>
		<path fill="#5E5E5E" d="M47.722,93.982c0,0-8.516,5.511-9.016,17.785c0,0,13.024,41.08,61.118,36.07
			c0,0,10.271-11.272,9.521-36.571C109.345,111.266,60.498,109.262,47.722,93.982z"/>
	</g>
</g>
<g id="diplomat">
</g>
<g id="engineer_manager">
</g>
<g id="entreprenuer">
</g>
<g id="it-consultant">
</g>
<g id="manajemen_operasional">
</g>
<g id="public_relation">
</g>
<g id="teknopreneur">
</g>
<g id="trader2">
</g>
</svg>
