<?xml version="1.0" encoding="utf-8"?>
<!-- Generator: Adobe Illustrator 16.0.4, SVG Export Plug-In . SVG Version: 6.00 Build 0)  -->
<!DOCTYPE svg PUBLIC "-//W3C//DTD SVG 1.0//EN" "http://www.w3.org/TR/2001/REC-SVG-20010904/DTD/svg10.dtd">
<svg version="1.0" xmlns="http://www.w3.org/2000/svg" xmlns:xlink="http://www.w3.org/1999/xlink" x="0px" y="0px"
	 width="146.622px" height="500px" viewBox="0 0 146.622 500" enable-background="new 0 0 146.622 500" xml:space="preserve">
<g id="advokat">
</g>
<g id="arsitek">
</g>
<g id="creativeprenuer">
	<g>
		<path fill="#C5C7C9" d="M101.307,121.146c0,6.094-4.94,11.033-11.033,11.033H55.669c-6.096,0-11.034-4.939-11.034-11.033v-1.839
			c0-6.094,4.938-11.034,11.034-11.034h34.604c6.093,0,11.033,4.94,11.033,11.034V121.146z"/>
		<g>
			<g>
				<path fill="#FFD9A1" d="M45.803,80.813c0,4.119-3.34,7.459-7.459,7.459l0,0c-4.119,0-7.462-3.34-7.462-7.459v-6.176
					c0-4.12,3.343-7.459,7.462-7.459l0,0c4.119,0,7.459,3.339,7.459,7.459V80.813z"/>
				<path fill="#FDCF9D" d="M43.106,79.697c0,2.632-2.131,4.765-4.763,4.765l0,0c-2.632,0-4.768-2.133-4.768-4.765v-3.945
					c0-2.631,2.136-4.764,4.768-4.764l0,0c2.632,0,4.763,2.133,4.763,4.764V79.697z"/>
				<path fill="#E5BD90" d="M115.759,80.813c0,4.119-3.341,7.459-7.46,7.459l0,0c-4.12,0-7.463-3.34-7.463-7.459v-6.176
					c0-4.12,3.343-7.459,7.463-7.459l0,0c4.119,0,7.46,3.339,7.46,7.459V80.813z"/>
				<path fill="#DBB58A" d="M113.062,79.698c0,2.631-2.131,4.764-4.764,4.764l0,0c-2.632,0-4.767-2.133-4.767-4.764v-3.946
					c0-2.631,2.135-4.764,4.767-4.764l0,0c2.633,0,4.764,2.133,4.764,4.764V79.698z"/>
				<path fill="#FFD9A1" d="M73.321,16.633c-20.102,0-36.393,16.295-36.393,36.392v24.263c0,15.437,9.616,28.62,23.181,33.91v14.614
					c0,7.294,5.915,13.21,13.212,13.21c7.294,0,13.208-5.917,13.208-13.21v-14.614c13.565-5.288,23.183-18.471,23.183-33.91V53.025
					C109.712,32.928,93.419,16.633,73.321,16.633z"/>
				<path fill="#FDCF9D" d="M109.639,50.84c-0.012-0.219-0.031-0.437-0.049-0.656c-0.04-0.517-0.091-1.033-0.151-1.544
					c-0.027-0.229-0.057-0.458-0.088-0.686c-0.078-0.56-0.171-1.118-0.274-1.672c-0.027-0.146-0.047-0.291-0.078-0.435
					c-0.139-0.702-0.302-1.395-0.48-2.083c-0.033-0.127-0.074-0.253-0.107-0.38c-0.154-0.562-0.319-1.117-0.499-1.667
					c-0.061-0.183-0.123-0.363-0.184-0.544c-0.184-0.526-0.375-1.047-0.581-1.564c-0.057-0.14-0.109-0.282-0.168-0.423
					c-0.547-1.327-1.167-2.614-1.861-3.857c-0.051-0.092-0.105-0.184-0.156-0.275c-0.311-0.541-0.632-1.075-0.966-1.597
					c-0.059-0.092-0.117-0.184-0.176-0.275c-1.196-1.831-2.55-3.549-4.045-5.132c-0.033-0.035-0.064-0.069-0.098-0.102
					c-2.045-2.147-4.346-4.046-6.86-5.645c-0.012-0.008-0.025-0.016-0.037-0.023l-0.913-0.563
					c-5.431-3.226-11.771-5.083-18.545-5.083c-0.119,0-0.236,0.008-0.354,0.009v122.362c0.118,0.003,0.235,0.018,0.354,0.018
					c7.294,0,13.208-5.917,13.208-13.21v-14.614c13.565-5.288,23.183-18.471,23.183-33.91V53.025
					C109.712,52.291,109.685,51.564,109.639,50.84z"/>
				<g>
					<path fill="#3B2314" d="M108.277,86.299c-0.149,0.627-0.284,1.19-0.397,1.626C108.024,87.386,108.167,86.846,108.277,86.299z"
						/>
					<path fill="#3B2314" d="M100.648,24.518c0,0,4.917-9.502-3.438-14.219c0,0-52.501-17.59-62.813,26.284
						c0,0-0.672,16.039,1.148,27.158c0,0,1.011,15.164,3.033,23.454c0,0-3.033-16.781,4.043-25.273c0,0,7.076-7.076,3.032-14.557
						c0,0,0.076-0.311,0.247-0.831c20.917-0.45,39.988-8.267,39.988-8.267c-2.83,4.649-24.263,8.491-24.263,8.491
						c32.958-1.213,35.99-12.536,35.99-12.536s6.67,7.279,6.874,14.355c0,0-4.449,6.468,0.201,12.333c0,0,6.035,13.312,3.586,25.389
						c1.058-4.525,3.085-22.558,3.085-22.558S119.047,30.65,100.648,24.518z"/>
					<path fill="#3B2314" d="M107.88,87.925c-0.117,0.431-0.216,0.866-0.357,1.291C107.522,89.216,107.661,88.755,107.88,87.925z"/>
				</g>
				<path fill="#3B2314" d="M34.396,36.583c0,0-0.064-25.55,12.223-36.583c0,0-6.52,7.021,28.838,6.771L34.396,36.583z"/>
			</g>
			<polygon fill="#3B2314" points="79.472,96.996 72.967,99.468 66.463,96.996 			"/>
			<polygon fill="#E5BD90" points="72.968,70.644 72.968,88.233 77.307,85.491 			"/>
			<circle fill="#3B2314" cx="58.292" cy="67.178" r="3.234"/>
			<circle fill="#3B2314" cx="88.348" cy="67.178" r="3.235"/>
		</g>
		<path fill="#FFD9A1" d="M3.485,264.552c-0.553,1.408-0.856,2.943-0.856,4.547v19.23c0,6.879,5.576,12.456,12.456,12.456
			c1.706,0,3.33-0.344,4.808-0.965v-23.146c0-0.563,0.456-1.02,1.021-1.02c0.562,0,1.021,0.456,1.021,1.02l-0.004,2.608v10.604
			c0,1.554,1.261,2.813,2.815,2.813c1.556,0,2.814-1.26,2.814-2.813v-10.604l-0.02-7.925v-2.259c0-1.65-0.289-3.238-0.903-4.665
			c-0.189-0.448-0.919-1.879-0.919-1.879c-0.205-0.282-0.379-0.569-0.535-0.858H4.66l-0.004,0.585
			C4.191,262.992,3.797,263.751,3.485,264.552z"/>
		<g>
			<path fill="#003660" d="M29.245,264.931h88.149v215.123c0,10.943-8.871,19.814-19.813,19.814l0,0
				c-10.944,0-19.814-8.871-19.814-19.814V310.22l0.021-1.186v-3.327c0-2.468-2-4.47-4.469-4.47l0,0
				c-2.466,0-4.471,2.002-4.471,4.47v3.327l0.024,2.266v168.754c0,10.943-8.871,19.814-19.814,19.814l0,0
				c-10.943,0-19.813-8.871-19.813-19.814V264.931"/>
		</g>
		<path fill="#002B52" d="M72.994,290.837c-12.484,0.024-22.604,10.152-22.604,22.644v177.921c0,2.906,0.568,5.678,1.567,8.231
			c9.566-1.407,16.915-9.624,16.915-19.579V311.3l-0.024-2.266v-3.327c0-2.468,2.005-4.47,4.471-4.47
			c2.469,0,4.469,2.002,4.469,4.47v3.327l-0.021,1.186v169.834c0,10.943,8.87,19.814,19.814,19.814
			c10.942,0,19.813-8.871,19.813-19.814V264.931h-44.4V290.837z"/>
		<path fill="#404041" d="M24.1,257.382v-66.4v-18.397c0-0.392,0.318-0.708,0.71-0.708c0.389,0,0.707,0.316,0.707,0.708v18.397
			l-0.016,9.529v56.104c0,6.761,5.479,12.242,12.24,12.242h71.155c6.761,0,12.242-5.481,12.242-12.242v-56.104l-0.029-9.529v-18.397
			c0-0.392,0.319-0.708,0.706-0.708c0.393,0,0.708,0.316,0.708,0.708v18.397v66.4c0,0,0.076,2.172-1.079,4.314h20.525l-0.006-4.246
			v-83.097l-0.004-2.427v-15.094c0-19.652-15.932-35.584-35.585-35.584H40.268c-19.65,0-35.584,15.932-35.584,35.584v16.712
			l-0.002,0.809v83.957l-0.021,3.387h20.522C24.025,259.554,24.1,257.382,24.1,257.382z"/>
		<path fill="#3B3A3C" d="M141.964,174.354l-0.004-2.427v-15.094c0-19.652-15.932-35.584-35.585-35.584H72.994v147.608h35.902
			c6.761,0,12.242-5.481,12.242-12.242v-56.104l-0.029-9.529v-18.397c0-0.392,0.319-0.708,0.706-0.708
			c0.393,0,0.708,0.316,0.708,0.708v18.397v66.4c0,0,0.076,2.172-1.079,4.314h20.525l-0.006-4.246V174.354z"/>
		<path fill="#603813" d="M134.906,336.549c0,1.108-0.897,2.006-2.006,2.006h-20.312c-1.106,0-2.006-0.897-2.006-2.006v-73.724
			c0-1.107,0.899-2.006,2.006-2.006H132.9c1.108,0,2.006,0.898,2.006,2.006V336.549z"/>
		<path fill="#E5BD90" d="M56.281,121.041v4.452c0,9.231,7.481,16.715,16.713,16.715c9.229,0,16.711-7.484,16.711-16.715v-4.452
			H56.281z"/>
		<polygon fill="#3B3A3C" points="56.307,121.255 56.307,150.919 72.994,142.882 		"/>
		<polygon fill="#353435" points="89.679,121.255 89.679,150.919 72.994,142.882 		"/>
		<circle fill="#3B2314" cx="58.292" cy="67.195" r="3.234"/>
		<circle fill="#3B2314" cx="88.35" cy="67.195" r="3.235"/>
		<g>
			<path fill="#14C2F3" d="M54.594,59.66c0,0-9.772-0.312-9.772,7.128c0,0-0.761,11.922,10.938,11.922c0,0,9.01,1.033,11.966-8.247
				c0,0,3.409-7.978-4.257-9.636C63.468,60.828,58.311,59.66,54.594,59.66z"/>
			<path fill="#14C2F3" d="M91.731,59.66c0,0,9.771-0.312,9.771,7.128c0,0,0.76,11.922-10.938,11.922c0,0-9.009,1.033-11.969-8.247
				c0,0-3.405-7.978,4.261-9.636C82.856,60.828,88.011,59.66,91.731,59.66z"/>
			<path fill="#231F20" d="M110.721,62.81c-1.226-1.77-3.286-2.732-4.515-3.181l0.004-0.011c0,0-9.638-4.215-30.527,1.522
				c0,0-1.658,0.529-2.521,0.559c-0.862-0.029-2.52-0.559-2.52-0.559c-20.89-5.737-30.528-1.522-30.528-1.522l0.004,0.021
				c-1.231,0.454-3.27,1.416-4.485,3.17c0,0-0.605,2.325,0.137,2.933c0,0,3.23-2.321,5.111-1.777
				c0.406,0.133,1.55,0.679,1.992,2.711c0,0,0.805,7.328,4.033,10.825c0,0,2.892,2.755,8.338,2.755c0,0,10.154,0.605,12.908-6.925
				c0,0,1.852-4.941,2.657-6.151c0,0,1.073-1.917,2.353-1.917c1.276,0,2.355,1.917,2.355,1.917c0.804,1.21,2.651,6.151,2.651,6.151
				c2.759,7.531,12.912,6.925,12.912,6.925c5.447,0,8.338-2.755,8.338-2.755c3.229-3.497,4.034-10.825,4.034-10.825
				c0.43-1.984,1.528-2.549,1.961-2.702c1.871-0.611,5.172,1.767,5.172,1.767C111.327,65.135,110.721,62.81,110.721,62.81z
				 M67.725,70.464c-2.956,9.28-11.966,8.247-11.966,8.247c-11.698,0-10.938-11.922-10.938-11.922c0-7.441,9.772-7.128,9.772-7.128
				c3.717,0,8.874,1.167,8.874,1.167C71.134,62.486,67.725,70.464,67.725,70.464z M90.564,78.711c0,0-9.009,1.033-11.969-8.247
				c0,0-3.405-7.978,4.261-9.636c0,0,5.154-1.167,8.875-1.167c0,0,9.771-0.312,9.771,7.128
				C101.503,66.789,102.263,78.711,90.564,78.711z"/>
		</g>
		<path fill="#353435" d="M86.009,171.883v19.559c0,2.216,1.796,4.012,4.012,4.012h13.541c2.217,0,4.012-1.796,4.012-4.012v-19.559
			H86.009z"/>
		<path fill="#302D2F" d="M94.452,170.128v9.361c0,1.292,1.048,2.341,2.339,2.341c1.293,0,2.341-1.049,2.341-2.341v-9.361H94.452z"
			/>
		<circle fill="#808184" cx="96.822" cy="179.354" r="1.159"/>
		<path fill="#00244A" d="M120.112,484.33c0,2.217-1.797,4.012-4.013,4.012H78.987c-2.216,0-4.013-1.795-4.013-4.012v-22.066
			c0-2.216,1.797-4.012,4.013-4.012H116.1c2.216,0,4.013,1.796,4.013,4.012V484.33z"/>
		<path fill="#00244A" d="M71.298,484.33c0,2.217-1.797,4.012-4.012,4.012H30.174c-2.217,0-4.013-1.795-4.013-4.012v-22.066
			c0-2.216,1.796-4.012,4.013-4.012h37.112c2.215,0,4.012,1.796,4.012,4.012V484.33z"/>
		<path fill="#231F20" d="M146.622,500c-0.042-11.434-9.313-20.688-20.758-20.688h-29.49c-11.438,0-20.721,9.254-20.76,20.688
			H146.622z"/>
		<path fill="#404041" d="M71.01,500c-0.043-11.434-9.315-20.688-20.758-20.688H20.758C9.319,479.312,0.041,488.566,0,500H71.01z"/>
		<path fill="#603813" d="M121.7,257.894c0,1.109-0.897,2.007-2.006,2.007h-7.021c-1.107,0-2.007-0.897-2.007-2.007V122.15
			c0-1.108,0.899-2.006,2.007-2.006h7.021c1.108,0,2.006,0.898,2.006,2.006V257.894z"/>
		<path fill="#FDCF9D" d="M120.907,262.555c0,0-0.73,1.431-0.919,1.879c-0.611,1.427-0.904,3.015-0.904,4.665v2.259l-0.016,7.925
			v10.604c0,1.554,1.257,2.813,2.81,2.813c1.557,0,2.815-1.26,2.815-2.813v-10.604v-2.608c0-0.563,0.457-1.02,1.019-1.02
			c0.564,0,1.02,0.456,1.02,1.02v23.146c1.479,0.621,3.107,0.965,4.81,0.965c6.88,0,12.456-5.577,12.456-12.456v-19.23
			c0-1.604-0.304-3.139-0.856-4.547c-0.313-0.801-0.707-1.561-1.171-2.271v-0.585h-20.525
			C121.285,261.986,121.113,262.273,120.907,262.555z"/>
		<path fill="#BBBDBF" d="M44.635,121.255v-2.784h-0.836c-2.216,0-4.013,1.797-4.013,4.012v15.882c0,2.216,1.797,4.012,4.013,4.012
			h10.697c2.217,0,4.014-1.796,4.014-4.012v-15.882c0-0.432-0.087-0.839-0.213-1.229H44.635z"/>
		<path fill="#D0D2D3" d="M86.537,121.041c-0.088,2.109-1.812,4.011-3.945,4.011h-18.59c-2.187,0-3.961-1.773-3.961-3.961
			l-0.027,0.164h-7.658c-1.836,1.247-3.04,3.35-3.04,5.736v8.788c0,3.829,3.103,6.932,6.931,6.932h38.127
			c3.829,0,6.932-3.103,6.932-6.932v-14.739H86.537z"/>
		<rect x="44.635" y="121.041" fill="#D0D2D3" width="15.379" height="102.332"/>
	</g>
</g>
<g id="diplomat">
</g>
<g id="engineer_manager">
</g>
<g id="entreprenuer">
</g>
<g id="it-consultant">
</g>
<g id="manajemen_operasional">
</g>
<g id="public_relation">
</g>
<g id="teknopreneur">
</g>
<g id="trader2">
</g>
</svg>
