<?xml version="1.0" encoding="utf-8"?>
<!-- Generator: Adobe Illustrator 16.0.4, SVG Export Plug-In . SVG Version: 6.00 Build 0)  -->
<!DOCTYPE svg PUBLIC "-//W3C//DTD SVG 1.0//EN" "http://www.w3.org/TR/2001/REC-SVG-20010904/DTD/svg10.dtd">
<svg version="1.0" xmlns="http://www.w3.org/2000/svg" xmlns:xlink="http://www.w3.org/1999/xlink" x="0px" y="0px"
	 width="148.529px" height="499px" viewBox="0 0 148.529 499" enable-background="new 0 0 148.529 499" xml:space="preserve">
<g id="advokat">
</g>
<g id="arsitek">
</g>
<g id="creativeprenuer">
</g>
<g id="diplomat">
</g>
<g id="engineer_manager">
</g>
<g id="entreprenuer">
</g>
<g id="it-consultant">
</g>
<g id="manajemen_operasional">
	<g>
		<g>
			<g>
				<path fill="#003660" d="M31.278,264.188h88.056v214.889c0,10.932-8.861,19.793-19.793,19.793l0,0
					c-10.932,0-19.791-8.861-19.791-19.793V309.428l0.021-1.184v-3.325c0-2.466-2-4.464-4.465-4.464l0,0
					c-2.466,0-4.466,1.998-4.466,4.464v3.325l0.021,2.262v168.57c0,10.932-8.862,19.793-19.792,19.793l0,0
					c-10.932,0-19.792-8.861-19.792-19.793V264.188"/>
			</g>
			<path fill="#002B52" d="M74.98,290.066c-12.471,0.023-22.578,10.141-22.578,22.617v177.728c0,2.903,0.568,5.671,1.564,8.224
				c9.556-1.408,16.896-9.615,16.896-19.559v-168.57l-0.021-2.262v-3.325c0-2.466,2-4.464,4.466-4.464
				c2.465,0,4.465,1.998,4.465,4.464v3.325l-0.021,1.184v169.648c0,10.932,8.859,19.793,19.791,19.793s19.793-8.861,19.793-19.793
				V264.188H74.98V290.066z"/>
		</g>
		<path fill="#3B2314" d="M117.873,106.321c0,23.645-19.168,42.814-42.816,42.814l0,0c-23.644,0-42.814-19.17-42.814-42.814V61.408
			c0-23.648,19.171-42.815,42.814-42.815l0,0c23.648,0,42.816,19.167,42.816,42.815V106.321z"/>
		<path fill="#FFFFFF" d="M26.143,256.653v-66.324v-18.378c0-0.392,0.316-0.707,0.706-0.707c0.392,0,0.708,0.315,0.708,0.707v18.378
			l-0.014,9.517l-0.002,76.079c0,6.753,5.475,12.229,12.227,12.229h71.079c6.752,0,12.226-5.477,12.226-12.229v-76.079l-0.027-9.517
			v-18.378c0-0.392,0.318-0.707,0.706-0.707c0.392,0,0.707,0.315,0.707,0.707v18.378v66.324c0,0,0.075,2.17-1.079,4.312h20.501
			l-0.006-4.243v-83.004l-0.002-2.423v-15.078c0-19.631-15.913-35.544-35.546-35.544H42.293c-19.631,0-35.544,15.914-35.544,35.544
			v16.692l-0.004,0.809v83.863l-0.021,3.384h20.501C26.067,258.823,26.143,256.653,26.143,256.653z"/>
		<line fill="none" stroke="#231F20" stroke-miterlimit="10" x1="19.449" y1="300.324" x2="19.449" y2="300.324"/>
		<path fill="#FDCF9D" d="M122.844,261.82c0,0-0.73,1.432-0.92,1.876c-0.609,1.427-0.902,3.014-0.902,4.661v2.256l-0.016,7.918
			v10.59c0,1.553,1.256,2.812,2.808,2.812c1.554,0,2.812-1.259,2.812-2.812v-10.59v-2.606c0-0.565,0.454-1.02,1.016-1.02
			c0.565,0,1.02,0.454,1.02,1.02v23.121c1.478,0.618,3.103,0.961,4.802,0.961c6.875,0,12.444-5.569,12.444-12.442v-19.207
			c0-1.603-0.304-3.135-0.854-4.542c-0.313-0.801-0.707-1.558-1.173-2.269v-0.582h-20.501
			C123.221,261.25,123.049,261.537,122.844,261.82z"/>
		<path fill="#FFD9A1" d="M5.55,263.815c-0.552,1.407-0.854,2.939-0.854,4.542v19.207c0,6.873,5.568,12.442,12.441,12.442
			c1.705,0,3.326-0.343,4.802-0.961v-23.121c0-0.565,0.456-1.02,1.02-1.02c0.562,0,1.02,0.454,1.02,1.02l-0.004,2.606v10.59
			c0,1.553,1.261,2.812,2.812,2.812c1.554,0,2.812-1.259,2.812-2.812v-10.59l-0.02-7.918v-2.256c0-1.647-0.289-3.234-0.902-4.661
			c-0.189-0.444-0.917-1.876-0.917-1.876c-0.206-0.283-0.38-0.57-0.534-0.855H6.724l-0.004,0.582
			C6.256,262.258,5.862,263.015,5.55,263.815z"/>
		<path fill="#231F20" d="M127.794,478.337h-8.798c0.021,0.312,0.047,0.624,0.047,0.943v1.413c0,7.139-5.787,12.926-12.926,12.926
			h-13.53c-4.786,0-8.958-2.613-11.193-6.482c-2.37,3.358-3.776,7.444-3.792,11.863h70.928
			C148.488,487.58,139.227,478.337,127.794,478.337z"/>
		<path fill="#231F20" d="M22.802,478.337h8.796c-0.021,0.312-0.047,0.624-0.047,0.943v1.413c0,7.139,5.789,12.926,12.926,12.926
			h13.532c4.788,0,8.959-2.613,11.191-6.482c2.37,3.358,3.78,7.444,3.796,11.863H2.066C2.107,487.58,11.371,478.337,22.802,478.337z
			"/>
		<path fill="#FFD9A1" d="M47.82,80.301c0,4.114-3.334,7.449-7.449,7.449l0,0c-4.115,0-7.455-3.335-7.455-7.449V74.13
			c0-4.114,3.34-7.45,7.455-7.45l0,0c4.115,0,7.449,3.335,7.449,7.45V80.301z"/>
		<path fill="#FDCF9D" d="M45.131,79.183c0,2.628-2.132,4.762-4.76,4.762l0,0c-2.628,0-4.762-2.133-4.762-4.762v-3.938
			c0-2.629,2.134-4.758,4.762-4.758l0,0c2.628,0,4.76,2.129,4.76,4.758V79.183z"/>
		<path fill="#E5BD90" d="M117.697,80.301c0,4.114-3.334,7.449-7.449,7.449l0,0c-4.115,0-7.453-3.335-7.453-7.449V74.13
			c0-4.114,3.338-7.45,7.453-7.45l0,0c4.115,0,7.449,3.335,7.449,7.45V80.301z"/>
		<path fill="#DBB58A" d="M115.008,79.186c0,2.625-2.131,4.759-4.76,4.759l0,0c-2.628,0-4.76-2.133-4.76-4.759v-3.941
			c0-2.629,2.132-4.758,4.76-4.758l0,0c2.629,0,4.76,2.129,4.76,4.758V79.186z"/>
		<path fill="#F1F1F2" d="M143.874,173.718l-0.002-2.423v-15.078c0-19.631-15.913-35.544-35.546-35.544H74.961v167.482h35.886
			c6.752,0,12.226-5.477,12.226-12.229v-76.079l-0.029-9.517l0.002-18.378c0-0.392,0.318-0.707,0.706-0.707
			c0.392,0,0.707,0.315,0.707,0.707v18.378v66.324c0,0,0.075,2.17-1.079,4.312h20.501l-0.006-4.243V173.718z"/>
		<path fill="#3B121E" d="M77.462,176.366c0,0-14.026,33.064-0.501,55.107l26.052-16.032c0,0-17.034-20.039-9.52-39.577
			L77.462,176.366z"/>
		<path fill="#461121" d="M108.326,120.672h-60.12l-0.051,0.336c0,0-4.759,71.639,30.06,71.639c0,0,29.807,1.252,30.809-34.066
			c0,0,0.626-26.927,18.821-32.067C122.241,122.825,115.537,120.672,108.326,120.672z"/>
		<path fill="#FFD9A1" d="M75.311,16.19c-20.079,0-36.353,16.277-36.353,36.353v24.234c0,15.418,9.604,28.586,23.156,33.872v14.599
			c0,7.286,5.905,13.194,13.196,13.194c7.286,0,13.193-5.908,13.193-13.194V110.65c13.55-5.282,23.155-18.451,23.155-33.872V52.543
			C111.659,32.467,95.387,16.19,75.311,16.19z"/>
		<path fill="#FDCF9D" d="M74.956,138.426c0.116,0.003,0.233,0.017,0.353,0.017c7.286,0,13.193-5.908,13.193-13.194V110.65
			c13.55-5.282,23.156-18.451,23.156-33.872V52.543c0-12.916-6.739-24.251-16.887-30.698H74.956V138.426z"/>
		<path fill="#3B2314" d="M63.527,66.68c0,1.783-1.448,3.229-3.23,3.229c-1.787,0-3.233-1.446-3.233-3.229
			c0-1.787,1.446-3.231,3.233-3.231C62.079,63.449,63.527,64.894,63.527,66.68z"/>
		<path fill="#3B2314" d="M93.552,66.68c0,1.783-1.448,3.229-3.23,3.229c-1.786,0-3.231-1.446-3.231-3.229
			c0-1.787,1.445-3.231,3.231-3.231C92.104,63.449,93.552,64.894,93.552,66.68z"/>
		<polygon fill="#E5BD90" points="74.957,70.113 74.957,87.684 79.293,84.945 		"/>
		<polygon fill="#EC1C24" points="81.454,96.444 74.957,98.915 68.459,96.444 		"/>
		<path fill="#3B2314" d="M66.181,58.45c0,0.474-0.386,0.858-0.859,0.858H54.82c-0.473,0-0.857-0.385-0.857-0.858l0,0
			c0-0.473,0.385-0.858,0.857-0.858h10.501C65.795,57.592,66.181,57.978,66.181,58.45L66.181,58.45z"/>
		<path fill="#3B2314" d="M96.271,58.45c0,0.474-0.385,0.858-0.856,0.858H84.912c-0.474,0-0.859-0.385-0.859-0.858l0,0
			c0-0.473,0.386-0.858,0.859-0.858h10.503C95.887,57.592,96.271,57.978,96.271,58.45L96.271,58.45z"/>
		<path fill="#3B2314" d="M99.293,36.646c0,0-7.271,14.743-33.122,14.743c0,0,18.381-5.251,23.429-13.935
			c0,0-19.39,11.713-35.546,13.732c0,0-14.442-2.14-13.683,32.758c0,0,1.162-18.016-3.686-17.611l0.809-29.083l23.829-23.023
			l23.023-0.404l24.236,16.156l6.059,34.939c0,0-3.229,3.636-3.229,14.339c0,0-2.829-19.792-2.829-28.879
			C108.583,50.379,108.178,38.866,99.293,36.646z"/>
		<path fill="#FDCF9D" d="M124.458,231.56v25.094c0,0,0.075,2.17-1.079,4.312h20.501l-0.006-4.243V231.56H124.458z"/>
		<path fill="#FFD9A1" d="M26.143,256.653V231.56H6.745v26.021l-0.021,3.384h20.501C26.067,258.823,26.143,256.653,26.143,256.653z"
			/>
		<polygon fill="#FFD9A1" points="89.492,126.206 74.957,163.67 61.426,126.206 		"/>
		<polygon fill="#FDCF9D" points="87.486,140.806 74.957,163.851 74.957,120.642 88.482,120.642 		"/>
		<g>
			<g>
				<path fill="#FFCE1C" d="M75.312,2.458c-23.056,0-41.74,18.688-41.74,41.737v8.886h83.474v-8.886
					C117.046,21.146,98.361,2.458,75.312,2.458z"/>
				<rect x="31.248" y="50.894" fill="#FFC121" width="88.123" height="4.31"/>
			</g>
			<path fill="#FFC121" d="M77.868,27.602c0,1.412-1.145,2.558-2.558,2.558l0,0c-1.414,0-2.561-1.146-2.561-2.558V2.558
				C72.75,1.147,73.896,0,75.311,0l0,0c1.413,0,2.558,1.147,2.558,2.558V27.602z"/>
			<path fill="#FFC121" d="M61.713,30.833c0,1.412-1.146,2.558-2.56,2.558l0,0c-1.415,0-2.56-1.146-2.56-2.558V5.79
				c0-1.412,1.145-2.558,2.56-2.558l0,0c1.413,0,2.56,1.146,2.56,2.558V30.833z"/>
			<path fill="#FFC121" d="M94.024,30.833c0,1.412-1.144,2.558-2.56,2.558l0,0c-1.413,0-2.557-1.146-2.557-2.558V5.79
				c0-1.412,1.144-2.558,2.557-2.558l0,0c1.416,0,2.56,1.146,2.56,2.558V30.833z"/>
		</g>
		<polygon fill="#E6E7E8" points="108.899,145.127 94.893,138.176 75.652,163.67 92.43,131.163 		"/>
		<polygon fill="#F1F1F2" points="88.516,114.412 108.961,145.189 94.433,135.671 75.824,163.726 88.516,126.768 		"/>
		<polygon fill="#E6E7E8" points="41.711,145.127 55.719,138.176 74.957,163.67 58.181,131.163 		"/>
		<polygon fill="#F1F1F2" points="62.095,114.412 41.649,145.189 56.177,135.671 74.786,163.726 62.095,126.768 		"/>
		<polygon fill="#EAEBEC" points="143.872,231.562 124.428,231.562 122.049,216.532 150.604,216.532 		"/>
		<polygon fill="#F1F1F2" points="6.731,231.562 26.238,231.562 28.555,216.532 0,216.532 		"/>
	</g>
</g>
<g id="public_relation">
</g>
<g id="teknopreneur">
</g>
<g id="trader2">
</g>
</svg>
