<?xml version="1.0" encoding="utf-8"?>
<!-- Generator: Adobe Illustrator 16.0.4, SVG Export Plug-In . SVG Version: 6.00 Build 0)  -->
<!DOCTYPE svg PUBLIC "-//W3C//DTD SVG 1.0//EN" "http://www.w3.org/TR/2001/REC-SVG-20010904/DTD/svg10.dtd">
<svg version="1.0" xmlns="http://www.w3.org/2000/svg" xmlns:xlink="http://www.w3.org/1999/xlink" x="0px" y="0px"
	 width="146.624px" height="499.547px" viewBox="0 0 146.624 499.547" enable-background="new 0 0 146.624 499.547"
	 xml:space="preserve">
<g id="advokat">
</g>
<g id="arsitek">
</g>
<g id="creativeprenuer">
</g>
<g id="diplomat">
</g>
<g id="engineer_manager">
	<g>
		<g>
			<path fill="#FFFFFF" d="M24.102,256.926v-66.396v-18.398c0-0.392,0.316-0.707,0.706-0.707c0.393,0,0.71,0.315,0.71,0.707v18.398
				l-0.014,9.528l-0.002,56.101c0,6.761,5.479,12.242,12.24,12.242h71.154c6.761,0,12.241-5.481,12.241-12.242v-56.101l-0.027-9.528
				v-18.398c0-0.392,0.318-0.707,0.707-0.707c0.392,0,0.708,0.315,0.708,0.707v18.398v66.396c0,0,0.076,2.174-1.081,4.316h20.523
				l-0.006-4.247V173.9l-0.002-2.425V156.38c0-19.652-15.931-35.583-35.585-35.583H40.27c-19.651,0-35.583,15.931-35.583,35.583
				v16.711L4.683,173.9v83.955l-0.021,3.388h20.523C24.027,259.1,24.102,256.926,24.102,256.926z"/>
			<line fill="none" stroke="#231F20" stroke-miterlimit="10" x1="17.401" y1="300.645" x2="17.401" y2="300.645"/>
			<path fill="#FDCF9D" d="M120.908,262.101c0,0-0.73,1.431-0.921,1.877c-0.609,1.427-0.903,3.016-0.903,4.665v2.26l-0.016,7.926
				v10.602c0,1.555,1.258,2.814,2.812,2.814c1.555,0,2.815-1.26,2.815-2.814v-10.602v-2.609c0-0.566,0.454-1.021,1.017-1.021
				c0.566,0,1.021,0.454,1.021,1.021v23.146c1.479,0.619,3.105,0.963,4.808,0.963c6.882,0,12.458-5.576,12.458-12.456v-19.229
				c0-1.604-0.304-3.137-0.856-4.545c-0.313-0.803-0.708-1.561-1.174-2.272v-0.583h-20.523
				C121.286,261.529,121.114,261.816,120.908,262.101z"/>
			<polygon fill="#148DCD" points="76.059,146.866 72.974,146.866 69.889,146.866 62.99,248.393 72.974,255.608 82.959,248.393 			
				"/>
			<path fill="#FFD9A1" d="M3.486,264.098c-0.553,1.408-0.856,2.941-0.856,4.545v19.229c0,6.88,5.575,12.456,12.455,12.456
				c1.707,0,3.331-0.344,4.808-0.963v-23.146c0-0.566,0.457-1.021,1.021-1.021s1.021,0.454,1.021,1.021l-0.004,2.609v10.602
				c0,1.555,1.263,2.814,2.815,2.814c1.556,0,2.815-1.26,2.815-2.814v-10.602l-0.02-7.926v-2.26c0-1.649-0.29-3.238-0.903-4.665
				c-0.189-0.446-0.919-1.877-0.919-1.877c-0.205-0.284-0.38-0.571-0.534-0.858H4.661l-0.004,0.583
				C4.193,262.537,3.799,263.295,3.486,264.098z"/>
			<path fill="#F1F1F2" d="M141.962,173.9l-0.002-2.425V156.38c0-19.652-15.931-35.583-35.585-35.583H72.974V268.4h35.923
				c6.761,0,12.241-5.481,12.241-12.242v-56.101l-0.03-9.528l0.003-18.398c0-0.392,0.318-0.707,0.707-0.707
				c0.392,0,0.708,0.315,0.708,0.707v18.398v66.396c0,0,0.076,2.174-1.081,4.316h20.523l-0.006-4.247V173.9z"/>
			<path fill="#4D4E4E" d="M79.489,203.011l-22.168-82.214h-17.05c-5.271,0-10.268,1.154-14.768,3.211v48.048
				c0.002,0.025,0.016,0.049,0.016,0.075v18.398l-0.016,9.23v56.408c0.006,6.756,5.481,12.232,12.24,12.232h41.745V203.011z"/>
			<g>
				<path fill="#5E5E5E" d="M29.244,264.477h88.152v215.125c0,10.943-8.87,19.814-19.814,19.814l0,0
					c-10.942,0-19.813-8.871-19.813-19.814V309.768l0.021-1.186v-3.328c0-2.469-2-4.469-4.469-4.469l0,0c-2.468,0-4.47,2-4.47,4.469
					v3.328l0.021,2.264v168.756c0,10.943-8.872,19.814-19.814,19.814l0,0c-10.942,0-19.814-8.871-19.814-19.814V264.477"/>
			</g>
			<polygon fill="#148DCD" points="76.084,147.207 69.864,147.207 66.25,138.577 79.697,138.577 			"/>
			<polygon fill="#0073A8" points="72.974,146.866 72.968,146.866 72.968,255.604 72.974,255.608 82.959,248.393 76.059,146.866 			
				"/>
			<polygon fill="#0073A8" points="72.968,147.207 76.084,147.207 79.697,138.577 72.968,138.577 			"/>
			<path fill="#4D4E4E" d="M67.122,203.011l22.168-82.214h17.052c5.271,0,10.268,1.154,14.766,3.211v48.048
				c-0.002,0.025-0.014,0.049-0.014,0.075v18.398l0.014,9.23v56.408c-0.004,6.756-5.481,12.232-12.238,12.232H67.122V203.011z"/>
			<circle fill="#5E5E5E" cx="72.469" cy="198.749" r="2.759"/>
			<circle fill="#5E5E5E" cx="72.469" cy="232.852" r="2.759"/>
			<circle fill="#5E5E5E" cx="72.469" cy="262.943" r="2.759"/>
			<path fill="#4D4E4E" d="M72.994,290.385c-12.484,0.023-22.602,10.15-22.602,22.643v177.922c0,2.906,0.568,5.678,1.565,8.231
				c9.565-1.407,16.915-9.624,16.915-19.579V310.846l-0.021-2.264v-3.328c0-2.469,2.002-4.469,4.47-4.469
				c2.469,0,4.469,2,4.469,4.469v3.328l-0.021,1.186v169.834c0,10.943,8.871,19.814,19.813,19.814
				c10.944,0,19.814-8.871,19.814-19.814V264.477H72.994V290.385z"/>
			<path fill="#231F20" d="M71.012,499.547c-0.045-11.434-9.317-20.688-20.758-20.688H20.758c-11.438,0-20.717,9.254-20.758,20.688
				H71.012z"/>
			<path fill="#231F20" d="M146.624,499.547c-0.039-11.434-9.312-20.688-20.759-20.688H96.376c-11.438,0-20.722,9.254-20.759,20.688
				H146.624z"/>
			<path fill="#4D4E4E" d="M141.962,256.995V173.9l-0.002-2.425V156.38c0-19.652-15.931-35.583-35.585-35.583H93.721l-23.874,88.651
				v65.782h51.291v-75.173l-0.027-9.528v-18.398c0-0.392,0.318-0.707,0.707-0.707c0.392,0,0.708,0.315,0.708,0.707v18.398v66.396
				c0,0,0.076,2.174-1.081,4.316h20.523L141.962,256.995z"/>
			<polygon fill="#5E5E5E" points="97.146,150.102 103.415,156.872 69.855,209.378 89.699,120.797 106.926,147.343 			"/>
			<path fill="#5E5E5E" d="M24.102,256.926v-66.396v-18.398c0-0.392,0.316-0.707,0.706-0.707c0.393,0,0.71,0.315,0.71,0.707v18.398
				l-0.014,9.528l-0.002,75.173h50.6v-65.782l-19.862-88.651H40.27c-19.651,0-35.583,15.931-35.583,35.583v16.711L4.683,173.9
				v83.955l-0.021,3.388h20.523C24.027,259.1,24.102,256.926,24.102,256.926z"/>
			<polygon fill="#4D4E4E" points="48.791,150.102 42.522,156.872 76.082,209.378 56.239,120.797 39.011,147.343 			"/>
			<circle fill="#4D4E4E" cx="71.466" cy="212.791" r="2.759"/>
			<circle fill="#4D4E4E" cx="71.466" cy="241.378" r="2.759"/>
			<circle fill="#4D4E4E" cx="71.466" cy="269.965" r="2.759"/>
			<g>
				<path fill="#FFD9A1" d="M45.803,80.361c0,4.119-3.34,7.459-7.458,7.459l0,0c-4.12,0-7.462-3.34-7.462-7.459v-6.176
					c0-4.12,3.342-7.459,7.462-7.459l0,0c4.118,0,7.458,3.339,7.458,7.459V80.361z"/>
				<path fill="#FDCF9D" d="M43.107,79.244c0,2.632-2.133,4.765-4.763,4.765l0,0c-2.633,0-4.769-2.133-4.769-4.765v-3.945
					c0-2.631,2.136-4.764,4.769-4.764l0,0c2.63,0,4.763,2.133,4.763,4.764V79.244z"/>
				<path fill="#E5BD90" d="M115.759,80.361c0,4.119-3.34,7.459-7.46,7.459l0,0c-4.12,0-7.462-3.34-7.462-7.459v-6.176
					c0-4.12,3.342-7.459,7.462-7.459l0,0c4.12,0,7.46,3.339,7.46,7.459V80.361z"/>
				<path fill="#DBB58A" d="M113.062,79.245c0,2.631-2.131,4.764-4.764,4.764l0,0c-2.631,0-4.767-2.133-4.767-4.764v-3.946
					c0-2.631,2.136-4.764,4.767-4.764l0,0c2.633,0,4.764,2.133,4.764,4.764V79.245z"/>
				<path fill="#FFD9A1" d="M73.322,16.181c-20.104,0-36.395,16.294-36.395,36.392v24.263c0,15.437,9.617,28.62,23.183,33.91v14.614
					c0,7.294,5.914,13.21,13.212,13.21c7.293,0,13.208-5.917,13.208-13.21v-14.614c13.563-5.288,23.181-18.471,23.181-33.91V52.572
					C109.711,32.475,93.42,16.181,73.322,16.181z"/>
				<path fill="#FDCF9D" d="M109.64,50.388c-0.012-0.219-0.031-0.437-0.049-0.656c-0.039-0.517-0.09-1.033-0.15-1.544
					c-0.027-0.229-0.058-0.458-0.089-0.686c-0.078-0.56-0.17-1.118-0.274-1.672c-0.027-0.146-0.047-0.291-0.078-0.435
					c-0.14-0.702-0.302-1.395-0.479-2.083c-0.033-0.127-0.074-0.253-0.107-0.38c-0.156-0.562-0.32-1.117-0.5-1.667
					c-0.062-0.183-0.124-0.363-0.185-0.544c-0.182-0.525-0.374-1.046-0.58-1.564c-0.057-0.141-0.109-0.282-0.168-0.423
					c-0.546-1.327-1.168-2.614-1.861-3.857c-0.051-0.093-0.105-0.184-0.157-0.274c-0.309-0.541-0.631-1.076-0.965-1.598
					c-0.06-0.091-0.118-0.184-0.175-0.275c-1.197-1.83-2.551-3.549-4.045-5.132c-0.033-0.034-0.064-0.069-0.098-0.103
					c-2.046-2.146-4.346-4.045-6.861-5.644c-0.012-0.008-0.025-0.016-0.038-0.023l-0.912-0.563
					c-5.43-3.226-11.77-5.083-18.544-5.083c-0.12,0-0.238,0.008-0.355,0.009v122.362c0.117,0.003,0.235,0.018,0.355,0.018
					c7.293,0,13.208-5.917,13.208-13.21v-14.614c13.564-5.288,23.181-18.471,23.181-33.91V52.572
					C109.712,51.838,109.685,51.112,109.64,50.388z"/>
				<g>
					<path fill="#3B2314" d="M108.277,85.847c-0.149,0.627-0.284,1.19-0.398,1.626C108.024,86.933,108.167,86.394,108.277,85.847z"
						/>
					<path fill="#3B2314" d="M100.649,24.066c0,0,4.025-7.54-4.33-12.256c0,0-51.61-19.553-61.922,24.32
						c0,0-0.672,16.039,1.147,27.159c0,0,1.011,15.164,3.033,23.454c0,0-3.033-16.781,4.043-25.273c0,0,7.076-7.076,3.033-14.557
						c0,0,0.076-0.311,0.246-0.831c20.917-0.45,39.988-8.266,39.988-8.266c-2.83,4.649-24.263,8.491-24.263,8.491
						C94.583,45.093,97.615,33.77,97.615,33.77s6.671,7.279,6.875,14.355c0,0-4.449,6.468,0.202,12.333
						c0,0,6.033,13.312,3.585,25.389c1.059-4.525,3.086-22.558,3.086-22.558S119.046,30.198,100.649,24.066z"/>
					<path fill="#3B2314" d="M107.879,87.473c-0.117,0.431-0.215,0.866-0.355,1.291C107.523,88.764,107.662,88.303,107.879,87.473z"
						/>
				</g>
			</g>
			<polygon fill="#3B2314" points="79.472,96.543 72.968,99.016 66.464,96.543 			"/>
			<path fill="#3B2314" d="M61.525,66.726c0,1.786-1.448,3.233-3.233,3.233c-1.789,0-3.235-1.447-3.235-3.233
				c0-1.787,1.446-3.235,3.235-3.235C60.077,63.49,61.525,64.939,61.525,66.726z"/>
			<path fill="#3B2314" d="M91.585,66.726c0,1.786-1.45,3.233-3.233,3.233c-1.789,0-3.237-1.447-3.237-3.233
				c0-1.787,1.448-3.235,3.237-3.235C90.135,63.49,91.585,64.939,91.585,66.726z"/>
			<polygon fill="#E5BD90" points="72.969,70.191 72.969,87.78 77.309,85.039 			"/>
			<path fill="#F1F1F2" d="M60.09,115.426c0,0-12.539,9.737-7.272,32.556c0,0,5.767-13.29,17.302-9.779
				c0,0-9.09-2.069-10.029-12.287V115.426z"/>
			<path fill="#E6E7E8" d="M86.508,115.426c0,0,12.537,9.737,7.271,32.556c0,0-5.768-13.29-17.303-9.779
				c0,0,9.09-2.069,10.031-12.287V115.426z"/>
		</g>
		<g>
			<g>
				<path fill="#FFCE1C" d="M72.972,2.46c-23.079,0-41.785,18.709-41.785,41.783v8.896h83.565v-8.896
					C114.752,21.17,96.047,2.46,72.972,2.46z"/>
				<rect x="28.86" y="50.949" fill="#FFC121" width="88.219" height="4.313"/>
			</g>
			<path fill="#FFC121" d="M75.531,27.631c0,1.414-1.146,2.561-2.562,2.561l0,0c-1.414,0-2.562-1.147-2.562-2.561V2.56
				c0-1.412,1.148-2.56,2.562-2.56l0,0c1.415,0,2.562,1.148,2.562,2.56V27.631z"/>
			<path fill="#FFC121" d="M59.358,30.867c0,1.414-1.147,2.561-2.562,2.561l0,0c-1.416,0-2.562-1.147-2.562-2.561V5.796
				c0-1.414,1.146-2.561,2.562-2.561l0,0c1.415,0,2.562,1.147,2.562,2.561V30.867z"/>
			<path fill="#FFC121" d="M91.705,30.867c0,1.414-1.146,2.561-2.562,2.561l0,0c-1.414,0-2.56-1.147-2.56-2.561V5.796
				c0-1.414,1.146-2.561,2.56-2.561l0,0c1.417,0,2.562,1.147,2.562,2.561V30.867z"/>
		</g>
	</g>
</g>
<g id="entreprenuer">
</g>
<g id="it-consultant">
</g>
<g id="manajemen_operasional">
</g>
<g id="public_relation">
</g>
<g id="teknopreneur">
</g>
<g id="trader2">
</g>
</svg>
