<?xml version="1.0" encoding="utf-8"?>
<!-- Generator: Adobe Illustrator 16.0.4, SVG Export Plug-In . SVG Version: 6.00 Build 0)  -->
<!DOCTYPE svg PUBLIC "-//W3C//DTD SVG 1.0//EN" "http://www.w3.org/TR/2001/REC-SVG-20010904/DTD/svg10.dtd">
<svg version="1.0" xmlns="http://www.w3.org/2000/svg" xmlns:xlink="http://www.w3.org/1999/xlink" x="0px" y="0px"
	 width="146.623px" height="500px" viewBox="0 0 146.623 500" enable-background="new 0 0 146.623 500" xml:space="preserve">
<g id="advokat">
</g>
<g id="arsitek">
</g>
<g id="creativeprenuer">
</g>
<g id="diplomat">
</g>
<g id="engineer_manager">
</g>
<g id="entreprenuer">
</g>
<g id="it-consultant">
</g>
<g id="manajemen_operasional">
</g>
<g id="public_relation">
</g>
<g id="teknopreneur">
	<g>
		<line fill="none" stroke="#231F20" stroke-miterlimit="10" x1="17.399" y1="301.096" x2="17.399" y2="301.096"/>
		<g>
			<g>
				<path fill="#00557F" d="M29.243,264.93h88.152v215.125c0,10.943-8.87,19.814-19.814,19.814l0,0
					c-10.942,0-19.812-8.871-19.812-19.814V310.221l0.021-1.186v-3.329c0-2.468-2-4.468-4.47-4.468l0,0
					c-2.469,0-4.471,2-4.471,4.468v3.329l0.021,2.264v168.756c0,10.943-8.871,19.814-19.813,19.814l0,0
					c-10.942,0-19.814-8.871-19.814-19.814V264.93"/>
			</g>
		</g>
		<path fill="#F1F1F2" d="M141.959,171.927v-15.095c0-19.652-15.93-35.583-35.584-35.583H40.269
			c-19.652,0-35.584,15.931-35.584,35.583v16.711l-0.004,0.809v17.589h19.42v-0.96v-18.398c0-0.392,0.317-0.707,0.706-0.707
			c0.393,0,0.71,0.315,0.71,0.707v18.398l-0.014,9.528l-0.002,56.102c0,6.76,5.479,12.24,12.24,12.24h71.155
			c6.76,0,12.24-5.48,12.24-12.24V200.51l-0.027-9.528v-18.398c0-0.392,0.318-0.707,0.707-0.707c0.393,0,0.707,0.315,0.707,0.707
			v18.398v1.163h19.438v-17.792L141.959,171.927z"/>
		<path fill="#004869" d="M72.993,290.837c-12.484,0.023-22.603,10.151-22.603,22.643v177.923c0,2.906,0.569,5.677,1.566,8.231
			c9.566-1.409,16.914-9.625,16.914-19.579V311.299l-0.021-2.264v-3.329c0-2.468,2.002-4.468,4.471-4.468c2.47,0,4.47,2,4.47,4.468
			v3.329l-0.021,1.186v169.834c0,10.943,8.87,19.814,19.812,19.814c10.944,0,19.814-8.871,19.814-19.814V264.93H72.993V290.837z"/>
		<path fill="#EAEBEC" d="M121.137,200.51l-0.029-9.528l0.002-18.398c0-0.392,0.318-0.707,0.707-0.707
			c0.393,0,0.707,0.315,0.707,0.707v18.398v1.163h19.438v-17.792l-0.002-2.425v-15.095c0-19.652-15.93-35.583-35.584-35.583H72.974
			v147.602h35.923c6.76,0,12.24-5.48,12.24-12.24V200.51z"/>
		<path fill="#231F20" d="M71.011,500c-0.045-11.434-9.317-20.688-20.759-20.688H20.757C9.318,479.312,0.041,488.566,0,500H71.011z"
			/>
		<path fill="#231F20" d="M146.623,500c-0.039-11.434-9.312-20.688-20.759-20.688H96.375c-11.439,0-20.722,9.254-20.759,20.688
			H146.623z"/>
		<path fill="#FDCF9D" d="M143.141,264.551c-0.313-0.804-0.707-1.562-1.174-2.273v-0.584h-0.001l-0.006-4.245v-65.303h-19.438
			v65.233c0,0,0.077,2.175-1.079,4.315l0,0c-0.158,0.289-0.33,0.576-0.536,0.86c0,0-0.731,1.431-0.921,1.877
			c-0.609,1.427-0.903,3.015-0.903,4.665v2.259l-0.016,7.926v10.603c0,1.554,1.259,2.813,2.812,2.813
			c1.556,0,2.815-1.26,2.815-2.813V279.28v-2.609c0-0.565,0.454-1.021,1.017-1.021c0.566,0,1.021,0.455,1.021,1.021v23.146
			c1.479,0.619,3.105,0.964,4.808,0.964c6.882,0,12.457-5.576,12.457-12.456v-19.229
			C143.996,267.49,143.693,265.959,143.141,264.551z"/>
		<path fill="#FFD9A1" d="M27.541,271.354v-2.259c0-1.65-0.291-3.238-0.904-4.665c-0.189-0.446-0.918-1.877-0.918-1.877
			c-0.206-0.284-0.381-0.571-0.535-0.86c-1.158-2.141-1.083-4.315-1.083-4.315v-65.233H4.681v66.162l-0.021,3.387l-0.004,0.584
			c-0.464,0.711-0.857,1.47-1.171,2.273c-0.553,1.408-0.856,2.939-0.856,4.545v19.229c0,6.88,5.575,12.456,12.455,12.456
			c1.707,0,3.331-0.345,4.808-0.964v-23.146c0-0.565,0.457-1.021,1.021-1.021c0.562,0,1.02,0.455,1.02,1.021l-0.004,2.609v10.603
			c0,1.554,1.264,2.813,2.816,2.813c1.556,0,2.816-1.26,2.816-2.813V279.28L27.541,271.354z"/>
		<path fill="#E5BD90" d="M56.256,121.249v4.246c0,9.231,7.483,16.715,16.714,16.715c9.231,0,16.713-7.484,16.713-16.715v-4.246
			H56.256z"/>
		<g>
			<path fill="#FFD9A1" d="M45.803,80.813c0,4.119-3.341,7.459-7.458,7.459l0,0c-4.12,0-7.462-3.34-7.462-7.459v-6.175
				c0-4.12,3.342-7.459,7.462-7.459l0,0c4.117,0,7.458,3.339,7.458,7.459V80.813z"/>
			<path fill="#FDCF9D" d="M43.107,79.696c0,2.632-2.132,4.766-4.763,4.766l0,0c-2.634,0-4.769-2.133-4.769-4.766v-3.944
				c0-2.631,2.135-4.764,4.769-4.764l0,0c2.631,0,4.763,2.133,4.763,4.764V79.696z"/>
			<path fill="#E5BD90" d="M115.758,80.813c0,4.119-3.339,7.459-7.459,7.459l0,0c-4.12,0-7.462-3.34-7.462-7.459v-6.175
				c0-4.12,3.342-7.459,7.462-7.459l0,0c4.12,0,7.459,3.339,7.459,7.459V80.813z"/>
			<path fill="#DBB58A" d="M113.063,79.697c0,2.631-2.132,4.765-4.765,4.765l0,0c-2.631,0-4.766-2.133-4.766-4.765v-3.945
				c0-2.631,2.135-4.764,4.766-4.764l0,0c2.633,0,4.765,2.133,4.765,4.764V79.697z"/>
			<path fill="#FFD9A1" d="M73.322,16.633c-20.104,0-36.394,16.295-36.394,36.392v24.263c0,15.437,9.617,28.62,23.181,33.909v14.614
				c0,7.294,5.915,13.21,13.213,13.21c7.293,0,13.207-5.916,13.207-13.21v-14.614c13.564-5.288,23.182-18.471,23.182-33.909V53.025
				C109.711,32.928,93.42,16.633,73.322,16.633z"/>
			<path fill="#FDCF9D" d="M109.64,50.84c-0.012-0.219-0.031-0.437-0.049-0.656c-0.039-0.518-0.09-1.033-0.151-1.544
				c-0.027-0.229-0.057-0.458-0.088-0.686c-0.078-0.56-0.17-1.118-0.274-1.672c-0.027-0.146-0.047-0.291-0.078-0.435
				c-0.14-0.702-0.302-1.395-0.479-2.083c-0.033-0.127-0.074-0.253-0.107-0.379c-0.155-0.562-0.319-1.117-0.5-1.667
				c-0.062-0.183-0.124-0.363-0.185-0.544c-0.182-0.525-0.374-1.047-0.58-1.563c-0.057-0.141-0.11-0.283-0.169-0.423
				c-0.545-1.328-1.167-2.615-1.86-3.858c-0.052-0.092-0.106-0.183-0.157-0.274c-0.309-0.541-0.63-1.075-0.965-1.598
				c-0.06-0.091-0.118-0.183-0.175-0.274c-1.196-1.831-2.551-3.55-4.045-5.132c-0.033-0.035-0.065-0.069-0.099-0.103
				c-2.046-2.146-4.345-4.045-6.861-5.644c-0.012-0.008-0.025-0.016-0.037-0.023l-0.912-0.563c-5.43-3.226-11.77-5.083-18.545-5.083
				c-0.119,0-0.237,0.008-0.354,0.009v122.362c0.117,0.003,0.235,0.018,0.354,0.018c7.293,0,13.209-5.916,13.209-13.21v-14.614
				c13.564-5.288,23.181-18.471,23.181-33.909V53.025C109.712,52.291,109.685,51.564,109.64,50.84z"/>
			<g>
				<path fill="#3B2314" d="M108.277,86.3c-0.149,0.626-0.285,1.19-0.398,1.626C108.024,87.386,108.167,86.846,108.277,86.3z"/>
				<path fill="#3B2314" d="M100.648,24.518c0,0,4.918-9.502-3.438-14.219c0,0-52.501-17.59-62.813,26.284
					c0,0-0.673,16.038,1.147,27.158c0,0,1.011,15.164,3.033,23.454c0,0-3.033-16.782,4.044-25.273c0,0,7.075-7.076,3.031-14.557
					c0,0,0.077-0.311,0.247-0.831c20.917-0.45,39.988-8.267,39.988-8.267c-2.83,4.649-24.262,8.491-24.262,8.491
					c32.956-1.213,35.989-12.535,35.989-12.535s6.67,7.279,6.874,14.355c0,0-4.449,6.469,0.202,12.333c0,0,6.033,13.312,3.585,25.39
					c1.058-4.526,3.086-22.559,3.086-22.559S119.046,30.65,100.648,24.518z"/>
				<path fill="#3B2314" d="M107.879,87.926c-0.117,0.431-0.215,0.866-0.355,1.291C107.523,89.217,107.662,88.755,107.879,87.926z"
					/>
			</g>
			<path fill="#3B2314" d="M34.397,36.583c0,0-0.063-25.55,12.224-36.583c0,0-6.52,7.021,28.837,6.771L34.397,36.583z"/>
		</g>
		<polygon fill="#3B2314" points="79.472,96.996 72.968,99.468 66.465,96.996 		"/>
		<polygon fill="#E5BD90" points="72.968,70.644 72.968,88.233 77.308,85.491 		"/>
		<path fill="#3B2314" d="M61.525,67.178c0,1.787-1.449,3.233-3.233,3.233c-1.789,0-3.235-1.446-3.235-3.233
			s1.446-3.235,3.235-3.235C60.076,63.943,61.525,65.392,61.525,67.178z"/>
		<circle fill="#3B2314" cx="88.35" cy="67.178" r="3.235"/>
		<path fill="#34A4DA" d="M60.131,121.312l-0.295-0.062H40.269c-19.652,0-35.584,15.931-35.584,35.583v16.711l-0.004,0.809v87.802
			h6.426h12.994h1.37c-0.097-0.152-0.204-0.306-0.287-0.461c-0.995-1.842-1.079-3.696-1.083-4.184v-0.132v-0.866v-65.53v-18.398
			c0-0.392,0.317-0.707,0.706-0.707c0.393,0,0.71,0.315,0.71,0.707v18.398l-0.014,9.528l-0.002,64.127
			c0,6.759,5.479,12.24,12.24,12.24h21.862C74.121,211.69,60.131,121.312,60.131,121.312z"/>
		<path fill="#1D99D5" d="M60.131,121.312l-0.295-0.062h-3.168l-11.122,26.141l8.86,5.182l-10.199,7.355
			c0,0,21.064,47.644,20.73,79.072l0.07-0.252C69.412,181.276,60.131,121.312,60.131,121.312z"/>
		<path fill="#1D99D5" d="M86.518,121.312l0.295-0.062h19.567c19.651,0,35.582,15.931,35.582,35.583v16.711l0.004,0.809v87.802
			h-6.426h-12.991h-1.371c0.096-0.152,0.203-0.306,0.287-0.461c0.995-1.842,1.08-3.696,1.084-4.184v-0.132v-0.866v-65.53v-18.398
			c0-0.392-0.318-0.707-0.708-0.707c-0.392,0-0.71,0.315-0.71,0.707v18.398l0.014,9.528l0.002,64.127
			c0,6.759-5.479,12.24-12.24,12.24H87.044C72.527,211.69,86.518,121.312,86.518,121.312z"/>
		<path fill="#148DCD" d="M86.502,121.312l0.295-0.062h3.166l11.123,26.141l-8.859,5.182l10.198,7.355
			c0,0-21.064,47.644-20.729,79.072l-0.072-0.252C77.221,181.276,86.502,121.312,86.502,121.312z"/>
	</g>
</g>
<g id="trader2">
</g>
</svg>
