<?xml version="1.0" encoding="utf-8"?>
<!-- Generator: Adobe Illustrator 16.0.4, SVG Export Plug-In . SVG Version: 6.00 Build 0)  -->
<!DOCTYPE svg PUBLIC "-//W3C//DTD SVG 1.0//EN" "http://www.w3.org/TR/2001/REC-SVG-20010904/DTD/svg10.dtd">
<svg version="1.0" xmlns="http://www.w3.org/2000/svg" xmlns:xlink="http://www.w3.org/1999/xlink" x="0px" y="0px"
	 width="146.625px" height="499.999px" viewBox="0 0 146.625 499.999" enable-background="new 0 0 146.625 499.999"
	 xml:space="preserve">
<g id="advokat">
</g>
<g id="arsitek">
</g>
<g id="creativeprenuer">
</g>
<g id="diplomat">
	<g>
		<path fill="#FFFFFF" d="M24.102,257.378v-66.396v-18.398c0-0.392,0.317-0.707,0.708-0.707c0.392,0,0.708,0.315,0.708,0.707v18.398
			l-0.014,9.528l-0.002,56.102c0,6.76,5.48,12.24,12.24,12.24h71.155c6.762,0,12.24-5.48,12.24-12.24V200.51l-0.027-9.528v-18.398
			c0-0.392,0.32-0.707,0.708-0.707c0.391,0,0.707,0.315,0.707,0.707v18.398v66.396c0,0,0.076,2.174-1.079,4.315h20.522l-0.006-4.246
			v-83.095l-0.002-2.425v-15.095c0-19.652-15.932-35.583-35.584-35.583H40.271c-19.652,0-35.583,15.931-35.583,35.583v16.711
			l-0.004,0.809v83.955l-0.021,3.387h20.523C24.027,259.552,24.102,257.378,24.102,257.378z"/>
		<line fill="none" stroke="#231F20" stroke-miterlimit="10" x1="17.402" y1="301.096" x2="17.402" y2="301.096"/>
		<path fill="#FDCF9D" d="M120.909,262.552c0,0-0.731,1.433-0.921,1.877c-0.609,1.429-0.903,3.017-0.903,4.667v2.259l-0.016,7.926
			v10.601c0,1.556,1.258,2.815,2.812,2.815c1.556,0,2.814-1.26,2.814-2.815v-10.601v-2.609c0-0.565,0.455-1.021,1.018-1.021
			c0.566,0,1.021,0.455,1.021,1.021v23.146c1.479,0.619,3.104,0.962,4.808,0.962c6.883,0,12.457-5.576,12.457-12.456v-19.228
			c0-1.605-0.303-3.139-0.856-4.547c-0.312-0.802-0.706-1.561-1.173-2.271v-0.584h-20.522
			C121.287,261.981,121.114,262.268,120.909,262.552z"/>
		<path fill="#FFD9A1" d="M3.486,264.549c-0.552,1.408-0.855,2.941-0.855,4.547v19.228c0,6.88,5.575,12.456,12.455,12.456
			c1.707,0,3.331-0.343,4.808-0.962v-23.146c0-0.565,0.457-1.021,1.021-1.021c0.562,0,1.021,0.455,1.021,1.021l-0.004,2.609v10.601
			c0,1.556,1.262,2.815,2.815,2.815c1.555,0,2.815-1.26,2.815-2.815v-10.601l-0.021-7.926v-2.259c0-1.65-0.29-3.238-0.902-4.667
			c-0.191-0.444-0.919-1.877-0.919-1.877c-0.207-0.284-0.381-0.571-0.535-0.858H4.662l-0.004,0.584
			C4.194,262.989,3.8,263.748,3.486,264.549z"/>
		<path fill="#F1F1F2" d="M141.963,174.353l-0.002-2.425v-15.095c0-19.652-15.932-35.583-35.584-35.583H72.975v147.603h35.923
			c6.762,0,12.24-5.48,12.24-12.24V200.51l-0.029-9.528l0.002-18.398c0-0.392,0.32-0.707,0.708-0.707
			c0.391,0,0.707,0.315,0.707,0.707v18.398v66.396c0,0,0.076,2.174-1.079,4.315h20.522l-0.006-4.246V174.353z"/>
		<polygon fill="#BE1E2D" points="76.062,147.318 72.977,147.318 69.891,147.318 62.992,248.846 72.977,256.061 82.962,248.846 		
			"/>
		<path fill="#F1F1F2" d="M60.092,115.879c0,0-12.537,9.737-7.272,32.556c0,0,5.768-13.29,17.303-9.779c0,0-9.09-2.069-10.03-12.287
			V115.879z"/>
		<path fill="#E6E7E8" d="M86.51,115.879c0,0,12.538,9.737,7.271,32.556c0,0-5.768-13.29-17.302-9.779c0,0,9.09-2.069,10.03-12.287
			V115.879z"/>
		<path fill="#4D4E4E" d="M79.49,203.464L55.719,121.25H40.272c-5.271,0-10.268,1.154-14.769,3.211v48.048
			c0.002,0.026,0.016,0.049,0.016,0.075v18.398l-0.016,9.23v56.409c0.006,6.754,5.482,12.23,12.24,12.23H79.49V203.464z"/>
		<g>
			<path fill="#5E5E5E" d="M29.245,264.928h88.153v215.125c0,10.943-8.871,19.814-19.814,19.814l0,0
				c-10.942,0-19.813-8.871-19.813-19.814V310.221l0.022-1.188v-3.327c0-2.468-2.002-4.47-4.472-4.47l0,0
				c-2.467,0-4.469,2.002-4.469,4.47v3.327l0.021,2.264v168.756c0,10.943-8.872,19.814-19.813,19.814l0,0
				c-10.944,0-19.815-8.871-19.815-19.814V264.928"/>
		</g>
		<polygon fill="#BE1E2D" points="76.088,147.66 69.866,147.66 66.253,139.03 79.7,139.03 		"/>
		<polygon fill="#B51C2A" points="72.977,147.318 72.971,147.318 72.971,256.057 72.977,256.061 82.962,248.846 76.062,147.318 		
			"/>
		<polygon fill="#B51C2A" points="72.971,147.66 76.088,147.66 79.7,139.03 72.971,139.03 		"/>
		<path fill="#4D4E4E" d="M67.123,203.464l23.79-82.214h15.431c5.27,0,10.267,1.154,14.765,3.211v48.048
			c-0.002,0.026-0.014,0.049-0.014,0.075v18.398l0.014,9.23v56.409c-0.004,6.754-5.48,12.23-12.238,12.23H67.123V203.464z"/>
		<circle fill="#5E5E5E" cx="72.469" cy="199.201" r="2.758"/>
		<circle fill="#5E5E5E" cx="72.469" cy="233.305" r="2.758"/>
		<circle fill="#5E5E5E" cx="72.469" cy="263.395" r="2.758"/>
		<path fill="#4D4E4E" d="M72.996,290.837c-12.485,0.023-22.602,10.149-22.602,22.643v177.923c0,2.904,0.568,5.677,1.565,8.229
			c9.565-1.407,16.914-9.623,16.914-19.579V311.297l-0.021-2.264v-3.327c0-2.468,2.002-4.47,4.469-4.47
			c2.47,0,4.472,2.002,4.472,4.47v3.327l-0.022,1.188v169.832c0,10.943,8.871,19.814,19.813,19.814
			c10.943,0,19.814-8.871,19.814-19.814V264.928H72.996V290.837z"/>
		<path fill="#231F20" d="M71.014,499.999c-0.045-11.434-9.318-20.688-20.759-20.688H20.759c-11.439,0-20.718,9.254-20.759,20.688
			H71.014z"/>
		<path fill="#231F20" d="M146.625,499.999c-0.039-11.434-9.312-20.688-20.758-20.688h-29.49c-11.438,0-20.721,9.254-20.758,20.688
			H146.625z"/>
		<path fill="#4D4E4E" d="M141.963,257.448v-83.095l-0.002-2.425v-15.095c0-19.652-15.932-35.583-35.584-35.583H93.723L69.848,209.9
			v65.782h51.29V200.51l-0.027-9.528v-18.398c0-0.392,0.32-0.707,0.708-0.707c0.391,0,0.707,0.315,0.707,0.707v18.398v66.396
			c0,0,0.076,2.174-1.079,4.315h20.522L141.963,257.448z"/>
		<polygon fill="#5E5E5E" points="97.147,150.554 103.416,157.324 69.855,209.832 90.894,121.25 106.927,147.795 		"/>
		<path fill="#5E5E5E" d="M24.102,257.378v-66.396v-18.398c0-0.392,0.317-0.707,0.708-0.707c0.392,0,0.708,0.315,0.708,0.707v18.398
			l-0.014,9.528l-0.002,75.172h50.602V209.9l-21.481-88.65H40.271c-19.652,0-35.583,15.931-35.583,35.583v16.711l-0.004,0.809
			v83.955l-0.021,3.387h20.523C24.027,259.552,24.102,257.378,24.102,257.378z"/>
		<polygon fill="#4D4E4E" points="48.792,150.554 42.522,157.324 76.084,209.832 54.638,121.25 39.013,147.795 		"/>
		<circle fill="#4D4E4E" cx="71.466" cy="213.244" r="2.758"/>
		<circle fill="#4D4E4E" cx="71.466" cy="241.831" r="2.758"/>
		<circle fill="#4D4E4E" cx="71.466" cy="270.417" r="2.758"/>
		<g>
			<path fill="#FFD9A1" d="M45.806,80.813c0,4.119-3.341,7.459-7.458,7.459l0,0c-4.12,0-7.463-3.34-7.463-7.459v-6.176
				c0-4.12,3.343-7.459,7.463-7.459l0,0c4.117,0,7.458,3.339,7.458,7.459V80.813z"/>
			<path fill="#FDCF9D" d="M43.109,79.697c0,2.632-2.131,4.765-4.762,4.765l0,0c-2.634,0-4.769-2.133-4.769-4.765v-3.945
				c0-2.631,2.135-4.764,4.769-4.764l0,0c2.631,0,4.762,2.133,4.762,4.764V79.697z"/>
			<path fill="#E5BD90" d="M115.762,80.813c0,4.119-3.341,7.459-7.46,7.459l0,0c-4.12,0-7.462-3.34-7.462-7.459v-6.176
				c0-4.12,3.342-7.459,7.462-7.459l0,0c4.119,0,7.46,3.339,7.46,7.459V80.813z"/>
			<path fill="#DBB58A" d="M113.066,79.698c0,2.631-2.132,4.764-4.765,4.764l0,0c-2.631,0-4.767-2.133-4.767-4.764v-3.946
				c0-2.631,2.136-4.764,4.767-4.764l0,0c2.633,0,4.765,2.133,4.765,4.764V79.698z"/>
			<path fill="#FFD9A1" d="M73.324,16.633c-20.102,0-36.394,16.295-36.394,36.392v24.263c0,15.437,9.618,28.62,23.182,33.91v14.614
				c0,7.294,5.914,13.21,13.212,13.21c7.294,0,13.208-5.917,13.208-13.21v-14.614c13.564-5.288,23.182-18.471,23.182-33.91V53.025
				C109.714,32.928,93.422,16.633,73.324,16.633z"/>
			<path fill="#FDCF9D" d="M109.643,50.84c-0.012-0.219-0.031-0.437-0.049-0.656c-0.039-0.517-0.091-1.033-0.151-1.544
				c-0.027-0.229-0.057-0.458-0.088-0.686c-0.078-0.56-0.17-1.118-0.274-1.672c-0.027-0.146-0.047-0.291-0.079-0.435
				c-0.139-0.702-0.301-1.395-0.479-2.083c-0.033-0.127-0.074-0.253-0.107-0.38c-0.154-0.562-0.318-1.117-0.5-1.667
				c-0.061-0.183-0.123-0.363-0.184-0.544c-0.183-0.526-0.374-1.047-0.58-1.564c-0.057-0.14-0.11-0.282-0.169-0.423
				c-0.546-1.327-1.167-2.614-1.86-3.857c-0.052-0.092-0.106-0.184-0.157-0.275c-0.31-0.541-0.63-1.075-0.966-1.597
				c-0.059-0.092-0.117-0.184-0.174-0.275c-1.197-1.831-2.551-3.549-4.045-5.132c-0.034-0.035-0.065-0.069-0.099-0.102
				c-2.046-2.147-4.346-4.046-6.861-5.645c-0.012-0.008-0.025-0.016-0.037-0.023l-0.913-0.563c-5.43-3.226-11.77-5.083-18.544-5.083
				c-0.119,0-0.236,0.008-0.354,0.009v122.362c0.118,0.003,0.235,0.018,0.354,0.018c7.293,0,13.208-5.917,13.208-13.21v-14.614
				c13.564-5.288,23.182-18.471,23.182-33.91V53.025C109.715,52.291,109.688,51.564,109.643,50.84z"/>
			<g>
				<path fill="#3B2314" d="M108.28,86.299c-0.149,0.627-0.285,1.19-0.398,1.626C108.026,87.386,108.171,86.846,108.28,86.299z"/>
				<path fill="#3B2314" d="M100.651,24.518c0,0,4.917-9.502-3.438-14.219c0,0-52.5-17.59-62.812,26.284
					c0,0-0.673,16.039,1.147,27.158c0,0,1.011,15.164,3.032,23.454c0,0-3.032-16.781,4.043-25.273c0,0,7.077-7.076,3.034-14.557
					c0,0,0.076-0.311,0.246-0.831c20.917-0.45,39.988-8.267,39.988-8.267c-2.831,4.649-24.263,8.491-24.263,8.491
					c32.957-1.213,35.99-12.536,35.99-12.536s6.67,7.279,6.874,14.355c0,0-4.449,6.468,0.202,12.333c0,0,6.033,13.312,3.585,25.389
					c1.058-4.525,3.085-22.558,3.085-22.558S119.049,30.65,100.651,24.518z"/>
				<path fill="#3B2314" d="M107.882,87.925c-0.117,0.431-0.215,0.866-0.356,1.291C107.525,89.216,107.665,88.755,107.882,87.925z"
					/>
			</g>
			<path fill="#3B2314" d="M34.4,36.583c0,0-0.064-25.55,12.224-36.583c0,0-6.521,7.021,28.837,6.771L34.4,36.583z"/>
		</g>
		<polygon fill="#3B2314" points="79.475,96.996 72.971,99.468 66.467,96.996 		"/>
		<path fill="#3B2314" d="M61.528,67.178c0,1.786-1.449,3.233-3.233,3.233c-1.789,0-3.235-1.447-3.235-3.233
			c0-1.787,1.446-3.235,3.235-3.235C60.079,63.943,61.528,65.392,61.528,67.178z"/>
		<circle fill="#3B2314" cx="88.353" cy="67.178" r="3.235"/>
		<polygon fill="#E5BD90" points="72.971,70.644 72.971,88.233 77.311,85.491 		"/>
	</g>
</g>
<g id="engineer_manager">
</g>
<g id="entreprenuer">
</g>
<g id="it-consultant">
</g>
<g id="manajemen_operasional">
</g>
<g id="public_relation">
</g>
<g id="teknopreneur">
</g>
<g id="trader2">
</g>
</svg>
