<?xml version="1.0" encoding="utf-8"?>
<!-- Generator: Adobe Illustrator 16.0.4, SVG Export Plug-In . SVG Version: 6.00 Build 0)  -->
<!DOCTYPE svg PUBLIC "-//W3C//DTD SVG 1.0//EN" "http://www.w3.org/TR/2001/REC-SVG-20010904/DTD/svg10.dtd">
<svg version="1.0" xmlns="http://www.w3.org/2000/svg" xmlns:xlink="http://www.w3.org/1999/xlink" x="0px" y="0px"
	 width="146.624px" height="500px" viewBox="0 0 146.624 500" enable-background="new 0 0 146.624 500" xml:space="preserve">
<g id="advokat">
</g>
<g id="arsitek">
</g>
<g id="creativeprenuer">
</g>
<g id="diplomat">
</g>
<g id="engineer_manager">
</g>
<g id="entreprenuer">
</g>
<g id="it-consultant">
	<g>
		<line fill="none" stroke="#231F20" stroke-miterlimit="10" x1="17.4" y1="301.097" x2="17.4" y2="301.097"/>
		<g>
			<g>
				<path fill="#00557F" d="M29.245,264.929h88.151v215.125c0,10.943-8.87,19.814-19.813,19.814l0,0
					c-10.944,0-19.814-8.871-19.814-19.814V310.22l0.022-1.186v-3.328c0-2.469-2.001-4.469-4.471-4.469l0,0
					c-2.467,0-4.469,2-4.469,4.469v3.328l0.021,2.264v168.756c0,10.943-8.872,19.814-19.814,19.814l0,0
					c-10.943,0-19.813-8.871-19.813-19.814V264.929"/>
			</g>
		</g>
		<path fill="#323031" d="M141.961,171.927v-15.095c0-19.652-15.932-35.583-35.585-35.583H40.27
			c-19.652,0-35.583,15.931-35.583,35.583v16.711l-0.004,0.809v17.589h19.419v-0.96v-18.398c0-0.392,0.317-0.707,0.707-0.707
			c0.392,0,0.709,0.315,0.709,0.707v18.398l-0.014,9.528l-0.002,56.101c0,6.761,5.48,12.242,12.24,12.242h71.155
			c6.761,0,12.24-5.481,12.24-12.242V200.51l-0.027-9.528v-18.398c0-0.392,0.319-0.707,0.706-0.707c0.393,0,0.708,0.315,0.708,0.707
			v18.398v1.163h19.438v-17.792L141.961,171.927z"/>
		<path fill="#004869" d="M72.994,290.837c-12.483,0.023-22.602,10.15-22.602,22.643v177.922c0,2.906,0.568,5.678,1.566,8.231
			c9.565-1.407,16.914-9.624,16.914-19.579V311.298l-0.021-2.264v-3.328c0-2.469,2.002-4.469,4.469-4.469
			c2.47,0,4.471,2,4.471,4.469v3.328l-0.022,1.186v169.834c0,10.943,8.87,19.814,19.814,19.814c10.943,0,19.813-8.871,19.813-19.814
			V264.929H72.994V290.837z"/>
		<path fill="#231F20" d="M121.138,200.51l-0.029-9.528l0.002-18.398c0-0.392,0.319-0.707,0.706-0.707
			c0.393,0,0.708,0.315,0.708,0.707v18.398v1.163h19.438v-17.792l-0.002-2.425v-15.095c0-19.652-15.932-35.583-35.585-35.583H72.975
			v147.604h35.923c6.761,0,12.24-5.481,12.24-12.242V200.51z"/>
		<path fill="#231F20" d="M71.012,500c-0.045-11.434-9.316-20.688-20.758-20.688H20.758C9.319,479.312,0.041,488.566,0,500H71.012z"
			/>
		<path fill="#231F20" d="M146.624,500c-0.039-11.434-9.312-20.688-20.758-20.688H96.377c-11.44,0-20.722,9.254-20.759,20.688
			H146.624z"/>
		<path fill="#FDCF9D" d="M143.142,264.55c-0.313-0.803-0.707-1.561-1.173-2.272v-0.583h-0.001l-0.006-4.247v-65.303h-19.438v65.234
			c0,0,0.076,2.174-1.079,4.316h0.001c-0.158,0.287-0.331,0.574-0.536,0.858c0,0-0.731,1.431-0.922,1.877
			c-0.608,1.427-0.902,3.016-0.902,4.665v2.26l-0.016,7.926v10.602c0,1.555,1.257,2.814,2.811,2.814c1.556,0,2.815-1.26,2.815-2.814
			v-10.602v-2.609c0-0.566,0.455-1.021,1.018-1.021c0.565,0,1.021,0.454,1.021,1.021v23.146c1.479,0.619,3.104,0.963,4.808,0.963
			c6.881,0,12.457-5.576,12.457-12.456v-19.229C143.998,267.492,143.694,265.958,143.142,264.55z"/>
		<path fill="#FFD9A1" d="M27.541,271.355v-2.26c0-1.649-0.289-3.238-0.902-4.665c-0.19-0.446-0.919-1.877-0.919-1.877
			c-0.206-0.284-0.38-0.571-0.535-0.858c-1.158-2.143-1.083-4.316-1.083-4.316v-65.234H4.683v66.163l-0.021,3.388l-0.005,0.583
			c-0.463,0.712-0.857,1.47-1.171,2.272c-0.553,1.408-0.856,2.941-0.856,4.545v19.229c0,6.88,5.576,12.456,12.456,12.456
			c1.706,0,3.33-0.344,4.808-0.963v-23.146c0-0.566,0.456-1.021,1.021-1.021c0.562,0,1.021,0.454,1.021,1.021l-0.004,2.609v10.602
			c0,1.555,1.262,2.814,2.816,2.814c1.556,0,2.814-1.26,2.814-2.814v-10.602L27.541,271.355z"/>
		<path fill="#E5BD90" d="M56.256,121.249v4.247c0,9.231,7.484,16.715,16.715,16.715c9.232,0,16.714-7.484,16.714-16.715v-4.247
			H56.256z"/>
		<g>
			<path fill="#FFD9A1" d="M45.804,80.813c0,4.119-3.34,7.459-7.458,7.459l0,0c-4.12,0-7.463-3.34-7.463-7.459v-6.176
				c0-4.12,3.343-7.459,7.463-7.459l0,0c4.118,0,7.458,3.339,7.458,7.459V80.813z"/>
			<path fill="#FDCF9D" d="M43.108,79.697c0,2.632-2.132,4.765-4.763,4.765l0,0c-2.633,0-4.768-2.133-4.768-4.765v-3.945
				c0-2.631,2.135-4.764,4.768-4.764l0,0c2.631,0,4.763,2.133,4.763,4.764V79.697z"/>
			<path fill="#E5BD90" d="M115.76,80.813c0,4.119-3.341,7.459-7.46,7.459l0,0c-4.12,0-7.462-3.34-7.462-7.459v-6.176
				c0-4.12,3.342-7.459,7.462-7.459l0,0c4.119,0,7.46,3.339,7.46,7.459V80.813z"/>
			<path fill="#DBB58A" d="M113.064,79.698c0,2.631-2.132,4.764-4.765,4.764l0,0c-2.63,0-4.767-2.133-4.767-4.764v-3.946
				c0-2.631,2.137-4.764,4.767-4.764l0,0c2.633,0,4.765,2.133,4.765,4.764V79.698z"/>
			<path fill="#FFD9A1" d="M73.322,16.633c-20.102,0-36.393,16.295-36.393,36.392v24.263c0,15.437,9.617,28.62,23.182,33.91v14.614
				c0,7.294,5.914,13.21,13.211,13.21c7.294,0,13.208-5.917,13.208-13.21v-14.614c13.565-5.288,23.183-18.471,23.183-33.91V53.025
				C109.713,32.928,93.42,16.633,73.322,16.633z"/>
			<path fill="#FDCF9D" d="M109.642,50.84c-0.013-0.219-0.032-0.437-0.05-0.656c-0.039-0.517-0.091-1.033-0.151-1.544
				c-0.027-0.229-0.057-0.458-0.088-0.686c-0.078-0.56-0.17-1.118-0.274-1.672c-0.027-0.146-0.047-0.291-0.078-0.435
				c-0.139-0.702-0.301-1.395-0.479-2.083c-0.033-0.127-0.074-0.253-0.107-0.38c-0.155-0.562-0.319-1.117-0.5-1.667
				c-0.061-0.183-0.123-0.363-0.184-0.544c-0.184-0.526-0.375-1.047-0.581-1.564c-0.057-0.14-0.109-0.282-0.168-0.423
				c-0.547-1.327-1.167-2.614-1.861-3.857c-0.051-0.092-0.105-0.184-0.156-0.275c-0.309-0.541-0.631-1.075-0.966-1.597
				c-0.059-0.092-0.118-0.184-0.175-0.275c-1.197-1.831-2.551-3.549-4.045-5.132c-0.034-0.035-0.065-0.069-0.099-0.102
				c-2.045-2.147-4.345-4.046-6.86-5.645c-0.012-0.008-0.025-0.016-0.037-0.023l-0.913-0.563c-5.431-3.226-11.77-5.083-18.545-5.083
				c-0.119,0-0.236,0.008-0.354,0.009v122.362c0.118,0.003,0.235,0.018,0.354,0.018c7.294,0,13.208-5.917,13.208-13.21v-14.614
				c13.564-5.288,23.183-18.471,23.183-33.91V53.025C109.714,52.291,109.687,51.564,109.642,50.84z"/>
			<g>
				<path fill="#3B2314" d="M108.278,86.299c-0.149,0.627-0.284,1.19-0.397,1.626C108.025,87.386,108.168,86.846,108.278,86.299z"/>
				<path fill="#3B2314" d="M100.649,24.518c0,0,4.918-9.502-3.438-14.219c0,0-52.5-17.59-62.812,26.284
					c0,0-0.672,16.039,1.148,27.158c0,0,1.01,15.164,3.032,23.454c0,0-3.032-16.781,4.043-25.273c0,0,7.076-7.076,3.032-14.557
					c0,0,0.077-0.311,0.247-0.831c20.917-0.45,39.988-8.267,39.988-8.267c-2.83,4.649-24.263,8.491-24.263,8.491
					c32.958-1.213,35.99-12.536,35.99-12.536s6.671,7.279,6.874,14.355c0,0-4.448,6.468,0.202,12.333c0,0,6.034,13.312,3.585,25.389
					c1.058-4.525,3.086-22.558,3.086-22.558S119.048,30.65,100.649,24.518z"/>
				<path fill="#3B2314" d="M107.881,87.925c-0.117,0.431-0.215,0.866-0.356,1.291C107.524,89.216,107.664,88.755,107.881,87.925z"
					/>
			</g>
			<path fill="#3B2314" d="M34.398,36.583c0,0-0.064-25.55,12.223-36.583c0,0-6.52,7.021,28.838,6.771L34.398,36.583z"/>
		</g>
		<polygon fill="#3B2314" points="79.474,96.995 72.969,99.467 66.465,96.995 		"/>
		<polygon fill="#E5BD90" points="72.969,70.644 72.969,88.233 77.309,85.491 		"/>
		<circle fill="#3B2314" cx="58.293" cy="67.178" r="3.234"/>
		<circle fill="#3B2314" cx="88.351" cy="67.178" r="3.236"/>
	</g>
</g>
<g id="manajemen_operasional">
</g>
<g id="public_relation">
</g>
<g id="teknopreneur">
</g>
<g id="trader2">
</g>
</svg>
