<?xml version="1.0" encoding="utf-8"?>
<!-- Generator: Adobe Illustrator 16.0.4, SVG Export Plug-In . SVG Version: 6.00 Build 0)  -->
<!DOCTYPE svg PUBLIC "-//W3C//DTD SVG 1.0//EN" "http://www.w3.org/TR/2001/REC-SVG-20010904/DTD/svg10.dtd">
<svg version="1.0" xmlns="http://www.w3.org/2000/svg" xmlns:xlink="http://www.w3.org/1999/xlink" x="0px" y="0px"
	 width="146.464px" height="490.426px" viewBox="0 0 146.464 490.426" enable-background="new 0 0 146.464 490.426"
	 xml:space="preserve">
<g id="advokat">
</g>
<g id="arsitek">
</g>
<g id="creativeprenuer">
</g>
<g id="diplomat">
</g>
<g id="engineer_manager">
</g>
<g id="entreprenuer">
</g>
<g id="it-consultant">
</g>
<g id="manajemen_operasional">
</g>
<g id="public_relation">
	<g>
		<path fill="#3B2314" d="M115.807,97.748c0,23.645-19.169,42.814-42.816,42.814l0,0c-23.645,0-42.814-19.17-42.814-42.814V42.815
			C30.176,19.167,49.346,0,72.99,0l0,0c23.647,0,42.816,19.167,42.816,42.815V97.748z"/>
		<path fill="#FFD9A1" d="M29.213,470.504c0,10.932,8.86,19.793,19.792,19.793c10.931,0,19.792-8.861,19.792-19.793v-99.362H29.213
			V470.504z"/>
		<path fill="#FDCF9D" d="M68.797,470.504v-99.362H50.338v110.697c0,2.903,0.566,5.671,1.565,8.222
			C61.457,488.654,68.797,480.447,68.797,470.504z"/>
		<path fill="#FDCF9D" d="M77.684,371.142v99.362c0,10.932,8.861,19.793,19.792,19.793c10.932,0,19.792-8.861,19.792-19.793v-99.362
			H77.684z"/>
		<polygon fill="#323031" points="29.213,255.621 29.213,371.142 68.797,371.142 77.684,371.142 117.268,371.142 117.268,255.621 		
			"/>
		<path fill="#FFFFFF" d="M24.075,248.079v-66.323v-18.378c0-0.392,0.317-0.707,0.708-0.707s0.707,0.315,0.707,0.707v18.378
			l-0.014,9.517l-0.002,56.042c0,6.751,5.475,12.227,12.227,12.227h71.078c6.753,0,12.227-5.476,12.227-12.227v-56.042l-0.027-9.517
			v-18.378c0-0.392,0.318-0.707,0.707-0.707c0.392,0,0.705,0.315,0.705,0.707v18.378v66.323c0,0,0.076,2.172-1.078,4.312h20.501
			l-0.006-4.241v-83.005l-0.002-2.423v-15.078c0-19.631-15.913-35.544-35.546-35.544H40.228c-19.632,0-35.544,15.914-35.544,35.544
			v16.692l-0.004,0.809v83.862l-0.021,3.384h20.5C24.001,250.251,24.075,248.079,24.075,248.079z"/>
		<line fill="none" stroke="#231F20" stroke-miterlimit="10" x1="17.383" y1="291.75" x2="17.383" y2="291.75"/>
		<path fill="#FDCF9D" d="M120.777,253.249c0,0-0.73,1.429-0.92,1.875c-0.609,1.425-0.902,3.012-0.902,4.659v2.256l-0.016,7.918
			v10.592c0,1.551,1.256,2.81,2.809,2.81s2.812-1.259,2.812-2.81v-10.592v-2.606c0-0.565,0.454-1.02,1.016-1.02
			c0.564,0,1.02,0.454,1.02,1.02v23.121c1.477,0.618,3.101,0.963,4.801,0.963c6.875,0,12.444-5.569,12.444-12.442v-19.209
			c0-1.603-0.303-3.133-0.855-4.54c-0.312-0.803-0.706-1.56-1.172-2.271v-0.582h-20.501
			C121.154,252.678,120.982,252.965,120.777,253.249z"/>
		<path fill="#FFD9A1" d="M3.482,255.243c-0.552,1.407-0.854,2.938-0.854,4.54v19.209c0,6.873,5.569,12.442,12.442,12.442
			c1.704,0,3.326-0.345,4.803-0.963v-23.121c0-0.565,0.455-1.02,1.019-1.02c0.562,0,1.02,0.454,1.02,1.02l-0.004,2.606v10.592
			c0,1.551,1.261,2.81,2.812,2.81c1.555,0,2.813-1.259,2.813-2.81v-10.592l-0.021-7.918v-2.256c0-1.647-0.289-3.234-0.901-4.659
			c-0.19-0.446-0.919-1.875-0.919-1.875c-0.205-0.284-0.379-0.571-0.533-0.858h-20.5l-0.004,0.582
			C4.19,253.684,3.797,254.44,3.482,255.243z"/>
		<path fill="#231F20" d="M125.728,469.763h-8.798c0.021,0.313,0.047,0.626,0.047,0.943v1.415c0,7.137-5.787,12.926-12.926,12.926
			H90.521c-4.787,0-8.959-2.613-11.193-6.482c-2.371,3.356-3.777,7.444-3.793,11.861h70.929
			C146.423,479.006,137.16,469.763,125.728,469.763z"/>
		<path fill="#231F20" d="M20.735,469.763h8.797c-0.021,0.313-0.047,0.626-0.047,0.943v1.415c0,7.137,5.788,12.926,12.925,12.926
			h13.531c4.789,0,8.959-2.613,11.193-6.482c2.369,3.356,3.779,7.444,3.795,11.861H0C0.041,479.006,9.305,469.763,20.735,469.763z"
			/>
		<path fill="#FFD9A1" d="M45.754,71.728c0,4.114-3.334,7.449-7.448,7.449l0,0c-4.116,0-7.455-3.335-7.455-7.449v-6.171
			c0-4.114,3.339-7.45,7.455-7.45l0,0c4.114,0,7.448,3.335,7.448,7.45V71.728z"/>
		<path fill="#FDCF9D" d="M43.063,70.609c0,2.628-2.131,4.762-4.758,4.762l0,0c-2.63,0-4.763-2.133-4.763-4.762v-3.938
			c0-2.629,2.133-4.758,4.763-4.758l0,0c2.627,0,4.758,2.129,4.758,4.758V70.609z"/>
		<path fill="#E5BD90" d="M115.632,71.728c0,4.114-3.335,7.449-7.45,7.449l0,0c-4.115,0-7.453-3.335-7.453-7.449v-6.171
			c0-4.114,3.338-7.45,7.453-7.45l0,0c4.115,0,7.45,3.335,7.45,7.45V71.728z"/>
		<path fill="#DBB58A" d="M112.941,70.612c0,2.625-2.131,4.759-4.76,4.759l0,0c-2.628,0-4.761-2.133-4.761-4.759v-3.941
			c0-2.629,2.133-4.758,4.761-4.758l0,0c2.629,0,4.76,2.129,4.76,4.758V70.612z"/>
		<polygon fill="#231F20" points="72.896,371.142 77.684,371.142 117.268,371.142 117.268,255.621 72.896,255.621 		"/>
		<path fill="#F1F1F2" d="M141.808,165.145l-0.002-2.423v-15.078c0-19.631-15.913-35.544-35.546-35.544H72.895v147.442h35.885
			c6.753,0,12.227-5.476,12.227-12.227v-56.042l-0.029-9.517l0.002-18.378c0-0.392,0.318-0.707,0.707-0.707
			c0.392,0,0.705,0.315,0.705,0.707v18.378v66.323c0,0,0.076,2.172-1.078,4.312h20.501l-0.006-4.241V165.145z"/>
		<path fill="#FFD9A1" d="M73.243,7.617c-20.078,0-36.351,16.277-36.351,36.353v24.234c0,15.418,9.604,28.586,23.155,33.872v14.599
			c0,7.286,5.905,13.194,13.195,13.194c7.286,0,13.193-5.908,13.193-13.194v-14.599c13.55-5.282,23.156-18.451,23.156-33.872V43.97
			C109.593,23.894,93.32,7.617,73.243,7.617z"/>
		<path fill="#FDCF9D" d="M72.893,129.853c0.115,0.003,0.232,0.017,0.352,0.017c7.285,0,13.193-5.908,13.193-13.194v-14.599
			c13.55-5.282,23.156-18.451,23.156-33.872V43.97c0-12.916-6.739-24.251-16.889-30.698H72.893V129.853z"/>
		<path fill="#3B2314" d="M61.461,58.107c0,1.783-1.448,3.229-3.23,3.229c-1.787,0-3.232-1.446-3.232-3.229
			c0-1.787,1.445-3.231,3.232-3.231C60.013,54.876,61.461,56.32,61.461,58.107z"/>
		<path fill="#3B2314" d="M91.486,58.107c0,1.783-1.449,3.229-3.231,3.229c-1.787,0-3.23-1.446-3.23-3.229
			c0-1.787,1.443-3.231,3.23-3.231C90.037,54.876,91.486,56.32,91.486,58.107z"/>
		<polygon fill="#E5BD90" points="72.891,61.54 72.891,79.11 77.226,76.372 		"/>
		<polygon fill="#EC1C24" points="79.388,87.871 72.891,90.341 66.392,87.871 		"/>
		<path fill="#3B2314" d="M64.115,49.877c0,0.474-0.387,0.858-0.859,0.858H52.754c-0.474,0-0.858-0.385-0.858-0.858l0,0
			c0-0.473,0.385-0.858,0.858-0.858h10.502C63.729,49.019,64.115,49.404,64.115,49.877L64.115,49.877z"/>
		<path fill="#3B2314" d="M94.205,49.877c0,0.474-0.384,0.858-0.855,0.858H82.846c-0.474,0-0.859-0.385-0.859-0.858l0,0
			c0-0.473,0.386-0.858,0.859-0.858H93.35C93.821,49.019,94.205,49.404,94.205,49.877L94.205,49.877z"/>
		<path fill="#3B2314" d="M97.225,28.072c0,0-7.269,14.743-33.119,14.743c0,0,18.378-5.251,23.428-13.935
			c0,0-19.389,11.713-35.547,13.732c0,0-14.441-2.14-13.681,32.758c0,0,1.161-18.016-3.687-17.611l0.809-29.083l23.83-23.023
			L82.281,5.25l24.235,16.156l6.059,34.939c0,0-3.231,3.636-3.231,14.339c0,0-2.827-19.792-2.827-28.879
			C106.517,41.806,106.111,30.293,97.225,28.072z"/>
		<path fill="#FDCF9D" d="M122.391,243.026v5.053c0,0,0.076,2.172-1.078,4.312h20.501l-0.006-4.241v-5.123H122.391z"/>
		<path fill="#FFD9A1" d="M24.075,248.079v-45.131H4.68v46.059l-0.021,3.384h20.5C24.001,250.251,24.075,248.079,24.075,248.079z"/>
		<path fill="#921A1D" d="M121.006,266.453v-75.18l-0.029-9.517l0.002-18.378c0-0.392,0.318-0.707,0.707-0.707
			c0.392,0,0.705,0.315,0.705,0.707v18.378v66.323c0,0,0.076,2.172-1.078,4.312h20.501l-0.006-4.241v-83.005l-0.002-2.423v-15.078
			c0-19.631-15.913-35.544-35.546-35.544l-17.957-0.03l-15.408,93.265v61.12H121.006z"/>
		<path fill="#A61E22" d="M24.069,248.079v-66.323v-18.378c0-0.392,0.315-0.707,0.708-0.707c0.387,0,0.705,0.315,0.705,0.707
			l0.002,18.378l-0.029,9.517v75.18h48.111v-61.12l-15.408-93.265l-17.958,0.03c-19.632,0-35.544,15.914-35.544,35.544v15.078
			l-0.002,2.423v83.005l-0.006,4.241h20.5C23.993,250.251,24.069,248.079,24.069,248.079z"/>
		<polygon fill="#FFD9A1" points="87.426,117.632 72.893,155.098 59.359,117.632 		"/>
		<polygon fill="#FDCF9D" points="85.422,132.233 72.893,155.277 72.893,112.069 86.418,112.069 		"/>
		<polygon fill="#681310" points="73.023,204.498 96.402,161.916 83.711,148.389 102.08,146.886 95.734,137.033 83.711,145.383 		
			"/>
		<polygon fill="#7E1617" points="72.898,205.333 95.816,159.16 85.046,147.221 102.831,145.634 89.055,112.486 86.418,112.069 
			87.049,117.83 		"/>
		<polygon fill="#7E1617" points="73.438,204.498 50.061,161.916 62.75,148.389 44.382,146.886 50.727,137.033 62.75,145.383 		"/>
		<polygon fill="#921A1D" points="73.562,205.333 50.644,159.16 61.414,147.221 43.631,145.634 57.406,112.486 60.043,112.069 
			59.41,117.83 		"/>
		<polygon fill="#E6E7E8" points="106.832,136.554 92.827,129.603 73.586,155.098 90.363,122.589 		"/>
		<polygon fill="#F1F1F2" points="86.449,105.838 106.896,136.616 92.367,127.098 73.759,155.152 86.449,118.196 		"/>
		<polygon fill="#E6E7E8" points="39.646,136.554 53.652,129.603 72.893,155.098 56.115,122.589 		"/>
		<polygon fill="#F1F1F2" points="60.029,105.838 39.583,136.616 54.111,127.098 72.72,155.152 60.029,118.196 		"/>
	</g>
</g>
<g id="teknopreneur">
</g>
<g id="trader2">
</g>
</svg>
