<?xml version="1.0" encoding="utf-8"?>
<!-- Generator: Adobe Illustrator 16.0.4, SVG Export Plug-In . SVG Version: 6.00 Build 0)  -->
<!DOCTYPE svg PUBLIC "-//W3C//DTD SVG 1.0//EN" "http://www.w3.org/TR/2001/REC-SVG-20010904/DTD/svg10.dtd">
<svg version="1.0" xmlns="http://www.w3.org/2000/svg" xmlns:xlink="http://www.w3.org/1999/xlink" x="0px" y="0px"
	 width="146.623px" height="499.546px" viewBox="0 0 146.623 499.546" enable-background="new 0 0 146.623 499.546"
	 xml:space="preserve">
<g id="advokat">
</g>
<g id="arsitek">
	<g>
		<g>
			<g>
				<path fill="#003660" d="M29.244,264.476h88.152v215.125c0,10.943-8.871,19.814-19.814,19.814l0,0
					c-10.943,0-19.814-8.871-19.814-19.814V309.767l0.021-1.186v-3.328c0-2.469-2-4.469-4.469-4.469l0,0c-2.468,0-4.47,2-4.47,4.469
					v3.328l0.021,2.264v168.756c0,10.943-8.87,19.814-19.813,19.814l0,0c-10.943,0-19.814-8.871-19.814-19.814V264.476"/>
			</g>
			<path fill="#002B52" d="M72.994,290.384c-12.483,0.023-22.602,10.15-22.602,22.643v177.922c0,2.906,0.568,5.678,1.565,8.232
				c9.565-1.408,16.914-9.625,16.914-19.58V310.845l-0.021-2.264v-3.328c0-2.469,2.002-4.469,4.47-4.469
				c2.469,0,4.469,2,4.469,4.469v3.328l-0.021,1.186v169.834c0,10.943,8.871,19.814,19.814,19.814s19.814-8.871,19.814-19.814
				V264.476H72.994V290.384z"/>
			<path fill="#231F20" d="M71.012,499.546c-0.045-11.434-9.317-20.688-20.758-20.688H20.758c-11.438,0-20.717,9.254-20.758,20.688
				H71.012z"/>
			<path fill="#231F20" d="M146.623,499.546c-0.039-11.434-9.312-20.688-20.758-20.688h-29.49c-11.438,0-20.721,9.254-20.758,20.688
				H146.623z"/>
			<path fill="#FFFFFF" d="M24.102,256.925v-66.396V172.13c0-0.392,0.316-0.707,0.707-0.707c0.392,0,0.709,0.315,0.709,0.707v18.398
				l-0.014,9.528l-0.002,56.101c0,6.762,5.479,12.242,12.24,12.242h71.155c6.761,0,12.24-5.48,12.24-12.242v-56.101l-0.027-9.528
				V172.13c0-0.392,0.319-0.707,0.708-0.707c0.391,0,0.707,0.315,0.707,0.707v18.398v66.396c0,0,0.076,2.174-1.08,4.316h20.523
				l-0.006-4.246v-83.096l-0.002-2.425v-15.095c0-19.652-15.932-35.583-35.584-35.583H40.27c-19.652,0-35.583,15.931-35.583,35.583
				v16.711l-0.004,0.809v83.956l-0.021,3.387h20.523C24.026,259.099,24.102,256.925,24.102,256.925z"/>
			<line fill="none" stroke="#231F20" stroke-miterlimit="10" x1="17.4" y1="300.644" x2="17.4" y2="300.644"/>
			<path fill="#FDCF9D" d="M120.908,262.101c0,0-0.73,1.43-0.92,1.877c-0.609,1.426-0.903,3.016-0.903,4.664v2.26l-0.016,7.926
				v10.602c0,1.555,1.257,2.814,2.812,2.814s2.814-1.26,2.814-2.814v-10.602v-2.609c0-0.566,0.455-1.02,1.018-1.02
				c0.565,0,1.02,0.453,1.02,1.02v23.146c1.479,0.619,3.105,0.963,4.809,0.963c6.882,0,12.457-5.576,12.457-12.455v-19.23
				c0-1.604-0.303-3.137-0.855-4.545c-0.314-0.803-0.707-1.561-1.174-2.271v-0.584h-20.523
				C121.287,261.528,121.114,261.815,120.908,262.101z"/>
			<path fill="#FFD9A1" d="M3.485,264.097c-0.553,1.408-0.855,2.941-0.855,4.545v19.23c0,6.879,5.574,12.455,12.455,12.455
				c1.707,0,3.33-0.344,4.808-0.963v-23.146c0-0.566,0.457-1.02,1.021-1.02c0.562,0,1.02,0.453,1.02,1.02l-0.004,2.609v10.602
				c0,1.555,1.263,2.814,2.816,2.814c1.555,0,2.814-1.26,2.814-2.814v-10.602l-0.02-7.926v-2.26c0-1.648-0.289-3.238-0.902-4.664
				c-0.191-0.447-0.92-1.877-0.92-1.877c-0.205-0.285-0.379-0.572-0.534-0.859H4.661l-0.004,0.584
				C4.192,262.536,3.799,263.294,3.485,264.097z"/>
			<path fill="#F1F1F2" d="M141.963,173.899l-0.002-2.425v-15.095c0-19.652-15.932-35.583-35.584-35.583H72.975v147.604h35.923
				c6.761,0,12.24-5.48,12.24-12.242v-56.101l-0.029-9.528l0.002-18.398c0-0.392,0.319-0.707,0.708-0.707
				c0.391,0,0.707,0.315,0.707,0.707v18.398v66.396c0,0,0.076,2.174-1.08,4.316h20.523l-0.006-4.246V173.899z"/>
			<polygon fill="#BE1E2D" points="76.06,146.864 72.975,146.864 69.889,146.864 62.991,248.392 72.975,255.608 82.96,248.392 			
				"/>
			<g>
				<path fill="#FFD9A1" d="M45.804,80.36c0,4.119-3.34,7.459-7.458,7.459l0,0c-4.12,0-7.463-3.34-7.463-7.459v-6.176
					c0-4.12,3.343-7.459,7.463-7.459l0,0c4.118,0,7.458,3.339,7.458,7.459V80.36z"/>
				<path fill="#FDCF9D" d="M43.108,79.243c0,2.632-2.132,4.765-4.763,4.765l0,0c-2.633,0-4.77-2.133-4.77-4.765v-3.945
					c0-2.631,2.137-4.764,4.77-4.764l0,0c2.631,0,4.763,2.133,4.763,4.764V79.243z"/>
				<path fill="#E5BD90" d="M115.76,80.36c0,4.119-3.34,7.459-7.459,7.459l0,0c-4.121,0-7.463-3.34-7.463-7.459v-6.176
					c0-4.12,3.342-7.459,7.463-7.459l0,0c4.119,0,7.459,3.339,7.459,7.459V80.36z"/>
				<path fill="#DBB58A" d="M113.064,79.244c0,2.631-2.131,4.764-4.764,4.764l0,0c-2.631,0-4.768-2.133-4.768-4.764v-3.946
					c0-2.631,2.137-4.764,4.768-4.764l0,0c2.633,0,4.764,2.133,4.764,4.764V79.244z"/>
				<path fill="#FFD9A1" d="M73.322,16.179c-20.102,0-36.393,16.295-36.393,36.392v24.263c0,15.437,9.616,28.62,23.182,33.91v14.614
					c0,7.294,5.914,13.21,13.211,13.21c7.295,0,13.209-5.917,13.209-13.21v-14.614c13.564-5.288,23.182-18.471,23.182-33.91V52.571
					C109.713,32.474,93.422,16.179,73.322,16.179z"/>
				<path fill="#FDCF9D" d="M109.641,50.387c-0.012-0.219-0.031-0.437-0.049-0.656c-0.039-0.517-0.091-1.033-0.151-1.544
					c-0.028-0.229-0.058-0.458-0.089-0.686c-0.078-0.56-0.17-1.118-0.273-1.672c-0.027-0.146-0.047-0.291-0.078-0.435
					c-0.14-0.702-0.303-1.395-0.48-2.083c-0.033-0.127-0.074-0.253-0.107-0.38c-0.155-0.562-0.319-1.117-0.5-1.667
					c-0.061-0.183-0.123-0.363-0.184-0.544c-0.183-0.526-0.375-1.047-0.58-1.564c-0.057-0.14-0.11-0.282-0.169-0.423
					c-0.546-1.327-1.167-2.614-1.861-3.857c-0.051-0.092-0.105-0.184-0.156-0.275c-0.31-0.541-0.631-1.075-0.966-1.597
					c-0.059-0.092-0.117-0.184-0.174-0.275c-1.197-1.831-2.551-3.549-4.046-5.132c-0.034-0.035-0.065-0.069-0.099-0.102
					c-2.045-2.147-4.345-4.046-6.86-5.645c-0.012-0.008-0.025-0.016-0.037-0.023l-0.913-0.563c-5.43-3.226-11.77-5.083-18.545-5.083
					c-0.119,0-0.236,0.008-0.354,0.009V138.55c0.117,0.003,0.234,0.018,0.354,0.018c7.295,0,13.209-5.917,13.209-13.21v-14.614
					c13.564-5.288,23.182-18.471,23.182-33.91V52.571C109.713,51.837,109.686,51.111,109.641,50.387z"/>
				<g>
					<path fill="#3B2314" d="M108.278,85.846c-0.148,0.627-0.284,1.19-0.397,1.626C108.025,86.932,108.169,86.393,108.278,85.846z"
						/>
					<path fill="#3B2314" d="M100.65,24.064c0,0,0.262-8.792-8.094-13.508c0,0-47.847-18.301-58.158,25.573
						c0,0-0.672,16.039,1.148,27.158c0,0,1.01,15.164,3.031,23.454c0,0-3.031-16.781,4.044-25.273c0,0,7.076-7.076,3.033-14.557
						c0,0,0.076-0.311,0.246-0.831c20.918-0.45,39.989-8.267,39.989-8.267c-2.831,4.649-24.264,8.491-24.264,8.491
						c32.957-1.213,35.99-12.536,35.99-12.536s6.671,7.279,6.875,14.355c0,0-4.449,6.468,0.201,12.333
						c0,0,6.033,13.312,3.585,25.389c1.058-4.525,3.086-22.558,3.086-22.558S119.047,30.196,100.65,24.064z"/>
					<path fill="#3B2314" d="M107.881,87.472c-0.117,0.431-0.215,0.866-0.356,1.291C107.524,88.763,107.664,88.302,107.881,87.472z"
						/>
				</g>
			</g>
			<polygon fill="#3B2314" points="79.473,96.542 72.969,99.014 66.465,96.542 			"/>
			<path fill="#3B2314" d="M61.527,66.725c0,1.786-1.449,3.233-3.234,3.233c-1.789,0-3.234-1.447-3.234-3.233
				c0-1.787,1.445-3.235,3.234-3.235C60.078,63.489,61.527,64.938,61.527,66.725z"/>
			<circle fill="#3B2314" cx="88.351" cy="66.725" r="3.235"/>
			<polygon fill="#BE1E2D" points="76.086,147.207 69.865,147.207 66.25,138.576 79.697,138.576 			"/>
			<polygon fill="#B51C2A" points="72.975,146.864 72.969,146.864 72.969,255.604 72.975,255.608 82.96,248.392 76.06,146.864 			
				"/>
			<polygon fill="#B51C2A" points="72.969,147.207 76.086,147.207 79.697,138.576 72.969,138.576 			"/>
			<polygon fill="#E6E7E8" points="90.352,176.526 90.352,200.951 101.179,205.187 112.006,200.951 112.006,176.526 			"/>
			<path fill="#FDCF9D" d="M122.525,191.691v65.233c0,0,0.076,2.174-1.08,4.316h20.523l-0.006-4.246v-65.304H122.525z"/>
			<path fill="#FFD9A1" d="M24.102,256.925v-65.233H4.683v66.163l-0.021,3.387h20.523C24.026,259.099,24.102,256.925,24.102,256.925
				z"/>
			<polygon fill="#E5BD90" points="72.97,70.19 72.97,87.779 77.309,85.038 			"/>
			<path fill="#F1F1F2" d="M60.09,115.425c0,0-12.538,9.737-7.272,32.556c0,0,5.768-13.29,17.303-9.779
				c0,0-9.091-2.069-10.03-12.287V115.425z"/>
			<path fill="#E6E7E8" d="M86.508,115.425c0,0,12.538,9.737,7.271,32.556c0,0-5.768-13.29-17.303-9.779
				c0,0,9.09-2.069,10.031-12.287V115.425z"/>
		</g>
		<g>
			<g>
				<path fill="#FFCE1C" d="M72.972,2.46c-23.08,0-41.785,18.709-41.785,41.783v8.896h83.565v-8.896
					C114.752,21.17,96.046,2.46,72.972,2.46z"/>
				<rect x="28.859" y="50.949" fill="#FFC121" width="88.219" height="4.313"/>
			</g>
			<path fill="#FFC121" d="M75.531,27.631c0,1.414-1.146,2.561-2.562,2.561l0,0c-1.415,0-2.563-1.147-2.563-2.561V2.56
				c0-1.412,1.148-2.56,2.563-2.56l0,0c1.415,0,2.562,1.148,2.562,2.56V27.631z"/>
			<path fill="#FFC121" d="M59.357,30.867c0,1.414-1.148,2.561-2.562,2.561l0,0c-1.416,0-2.562-1.147-2.562-2.561V5.796
				c0-1.414,1.146-2.561,2.562-2.561l0,0c1.414,0,2.562,1.147,2.562,2.561V30.867z"/>
			<path fill="#FFC121" d="M91.705,30.867c0,1.414-1.146,2.561-2.562,2.561l0,0c-1.414,0-2.561-1.147-2.561-2.561V5.796
				c0-1.414,1.146-2.561,2.561-2.561l0,0c1.416,0,2.562,1.147,2.562,2.561V30.867z"/>
		</g>
	</g>
</g>
<g id="creativeprenuer">
</g>
<g id="diplomat">
</g>
<g id="engineer_manager">
</g>
<g id="entreprenuer">
</g>
<g id="it-consultant">
</g>
<g id="manajemen_operasional">
</g>
<g id="public_relation">
</g>
<g id="teknopreneur">
</g>
<g id="trader2">
</g>
</svg>
