<?xml version="1.0" encoding="utf-8"?>
<!-- Generator: Adobe Illustrator 16.0.4, SVG Export Plug-In . SVG Version: 6.00 Build 0)  -->
<!DOCTYPE svg PUBLIC "-//W3C//DTD SVG 1.0//EN" "http://www.w3.org/TR/2001/REC-SVG-20010904/DTD/svg10.dtd">
<svg version="1.0" xmlns="http://www.w3.org/2000/svg" xmlns:xlink="http://www.w3.org/1999/xlink" x="0px" y="0px"
	 width="146.463px" height="490.426px" viewBox="0 0 146.463 490.426" enable-background="new 0 0 146.463 490.426"
	 xml:space="preserve">
<g id="advokat">
</g>
<g id="arsitek">
</g>
<g id="creativeprenuer">
</g>
<g id="diplomat">
</g>
<g id="engineer_manager">
</g>
<g id="entreprenuer">
</g>
<g id="it-consultant">
	<g>
		<g>
			<g>
				<g>
					<path fill="#00557F" d="M29.211,255.615h88.055v214.89c0,10.931-8.861,19.792-19.791,19.792l0,0
						c-10.933,0-19.793-8.861-19.793-19.792V300.856l0.021-1.186v-3.323c0-2.466-1.998-4.465-4.464-4.465l0,0
						c-2.466,0-4.466,1.999-4.466,4.465v3.323l0.021,2.263v168.571c0,10.931-8.861,19.792-19.792,19.792l0,0
						c-10.931,0-19.792-8.861-19.792-19.792V255.615"/>
				</g>
			</g>
			<path fill="#004869" d="M72.912,281.495c-12.469,0.023-22.577,10.139-22.577,22.617v177.728c0,2.903,0.567,5.671,1.563,8.223
				c9.557-1.407,16.896-9.614,16.896-19.558V301.933l-0.021-2.263v-3.323c0-2.466,2-4.465,4.466-4.465s4.464,1.999,4.464,4.465
				v3.323l-0.021,1.186v169.648c0,10.931,8.86,19.792,19.793,19.792c10.93,0,19.791-8.861,19.791-19.792v-214.89H72.912V281.495z"/>
		</g>
		<path fill="#3B2314" d="M115.806,97.748c0,23.645-19.168,42.814-42.815,42.814l0,0c-23.646,0-42.814-19.17-42.814-42.814V42.815
			C30.176,19.167,49.345,0,72.99,0l0,0c23.647,0,42.815,19.167,42.815,42.815V97.748z"/>
		<path fill="#FFD9A1" d="M24.075,248.08v-66.324v-18.378c0-0.392,0.317-0.707,0.707-0.707c0.391,0,0.708,0.315,0.708,0.707v18.378
			l-0.014,9.517l-0.002,56.04c0,6.753,5.474,12.229,12.227,12.229h71.077c6.755,0,12.228-5.476,12.228-12.229v-56.04l-0.027-9.517
			v-18.378c0-0.392,0.319-0.707,0.706-0.707c0.392,0,0.706,0.315,0.706,0.707v18.378v66.324c0,0,0.076,2.171-1.078,4.312h20.502
			l-0.006-4.242v-83.004l-0.004-2.423v-15.078c0-19.63-15.913-35.544-35.545-35.544H40.226c-19.63,0-35.543,15.914-35.543,35.544
			v16.693l-0.004,0.808v83.863l-0.021,3.384h20.5C24.001,250.25,24.075,248.08,24.075,248.08z"/>
		<line fill="none" stroke="#231F20" stroke-miterlimit="10" x1="17.383" y1="291.75" x2="17.383" y2="291.75"/>
		<path fill="#FDCF9D" d="M120.777,253.249c0,0-0.73,1.43-0.92,1.875c-0.609,1.426-0.902,3.013-0.902,4.66v2.256l-0.016,7.918v10.59
			c0,1.553,1.256,2.812,2.809,2.812s2.812-1.259,2.812-2.812v-10.59v-2.606c0-0.565,0.454-1.02,1.016-1.02
			c0.566,0,1.021,0.454,1.021,1.02v23.121c1.478,0.618,3.102,0.962,4.801,0.962c6.875,0,12.444-5.569,12.444-12.441v-19.209
			c0-1.603-0.304-3.134-0.855-4.541c-0.312-0.802-0.706-1.559-1.171-2.27v-0.582h-20.502
			C121.154,252.677,120.982,252.965,120.777,253.249z"/>
		<path fill="#FFD9A1" d="M3.482,255.243c-0.551,1.407-0.855,2.938-0.855,4.541v19.209c0,6.872,5.571,12.441,12.441,12.441
			c1.706,0,3.328-0.344,4.804-0.962v-23.121c0-0.565,0.456-1.02,1.02-1.02c0.562,0,1.019,0.454,1.019,1.02l-0.004,2.606v10.59
			c0,1.553,1.262,2.812,2.812,2.812c1.555,0,2.812-1.259,2.812-2.812v-10.59l-0.02-7.918v-2.256c0-1.647-0.289-3.234-0.902-4.66
			c-0.189-0.445-0.918-1.875-0.918-1.875c-0.205-0.283-0.379-0.571-0.534-0.857h-20.5l-0.004,0.582
			C4.189,253.684,3.797,254.441,3.482,255.243z"/>
		<path fill="#231F20" d="M125.729,469.763h-8.799c0.021,0.312,0.047,0.625,0.047,0.943v1.413c0,7.139-5.787,12.926-12.926,12.926
			H90.521c-4.787,0-8.96-2.612-11.194-6.48c-2.37,3.356-3.776,7.443-3.794,11.861h70.93
			C146.422,479.006,137.16,469.763,125.729,469.763z"/>
		<path fill="#231F20" d="M20.734,469.763h8.797c-0.021,0.312-0.047,0.625-0.047,0.943v1.413c0,7.139,5.789,12.926,12.926,12.926
			h13.532c4.788,0,8.958-2.612,11.192-6.48c2.368,3.356,3.779,7.443,3.795,11.861H0C0.041,479.006,9.305,469.763,20.734,469.763z"/>
		<path fill="#FDCF9D" d="M141.809,165.145l-0.004-2.423v-15.078c0-19.63-15.913-35.544-35.545-35.544H72.895v147.442h35.884
			c6.755,0,12.228-5.476,12.228-12.229v-56.04l-0.029-9.517l0.002-18.378c0-0.392,0.319-0.707,0.706-0.707
			c0.392,0,0.706,0.315,0.706,0.707v18.378v66.324c0,0,0.076,2.171-1.078,4.312h20.502l-0.006-4.242V165.145z"/>
		<path fill="#FDCF9D" d="M122.391,225.492v14.517c0,0,0.076,6.236-1.078,12.383h20.502l-0.006-12.184v-14.716H122.391z"/>
		<path fill="#FFD9A1" d="M24.075,248.08v-45.131H4.679v46.059l-0.021,3.384h20.5C24.001,250.25,24.075,248.08,24.075,248.08z"/>
		<path fill="#E5BD90" d="M56.196,112.099v4.242c0,9.221,7.478,16.696,16.698,16.696s16.693-7.475,16.693-16.696v-4.242H56.196z"/>
		<g>
			<path fill="#F1F1F2" d="M141.805,162.714v-15.078c0-19.63-15.913-35.544-35.545-35.544H40.226
				c-19.632,0-35.545,15.914-35.545,35.544v16.692l-0.004,0.809v7.551h19.398v-9.318c0-0.392,0.317-0.707,0.707-0.707
				c0.391,0,0.708,0.315,0.708,0.707v18.378l-0.014,9.517l-0.002,56.04c0,6.753,5.474,12.229,12.227,12.229h71.077
				c6.755,0,12.228-5.476,12.228-12.229v-56.04l-0.027-9.517V163.37c0-0.392,0.319-0.707,0.706-0.707
				c0.392,0,0.706,0.315,0.706,0.707v9.521h19.418v-7.753L141.805,162.714z"/>
			<path fill="#EAEBEC" d="M121.006,191.265l-0.029-9.517l0.002-18.378c0-0.392,0.319-0.707,0.706-0.707
				c0.392,0,0.706,0.315,0.706,0.707v9.521h19.418v-7.753l-0.004-2.423v-15.078c0-19.63-15.913-35.544-35.545-35.544H72.895v147.442
				h35.884c6.755,0,12.228-5.476,12.228-12.229V191.265z"/>
		</g>
		<path fill="#FFD9A1" d="M56.196,112.099v4.242c0,9.221,7.478,16.696,16.698,16.696s16.693-7.475,16.693-16.696v-4.242H56.196z"/>
		<polygon fill="#FFD9A1" points="87.973,123.518 72.893,149.638 57.812,123.518 		"/>
		<path fill="#FDCF9D" d="M72.893,133.037h0.002c9.221,0,16.693-7.475,16.693-16.696v-4.242H72.893V133.037z"/>
		<polygon fill="#FDCF9D" points="72.893,149.638 87.973,123.518 72.893,123.518 		"/>
		<path fill="#E5BD90" d="M115.632,71.727c0,4.114-3.335,7.45-7.45,7.45l0,0c-4.115,0-7.454-3.335-7.454-7.45v-6.17
			c0-4.114,3.339-7.45,7.454-7.45l0,0c4.115,0,7.45,3.335,7.45,7.45V71.727z"/>
		<path fill="#DBB58A" d="M112.941,70.612c0,2.625-2.132,4.758-4.76,4.758l0,0c-2.628,0-4.761-2.133-4.761-4.758v-3.941
			c0-2.629,2.133-4.758,4.761-4.758l0,0c2.628,0,4.76,2.129,4.76,4.758V70.612z"/>
		<path fill="#FFD9A1" d="M45.754,71.727c0,4.114-3.334,7.45-7.449,7.45l0,0c-4.115,0-7.454-3.335-7.454-7.45v-6.17
			c0-4.114,3.339-7.45,7.454-7.45l0,0c4.115,0,7.449,3.335,7.449,7.45V71.727z"/>
		<path fill="#FDCF9D" d="M43.063,70.609c0,2.628-2.13,4.761-4.759,4.761l0,0c-2.629,0-4.761-2.133-4.761-4.761v-3.938
			c0-2.629,2.132-4.758,4.761-4.758l0,0c2.629,0,4.759,2.129,4.759,4.758V70.609z"/>
		<path fill="#FFD9A1" d="M73.243,7.618c-20.077,0-36.353,16.276-36.353,36.353v24.234c0,15.418,9.605,28.587,23.156,33.872v14.599
			c0,7.286,5.906,13.194,13.196,13.194c7.285,0,13.193-5.908,13.193-13.194v-14.599c13.55-5.281,23.156-18.451,23.156-33.872V43.97
			C109.593,23.894,93.318,7.618,73.243,7.618z"/>
		<path fill="#FDCF9D" d="M72.893,129.852c0.115,0.003,0.232,0.017,0.353,0.017c7.285,0,13.193-5.908,13.193-13.194v-14.599
			c13.55-5.281,23.156-18.451,23.156-33.872V43.97c0-12.916-6.739-24.251-16.888-30.698H72.893V129.852z"/>
		<path fill="#3B2314" d="M61.461,58.107c0,1.783-1.449,3.229-3.231,3.229c-1.786,0-3.232-1.446-3.232-3.229
			c0-1.787,1.446-3.231,3.232-3.231C60.012,54.876,61.461,56.32,61.461,58.107z"/>
		<path fill="#3B2314" d="M91.485,58.107c0,1.783-1.447,3.229-3.231,3.229c-1.786,0-3.23-1.446-3.23-3.229
			c0-1.787,1.444-3.231,3.23-3.231C90.038,54.876,91.485,56.32,91.485,58.107z"/>
		<polygon fill="#E5BD90" points="72.891,61.54 72.891,79.11 77.226,76.372 		"/>
		<polygon fill="#EC1C24" points="79.388,87.871 72.891,90.341 66.392,87.871 		"/>
		<path fill="#3B2314" d="M64.114,49.877c0,0.474-0.385,0.858-0.858,0.858H52.754c-0.474,0-0.859-0.384-0.859-0.858l0,0
			c0-0.473,0.386-0.858,0.859-0.858h10.502C63.729,49.019,64.114,49.404,64.114,49.877L64.114,49.877z"/>
		<path fill="#3B2314" d="M94.205,49.877c0,0.474-0.385,0.858-0.856,0.858H82.846c-0.473,0-0.859-0.384-0.859-0.858l0,0
			c0-0.473,0.387-0.858,0.859-0.858h10.503C93.82,49.019,94.205,49.404,94.205,49.877L94.205,49.877z"/>
		<path fill="#3B2314" d="M97.225,28.072c0,0-7.27,14.744-33.12,14.744c0,0,18.379-5.251,23.428-13.935
			c0,0-19.388,11.713-35.546,13.732c0,0-14.441-2.14-13.682,32.758c0,0,1.162-18.015-3.686-17.61l0.809-29.083L59.257,5.655
			L82.28,5.25l24.236,16.156l6.06,34.939c0,0-3.232,3.635-3.232,14.339c0,0-2.827-19.792-2.827-28.879
			C106.517,41.806,106.111,30.292,97.225,28.072z"/>
	</g>
</g>
<g id="manajemen_operasional">
</g>
<g id="public_relation">
</g>
<g id="teknopreneur">
</g>
<g id="trader2">
</g>
</svg>
